<?xml version="1.0" standalone="no"?>
<!DOCTYPE svg PUBLIC "-//W3C//DTD SVG 1.1//EN" "http://www.w3.org/Graphics/SVG/1.1/DTD/svg11.dtd" >
<svg>
<metadata>
Created by FontForge 20120731 at Tue Mar 15 19:25:15 2016
 By www
Copyright (c) 2008 Typodermic Fonts. This font is not freely distributable. Visit typodermic.com for more info.
</metadata>
<defs>
<font id="PresicavW00-Heavy" horiz-adv-x="379" >
  <font-face 
    font-family="PresicavW00-Heavy"
    font-weight="900"
    font-stretch="normal"
    units-per-em="1000"
    panose-1="2 11 9 5 5 0 0 2 0 4"
    ascent="800"
    descent="-200"
    x-height="578"
    cap-height="716"
    bbox="-103 -236 1550 1036"
    underline-thickness="50"
    underline-position="-125"
    unicode-range="U+0020-2260"
  />
<missing-glyph horiz-adv-x="551" 
d="M466 89q0 -89 -96 -89h-191q-95 0 -95 89v540q0 89 95 89h191q96 0 96 -89v-540zM179 670q-45 0 -45 -41v-540q0 -41 45 -41h191q45 0 45 41v540q0 41 -45 41h-191z" />
    <glyph glyph-name="copyright" unicode="&#x28;C&#x29;" horiz-adv-x="842" 
d="M803 362q0 -78 -29.5 -146t-80.5 -119t-120 -80.5t-147 -29.5t-146 29.5t-119 80.5t-80.5 119t-29.5 146t29.5 147t80.5 120t119 80.5t146 29.5t147 -29.5t120 -80.5t80.5 -120t29.5 -147zM722 362q0 61 -23 115t-63.5 94t-94.5 63t-115 23q-60 0 -113.5 -23t-93.5 -63
t-63 -94t-23 -115t23 -114.5t63 -93.5t93.5 -63t113.5 -23q61 0 115 23t94.5 63t63.5 93.5t23 114.5zM522 418q-4 15 -14 27.5t-23 21.5t-28.5 14t-30.5 5q-24 0 -43.5 -10t-33 -27t-21 -39.5t-7.5 -47.5t7.5 -47t21 -39t33 -27t43.5 -10q16 0 32 5t29.5 15.5t23 26.5
t12.5 37l71 -40q-18 -57 -63 -91.5t-105 -34.5q-42 0 -76.5 16t-59 43.5t-38 65t-13.5 80.5t13.5 80.5t38 65.5t59 44t76.5 16q57 0 103 -30.5t66 -87.5z" />
    <glyph glyph-name="registered" unicode="&#x28;R&#x29;" horiz-adv-x="588" 
d="M293 739q49 0 91.5 -15t73.5 -44.5t49 -74t18 -102.5q0 -63 -18 -110.5t-49 -79t-73.5 -47.5t-91.5 -16t-91.5 16t-73.5 47.5t-49 79t-18 110.5q0 58 18 102.5t49 74t73.5 44.5t91.5 15zM293 685q-36 0 -69 -11.5t-57.5 -34t-39 -56.5t-14.5 -79q0 -50 14.5 -87.5t39 -62
t57.5 -37t69 -12.5t69 12.5t57.5 37t39 62t14.5 87.5q0 45 -14.5 79t-39 56.5t-57.5 34t-69 11.5zM402 407h-67l-49 72h-46v-72h-50v186h146q35 0 52 -15t17 -42q0 -23 -13.5 -38t-42.5 -18zM240 550v-25h98q5 0 9.5 3.5t4.5 8.5q0 6 -5 9.5t-12 3.5h-95z" />
    <glyph glyph-name="uni2117" unicode="&#x28;P&#x29;" horiz-adv-x="912" 
d="M839 357q0 -79 -30 -148t-81.5 -120.5t-121.5 -81.5t-149 -30t-148 30t-120.5 81.5t-81.5 120.5t-30 148t30 149t81.5 121.5t120.5 81.5t148 30t149 -30t121.5 -81.5t81.5 -121.5t30 -149zM457 658q-61 0 -115.5 -24t-95 -65t-64.5 -96t-24 -116q0 -62 24 -116t64.5 -95
t95 -64.5t115.5 -23.5t116 23.5t96 64.5t65 95t24 116q0 61 -24 116t-65 96t-96 65t-116 24zM513 520q63 0 93 -27.5t30 -75.5t-31.5 -75.5t-95.5 -27.5h-94v-126h-89v332h187zM415 440v-42h97q12 0 20.5 5t8.5 17q0 10 -8.5 15t-20.5 5h-97z" />
    <glyph glyph-name=".notdef" horiz-adv-x="551" 
d="M466 89q0 -89 -96 -89h-191q-95 0 -95 89v540q0 89 95 89h191q96 0 96 -89v-540zM179 670q-45 0 -45 -41v-540q0 -41 45 -41h191q45 0 45 41v540q0 41 -45 41h-191z" />
    <glyph glyph-name=".null" horiz-adv-x="0" 
 />
    <glyph glyph-name="nonmarkingreturn" horiz-adv-x="333" 
 />
    <glyph glyph-name="glyph389" horiz-adv-x="0" 
 />
    <glyph glyph-name="glyph389" horiz-adv-x="0" 
 />
    <glyph glyph-name="space" unicode=" " horiz-adv-x="284" 
 />
    <glyph glyph-name="exclam" unicode="!" horiz-adv-x="316" 
d="M222 206h-132l-45 510h223zM269 76q0 -19 -9 -35.5t-24 -28.5t-35.5 -19t-43.5 -7t-43 7t-35 19t-23.5 28.5t-8.5 35.5t8.5 35.5t23.5 28.5t35 19t43 7t43.5 -7t35.5 -19t24 -28.5t9 -35.5z" />
    <glyph glyph-name="quotedbl" unicode="&#x22;" horiz-adv-x="347" 
d="M301 476h-82l-18 263h118zM124 476h-82l-17 263h118z" />
    <glyph glyph-name="numbersign" unicode="#" horiz-adv-x="602" 
d="M504 510h64v-124h-76l-9 -56h66v-125h-78l-26 -205h-114l24 205h-132l-26 -205h-114l24 205h-61v125h74l8 56h-63v124h75l23 178h112l-19 -178h134l20 178h114zM243 386l-8 -56h135l6 56h-133z" />
    <glyph glyph-name="dollar" unicode="$" horiz-adv-x="802" 
d="M694 483q-10 8 -36 16.5t-59.5 16.5t-70.5 14.5t-69 10.5v-106q59 0 118 -5t106.5 -23.5t77 -56t29.5 -102.5q0 -62 -28.5 -103.5t-75.5 -67t-106.5 -37t-120.5 -12.5v-87h-126v91q-50 4 -100.5 11.5t-94.5 17t-78 22t-50 26.5l74 136q9 -9 36.5 -18.5t63.5 -18.5
t75.5 -16t73.5 -11v125q-57 2 -111.5 10.5t-96.5 29t-68 55.5t-26 91q0 52 26 86.5t68.5 56t97 32.5t110.5 16v75h126v-75q47 -3 94 -9.5t88.5 -16t73 -21.5t47.5 -26zM459 176q25 1 51 4t47 11t34.5 21.5t13.5 35.5q0 32 -41.5 43.5t-104.5 13.5v-129zM333 544
q-63 -4 -90 -14.5t-27 -33.5q0 -12 5 -22t18.5 -17.5t36 -12t57.5 -6.5v106z" />
    <glyph glyph-name="percent" unicode="%" horiz-adv-x="822" 
d="M264 0h-120l414 688h120zM219 697q81 0 119 -41t38 -129q0 -96 -38 -139.5t-119 -43.5q-85 0 -123 43.5t-38 139.5q0 88 38 129t123 41zM219 594q-53 0 -53 -66q0 -80 53 -80q51 0 51 80q0 66 -51 66zM606 344q81 0 119.5 -40.5t38.5 -128.5q0 -96 -38.5 -140t-119.5 -44
q-85 0 -123 44t-38 140q0 88 38 128.5t123 40.5zM606 241q-53 0 -53 -65q0 -42 13 -61.5t40 -19.5q26 0 38.5 19.5t12.5 61.5q0 65 -51 65z" />
    <glyph glyph-name="ampersand" unicode="&#x26;" horiz-adv-x="1021" 
d="M461 739q41 0 87.5 -6.5t86 -24.5t65.5 -49.5t26 -80.5q0 -33 -15 -62t-39 -52.5t-53.5 -41.5t-57.5 -30q11 -12 27.5 -29t33.5 -34l32.5 -32.5l24.5 -24.5q84 51 158 113l116 -132q-26 -22 -62 -47.5t-79 -51.5q36 -35 79 -73.5t97 -80.5h-275q-18 13 -32 26t-27 25
q-63 -36 -137 -55t-161 -19q-66 0 -122 14t-96.5 42t-63.5 71t-23 102q0 48 17.5 83.5t47 62t68 45.5t79.5 34q-34 40 -48 72t-14 75q0 47 24.5 78t62.5 49.5t84 26t89 7.5zM500 179q-38 36 -70.5 71t-69.5 78q-21 -7 -40 -16t-33 -21t-22.5 -28t-8.5 -37q0 -25 9 -39
t24 -20.5t33.5 -8t38.5 -1.5q70 0 139 22zM413 559q0 -10 13.5 -31.5t40.5 -43.5q42 15 61 30.5t19 37.5q0 25 -15.5 35.5t-60.5 10.5q-20 0 -39 -8.5t-19 -30.5z" />
    <glyph glyph-name="quotesingle" unicode="'" horiz-adv-x="173" 
d="M124 476h-82l-17 263h118z" />
    <glyph glyph-name="parenleft" unicode="(" horiz-adv-x="336" 
d="M313 783q-60 -72 -88 -172t-28 -223q0 -144 28 -252.5t88 -180.5l-111 -97q-78 94 -117 227.5t-39 302.5q0 148 38.5 273t117.5 219z" />
    <glyph glyph-name="parenright" unicode=")" horiz-adv-x="336" 
d="M133 880q81 -94 118.5 -219t37.5 -273q0 -169 -38.5 -302.5t-117.5 -227.5l-110 97q60 72 87.5 180.5t27.5 252.5q0 123 -27.5 223t-87.5 172z" />
    <glyph glyph-name="asterisk" unicode="*" horiz-adv-x="532" 
d="M498 520l-137 -23l98 -89l-139 -94l-53 109l-63 -105l-130 93l99 85l-139 30l51 131l119 -57l-22 122h171l-22 -123l124 58z" />
    <glyph glyph-name="plus" unicode="+" horiz-adv-x="400" 
d="M373 311h-119v-119h-107v119h-118v106h118v119h107v-119h119v-106z" />
    <glyph glyph-name="comma" unicode="," horiz-adv-x="336" 
d="M178 -132h-127l56 283h185z" />
    <glyph glyph-name="hyphen" unicode="-" horiz-adv-x="332" 
d="M306 236h-280v123h280v-123z" />
    <glyph glyph-name="period" unicode="." horiz-adv-x="401" 
d="M306 76q0 -19 -9 -35.5t-24 -28.5t-35.5 -19t-42.5 -7q-47 0 -78.5 26t-31.5 64q0 19 8.5 35.5t23.5 28.5t35 19t43 7q22 0 42.5 -7t35.5 -19t24 -28.5t9 -35.5z" />
    <glyph glyph-name="slash" unicode="/" horiz-adv-x="434" 
d="M159 -123h-152l267 1003h154z" />
    <glyph glyph-name="zero" unicode="0" horiz-adv-x="1000" 
d="M927 358q0 -79 -30.5 -148.5t-86.5 -121t-134 -81.5t-174 -30t-174 30t-134 81.5t-86.5 121t-30.5 148.5t30.5 148t86.5 121t134 82t174 30t174 -30t134 -82t86.5 -121t30.5 -148zM728 360q0 47 -16 88.5t-46 72t-72.5 48.5t-94.5 18q-53 0 -95 -18t-72 -48.5t-46 -72
t-16 -88.5t16 -88.5t46 -72t72 -48.5t95 -18q52 0 94.5 18t72.5 48.5t46 72t16 88.5z" />
    <glyph glyph-name="one" unicode="1" horiz-adv-x="440" 
d="M347 0h-193v560l-118 -20v138l311 52v-730z" />
    <glyph glyph-name="two" unicode="2" horiz-adv-x="974" 
d="M880 0h-819v179q55 58 118 102q55 38 114.5 64t117 44.5t109 32t90.5 26.5t62 28t23 37q0 26 -32 45.5t-110 19.5q-57 0 -113 -9.5t-107.5 -25.5t-97 -37t-80.5 -44l-80 163q33 21 79.5 41.5t107.5 36.5t137.5 26t169.5 10q73 0 133.5 -16.5t103.5 -45.5t66.5 -70
t23.5 -90q0 -59 -17 -96t-54 -63t-95.5 -45.5t-140.5 -42.5q-38 -11 -83 -24t-84.5 -26t-69 -25t-35.5 -20h563v-175z" />
    <glyph glyph-name="three" unicode="3" horiz-adv-x="982" 
d="M291 288v152h224q52 0 87 5t56.5 14t30.5 22t9 30q0 32 -43.5 49.5t-149.5 17.5q-53 0 -104 -8t-95.5 -20.5t-80.5 -28t-60 -29.5l-71 170q22 11 65.5 24.5t100 25t122.5 19.5t133 8q72 0 138 -12t116.5 -37.5t80.5 -64t30 -91.5q0 -33 -10.5 -60t-27.5 -47.5
t-38.5 -34.5t-42.5 -21q42 -4 71 -21t47 -40.5t25.5 -50t7.5 -48.5q0 -123 -105.5 -178.5t-322.5 -55.5q-71 0 -137.5 10t-122.5 25t-99 32.5t-66 32.5l78 164q19 -15 64.5 -32.5t100.5 -32.5t109.5 -25t91.5 -10q40 0 76.5 4t64 13t44 23t16.5 34q0 43 -44.5 58t-144.5 15
h-224z" />
    <glyph glyph-name="four" unicode="4" horiz-adv-x="898" 
d="M723 289h134v-154h-134v-135h-182v135h-505v175l441 406h246v-427zM239 289h302v282z" />
    <glyph glyph-name="five" unicode="5" horiz-adv-x="966" 
d="M880 549h-574l-15 -112q12 6 37 12t58 11.5t71.5 9t76.5 3.5q37 0 79 -3t82.5 -12t78 -26t65.5 -44t45 -66.5t17 -93.5q0 -73 -37.5 -121.5t-95.5 -77t-128.5 -40.5t-137.5 -12q-57 0 -126 7t-133.5 19t-115.5 29t-72 38l78 156q10 -9 34.5 -18.5t57 -19.5t70.5 -18.5
t74.5 -15.5t69 -11t53.5 -4q29 0 67 2.5t71.5 11.5t57 27t23.5 49q0 21 -15.5 40t-43 32.5t-65 21.5t-80.5 8q-58 0 -94.5 -1.5t-61 -5t-41.5 -9t-36 -13.5l-175 7l69 408h712v-168z" />
    <glyph glyph-name="six" unicode="6" horiz-adv-x="988" 
d="M841 522q-19 16 -47 29t-61 22t-68 13.5t-68 4.5q-88 0 -151.5 -22.5t-104 -58t-60.5 -78.5t-21 -83q19 32 53.5 54t76.5 35t88 18.5t88 5.5q64 0 127 -11t113 -38.5t81 -73.5t31 -116q0 -68 -36 -114.5t-93.5 -76t-128 -42.5t-139.5 -13q-50 0 -103 7.5t-102.5 24.5
t-93.5 44.5t-76.5 67t-51.5 92t-19 119.5q0 112 42 189.5t112 126t160.5 70t188.5 21.5q68 0 120 -5.5t90.5 -14.5t66 -21t46.5 -25zM726 227q0 23 -19.5 39t-48.5 25.5t-62 14t-60 4.5q-41 0 -77.5 -4.5t-64.5 -14t-44.5 -25.5t-16.5 -38q0 -50 50.5 -69t145.5 -19
q43 0 79 5t62.5 15.5t41 27t14.5 39.5z" />
    <glyph glyph-name="seven" unicode="7" horiz-adv-x="881" 
d="M838 594l-477 -594h-240l454 551h-532v165h795v-122z" />
    <glyph glyph-name="eight" unicode="8" horiz-adv-x="993" 
d="M802 373q54 -17 86.5 -60t32.5 -103q0 -51 -20.5 -87.5t-55 -62t-79 -41t-92 -24.5t-95.5 -12.5t-88 -4.5q-40 1 -88 4.5t-95.5 12.5t-92 24.5t-79 41t-55 62t-20.5 87.5q0 60 33 103t87 60q-98 41 -98 145q0 51 20 87.5t53 61t76 39t88 22t89.5 9.5t81.5 2t81.5 -2
t89.5 -9.5t88 -22t76 -39t53 -61t20 -87.5q0 -105 -97 -145zM730 220q0 27 -17.5 45.5t-49 29.5t-75.5 15.5t-97 4.5t-97 -4.5t-75.5 -16t-49 -29.5t-17.5 -45q0 -44 61.5 -63.5t199.5 -19.5q114 0 165.5 21t51.5 62zM725 517q0 19 -12.5 34t-41.5 26t-78 17t-122 6
q-62 0 -102.5 -6.5t-65.5 -18t-35 -26.5t-10 -32q0 -20 20 -36.5t54.5 -28t81 -18t99.5 -6.5q45 0 83.5 7t67 19t45 28t16.5 35z" />
    <glyph glyph-name="nine" unicode="9" horiz-adv-x="970" 
d="M144 195q18 -14 45 -24.5t59.5 -18t68.5 -11.5t72 -4q84 0 145.5 16t102 46t60 71.5t19.5 92.5q-19 -33 -52 -56t-73 -37t-84.5 -20t-86.5 -6q-64 0 -127 12.5t-113 42t-81 77t-31 117.5t36.5 117t94 75.5t128 41t138.5 12.5q51 0 103.5 -7.5t102 -24.5t93.5 -44.5
t76.5 -67t51.5 -92t19 -119.5q0 -112 -42 -189.5t-112 -126t-161 -70t-188 -21.5q-69 0 -120.5 5.5t-90.5 15t-66.5 21.5t-47.5 25zM653 499q-2 39 -53.5 64.5t-145.5 25.5q-87 0 -140.5 -27t-53.5 -73q0 -23 19.5 -39.5t48.5 -27.5t62 -16.5t60 -5.5q40 0 77 6.5t65 19
t44.5 31t16.5 42.5z" />
    <glyph glyph-name="colon" unicode=":" horiz-adv-x="335" 
d="M273 76q0 -19 -8.5 -35.5t-23.5 -28.5t-35 -19t-44 -7q-23 0 -43 7t-35 19t-23.5 28.5t-8.5 35.5t8.5 35.5t23.5 28.5t35 19t43 7t43.5 -7t35.5 -19t23.5 -28.5t8.5 -35.5zM273 465q0 -19 -8.5 -35.5t-23.5 -28.5t-35.5 -19t-43.5 -7t-43 7t-35 19t-23.5 28.5t-8.5 35.5
t8.5 35.5t23.5 28.5t35 19t43 7t43.5 -7t35.5 -19t23.5 -28.5t8.5 -35.5z" />
    <glyph glyph-name="semicolon" unicode=";" horiz-adv-x="302" 
d="M146 -132h-127l55 283h185zM264 465q0 -19 -9 -35.5t-24 -28.5t-35.5 -19t-42.5 -7q-23 0 -43 7t-35 19t-23.5 28.5t-8.5 35.5t8.5 35.5t23.5 28.5t35 19t43 7q22 0 42.5 -7t35.5 -19t24 -28.5t9 -35.5z" />
    <glyph glyph-name="less" unicode="&#x3c;" horiz-adv-x="403" 
d="M378 447l-198 -82l198 -84v-124l-352 165v80l352 163v-118z" />
    <glyph glyph-name="equal" unicode="=" horiz-adv-x="396" 
d="M370 407h-344v106h344v-106zM370 219h-344v106h344v-106z" />
    <glyph glyph-name="greater" unicode="&#x3e;" horiz-adv-x="403" 
d="M378 321l-352 -164v118l197 82l-197 85v123l352 -164v-80z" />
    <glyph glyph-name="question" unicode="?" horiz-adv-x="740" 
d="M260 213q-10 37 -10 79q0 21 4 39.5t15.5 34t31 28t49.5 21.5q33 10 66.5 16t60.5 15t44 25.5t17 46.5t-38.5 50t-98.5 20q-104 0 -178 -24t-131 -68l-75 145q27 18 59.5 35.5t79 31.5t111 22.5t155.5 8.5q60 0 115 -16t96 -45t65.5 -68.5t24.5 -87.5q0 -50 -16 -85
t-43.5 -58t-65 -36.5t-79.5 -20.5q-37 -6 -59 -13.5t-33.5 -16.5t-15.5 -19.5t-5 -23.5q0 -17 6 -36h-152zM449 76q0 -19 -9 -35.5t-24 -28.5t-35.5 -19t-42.5 -7q-47 0 -78.5 26t-31.5 64q0 19 8.5 35.5t23.5 28.5t35 19t43 7q22 0 42.5 -7t35.5 -19t24 -28.5t9 -35.5z" />
    <glyph glyph-name="at" unicode="@" horiz-adv-x="989" 
d="M659 138q5 -2 11.5 -3.5t18.5 -1.5q22 0 45 12.5t42 35t30.5 54.5t11.5 71q0 45 -20.5 84.5t-58 69.5t-91 47t-120.5 17q-75 0 -141 -22.5t-116 -64t-79 -99t-29 -126.5q0 -56 21 -107t63 -89.5t104 -61.5t145 -23q66 0 132 22.5t132 64.5l79 -71q-85 -54 -168.5 -81.5
t-174.5 -27.5q-116 0 -201.5 30t-142.5 81.5t-85 119.5t-28 143q0 91 38.5 165.5t105.5 127.5t155.5 82.5t189.5 29.5q96 0 172.5 -24.5t130 -67t82.5 -99t29 -120.5q0 -57 -21 -104.5t-56.5 -81.5t-81.5 -53t-97 -19q-36 0 -69 9t-50 32q-29 -20 -64.5 -31.5t-70.5 -11.5
q-38 0 -67 12.5t-48.5 34t-29.5 49t-10 57.5q0 40 16.5 78.5t46.5 69t72.5 49.5t95.5 19q23 0 47.5 -7.5t44.5 -25.5l7 27h125zM570 278q-10 49 -52 49q-27 0 -49 -9t-37.5 -25t-24 -36.5t-8.5 -42.5q0 -42 13 -60.5t40 -18.5q24 0 45.5 9t44.5 34z" />
    <glyph glyph-name="A" unicode="A" horiz-adv-x="938" 
d="M923 0h-225l-58 137h-355l-59 -137h-207l324 716h248zM359 296h210l-104 250z" />
    <glyph glyph-name="B" unicode="B" horiz-adv-x="985" 
d="M665 716q109 0 167 -50.5t58 -134.5q0 -48 -22 -91.5t-67 -66.5q64 -18 95.5 -62t31.5 -104q0 -44 -16 -81.5t-48 -65.5t-82 -44t-117 -16h-580v716h580zM278 282v-102h360q11 0 23 1.5t21.5 6.5t15.5 14.5t6 25.5q0 18 -6.5 28.5t-17 16.5t-24 7.5t-28.5 1.5h-350z
M278 544v-99h350q13 0 25 2t21.5 7t15 15t5.5 27q0 29 -18 38.5t-39 9.5h-360z" />
    <glyph glyph-name="C" unicode="C" horiz-adv-x="944" 
d="M720 440q-18 57 -76.5 92.5t-141.5 35.5q-115 0 -175.5 -56.5t-60.5 -153.5q0 -96 60 -153t180 -57q88 0 138 34t74 83l165 -77q-43 -103 -139.5 -157t-252.5 -54q-90 0 -168 25.5t-136 74t-91 119.5t-33 162t35 161.5t95 119.5t140 74.5t169 25.5q69 0 130.5 -16.5
t111 -45t86.5 -67.5t57 -83z" />
    <glyph glyph-name="D" unicode="D" horiz-adv-x="1025" 
d="M490 716q97 0 182 -16t149 -56.5t101 -110t37 -175.5q0 -60 -22.5 -123.5t-74.5 -115.5t-137.5 -85.5t-210.5 -33.5h-429v716h405zM279 554v-370h210q269 0 269 182q0 85 -64 136.5t-204 51.5h-211z" />
    <glyph glyph-name="E" unicode="E" horiz-adv-x="872" 
d="M839 551h-560v-101h489v-166h-489v-102h574v-182h-768v716h754v-165z" />
    <glyph glyph-name="F" unicode="F" horiz-adv-x="795" 
d="M789 554h-510v-132h455v-171h-455v-251h-194v716h704v-162z" />
    <glyph glyph-name="G" unicode="G" horiz-adv-x="985" 
d="M826 472q-87 54 -163.5 75t-158.5 21q-57 0 -101.5 -15t-75.5 -42t-47.5 -66t-16.5 -87q0 -96 62.5 -153t182.5 -57q28 0 59.5 1.5t61.5 5.5t54.5 11.5t37.5 19.5v49h-152v158h340v-343q-23 -13 -59.5 -26t-87.5 -23.5t-118 -17t-151 -6.5q-90 0 -168 25.5t-136 74
t-91 119.5t-33 162t35 161.5t95 119.5t140 74.5t169 25.5q70 0 135.5 -9.5t120.5 -24t96 -32t62 -33.5z" />
    <glyph glyph-name="H" unicode="H" horiz-adv-x="980" 
d="M894 0h-193v291h-423v-291h-193v716h193v-251h423v251h193v-716z" />
    <glyph glyph-name="I" unicode="I" horiz-adv-x="389" 
d="M290 0h-193v716h193v-716z" />
    <glyph glyph-name="J" unicode="J" horiz-adv-x="770" 
d="M689 316q0 -87 -26.5 -150.5t-71 -105.5t-103.5 -62.5t-125 -20.5q-71 0 -128.5 17t-100.5 47t-71.5 72t-40.5 92l191 66q2 -19 12.5 -40t27 -39t38 -29.5t45.5 -11.5q34 0 63.5 5.5t50.5 23t33 50t12 86.5v400h194v-400z" />
    <glyph glyph-name="K" unicode="K" horiz-adv-x="999" 
d="M590 475l383 -475h-275l-260 364l-160 -129v-235h-193v716h193v-271l328 271h308z" />
    <glyph glyph-name="L" unicode="L" horiz-adv-x="790" 
d="M278 193h508v-193h-701v716h193v-523z" />
    <glyph glyph-name="M" unicode="M" horiz-adv-x="1196" 
d="M1109 -1h-196v576l-234 -575h-183l-216 575v-576h-195v717h346l166 -459l179 459h333v-717z" />
    <glyph glyph-name="N" unicode="N" horiz-adv-x="1017" 
d="M930 0h-201l-441 466v-466h-203v716h205l436 -447v447h204v-716z" />
    <glyph glyph-name="O" unicode="O" horiz-adv-x="1051" 
d="M985 358q0 -91 -36.5 -162t-99.5 -119.5t-146.5 -74t-177.5 -25.5t-177.5 25.5t-146.5 74t-99.5 119.5t-36.5 162t36.5 161.5t99.5 119.5t146.5 74.5t177.5 25.5t177.5 -25.5t146.5 -74.5t99.5 -119.5t36.5 -161.5zM783 358q0 96 -65 153t-193 57t-193 -57t-65 -153
t65 -153t193 -57t193 57t65 153z" />
    <glyph glyph-name="P" unicode="P" horiz-adv-x="926" 
d="M278 273v-273h-193v716h559q133 0 199 -59.5t66 -162.5t-67.5 -162t-205.5 -59h-358zM278 547v-99h365q26 0 43.5 12.5t17.5 39.5q0 24 -17.5 35.5t-44.5 11.5h-364z" />
    <glyph glyph-name="Q" unicode="Q" horiz-adv-x="1038" 
d="M818 -142l-140 137q-37 -10 -74 -14t-79 -4q-94 0 -177.5 25.5t-146.5 74t-99.5 119.5t-36.5 162t36.5 161.5t99.5 119.5t146.5 74.5t177.5 25.5t177.5 -25.5t146.5 -74.5t99.5 -119.5t36.5 -161.5q0 -88 -32.5 -156.5t-92.5 -117.5l114 -109zM783 358q0 96 -65 153
t-193 57t-193 -57t-65 -153t65 -153t193 -57t193 57t65 153z" />
    <glyph glyph-name="R" unicode="R" horiz-adv-x="959" 
d="M903 0h-268l-179 273h-178v-273h-193v716h559q133 0 199 -59.5t66 -162.5q0 -90 -49.5 -148t-158.5 -70zM278 547v-99h365q26 0 43.5 12.5t17.5 39.5q0 24 -17.5 35.5t-44.5 11.5h-364z" />
    <glyph glyph-name="S" unicode="S" horiz-adv-x="922" 
d="M650 515q-21 42 -67 55t-109 13q-94 0 -143 -17.5t-49 -55.5q0 -23 11 -36t29 -19t42.5 -7t51.5 -1q26 0 56 0.5t80 0.5q79 0 138 -10t97 -33t57 -60.5t19 -92.5q0 -63 -22.5 -114t-70.5 -86.5t-123.5 -54.5t-181.5 -19q-53 0 -93 2t-71 6.5t-54.5 11.5t-42.5 16
q-35 17 -60 35.5t-42.5 42t-27.5 53.5t-14 70h213q4 -21 25 -35.5t51 -23.5t64.5 -13t66.5 -4q36 0 68.5 4.5t57.5 14.5t39.5 26.5t14.5 39.5q0 24 -26 35t-68 15t-95 3.5t-108 1.5q-33 1 -67 4.5t-66 12t-60 24t-49 40.5t-33 61t-12 86q0 53 21 96t68 73t122.5 46.5
t185.5 16.5q92 0 157 -13.5t109 -40.5t68.5 -67.5t35.5 -94.5z" />
    <glyph glyph-name="T" unicode="T" horiz-adv-x="787" 
d="M771 536h-281v-536h-193v536h-280v180h754v-180z" />
    <glyph glyph-name="U" unicode="U" horiz-adv-x="965" 
d="M884 329q0 -93 -31 -159.5t-86 -109.5t-130 -63t-163 -20t-160.5 20.5t-124 63t-80 108.5t-28.5 158v389h201v-358q0 -62 14 -102t39.5 -63t61 -32t79.5 -9q47 0 87 8t68.5 30.5t44.5 62.5t16 104v359h192v-387z" />
    <glyph glyph-name="V" unicode="V" horiz-adv-x="951" 
d="M577 0h-206l-352 716h219l241 -512l242 512h216z" />
    <glyph glyph-name="W" unicode="W" horiz-adv-x="1315" 
d="M1037 0h-230l-154 427l-149 -427h-223l-262 716h221l159 -469l163 469h186l168 -469l164 469h220z" />
    <glyph glyph-name="X" unicode="X" horiz-adv-x="963" 
d="M486 509l187 207h248l-308 -323l325 -393h-267l-193 229l-202 -229h-250l330 362l-313 354h269z" />
    <glyph glyph-name="Y" unicode="Y" horiz-adv-x="871" 
d="M539 213v-214h-199v214l-321 503h235l191 -307l184 307h227z" />
    <glyph glyph-name="Z" unicode="Z" horiz-adv-x="910" 
d="M875 581l-514 -401h519v-180h-849v152l518 399h-505v165h831v-135z" />
    <glyph glyph-name="bracketleft" unicode="[" 
d="M329 743h-94v-746h94v-138h-244v1022h244v-138z" />
    <glyph glyph-name="backslash" unicode="\" horiz-adv-x="434" 
d="M427 -123h-153l-268 1003h153z" />
    <glyph glyph-name="bracketright" unicode="]" 
d="M329 -141h-244v138h95v746h-95v138h244v-1022z" />
    <glyph glyph-name="asciicircum" unicode="^" horiz-adv-x="433" 
d="M397 496h-142l-37 77l-40 -77h-143l141 222h84z" />
    <glyph glyph-name="underscore" unicode="_" horiz-adv-x="526" 
d="M527 -114h-528v97h528v-97z" />
    <glyph glyph-name="grave" unicode="`" horiz-adv-x="349" 
d="M309 634l-291 100l42 108l273 -128z" />
    <glyph glyph-name="a" unicode="a" horiz-adv-x="880" 
d="M793 176q0 -11 6 -23t21 -12q6 0 12.5 1t15.5 6v-133q-17 -16 -40.5 -22t-46.5 -6q-43 0 -77 20.5t-54 50.5q-18 -12 -49 -25t-70.5 -23t-86 -16.5t-95.5 -6.5q-136 0 -201 51.5t-65 151.5q0 59 27.5 97.5t71.5 60.5t100.5 30.5t113.5 8.5q37 0 73.5 -5t69 -12.5
t58.5 -16.5t41 -17q0 17 -10 36t-35.5 35t-70 26.5t-113.5 10.5q-32 0 -67.5 -3.5t-69.5 -10t-64.5 -15t-53.5 -18.5l-51 130q25 16 60.5 28t78 20t89.5 12t94 4q201 0 294.5 -66.5t93.5 -204.5v-144zM612 209q-5 10 -28 18.5t-55.5 14t-70.5 8.5t-73 3q-49 0 -77.5 -6
t-43 -15t-18.5 -20.5t-4 -22.5q0 -40 33.5 -53t88.5 -13q28 0 67.5 4.5t77 11.5t66.5 14t37 12v44z" />
    <glyph glyph-name="b" unicode="b" horiz-adv-x="887" 
d="M273 512q38 36 100.5 58t143.5 22q52 0 106 -16t98.5 -52t73 -93.5t28.5 -141.5q0 -79 -28 -136t-73.5 -94t-103.5 -54.5t-119 -17.5q-78 0 -134 16.5t-98 40.5v-44h-182v739h188v-227zM637 287q0 39 -15 68t-40 48t-59 28t-71 9q-38 0 -73 -9.5t-62 -28.5t-43 -46
t-16 -63t16 -65.5t43 -51t62.5 -33t73.5 -11.5q37 0 70 9t58.5 28t40.5 48t15 70z" />
    <glyph glyph-name="c" unicode="c" horiz-adv-x="815" 
d="M611 342q-20 48 -63.5 76t-106.5 28q-41 0 -77 -9t-63 -28t-42.5 -48.5t-15.5 -71.5t16 -71.5t43 -48.5t63 -28t77 -9q30 0 58.5 7.5t52 22t40 35t22.5 46.5l153 -75q-12 -37 -39.5 -70t-69.5 -57.5t-99 -39t-128 -14.5q-77 0 -144.5 19t-117.5 56.5t-78.5 94.5
t-28.5 132t29 132t79.5 94.5t120 56.5t150.5 19q59 0 110.5 -14.5t93.5 -38.5t72 -56t46 -66z" />
    <glyph glyph-name="d" unicode="d" horiz-adv-x="882" 
d="M607 739h188v-739h-182v44q-42 -24 -98 -40.5t-134 -16.5q-61 0 -119 17.5t-103.5 54.5t-73.5 94t-28 136q0 84 28.5 141.5t73 93.5t98.5 52t106 16q81 0 143.5 -22t100.5 -58v227zM243 287q0 -41 15 -70t40.5 -48t58.5 -28t70 -9q38 0 73.5 11.5t62.5 33t43 51t16 65.5
t-16 63t-43 46t-62 28.5t-73 9.5t-71.5 -9t-58.5 -28t-40 -48t-15 -68z" />
    <glyph glyph-name="e" unicode="e" horiz-adv-x="854" 
d="M790 242h-546q9 -31 28 -53.5t45 -37.5t57.5 -22.5t66.5 -7.5q63 0 98.5 12.5t50.5 41.5h206q-9 -39 -41 -73.5t-79.5 -60t-107.5 -40t-124 -14.5q-82 0 -151.5 19t-120.5 56.5t-80 94t-29 131.5q0 76 29 132.5t79.5 94.5t120 57t150.5 19q82 0 147 -27.5t109.5 -72.5
t68 -102.5t23.5 -117.5v-29zM593 358q-2 24 -16 42t-35.5 30t-48 18.5t-52.5 6.5q-34 0 -64.5 -4.5t-55.5 -15.5t-43.5 -30t-28.5 -47h344z" />
    <glyph glyph-name="f" unicode="f" horiz-adv-x="380" 
d="M356 616h-39q-17 0 -22 -8.5t-5 -29.5h70v-123h-63v-455h-194v455h-86v123h86q2 47 14 78t34.5 49.5t55.5 26t77 7.5h72v-123z" />
    <glyph glyph-name="g" unicode="g" horiz-adv-x="888" 
d="M801 162q0 -89 -24.5 -150.5t-72.5 -100t-117.5 -55.5t-159.5 -17q-61 0 -110 3t-90 9.5t-75.5 16.5t-65.5 23l61 138q24 -11 55 -22t65.5 -19.5t72 -14t75.5 -5.5q41 0 79.5 10t68.5 28.5t48 44.5t18 59q-36 -34 -100 -59t-158 -25q-51 0 -105.5 14.5t-99.5 48t-74 87.5
t-29 133q0 73 28 126.5t73.5 88.5t104 51.5t119.5 16.5q72 0 130 -15t101 -38v40h182v-417zM425 455q-36 0 -68 -9t-56 -26.5t-38 -43.5t-14 -61q0 -37 15 -63.5t40.5 -44t59 -25.5t70.5 -8q38 0 73 8.5t61.5 26t42.5 44t16 62.5q0 37 -16.5 63t-44 42.5t-62 25t-70.5 9.5
h-9z" />
    <glyph glyph-name="h" unicode="h" horiz-adv-x="871" 
d="M790 0h-195v241q0 59 -9 97.5t-26.5 61t-43.5 31.5t-59 9q-51 0 -91 -19t-88 -61v-360h-193v739h188v-232q40 37 92 60.5t122 23.5q55 0 109.5 -13.5t97.5 -51t69.5 -105t26.5 -175.5v-246z" />
    <glyph glyph-name="i" unicode="i" 
d="M283 0h-192v578h192v-578zM285 685q0 -17 -7.5 -31t-21 -25t-31.5 -17t-38 -6q-40 0 -68 23t-28 56t28 56t68 23q20 0 38 -6t31.5 -17t21 -25.5t7.5 -30.5z" />
    <glyph glyph-name="j" unicode="j" horiz-adv-x="354" 
d="M279 3q0 -35 -10.5 -65t-33 -52t-58 -34.5t-86.5 -12.5h-60v151h25q16 0 22.5 2.5t6.5 19.5v566h194v-575zM279 684q0 -33 -28.5 -55.5t-69.5 -22.5q-40 0 -68 22.5t-28 55.5t28 56t68 23q20 0 38 -6t31.5 -17t21 -25.5t7.5 -30.5z" />
    <glyph glyph-name="k" unicode="k" horiz-adv-x="807" 
d="M552 378l250 -378h-223l-161 272l-140 -136v-136h-193v739h193v-399l262 238h246z" />
    <glyph glyph-name="l" unicode="l" horiz-adv-x="367" 
d="M278 0h-193v739h193v-739z" />
    <glyph glyph-name="m" unicode="m" horiz-adv-x="1331" 
d="M1250 0h-194v232q0 62 -6.5 102.5t-20.5 64t-35.5 32.5t-52.5 9q-20 0 -44.5 -6.5t-48.5 -17.5t-46.5 -24.5t-38.5 -27.5q-2 -18 -3 -35t-1 -33v-296h-185v242q0 58 -7.5 96.5t-21.5 61t-36 31.5t-50 9q-48 0 -95.5 -21t-85.5 -59v-360h-193v578h182v-71q18 17 39 32.5
t45.5 27t54 18t64.5 6.5q76 0 132.5 -25.5t98.5 -82.5q57 52 122.5 80t128.5 28q66 0 120.5 -17.5t94 -58.5t61.5 -109t22 -170v-236z" />
    <glyph glyph-name="n" unicode="n" horiz-adv-x="870" 
d="M789 0h-194v241q0 59 -9 97.5t-26.5 61t-43.5 31.5t-59 9q-51 0 -91 -19t-88 -61v-360h-193v578h182v-71q40 37 95 60.5t125 23.5q55 0 109 -13.5t97 -51t69.5 -105t26.5 -175.5v-246z" />
    <glyph glyph-name="o" unicode="o" horiz-adv-x="897" 
d="M833 289q0 -75 -30 -132t-81.5 -94.5t-122 -56.5t-151.5 -19t-151.5 19t-122 56.5t-81.5 94.5t-30 132t30 132t81.5 94.5t122 56.5t151.5 19t151.5 -19t122 -56.5t81.5 -94.5t30 -132zM651 289q0 42 -16.5 71.5t-45 48.5t-65.5 28t-77 9q-41 0 -77.5 -9t-65 -28
t-45 -48.5t-16.5 -71.5t16.5 -71.5t45 -48.5t65 -28t77.5 -9q40 0 77 9t65.5 28t45 48.5t16.5 71.5z" />
    <glyph glyph-name="p" unicode="p" horiz-adv-x="887" 
d="M273 -161h-188v739h182v-43q42 23 98 40t134 17q61 0 119 -17.5t103.5 -54.5t73.5 -94t28 -136q0 -84 -29 -142t-77 -93.5t-110.5 -51.5t-129.5 -16q-144 0 -204 80v-228zM639 293q0 39 -15 68t-40 48t-59 28t-71 9q-38 0 -73 -9.5t-62 -28.5t-43 -46t-16 -63t16 -65.5
t43 -51t62.5 -33t73.5 -11.5q37 0 70 9t58.5 28t40.5 48t15 70z" />
    <glyph glyph-name="q" unicode="q" horiz-adv-x="888" 
d="M613 67q-38 -37 -100.5 -58.5t-143.5 -21.5q-52 0 -106 16t-98.5 51.5t-73 93.5t-28.5 142q0 79 28 136t73.5 94t103.5 54.5t119 17.5q78 0 134 -17t98 -40v43h182v-739h-188v228zM243 293q0 -41 15 -70t40.5 -48t58.5 -28t70 -9q38 0 73.5 11.5t62.5 33t43 51t16 65.5
t-16 63t-43 46t-62 28.5t-73 9.5t-71.5 -9t-58.5 -28t-40 -48t-15 -68z" />
    <glyph glyph-name="r" unicode="r" horiz-adv-x="514" 
d="M493 412q-29 0 -66 -4.5t-70 -19t-56 -42.5t-23 -75v-11v-260h-193v578h181v-103q13 35 34 57.5t49.5 35.5t64.5 18t79 5v-179z" />
    <glyph glyph-name="s" unicode="s" horiz-adv-x="808" 
d="M553 408q-18 32 -47.5 41.5t-83.5 9.5q-46 0 -75.5 -3t-47 -9t-24 -14t-6.5 -18q0 -27 31 -33q35 -7 80 -11t83 -6q57 -3 109 -11t91.5 -26t63 -48t23.5 -78q0 -53 -17 -93t-56.5 -67t-103.5 -41t-158 -14q-53 0 -92 2.5t-68.5 7.5t-51.5 12.5t-41 18.5q-20 10 -38 26
t-32 36.5t-22.5 44.5t-8.5 50h192q10 -19 24.5 -31.5t36.5 -19.5t51.5 -10t70.5 -3q25 0 47.5 2.5t40 9t27.5 18t10 28.5q0 20 -18.5 30t-60.5 10q-58 0 -99.5 3.5t-82.5 8.5q-34 4 -73.5 11.5t-73 25.5t-56 50.5t-22.5 87.5q0 41 16.5 71t44 50.5t63.5 33t74.5 19.5t76.5 9
t71 2q80 0 137 -11.5t95 -34t59.5 -55.5t30.5 -76z" />
    <glyph glyph-name="t" unicode="t" horiz-adv-x="413" 
d="M283 578h83v-123h-83v-264q0 -24 6 -33t22 -9q19 0 33 4.5t25 16.5v-144q-9 -16 -36.5 -27.5t-66.5 -11.5q-93 0 -130.5 50t-37.5 149v269h-81v123h81v100l185 62v-162z" />
    <glyph glyph-name="u" unicode="u" horiz-adv-x="862" 
d="M775 0h-182v70q-40 -36 -94 -59.5t-124 -23.5q-55 0 -109 13.5t-96.5 51t-69 105t-26.5 175.5v246h195v-242q0 -59 8.5 -97t23.5 -60.5t35.5 -31.5t45.5 -9q60 0 108.5 22t91.5 57v361h193v-578z" />
    <glyph glyph-name="v" unicode="v" horiz-adv-x="816" 
d="M511 0h-195l-297 578h205l198 -390l191 390h187z" />
    <glyph glyph-name="w" unicode="w" horiz-adv-x="1208" 
d="M928 0h-169l-158 382l-157 -382h-173l-252 578h191l158 -383l157 383h173l151 -383l161 383h183z" />
    <glyph glyph-name="x" unicode="x" horiz-adv-x="826" 
d="M294 292l-257 286h244l134 -157l144 157h224l-257 -274l285 -304h-248l-147 176l-163 -176h-237z" />
    <glyph glyph-name="y" unicode="y" horiz-adv-x="777" 
d="M477 -9q-20 -41 -48.5 -68.5t-63.5 -44t-74.5 -24t-81.5 -7.5q-36 0 -64 1t-50 3t-38.5 4.5t-31.5 6.5l37 154q26 -8 65.5 -15t87.5 -7q41 0 63 7t22 32l-281 545h203l183 -388l166 388h191z" />
    <glyph glyph-name="z" unicode="z" horiz-adv-x="776" 
d="M723 434l-396 -280h398v-154h-683v152l393 276h-386v150h674v-144z" />
    <glyph glyph-name="braceleft" unicode="{" horiz-adv-x="364" 
d="M341 741h-108l1 -1v-265q0 -73 -67 -107q67 -37 67 -105v-264q0 -1 -1 -2v-1h108v-137h-121q-136 0 -136 126v278q0 45 -38 45h-33v122h33q38 0 38 45v279q0 126 136 126h121v-139z" />
    <glyph glyph-name="bar" unicode="|" horiz-adv-x="307" 
d="M208 -141h-123v1021h123v-1021z" />
    <glyph glyph-name="braceright" unicode="}" horiz-adv-x="364" 
d="M279 475q0 -45 40 -45h32v-122h-32q-40 0 -40 -45v-278q0 -126 -136 -126h-119v137h106v267q0 68 67 105q-67 34 -67 107v266h-106v139h119q136 0 136 -126v-279z" />
    <glyph glyph-name="asciitilde" unicode="~" horiz-adv-x="496" 
d="M468 284q-23 -13 -53.5 -18.5t-72.5 -5.5q-27 0 -52.5 5.5t-51 12t-51.5 12t-54 5.5q-24 0 -50 -6.5t-54 -22.5v116q23 13 49 18t67 5q28 0 54.5 -5.5t53.5 -12.5t55 -12.5t57 -5.5q20 0 45.5 7.5t57.5 27.5v-120z" />
    <glyph glyph-name="uni00A0" unicode="&#xa0;" horiz-adv-x="480" 
 />
    <glyph glyph-name="exclamdown" unicode="&#xa1;" horiz-adv-x="319" 
d="M94.0137 349.013h131.992l44.9971 -509.969h-222.986zM47.0166 479.005q0 18.999 8.99902 35.4971q9 16.5 23.999 28.499t35.498 18.999q20.498 6.99902 43.4971 6.99902q22.998 0 42.9971 -6.99902q19.999 -7 34.998 -18.999t23.498 -28.499q8.5 -16.498 8.5 -35.4971
t-8.5 -35.498q-8.49902 -16.499 -23.498 -28.498t-34.998 -18.999t-42.9971 -7q-22.999 0 -43.4971 7q-20.499 7 -35.498 18.999t-23.999 28.498q-8.99902 16.499 -8.99902 35.498z" />
    <glyph glyph-name="cent" unicode="&#xa2;" horiz-adv-x="710" 
d="M557 426q-10 32 -41 58.5t-79 37.5v-324q47 9 74 33.5t44 54.5l131 -60q-29 -72 -90.5 -113.5t-158.5 -52.5v-84h-111v84q-62 6 -115.5 29t-92.5 61.5t-61 91t-22 118.5q0 65 22.5 117t62 90t92.5 61t114 31v81h111v-81q95 -12 160 -58t93 -106zM326 522
q-64 -14 -97.5 -56.5t-33.5 -105.5t32 -105.5t99 -56.5v324z" />
    <glyph glyph-name="sterling" unicode="&#xa3;" horiz-adv-x="884" 
d="M751 540q-45 28 -104 44.5t-128 16.5q-42 0 -75.5 -6t-56.5 -22t-35 -43.5t-12 -69.5v-26.5t1 -27.5h245v-139h-268q-16 -48 -34 -78.5t-40 -53.5h606v-135h-845v109q27 4 53 20t48 38t38 48.5t24 51.5h-97v139h130q2 7 2 15v16v23q0 278 318 278q95 0 168.5 -26
t113.5 -62z" />
    <glyph glyph-name="yen" unicode="&#xa5;" horiz-adv-x="841" 
d="M490 358v-17h220v-94h-220v-76h220v-94h-220v-78h-134v78h-222v94h222v76h-222v94h222v17l-339 358h197l206 -239l210 239h195z" />
    <glyph glyph-name="brokenbar" unicode="&#xa6;" horiz-adv-x="268" 
d="M208 -141h-123v368h123v-368zM208 542h-123v338h123v-338z" />
    <glyph glyph-name="section" unicode="&#xa7;" horiz-adv-x="599" 
d="M364 550q-3 27 -25.5 36.5t-49.5 9.5q-23 0 -36.5 -7t-13.5 -21q0 -8 1.5 -15t9 -13t21.5 -10t40 -6q34 -3 72.5 -12.5t71 -29t53.5 -51t21 -78.5q0 -12 -5.5 -27.5t-15.5 -30t-22.5 -27t-27.5 -18.5q32 -16 50 -43t18 -62q0 -29 -15 -56.5t-44.5 -49t-72.5 -35
t-99 -13.5q-44 0 -85 11t-72.5 32t-51 51t-21.5 68l159 15q0 -16 8 -26.5t19.5 -16.5t23.5 -8.5t20 -2.5q35 0 55 10t20 21q0 10 -2 19t-10 16.5t-24.5 14t-44.5 10.5q-29 4 -65 11.5t-67.5 24t-53 45t-21.5 75.5q0 29 20 57.5t52 45.5q-30 18 -49.5 44.5t-19.5 59.5
t14 60.5t41 47.5t65.5 31t87.5 11q109 0 168 -42t61 -114zM385 360q0 27 -16.5 42t-61.5 15q-42 0 -59 -14.5t-17 -41.5q0 -32 16.5 -50t59.5 -18q78 0 78 67z" />
    <glyph glyph-name="dieresis" unicode="&#xa8;" horiz-adv-x="525" 
d="M488 743q0 -33 -28.5 -55.5t-69.5 -22.5q-40 0 -68 22.5t-28 55.5t27 56t69 23q20 0 38 -6t31.5 -17t21 -25.5t7.5 -30.5zM231 743q0 -33 -28.5 -55.5t-69.5 -22.5t-69 22.5t-28 55.5t27.5 56t69.5 23q20 0 38 -6t31.5 -17t21 -25.5t7.5 -30.5z" />
    <glyph glyph-name="ordfeminine" unicode="&#xaa;" horiz-adv-x="593" 
d="M499 386q0 -6 3.5 -13.5t14.5 -7.5q4 0 8 0.5t9 1.5v-78q-11 -9 -25 -13t-28 -4q-26 0 -46.5 13t-33.5 31q-22 -16 -71 -30t-109 -14q-160 0 -160 122q0 36 16.5 58.5t43.5 35.5t60.5 18t67.5 5q22 0 44 -3t41.5 -7.5t35 -9.5t24.5 -10q0 10 -6 21.5t-21 21t-41.5 16
t-68.5 6.5q-39 0 -82.5 -8t-71.5 -19l-31 77q30 20 83.5 29.5t110.5 9.5q121 0 177 -39t56 -124v-86zM391 406q-3 6 -17 11t-33.5 8.5t-42.5 5t-44 1.5q-29 0 -46 -3.5t-26 -9t-11.5 -12.5t-2.5 -14q0 -23 20 -31.5t53 -8.5q16 0 40 3t46.5 7t40.5 8.5t23 7.5v27z" />
    <glyph glyph-name="guillemotleft" unicode="&#xab;" horiz-adv-x="507" 
d="M346 313l89 -144h-127l-82 144l82 144h126zM167 313l87 -144h-127l-82 144l82 144h127z" />
    <glyph glyph-name="uni00AD" unicode="&#xad;" horiz-adv-x="331" 
d="M306 236h-280v123h280v-123z" />
    <glyph glyph-name="macron" unicode="&#xaf;" horiz-adv-x="554" 
d="M454 670h-352v122h352v-122z" />
    <glyph glyph-name="degree" unicode="&#xb0;" horiz-adv-x="366" 
d="M184 728q117 0 117 -123q0 -124 -117 -124q-119 0 -119 124q0 123 119 123zM184 656q-44 0 -44 -51q0 -52 44 -52q43 0 43 52q0 51 -43 51z" />
    <glyph glyph-name="plusminus" unicode="&#xb1;" horiz-adv-x="400" 
d="M373 311h-119v-119h-107v119h-118v106h118v119h107v-119h119v-106zM373 54h-344v107h344v-107z" />
    <glyph glyph-name="uni00B2" unicode="&#xb2;" horiz-adv-x="651" 
d="M568 300h-491v106q31 38 71 63.5t82.5 43t83 28.5t72.5 20.5t51.5 19t19.5 24.5q0 17 -24 29.5t-62 12.5q-69 0 -132 -21.5t-106 -49.5l-47 98q20 12 48 24.5t65 22.5t84.5 16t106.5 6q37 0 71 -10t60 -28t41.5 -44t15.5 -58q0 -31 -9.5 -51.5t-31.5 -36t-58.5 -28
t-89.5 -27.5q-42 -12 -84 -22t-74 -33h337v-105z" />
    <glyph glyph-name="uni00B3" unicode="&#xb3;" horiz-adv-x="661" 
d="M216 473v91h133q63 0 87 11t24 32q0 20 -26.5 30t-89.5 10q-32 0 -62.5 -5t-57 -12.5t-48 -16.5t-36.5 -17l-42 101q13 7 39 15t60 15t73.5 11.5t79.5 4.5q43 0 82.5 -7.5t70 -22.5t48.5 -38.5t18 -54.5q0 -20 -6.5 -36t-17 -28t-23.5 -20.5t-26 -12.5q26 -2 43.5 -12.5
t28.5 -24.5t15.5 -30t4.5 -29q0 -75 -63 -108t-194 -33q-42 0 -81.5 6t-73.5 15t-59.5 19.5t-39.5 19.5l46 98q12 -8 39.5 -18.5t60 -19.5t65 -15.5t55.5 -6.5q24 0 46 2.5t38.5 7.5t26.5 14t10 21q0 29 -27.5 36.5t-87.5 7.5h-133z" />
    <glyph glyph-name="acute" unicode="&#xb4;" horiz-adv-x="349" 
d="M333 734l-291 -100l-24 80l274 128z" />
    <glyph glyph-name="paragraph" unicode="&#xb6;" horiz-adv-x="562" 
d="M525 -15q0 -33 16.5 -47t36.5 -14q25 0 45.5 12t25.5 27l16 -77q-14 -23 -40 -34.5t-47 -11.5q-63 0 -102.5 33.5t-39.5 111.5v658h-114v-702h-89v460h-77q-33 0 -58 13.5t-41.5 36t-24.5 50.5t-8 58t8 58.5t24.5 51t41.5 36t58 13.5h369v-733z" />
    <glyph glyph-name="periodcentered" unicode="&#xb7;" horiz-adv-x="325" 
d="M266 361q0 -33 -28.5 -56t-68.5 -23q-42 0 -69.5 23t-27.5 56t27.5 56t69.5 23q40 0 68.5 -23t28.5 -56z" />
    <glyph glyph-name="cedilla" unicode="&#xb8;" horiz-adv-x="297" 
d="M161 -41q18 -4 38.5 -11t37 -18.5t27.5 -27t11 -36.5t-11 -37t-29 -27t-42 -16.5t-49 -5.5q-92 0 -126 61l60 29q11 -14 25.5 -20t35.5 -6q34 0 34 28q0 35 -87 37v99h75v-49z" />
    <glyph glyph-name="uni00B9" unicode="&#xb9;" horiz-adv-x="337" 
d="M264 300h-116v337l-71 -13v83l187 31v-438z" />
    <glyph glyph-name="ordmasculine" unicode="&#xba;" horiz-adv-x="590" 
d="M526 453q0 -45 -18 -79t-49 -56.5t-73 -34t-91 -11.5q-48 0 -90.5 11.5t-73.5 34t-49 56.5t-18 79t18 79.5t49 57t73.5 34t90.5 11.5q49 0 91 -11.5t73 -34t49 -57t18 -79.5zM418 453q0 25 -10 43t-27.5 29.5t-39.5 17t-46 5.5q-25 0 -47 -5.5t-39 -17t-27 -29.5t-10 -43
t10 -42.5t27 -29t39 -17t47 -5.5q24 0 46 5.5t39.5 17t27.5 29t10 42.5z" />
    <glyph glyph-name="guillemotright" unicode="&#xbb;" horiz-adv-x="507" 
d="M462 313l-82 -144h-127l87 144l-87 144h127zM281 313l-82 -144h-127l89 144l-88 144h126z" />
    <glyph glyph-name="onequarter" unicode="&#xbc;" horiz-adv-x="1033" 
d="M292 -29h-79l371 768h78zM264 300h-116v337l-71 -13v83l187 31v-438zM879 114h80v-97h-80v-76h-108v76h-304v110l264 244h148v-257zM588 114h183v171z" />
    <glyph glyph-name="onehalf" unicode="&#xbd;" horiz-adv-x="1060" 
d="M266 -29h-79l371 768h78zM264 300h-116v337l-71 -13v83l187 31v-438zM976 -59h-491v106q31 38 71 63.5t82.5 43t83 28.5t72.5 20.5t51.5 19t19.5 24.5q0 17 -24 29.5t-62 12.5q-69 0 -132 -21.5t-106 -49.5l-47 98q20 12 48 24.5t65 22.5t84.5 16t106.5 6q37 0 71 -10
t60 -28t41.5 -44t15.5 -58q0 -31 -9.5 -51.5t-31.5 -36t-58.5 -28t-89.5 -27.5q-42 -12 -84 -22t-74 -33h337v-105z" />
    <glyph glyph-name="threequarters" unicode="&#xbe;" horiz-adv-x="1287" 
d="M536 -29h-79l371 768h78zM1133 114h80v-97h-80v-76h-108v76h-304v110l264 244h148v-257zM842 114h183v171zM216 473v91h133q63 0 87 11t24 32q0 20 -26.5 30t-89.5 10q-32 0 -62.5 -5t-57 -12.5t-48 -16.5t-36.5 -17l-42 101q13 7 39 15t60 15t73.5 11.5t79.5 4.5
q43 0 82.5 -7.5t70 -22.5t48.5 -38.5t18 -54.5q0 -20 -6.5 -36t-17 -28t-23.5 -20.5t-26 -12.5q26 -2 43.5 -12.5t28.5 -24.5t15.5 -30t4.5 -29q0 -75 -63 -108t-194 -33q-42 0 -81.5 6t-73.5 15t-59.5 19.5t-39.5 19.5l46 98q12 -8 39.5 -18.5t60 -19.5t65 -15.5t55.5 -6.5
q24 0 46 2.5t38.5 7.5t26.5 14t10 21q0 29 -27.5 36.5t-87.5 7.5h-133z" />
    <glyph glyph-name="questiondown" unicode="&#xbf;" horiz-adv-x="741" 
d="M480.016 366.013q10 -36.9971 10 -78.9951q0 -20.998 -4 -39.4971t-15.499 -33.998t-30.998 -27.998q-19.499 -12.5 -49.4971 -21.499q-32.998 -9.99902 -66.4961 -15.999t-60.4961 -14.999q-26.998 -9 -43.9971 -25.499t-16.999 -46.4971t38.4971 -49.9961
q38.498 -19.999 98.4941 -19.999q103.994 0 177.989 23.998q73.9951 23.999 130.992 67.9961l74.9951 -144.991q-26.998 -17.999 -59.4961 -35.498t-78.9951 -31.498t-110.993 -22.498q-64.4961 -8.5 -155.491 -8.5q-59.9961 0 -114.992 15.999
q-54.9971 15.999 -95.9941 44.9971q-40.998 28.999 -65.4961 68.4961q-24.499 39.498 -24.499 87.4951q0 49.9971 15.999 84.9941q15.999 34.998 43.498 57.9971q27.498 22.998 64.9951 36.4971q37.498 13.5 79.4951 20.499q36.998 6 58.9971 13.499
q21.998 7.5 33.498 16.499q11.499 9 15.499 19.499q3.99902 10.499 4.99902 23.499q0 16.998 -5.99902 35.9971h151.99zM291.027 503.005q0 18.999 9 35.4971q8.99902 16.5 23.998 28.499t35.498 18.999q20.498 6.99902 42.4971 6.99902q46.9971 0 78.4951 -25.998
q31.498 -25.999 31.498 -63.9961q0 -18.999 -8.49902 -35.498q-8.5 -16.499 -23.499 -28.498t-34.998 -18.999q-19.998 -7 -42.9971 -7q-21.999 0 -42.4971 7q-20.499 7 -35.498 18.999t-23.998 28.498q-9 16.499 -9 35.498z" />
    <glyph glyph-name="Agrave" unicode="&#xc0;" horiz-adv-x="938" 
d="M923 0h-225l-58 137h-355l-59 -137h-207l324 716h248zM359 296h210l-104 250zM572 772l-291 100l42 108l273 -128z" />
    <glyph glyph-name="Aacute" unicode="&#xc1;" horiz-adv-x="938" 
d="M923 0h-225l-58 137h-355l-59 -137h-207l324 716h248zM359 296h210l-104 250zM656 872l-291 -100l-24 80l274 128z" />
    <glyph glyph-name="Acircumflex" unicode="&#xc2;" horiz-adv-x="938" 
d="M923 0h-225l-58 137h-355l-59 -137h-207l324 716h248zM359 296h210l-104 250zM661 774h-125l-73 107l-75 -107h-111l149 202h89z" />
    <glyph glyph-name="Atilde" unicode="&#xc3;" horiz-adv-x="938" 
d="M923 0h-225l-58 137h-355l-59 -137h-207l324 716h248zM359 296h210l-104 250zM671 828q-25 -11 -50.5 -18t-56.5 -7q-30 0 -56.5 6t-51 13.5t-48.5 14t-48 6.5q-43 0 -95 -33v96q20 13 45 20.5t62 7.5q31 0 55 -6t46.5 -13t46.5 -13t54 -6q25 0 48.5 8t48.5 26v-102z" />
    <glyph glyph-name="Adieresis" unicode="&#xc4;" horiz-adv-x="938" 
d="M923 0h-225l-58 137h-355l-59 -137h-207l324 716h248zM359 296h210l-104 250zM695 881q0 -33 -28.5 -55.5t-69.5 -22.5q-40 0 -68 22.5t-28 55.5t27 56t69 23q20 0 38 -6t31.5 -17t21 -25.5t7.5 -30.5zM438 881q0 -33 -28.5 -55.5t-69.5 -22.5t-69 22.5t-28 55.5t27.5 56
t69.5 23q20 0 38 -6t31.5 -17t21 -25.5t7.5 -30.5z" />
    <glyph glyph-name="Aring" unicode="&#xc5;" horiz-adv-x="938" 
d="M923 0h-225l-58 137h-355l-59 -137h-207l324 716h248zM359 296h210l-104 250zM581 876q0 -101 -113 -101q-112 0 -112 101q0 100 112 100q113 0 113 -100zM510 876q0 17 -9.5 26t-32.5 9q-42 0 -42 -35q0 -37 42 -37q23 0 32.5 9t9.5 28z" />
    <glyph glyph-name="AE" unicode="&#xc6;" horiz-adv-x="1477" 
d="M1444 551h-574v-101h503v-166h-503v-102h588v-182h-782v146h-287l-77 -146h-254l434 716h952v-165zM620 570l-137 -255h193v255h-56z" />
    <glyph glyph-name="Ccedilla" unicode="&#xc7;" horiz-adv-x="944" 
d="M720 440q-18 57 -76.5 92.5t-141.5 35.5q-115 0 -175.5 -56.5t-60.5 -153.5q0 -96 60 -153t180 -57q88 0 138 34t74 83l165 -77q-40 -96 -126.5 -149t-225.5 -61v-19q18 -4 38.5 -11t37 -18.5t27.5 -27t11 -36.5t-11 -37t-29 -27t-42 -16.5t-49 -5.5q-92 0 -126 61l60 29
q11 -14 25.5 -20t35.5 -6q34 0 34 28q0 35 -87 37v69q-84 5 -156 32.5t-124.5 76t-82.5 117t-30 154.5q0 91 35 161.5t95 119.5t140 74.5t169 25.5q69 0 130.5 -16.5t111 -45t86.5 -67.5t57 -83z" />
    <glyph glyph-name="Egrave" unicode="&#xc8;" horiz-adv-x="872" 
d="M839 551h-560v-101h489v-166h-489v-102h574v-182h-768v716h754v-165zM536 772l-291 100l42 108l273 -128z" />
    <glyph glyph-name="Eacute" unicode="&#xc9;" horiz-adv-x="872" 
d="M839 551h-560v-101h489v-166h-489v-102h574v-182h-768v716h754v-165zM620 872l-291 -100l-24 80l274 128z" />
    <glyph glyph-name="Ecircumflex" unicode="&#xca;" horiz-adv-x="872" 
d="M839 551h-560v-101h489v-166h-489v-102h574v-182h-768v716h754v-165zM625 774h-125l-73 107l-75 -107h-111l149 202h89z" />
    <glyph glyph-name="Edieresis" unicode="&#xcb;" horiz-adv-x="872" 
d="M839 551h-560v-101h489v-166h-489v-102h574v-182h-768v716h754v-165zM659 881q0 -33 -28.5 -55.5t-69.5 -22.5q-40 0 -68 22.5t-28 55.5t27 56t69 23q20 0 38 -6t31.5 -17t21 -25.5t7.5 -30.5zM402 881q0 -33 -28.5 -55.5t-69.5 -22.5t-69 22.5t-28 55.5t27.5 56t69.5 23
q20 0 38 -6t31.5 -17t21 -25.5t7.5 -30.5z" />
    <glyph glyph-name="Igrave" unicode="&#xcc;" horiz-adv-x="389" 
d="M290 0h-193v716h193v-716zM300 772l-291 100l42 108l273 -128z" />
    <glyph glyph-name="Iacute" unicode="&#xcd;" horiz-adv-x="389" 
d="M290 0h-193v716h193v-716zM381 872l-291 -100l-24 80l274 128z" />
    <glyph glyph-name="Icircumflex" unicode="&#xce;" horiz-adv-x="389" 
d="M290 0h-193v716h193v-716zM388 774h-125l-73 107l-75 -107h-111l149 202h89z" />
    <glyph glyph-name="Idieresis" unicode="&#xcf;" horiz-adv-x="389" 
d="M290 0h-193v716h193v-716zM421 881q0 -33 -28.5 -55.5t-69.5 -22.5q-40 0 -68 22.5t-28 55.5t27 56t69 23q20 0 38 -6t31.5 -17t21 -25.5t7.5 -30.5zM164 881q0 -33 -28.5 -55.5t-69.5 -22.5t-69 22.5t-28 55.5t27.5 56t69.5 23q20 0 38 -6t31.5 -17t21 -25.5t7.5 -30.5z
" />
    <glyph glyph-name="Eth" unicode="&#xd0;" horiz-adv-x="1012" 
d="M477 716q97 0 182 -16t149 -56.5t101 -110t37 -175.5q0 -60 -22.5 -123.5t-74.5 -115.5t-137.5 -85.5t-210.5 -33.5h-430v285h-54v166h54v265h406zM266 554v-103h261v-166h-261v-101h210q268 0 268 182q0 42 -15.5 77t-48.5 59.5t-83.5 38t-119.5 13.5h-211z" />
    <glyph glyph-name="Ntilde" unicode="&#xd1;" horiz-adv-x="1017" 
d="M930 0h-201l-441 466v-466h-203v716h205l436 -447v447h204v-716zM711 828q-25 -11 -50.5 -18t-56.5 -7q-30 0 -56.5 6t-51 13.5t-48.5 14t-48 6.5q-43 0 -95 -33v96q20 13 45 20.5t62 7.5q31 0 55 -6t46.5 -13t46.5 -13t54 -6q25 0 48.5 8t48.5 26v-102z" />
    <glyph glyph-name="Ograve" unicode="&#xd2;" horiz-adv-x="1051" 
d="M985 358q0 -91 -36.5 -162t-99.5 -119.5t-146.5 -74t-177.5 -25.5t-177.5 25.5t-146.5 74t-99.5 119.5t-36.5 162t36.5 161.5t99.5 119.5t146.5 74.5t177.5 25.5t177.5 -25.5t146.5 -74.5t99.5 -119.5t36.5 -161.5zM783 358q0 96 -65 153t-193 57t-193 -57t-65 -153
t65 -153t193 -57t193 57t65 153zM629 772l-291 100l42 108l273 -128z" />
    <glyph glyph-name="Oacute" unicode="&#xd3;" horiz-adv-x="1051" 
d="M985 358q0 -91 -36.5 -162t-99.5 -119.5t-146.5 -74t-177.5 -25.5t-177.5 25.5t-146.5 74t-99.5 119.5t-36.5 162t36.5 161.5t99.5 119.5t146.5 74.5t177.5 25.5t177.5 -25.5t146.5 -74.5t99.5 -119.5t36.5 -161.5zM783 358q0 96 -65 153t-193 57t-193 -57t-65 -153
t65 -153t193 -57t193 57t65 153zM713 872l-291 -100l-24 80l274 128z" />
    <glyph glyph-name="Ocircumflex" unicode="&#xd4;" horiz-adv-x="1051" 
d="M985 358q0 -91 -36.5 -162t-99.5 -119.5t-146.5 -74t-177.5 -25.5t-177.5 25.5t-146.5 74t-99.5 119.5t-36.5 162t36.5 161.5t99.5 119.5t146.5 74.5t177.5 25.5t177.5 -25.5t146.5 -74.5t99.5 -119.5t36.5 -161.5zM783 358q0 96 -65 153t-193 57t-193 -57t-65 -153
t65 -153t193 -57t193 57t65 153zM718 774h-125l-73 107l-75 -107h-111l149 202h89z" />
    <glyph glyph-name="Otilde" unicode="&#xd5;" horiz-adv-x="1051" 
d="M985 358q0 -91 -36.5 -162t-99.5 -119.5t-146.5 -74t-177.5 -25.5t-177.5 25.5t-146.5 74t-99.5 119.5t-36.5 162t36.5 161.5t99.5 119.5t146.5 74.5t177.5 25.5t177.5 -25.5t146.5 -74.5t99.5 -119.5t36.5 -161.5zM783 358q0 96 -65 153t-193 57t-193 -57t-65 -153
t65 -153t193 -57t193 57t65 153zM728 828q-25 -11 -50.5 -18t-56.5 -7q-30 0 -56.5 6t-51 13.5t-48.5 14t-48 6.5q-43 0 -95 -33v96q20 13 45 20.5t62 7.5q31 0 55 -6t46.5 -13t46.5 -13t54 -6q25 0 48.5 8t48.5 26v-102z" />
    <glyph glyph-name="Odieresis" unicode="&#xd6;" horiz-adv-x="1051" 
d="M985 358q0 -91 -36.5 -162t-99.5 -119.5t-146.5 -74t-177.5 -25.5t-177.5 25.5t-146.5 74t-99.5 119.5t-36.5 162t36.5 161.5t99.5 119.5t146.5 74.5t177.5 25.5t177.5 -25.5t146.5 -74.5t99.5 -119.5t36.5 -161.5zM783 358q0 96 -65 153t-193 57t-193 -57t-65 -153
t65 -153t193 -57t193 57t65 153zM751 881q0 -33 -28.5 -55.5t-69.5 -22.5q-40 0 -68 22.5t-28 55.5t27 56t69 23q20 0 38 -6t31.5 -17t21 -25.5t7.5 -30.5zM494 881q0 -33 -28.5 -55.5t-69.5 -22.5t-69 22.5t-28 55.5t27.5 56t69.5 23q20 0 38 -6t31.5 -17t21 -25.5
t7.5 -30.5z" />
    <glyph glyph-name="multiply" unicode="&#xd7;" horiz-adv-x="377" 
d="M264 364l84 -84l-76 -76l-84 84l-84 -84l-75 76l84 84l-85 84l76 76l84 -85l85 85l75 -76z" />
    <glyph glyph-name="Oslash" unicode="&#xd8;" horiz-adv-x="1051" 
d="M856 634q60 -49 94.5 -117.5t34.5 -158.5q0 -91 -36.5 -162t-99.5 -119.5t-146.5 -74t-177.5 -25.5q-70 0 -134.5 14t-118.5 41l-95 -97l-64 62l82 84q-61 49 -95.5 118t-34.5 159q0 91 36.5 161.5t99.5 119.5t146.5 74.5t177.5 25.5q70 0 135 -14t120 -42l84 87l65 -62z
M650 550q-26 8 -57 13t-68 5q-128 0 -193 -57t-65 -153q0 -91 55 -145zM401 165q54 -17 124 -17q128 0 193 57t65 153q0 90 -55 144z" />
    <glyph glyph-name="Ugrave" unicode="&#xd9;" horiz-adv-x="965" 
d="M884 329q0 -93 -31 -159.5t-86 -109.5t-130 -63t-163 -20t-160.5 20.5t-124 63t-80 108.5t-28.5 158v389h201v-358q0 -62 14 -102t39.5 -63t61 -32t79.5 -9q47 0 87 8t68.5 30.5t44.5 62.5t16 104v359h192v-387zM586 772l-291 100l42 108l273 -128z" />
    <glyph glyph-name="Uacute" unicode="&#xda;" horiz-adv-x="965" 
d="M884 329q0 -93 -31 -159.5t-86 -109.5t-130 -63t-163 -20t-160.5 20.5t-124 63t-80 108.5t-28.5 158v389h201v-358q0 -62 14 -102t39.5 -63t61 -32t79.5 -9q47 0 87 8t68.5 30.5t44.5 62.5t16 104v359h192v-387zM670 872l-291 -100l-24 80l274 128z" />
    <glyph glyph-name="Ucircumflex" unicode="&#xdb;" horiz-adv-x="965" 
d="M884 329q0 -93 -31 -159.5t-86 -109.5t-130 -63t-163 -20t-160.5 20.5t-124 63t-80 108.5t-28.5 158v389h201v-358q0 -62 14 -102t39.5 -63t61 -32t79.5 -9q47 0 87 8t68.5 30.5t44.5 62.5t16 104v359h192v-387zM674 774h-125l-73 107l-75 -107h-111l149 202h89z" />
    <glyph glyph-name="Udieresis" unicode="&#xdc;" horiz-adv-x="965" 
d="M884 329q0 -93 -31 -159.5t-86 -109.5t-130 -63t-163 -20t-160.5 20.5t-124 63t-80 108.5t-28.5 158v389h201v-358q0 -62 14 -102t39.5 -63t61 -32t79.5 -9q47 0 87 8t68.5 30.5t44.5 62.5t16 104v359h192v-387zM708 881q0 -33 -28.5 -55.5t-69.5 -22.5q-40 0 -68 22.5
t-28 55.5t27 56t69 23q20 0 38 -6t31.5 -17t21 -25.5t7.5 -30.5zM451 881q0 -33 -28.5 -55.5t-69.5 -22.5t-69 22.5t-28 55.5t27.5 56t69.5 23q20 0 38 -6t31.5 -17t21 -25.5t7.5 -30.5z" />
    <glyph glyph-name="Yacute" unicode="&#xdd;" horiz-adv-x="871" 
d="M539 213v-214h-199v214l-321 503h235l191 -307l184 307h227zM622 872l-291 -100l-24 80l274 128z" />
    <glyph glyph-name="Thorn" unicode="&#xde;" horiz-adv-x="913" 
d="M278 582h366q133 0 199 -59.5t66 -162.5t-67.5 -162t-205.5 -59h-358v-139h-193v716h193v-134zM278 409v-91h365q26 0 43.5 11.5t17.5 36.5q0 22 -17.5 32.5t-44.5 10.5h-364z" />
    <glyph glyph-name="germandbls" unicode="&#xdf;" horiz-adv-x="873" 
d="M276 0h-192v533q0 109 81 157.5t245 48.5q94 0 155.5 -15.5t98 -42.5t51 -64t14.5 -80q0 -48 -22 -83t-76 -56q45 -5 79 -23.5t57 -44t34.5 -53.5t11.5 -52q0 -51 -17 -95t-57.5 -77t-107 -51.5t-164.5 -18.5q-29 0 -58.5 1.5t-61.5 5.5v159q24 -1 52.5 -1.5t78.5 -0.5
q42 0 67.5 5.5t40 15t19 23.5t4.5 32q0 19 -10.5 35.5t-33.5 28.5t-60 18.5t-90 6.5v134q37 0 61 7t37 18.5t18 25t5 27.5q0 36 -33 48t-93 12q-28 0 -52.5 -3t-42.5 -10t-28.5 -17.5t-10.5 -26.5v-527z" />
    <glyph glyph-name="agrave" unicode="&#xe0;" horiz-adv-x="880" 
d="M793 176q0 -11 6 -23t21 -12q6 0 12.5 1t15.5 6v-133q-17 -16 -40.5 -22t-46.5 -6q-43 0 -77 20.5t-54 50.5q-18 -12 -49 -25t-70.5 -23t-86 -16.5t-95.5 -6.5q-136 0 -201 51.5t-65 151.5q0 59 27.5 97.5t71.5 60.5t100.5 30.5t113.5 8.5q37 0 73.5 -5t69 -12.5
t58.5 -16.5t41 -17q0 17 -10 36t-35.5 35t-70 26.5t-113.5 10.5q-32 0 -67.5 -3.5t-69.5 -10t-64.5 -15t-53.5 -18.5l-51 130q25 16 60.5 28t78 20t89.5 12t94 4q201 0 294.5 -66.5t93.5 -204.5v-144zM612 209q-5 10 -28 18.5t-55.5 14t-70.5 8.5t-73 3q-49 0 -77.5 -6
t-43 -15t-18.5 -20.5t-4 -22.5q0 -40 33.5 -53t88.5 -13q28 0 67.5 4.5t77 11.5t66.5 14t37 12v44zM537 634l-291 100l42 108l273 -128z" />
    <glyph glyph-name="aacute" unicode="&#xe1;" horiz-adv-x="880" 
d="M793 176q0 -11 6 -23t21 -12q6 0 12.5 1t15.5 6v-133q-17 -16 -40.5 -22t-46.5 -6q-43 0 -77 20.5t-54 50.5q-18 -12 -49 -25t-70.5 -23t-86 -16.5t-95.5 -6.5q-136 0 -201 51.5t-65 151.5q0 59 27.5 97.5t71.5 60.5t100.5 30.5t113.5 8.5q37 0 73.5 -5t69 -12.5
t58.5 -16.5t41 -17q0 17 -10 36t-35.5 35t-70 26.5t-113.5 10.5q-32 0 -67.5 -3.5t-69.5 -10t-64.5 -15t-53.5 -18.5l-51 130q25 16 60.5 28t78 20t89.5 12t94 4q201 0 294.5 -66.5t93.5 -204.5v-144zM612 209q-5 10 -28 18.5t-55.5 14t-70.5 8.5t-73 3q-49 0 -77.5 -6
t-43 -15t-18.5 -20.5t-4 -22.5q0 -40 33.5 -53t88.5 -13q28 0 67.5 4.5t77 11.5t66.5 14t37 12v44zM621 734l-291 -100l-24 80l274 128z" />
    <glyph glyph-name="acircumflex" unicode="&#xe2;" horiz-adv-x="880" 
d="M793 176q0 -11 6 -23t21 -12q6 0 12.5 1t15.5 6v-133q-17 -16 -40.5 -22t-46.5 -6q-43 0 -77 20.5t-54 50.5q-18 -12 -49 -25t-70.5 -23t-86 -16.5t-95.5 -6.5q-136 0 -201 51.5t-65 151.5q0 59 27.5 97.5t71.5 60.5t100.5 30.5t113.5 8.5q37 0 73.5 -5t69 -12.5
t58.5 -16.5t41 -17q0 17 -10 36t-35.5 35t-70 26.5t-113.5 10.5q-32 0 -67.5 -3.5t-69.5 -10t-64.5 -15t-53.5 -18.5l-51 130q25 16 60.5 28t78 20t89.5 12t94 4q201 0 294.5 -66.5t93.5 -204.5v-144zM612 209q-5 10 -28 18.5t-55.5 14t-70.5 8.5t-73 3q-49 0 -77.5 -6
t-43 -15t-18.5 -20.5t-4 -22.5q0 -40 33.5 -53t88.5 -13q28 0 67.5 4.5t77 11.5t66.5 14t37 12v44zM626 636h-125l-73 107l-75 -107h-111l149 202h89z" />
    <glyph glyph-name="atilde" unicode="&#xe3;" horiz-adv-x="880" 
d="M793 176q0 -11 6 -23t21 -12q6 0 12.5 1t15.5 6v-133q-17 -16 -40.5 -22t-46.5 -6q-43 0 -77 20.5t-54 50.5q-18 -12 -49 -25t-70.5 -23t-86 -16.5t-95.5 -6.5q-136 0 -201 51.5t-65 151.5q0 59 27.5 97.5t71.5 60.5t100.5 30.5t113.5 8.5q37 0 73.5 -5t69 -12.5
t58.5 -16.5t41 -17q0 17 -10 36t-35.5 35t-70 26.5t-113.5 10.5q-32 0 -67.5 -3.5t-69.5 -10t-64.5 -15t-53.5 -18.5l-51 130q25 16 60.5 28t78 20t89.5 12t94 4q201 0 294.5 -66.5t93.5 -204.5v-144zM612 209q-5 10 -28 18.5t-55.5 14t-70.5 8.5t-73 3q-49 0 -77.5 -6
t-43 -15t-18.5 -20.5t-4 -22.5q0 -40 33.5 -53t88.5 -13q28 0 67.5 4.5t77 11.5t66.5 14t37 12v44zM637 690q-25 -11 -50.5 -18t-56.5 -7q-30 0 -56.5 6t-51 13.5t-48.5 14t-48 6.5q-43 0 -95 -33v96q20 13 45 20.5t62 7.5q31 0 55 -6t46.5 -13t46.5 -13t54 -6q25 0 48.5 8
t48.5 26v-102z" />
    <glyph glyph-name="adieresis" unicode="&#xe4;" horiz-adv-x="880" 
d="M793 176q0 -11 6 -23t21 -12q6 0 12.5 1t15.5 6v-133q-17 -16 -40.5 -22t-46.5 -6q-43 0 -77 20.5t-54 50.5q-18 -12 -49 -25t-70.5 -23t-86 -16.5t-95.5 -6.5q-136 0 -201 51.5t-65 151.5q0 59 27.5 97.5t71.5 60.5t100.5 30.5t113.5 8.5q37 0 73.5 -5t69 -12.5
t58.5 -16.5t41 -17q0 17 -10 36t-35.5 35t-70 26.5t-113.5 10.5q-32 0 -67.5 -3.5t-69.5 -10t-64.5 -15t-53.5 -18.5l-51 130q25 16 60.5 28t78 20t89.5 12t94 4q201 0 294.5 -66.5t93.5 -204.5v-144zM612 209q-5 10 -28 18.5t-55.5 14t-70.5 8.5t-73 3q-49 0 -77.5 -6
t-43 -15t-18.5 -20.5t-4 -22.5q0 -40 33.5 -53t88.5 -13q28 0 67.5 4.5t77 11.5t66.5 14t37 12v44zM648 743q0 -33 -28.5 -55.5t-69.5 -22.5q-40 0 -68 22.5t-28 55.5t27 56t69 23q20 0 38 -6t31.5 -17t21 -25.5t7.5 -30.5zM391 743q0 -33 -28.5 -55.5t-69.5 -22.5t-69 22.5
t-28 55.5t27.5 56t69.5 23q20 0 38 -6t31.5 -17t21 -25.5t7.5 -30.5z" />
    <glyph glyph-name="aring" unicode="&#xe5;" horiz-adv-x="880" 
d="M793 176q0 -11 6 -23t21 -12q6 0 12.5 1t15.5 6v-133q-17 -16 -40.5 -22t-46.5 -6q-43 0 -77 20.5t-54 50.5q-18 -12 -49 -25t-70.5 -23t-86 -16.5t-95.5 -6.5q-136 0 -201 51.5t-65 151.5q0 59 27.5 97.5t71.5 60.5t100.5 30.5t113.5 8.5q37 0 73.5 -5t69 -12.5
t58.5 -16.5t41 -17q0 17 -10 36t-35.5 35t-70 26.5t-113.5 10.5q-32 0 -67.5 -3.5t-69.5 -10t-64.5 -15t-53.5 -18.5l-51 130q25 16 60.5 28t78 20t89.5 12t94 4q201 0 294.5 -66.5t93.5 -204.5v-144zM612 209q-5 10 -28 18.5t-55.5 14t-70.5 8.5t-73 3q-49 0 -77.5 -6
t-43 -15t-18.5 -20.5t-4 -22.5q0 -40 33.5 -53t88.5 -13q28 0 67.5 4.5t77 11.5t66.5 14t37 12v44zM546 738q0 -101 -113 -101q-112 0 -112 101q0 100 112 100q113 0 113 -100zM475 738q0 17 -9.5 26t-32.5 9q-42 0 -42 -35q0 -37 42 -37q23 0 32.5 9t9.5 28z" />
    <glyph glyph-name="ae" unicode="&#xe6;" horiz-adv-x="1394" 
d="M1329 242h-546q9 -31 28 -54.5t45 -39.5t57.5 -24.5t66.5 -8.5q63 0 98.5 15t50.5 45h207q-10 -39 -42 -73.5t-79.5 -60t-107 -40t-124.5 -14.5q-100 0 -174 23t-120 80q-34 -27 -69.5 -46t-77.5 -32t-94 -19t-119 -6q-136 0 -201 51.5t-65 151.5q0 59 27.5 97.5
t71.5 60.5t100.5 30.5t113.5 8.5q37 0 73.5 -5t69 -12.5t58.5 -16.5t41 -17q0 17 -10 36t-35.5 35t-70 26.5t-113.5 10.5q-32 0 -67.5 -3.5t-69.5 -10t-64.5 -15t-53.5 -18.5q-13 33 -26 65t-25 65q25 16 60.5 28t78 20t89.5 12t94 4q117 0 189 -21t117 -56
q51 38 116.5 57.5t153.5 19.5q82 0 147 -27.5t109.5 -72.5t68 -102.5t23.5 -117.5v-29zM363 122q115 0 181 17.5t66 60.5q0 14 -19 24t-50.5 16.5t-72 9.5t-83.5 3q-49 0 -77.5 -6t-43 -15t-18.5 -20.5t-4 -22.5q0 -40 33 -53.5t88 -13.5zM1133 358q-1 21 -15 39t-35.5 31
t-48.5 20t-54 7q-34 0 -64.5 -4.5t-55.5 -15.5t-43.5 -30t-28.5 -47h345z" />
    <glyph glyph-name="ccedilla" unicode="&#xe7;" horiz-adv-x="815" 
d="M611 342q-20 48 -63.5 76t-106.5 28q-41 0 -77 -9t-63 -28t-42.5 -48.5t-15.5 -71.5t16 -71.5t43 -48.5t63 -28t77 -9q30 0 58.5 7.5t52 22t40 35t22.5 46.5l153 -75q-11 -35 -36 -65.5t-62.5 -54.5t-88 -40t-112.5 -20v-29q18 -4 38 -11t36.5 -18.5t27.5 -27t11 -36.5
t-11 -37t-29 -27t-42 -16.5t-49 -5.5q-90 0 -126 61l61 29q20 -26 61 -26q34 0 34 28q0 36 -88 37v79q-70 4 -130.5 25.5t-104.5 59t-69.5 92t-25.5 124.5q0 75 29 132t79.5 94.5t120 56.5t150.5 19q59 0 110.5 -14.5t93.5 -38.5t72 -56t46 -66z" />
    <glyph glyph-name="egrave" unicode="&#xe8;" horiz-adv-x="854" 
d="M790 242h-546q9 -31 28 -53.5t45 -37.5t57.5 -22.5t66.5 -7.5q63 0 98.5 12.5t50.5 41.5h206q-9 -39 -41 -73.5t-79.5 -60t-107.5 -40t-124 -14.5q-82 0 -151.5 19t-120.5 56.5t-80 94t-29 131.5q0 76 29 132.5t79.5 94.5t120 57t150.5 19q82 0 147 -27.5t109.5 -72.5
t68 -102.5t23.5 -117.5v-29zM593 358q-2 24 -16 42t-35.5 30t-48 18.5t-52.5 6.5q-34 0 -64.5 -4.5t-55.5 -15.5t-43.5 -30t-28.5 -47h344zM531 634l-291 100l42 108l273 -128z" />
    <glyph glyph-name="eacute" unicode="&#xe9;" horiz-adv-x="854" 
d="M790 242h-546q9 -31 28 -53.5t45 -37.5t57.5 -22.5t66.5 -7.5q63 0 98.5 12.5t50.5 41.5h206q-9 -39 -41 -73.5t-79.5 -60t-107.5 -40t-124 -14.5q-82 0 -151.5 19t-120.5 56.5t-80 94t-29 131.5q0 76 29 132.5t79.5 94.5t120 57t150.5 19q82 0 147 -27.5t109.5 -72.5
t68 -102.5t23.5 -117.5v-29zM593 358q-2 24 -16 42t-35.5 30t-48 18.5t-52.5 6.5q-34 0 -64.5 -4.5t-55.5 -15.5t-43.5 -30t-28.5 -47h344zM615 734l-291 -100l-24 80l274 128z" />
    <glyph glyph-name="ecircumflex" unicode="&#xea;" horiz-adv-x="854" 
d="M790 242h-546q9 -31 28 -53.5t45 -37.5t57.5 -22.5t66.5 -7.5q63 0 98.5 12.5t50.5 41.5h206q-9 -39 -41 -73.5t-79.5 -60t-107.5 -40t-124 -14.5q-82 0 -151.5 19t-120.5 56.5t-80 94t-29 131.5q0 76 29 132.5t79.5 94.5t120 57t150.5 19q82 0 147 -27.5t109.5 -72.5
t68 -102.5t23.5 -117.5v-29zM593 358q-2 24 -16 42t-35.5 30t-48 18.5t-52.5 6.5q-34 0 -64.5 -4.5t-55.5 -15.5t-43.5 -30t-28.5 -47h344zM620 636h-125l-73 107l-75 -107h-111l149 202h89z" />
    <glyph glyph-name="edieresis" unicode="&#xeb;" horiz-adv-x="854" 
d="M790 242h-546q9 -31 28 -53.5t45 -37.5t57.5 -22.5t66.5 -7.5q63 0 98.5 12.5t50.5 41.5h206q-9 -39 -41 -73.5t-79.5 -60t-107.5 -40t-124 -14.5q-82 0 -151.5 19t-120.5 56.5t-80 94t-29 131.5q0 76 29 132.5t79.5 94.5t120 57t150.5 19q82 0 147 -27.5t109.5 -72.5
t68 -102.5t23.5 -117.5v-29zM593 358q-2 24 -16 42t-35.5 30t-48 18.5t-52.5 6.5q-34 0 -64.5 -4.5t-55.5 -15.5t-43.5 -30t-28.5 -47h344zM652 743q0 -33 -28.5 -55.5t-69.5 -22.5q-40 0 -68 22.5t-28 55.5t27 56t69 23q20 0 38 -6t31.5 -17t21 -25.5t7.5 -30.5zM395 743
q0 -33 -28.5 -55.5t-69.5 -22.5t-69 22.5t-28 55.5t27.5 56t69.5 23q20 0 38 -6t31.5 -17t21 -25.5t7.5 -30.5z" />
    <glyph glyph-name="igrave" unicode="&#xec;" 
d="M295 634l-291 100l42 108l273 -128zM285 0h-194v578h194v-578z" />
    <glyph glyph-name="iacute" unicode="&#xed;" 
d="M377 734l-291 -100l-24 80l274 128zM285 0h-194v578h194v-578z" />
    <glyph glyph-name="icircumflex" unicode="&#xee;" 
d="M285 0h-194v578h194v-578zM384 636h-125l-73 107l-75 -107h-111l149 202h89z" />
    <glyph glyph-name="idieresis" unicode="&#xef;" 
d="M417 743q0 -33 -28.5 -55.5t-69.5 -22.5q-40 0 -68 22.5t-28 55.5t27 56t69 23q20 0 38 -6t31.5 -17t21 -25.5t7.5 -30.5zM160 743q0 -33 -28.5 -55.5t-69.5 -22.5t-69 22.5t-28 55.5t27.5 56t69.5 23q20 0 38 -6t31.5 -17t21 -25.5t7.5 -30.5zM285 0h-194v578h194v-578z
" />
    <glyph glyph-name="eth" unicode="&#xf0;" horiz-adv-x="773" 
d="M688 694l-94 -55q55 -63 90 -146t35 -174q0 -163 -79.5 -247.5t-248.5 -84.5q-75 0 -135.5 17t-103 49t-66 78t-23.5 103q0 106 78 164t224 58q16 0 36.5 -1t42.5 -3.5t42.5 -6t35.5 -8.5q-12 39 -32.5 68.5t-40.5 54.5l-118 -66l-41 49l109 60q-27 23 -49 37t-33 19
l153 79q20 -10 39 -23t37 -30l99 54zM541 227q0 64 -33 88t-108 24q-70 0 -107.5 -24.5t-37.5 -87.5t35.5 -93t102.5 -30q70 0 109 31t39 92z" />
    <glyph glyph-name="ntilde" unicode="&#xf1;" horiz-adv-x="870" 
d="M789 0h-194v241q0 59 -9 97.5t-26.5 61t-43.5 31.5t-59 9q-51 0 -91 -19t-88 -61v-360h-193v578h182v-71q40 37 95 60.5t125 23.5q55 0 109 -13.5t97 -51t69.5 -105t26.5 -175.5v-246zM638 690q-25 -11 -50.5 -18t-56.5 -7q-30 0 -56.5 6t-51 13.5t-48.5 14t-48 6.5
q-43 0 -95 -33v96q20 13 45 20.5t62 7.5q31 0 55 -6t46.5 -13t46.5 -13t54 -6q25 0 48.5 8t48.5 26v-102z" />
    <glyph glyph-name="ograve" unicode="&#xf2;" horiz-adv-x="897" 
d="M833 289q0 -75 -30 -132t-81.5 -94.5t-122 -56.5t-151.5 -19t-151.5 19t-122 56.5t-81.5 94.5t-30 132t30 132t81.5 94.5t122 56.5t151.5 19t151.5 -19t122 -56.5t81.5 -94.5t30 -132zM651 289q0 42 -16.5 71.5t-45 48.5t-65.5 28t-77 9q-41 0 -77.5 -9t-65 -28
t-45 -48.5t-16.5 -71.5t16.5 -71.5t45 -48.5t65 -28t77.5 -9q40 0 77 9t65.5 28t45 48.5t16.5 71.5zM552 634l-291 100l42 108l273 -128z" />
    <glyph glyph-name="oacute" unicode="&#xf3;" horiz-adv-x="897" 
d="M833 289q0 -75 -30 -132t-81.5 -94.5t-122 -56.5t-151.5 -19t-151.5 19t-122 56.5t-81.5 94.5t-30 132t30 132t81.5 94.5t122 56.5t151.5 19t151.5 -19t122 -56.5t81.5 -94.5t30 -132zM651 289q0 42 -16.5 71.5t-45 48.5t-65.5 28t-77 9q-41 0 -77.5 -9t-65 -28
t-45 -48.5t-16.5 -71.5t16.5 -71.5t45 -48.5t65 -28t77.5 -9q40 0 77 9t65.5 28t45 48.5t16.5 71.5zM636 734l-291 -100l-24 80l274 128z" />
    <glyph glyph-name="ocircumflex" unicode="&#xf4;" horiz-adv-x="897" 
d="M833 289q0 -75 -30 -132t-81.5 -94.5t-122 -56.5t-151.5 -19t-151.5 19t-122 56.5t-81.5 94.5t-30 132t30 132t81.5 94.5t122 56.5t151.5 19t151.5 -19t122 -56.5t81.5 -94.5t30 -132zM651 289q0 42 -16.5 71.5t-45 48.5t-65.5 28t-77 9q-41 0 -77.5 -9t-65 -28
t-45 -48.5t-16.5 -71.5t16.5 -71.5t45 -48.5t65 -28t77.5 -9q40 0 77 9t65.5 28t45 48.5t16.5 71.5zM641 636h-125l-73 107l-75 -107h-111l149 202h89z" />
    <glyph glyph-name="otilde" unicode="&#xf5;" horiz-adv-x="897" 
d="M833 289q0 -75 -30 -132t-81.5 -94.5t-122 -56.5t-151.5 -19t-151.5 19t-122 56.5t-81.5 94.5t-30 132t30 132t81.5 94.5t122 56.5t151.5 19t151.5 -19t122 -56.5t81.5 -94.5t30 -132zM651 289q0 42 -16.5 71.5t-45 48.5t-65.5 28t-77 9q-41 0 -77.5 -9t-65 -28
t-45 -48.5t-16.5 -71.5t16.5 -71.5t45 -48.5t65 -28t77.5 -9q40 0 77 9t65.5 28t45 48.5t16.5 71.5zM651 690q-25 -11 -50.5 -18t-56.5 -7q-30 0 -56.5 6t-51 13.5t-48.5 14t-48 6.5q-43 0 -95 -33v96q20 13 45 20.5t62 7.5q31 0 55 -6t46.5 -13t46.5 -13t54 -6q25 0 48.5 8
t48.5 26v-102z" />
    <glyph glyph-name="odieresis" unicode="&#xf6;" horiz-adv-x="897" 
d="M833 289q0 -75 -30 -132t-81.5 -94.5t-122 -56.5t-151.5 -19t-151.5 19t-122 56.5t-81.5 94.5t-30 132t30 132t81.5 94.5t122 56.5t151.5 19t151.5 -19t122 -56.5t81.5 -94.5t30 -132zM651 289q0 42 -16.5 71.5t-45 48.5t-65.5 28t-77 9q-41 0 -77.5 -9t-65 -28
t-45 -48.5t-16.5 -71.5t16.5 -71.5t45 -48.5t65 -28t77.5 -9q40 0 77 9t65.5 28t45 48.5t16.5 71.5zM675 743q0 -33 -28.5 -55.5t-69.5 -22.5q-40 0 -68 22.5t-28 55.5t27 56t69 23q20 0 38 -6t31.5 -17t21 -25.5t7.5 -30.5zM418 743q0 -33 -28.5 -55.5t-69.5 -22.5
t-69 22.5t-28 55.5t27.5 56t69.5 23q20 0 38 -6t31.5 -17t21 -25.5t7.5 -30.5z" />
    <glyph glyph-name="divide" unicode="&#xf7;" horiz-adv-x="396" 
d="M370 310h-344v107h344v-107zM294 172q0 -38 -28.5 -63t-70.5 -25t-69.5 25t-27.5 63q0 36 27.5 61t69.5 25t70.5 -25t28.5 -61zM294 546q0 -37 -28.5 -62t-70.5 -25t-69.5 25t-27.5 62t27.5 61.5t69.5 24.5t70.5 -24.5t28.5 -61.5z" />
    <glyph glyph-name="oslash" unicode="&#xf8;" horiz-adv-x="897" 
d="M727 512q51 -38 78.5 -93t27.5 -130t-30 -132t-81.5 -94.5t-122 -56.5t-151.5 -19q-112 0 -199 34l-83 -86l-65 62l68 70q-49 38 -77.5 92.5t-28.5 129.5t30 132t81.5 94.5t122 56.5t151.5 19q110 0 197 -34l90 93l65 -62zM528 437q-19 4 -40 6.5t-41 2.5q-41 0 -77.5 -9
t-65 -28t-45 -48.5t-16.5 -71.5q0 -34 10.5 -60t29.5 -45zM366 141q19 -5 39 -7t42 -2q40 0 77 9t65.5 28t45 48.5t16.5 71.5q0 34 -11 59.5t-29 43.5z" />
    <glyph glyph-name="ugrave" unicode="&#xf9;" horiz-adv-x="862" 
d="M775 0h-182v70q-40 -36 -94 -59.5t-124 -23.5q-55 0 -109 13.5t-96.5 51t-69 105t-26.5 175.5v246h195v-242q0 -59 8.5 -97t23.5 -60.5t35.5 -31.5t45.5 -9q60 0 108.5 22t91.5 57v361h193v-578zM534 634l-291 100l42 108l273 -128z" />
    <glyph glyph-name="uacute" unicode="&#xfa;" horiz-adv-x="862" 
d="M775 0h-182v70q-40 -36 -94 -59.5t-124 -23.5q-55 0 -109 13.5t-96.5 51t-69 105t-26.5 175.5v246h195v-242q0 -59 8.5 -97t23.5 -60.5t35.5 -31.5t45.5 -9q60 0 108.5 22t91.5 57v361h193v-578zM618 734l-291 -100l-24 80l274 128z" />
    <glyph glyph-name="ucircumflex" unicode="&#xfb;" horiz-adv-x="862" 
d="M775 0h-182v70q-40 -36 -94 -59.5t-124 -23.5q-55 0 -109 13.5t-96.5 51t-69 105t-26.5 175.5v246h195v-242q0 -59 8.5 -97t23.5 -60.5t35.5 -31.5t45.5 -9q60 0 108.5 22t91.5 57v361h193v-578zM623 636h-125l-73 107l-75 -107h-111l149 202h89z" />
    <glyph glyph-name="udieresis" unicode="&#xfc;" horiz-adv-x="862" 
d="M775 0h-182v70q-40 -36 -94 -59.5t-124 -23.5q-55 0 -109 13.5t-96.5 51t-69 105t-26.5 175.5v246h195v-242q0 -59 8.5 -97t23.5 -60.5t35.5 -31.5t45.5 -9q60 0 108.5 22t91.5 57v361h193v-578zM657 743q0 -33 -28.5 -55.5t-69.5 -22.5q-40 0 -68 22.5t-28 55.5t27 56
t69 23q20 0 38 -6t31.5 -17t21 -25.5t7.5 -30.5zM400 743q0 -33 -28.5 -55.5t-69.5 -22.5t-69 22.5t-28 55.5t27.5 56t69.5 23q20 0 38 -6t31.5 -17t21 -25.5t7.5 -30.5z" />
    <glyph glyph-name="yacute" unicode="&#xfd;" horiz-adv-x="777" 
d="M477 -9q-20 -41 -48.5 -68.5t-63.5 -44t-74.5 -24t-81.5 -7.5q-36 0 -64 1t-50 3t-38.5 4.5t-31.5 6.5l37 154q26 -8 65.5 -15t87.5 -7q41 0 63 7t22 32l-281 545h203l183 -388l166 388h191zM576 734l-291 -100l-24 80l274 128z" />
    <glyph glyph-name="thorn" unicode="&#xfe;" horiz-adv-x="886" 
d="M273 512q38 35 100.5 57t143.5 22q51 0 105.5 -15.5t98.5 -51.5t72.5 -93.5t28.5 -141.5q0 -80 -28 -137t-74 -94t-104.5 -54.5t-119.5 -17.5q-75 0 -129.5 17.5t-93.5 40.5v-205h-188v900h188v-227zM636 287q0 39 -15 68t-40 48t-58.5 28t-70.5 9q-36 0 -70 -9.5
t-61 -28.5t-43.5 -47.5t-16.5 -66.5q0 -41 17.5 -70.5t45.5 -48.5t62 -28t67 -9q36 0 69.5 9t58.5 28t40 48t15 70z" />
    <glyph glyph-name="ydieresis" unicode="&#xff;" horiz-adv-x="777" 
d="M477 -9q-20 -41 -48.5 -68.5t-63.5 -44t-74.5 -24t-81.5 -7.5q-36 0 -64 1t-50 3t-38.5 4.5t-31.5 6.5l37 154q26 -8 65.5 -15t87.5 -7q41 0 63 7t22 32l-281 545h203l183 -388l166 388h191zM614 743q0 -33 -28.5 -55.5t-69.5 -22.5q-40 0 -68 22.5t-28 55.5t27 56t69 23
q20 0 38 -6t31.5 -17t21 -25.5t7.5 -30.5zM357 743q0 -33 -28.5 -55.5t-69.5 -22.5t-69 22.5t-28 55.5t27.5 56t69.5 23q20 0 38 -6t31.5 -17t21 -25.5t7.5 -30.5z" />
    <glyph glyph-name="Amacron" unicode="&#x100;" horiz-adv-x="938" 
d="M923 0h-225l-58 137h-355l-59 -137h-207l324 716h248zM359 296h210l-104 250zM645 808h-352v122h352v-122z" />
    <glyph glyph-name="amacron" unicode="&#x101;" horiz-adv-x="880" 
d="M793 176q0 -11 6 -23t21 -12q6 0 12.5 1t15.5 6v-133q-17 -16 -40.5 -22t-46.5 -6q-43 0 -77 20.5t-54 50.5q-18 -12 -49 -25t-70.5 -23t-86 -16.5t-95.5 -6.5q-136 0 -201 51.5t-65 151.5q0 59 27.5 97.5t71.5 60.5t100.5 30.5t113.5 8.5q37 0 73.5 -5t69 -12.5
t58.5 -16.5t41 -17q0 17 -10 36t-35.5 35t-70 26.5t-113.5 10.5q-32 0 -67.5 -3.5t-69.5 -10t-64.5 -15t-53.5 -18.5l-51 130q25 16 60.5 28t78 20t89.5 12t94 4q201 0 294.5 -66.5t93.5 -204.5v-144zM612 209q-5 10 -28 18.5t-55.5 14t-70.5 8.5t-73 3q-49 0 -77.5 -6
t-43 -15t-18.5 -20.5t-4 -22.5q0 -40 33.5 -53t88.5 -13q28 0 67.5 4.5t77 11.5t66.5 14t37 12v44zM610 670h-352v122h352v-122z" />
    <glyph glyph-name="Abreve" unicode="&#x102;" horiz-adv-x="938" 
d="M923 0h-225l-58 137h-355l-59 -137h-207l324 716h248zM359 296h210l-104 250zM628 976q-5 -36 -16.5 -68.5t-31 -56.5t-47.5 -38.5t-66 -14.5q-39 0 -67 14.5t-47 38.5t-29.5 56.5t-13.5 68.5h85q3 -35 21.5 -61t50.5 -26t51.5 22.5t22.5 64.5h87z" />
    <glyph glyph-name="abreve" unicode="&#x103;" horiz-adv-x="880" 
d="M793 176q0 -11 6 -23t21 -12q6 0 12.5 1t15.5 6v-133q-17 -16 -40.5 -22t-46.5 -6q-43 0 -77 20.5t-54 50.5q-18 -12 -49 -25t-70.5 -23t-86 -16.5t-95.5 -6.5q-136 0 -201 51.5t-65 151.5q0 59 27.5 97.5t71.5 60.5t100.5 30.5t113.5 8.5q37 0 73.5 -5t69 -12.5
t58.5 -16.5t41 -17q0 17 -10 36t-35.5 35t-70 26.5t-113.5 10.5q-32 0 -67.5 -3.5t-69.5 -10t-64.5 -15t-53.5 -18.5l-51 130q25 16 60.5 28t78 20t89.5 12t94 4q201 0 294.5 -66.5t93.5 -204.5v-144zM612 209q-5 10 -28 18.5t-55.5 14t-70.5 8.5t-73 3q-49 0 -77.5 -6
t-43 -15t-18.5 -20.5t-4 -22.5q0 -40 33.5 -53t88.5 -13q28 0 67.5 4.5t77 11.5t66.5 14t37 12v44zM592 838q-5 -36 -16.5 -68.5t-31 -56.5t-47.5 -38.5t-66 -14.5q-39 0 -67 14.5t-47 38.5t-29.5 56.5t-13.5 68.5h85q3 -35 21.5 -61t50.5 -26t51.5 22.5t22.5 64.5h87z" />
    <glyph glyph-name="Aogonek" unicode="&#x104;" horiz-adv-x="938" 
d="M1002 -209q-24 -8 -63.5 -14t-109.5 -6q-64 0 -96 24t-32 51q0 21 11 42.5t30.5 42t46 38t57.5 31.5h-148l-58 137h-355q-14 -35 -29.5 -68.5t-29.5 -68.5h-207l324 716h248l332 -716q-45 -27 -69 -49t-24 -36q0 -19 16 -27t33 -8q46 0 78 4.5t56 9.5zM359 296h210
l-104 250z" />
    <glyph glyph-name="aogonek" unicode="&#x105;" horiz-adv-x="880" 
d="M904 -209q-24 -8 -63.5 -14t-109.5 -6q-64 0 -96 24t-32 51q0 38 34.5 77t89.5 67q-32 8 -56 26t-41 42q-18 -12 -49 -25t-70.5 -23t-86 -16.5t-95.5 -6.5q-136 0 -201 51.5t-65 151.5q0 59 27.5 97.5t71.5 60.5t100.5 30.5t113.5 8.5q37 0 73.5 -5t69 -12.5t58.5 -16.5
t41 -17q0 17 -10 36t-35.5 35t-70 26.5t-113.5 10.5q-32 0 -67.5 -3.5t-69.5 -10t-64.5 -15t-53.5 -18.5l-51 130q25 16 60.5 28t78 20t89.5 12t94 4q201 0 294.5 -66.5t93.5 -204.5v-144q0 -11 6 -23t21 -12q6 0 12.5 1t15.5 6v-133q-8 -5 -27 -15.5t-39 -24t-35 -29.5
t-15 -31q0 -19 16 -27t33 -8q46 0 78 4.5t56 9.5zM612 209q-5 10 -28 18.5t-55.5 14t-70.5 8.5t-73 3q-49 0 -77.5 -6t-43 -15t-18.5 -20.5t-4 -22.5q0 -40 32 -55t87 -15q26 0 66 6t79 13.5t69 15t37 11.5v44z" />
    <glyph glyph-name="Cacute" unicode="&#x106;" horiz-adv-x="944" 
d="M720 440q-18 57 -76.5 92.5t-141.5 35.5q-115 0 -175.5 -56.5t-60.5 -153.5q0 -96 60 -153t180 -57q88 0 138 34t74 83l165 -77q-43 -103 -139.5 -157t-252.5 -54q-90 0 -168 25.5t-136 74t-91 119.5t-33 162t35 161.5t95 119.5t140 74.5t169 25.5q69 0 130.5 -16.5
t111 -45t86.5 -67.5t57 -83zM690 872l-291 -100l-24 80l274 128z" />
    <glyph glyph-name="cacute" unicode="&#x107;" horiz-adv-x="815" 
d="M611 342q-20 48 -63.5 76t-106.5 28q-41 0 -77 -9t-63 -28t-42.5 -48.5t-15.5 -71.5t16 -71.5t43 -48.5t63 -28t77 -9q30 0 58.5 7.5t52 22t40 35t22.5 46.5l153 -75q-12 -37 -39.5 -70t-69.5 -57.5t-99 -39t-128 -14.5q-77 0 -144.5 19t-117.5 56.5t-78.5 94.5
t-28.5 132t29 132t79.5 94.5t120 56.5t150.5 19q59 0 110.5 -14.5t93.5 -38.5t72 -56t46 -66zM626 734l-291 -100l-24 80l274 128z" />
    <glyph glyph-name="Ccircumflex" unicode="&#x108;" horiz-adv-x="944" 
d="M720 440q-18 57 -76.5 92.5t-141.5 35.5q-115 0 -175.5 -56.5t-60.5 -153.5q0 -96 60 -153t180 -57q88 0 138 34t74 83l165 -77q-43 -103 -139.5 -157t-252.5 -54q-90 0 -168 25.5t-136 74t-91 119.5t-33 162t35 161.5t95 119.5t140 74.5t169 25.5q69 0 130.5 -16.5
t111 -45t86.5 -67.5t57 -83zM695 774h-125l-73 107l-75 -107h-111l149 202h89z" />
    <glyph glyph-name="ccircumflex" unicode="&#x109;" horiz-adv-x="815" 
d="M611 342q-20 48 -63.5 76t-106.5 28q-41 0 -77 -9t-63 -28t-42.5 -48.5t-15.5 -71.5t16 -71.5t43 -48.5t63 -28t77 -9q30 0 58.5 7.5t52 22t40 35t22.5 46.5l153 -75q-12 -37 -39.5 -70t-69.5 -57.5t-99 -39t-128 -14.5q-77 0 -144.5 19t-117.5 56.5t-78.5 94.5
t-28.5 132t29 132t79.5 94.5t120 56.5t150.5 19q59 0 110.5 -14.5t93.5 -38.5t72 -56t46 -66zM631 636h-125l-73 107l-75 -107h-111l149 202h89z" />
    <glyph glyph-name="Cdotaccent" unicode="&#x10a;" horiz-adv-x="944" 
d="M720 440q-18 57 -76.5 92.5t-141.5 35.5q-115 0 -175.5 -56.5t-60.5 -153.5q0 -96 60 -153t180 -57q88 0 138 34t74 83l165 -77q-43 -103 -139.5 -157t-252.5 -54q-90 0 -168 25.5t-136 74t-91 119.5t-33 162t35 161.5t95 119.5t140 74.5t169 25.5q69 0 130.5 -16.5
t111 -45t86.5 -67.5t57 -83zM599 881q0 -33 -28.5 -55.5t-69.5 -22.5q-40 0 -68 22.5t-28 55.5t27 56t69 23q20 0 38 -6t31.5 -17t21 -25.5t7.5 -30.5z" />
    <glyph glyph-name="cdotaccent" unicode="&#x10b;" horiz-adv-x="815" 
d="M611 342q-20 48 -63.5 76t-106.5 28q-41 0 -77 -9t-63 -28t-42.5 -48.5t-15.5 -71.5t16 -71.5t43 -48.5t63 -28t77 -9q30 0 58.5 7.5t52 22t40 35t22.5 46.5l153 -75q-12 -37 -39.5 -70t-69.5 -57.5t-99 -39t-128 -14.5q-77 0 -144.5 19t-117.5 56.5t-78.5 94.5
t-28.5 132t29 132t79.5 94.5t120 56.5t150.5 19q59 0 110.5 -14.5t93.5 -38.5t72 -56t46 -66zM534 743q0 -33 -28.5 -55.5t-69.5 -22.5q-40 0 -68 22.5t-28 55.5t27 56t69 23q20 0 38 -6t31.5 -17t21 -25.5t7.5 -30.5z" />
    <glyph glyph-name="Ccaron" unicode="&#x10c;" horiz-adv-x="944" 
d="M720 440q-18 57 -76.5 92.5t-141.5 35.5q-115 0 -175.5 -56.5t-60.5 -153.5q0 -96 60 -153t180 -57q88 0 138 34t74 83l165 -77q-43 -103 -139.5 -157t-252.5 -54q-90 0 -168 25.5t-136 74t-91 119.5t-33 162t35 161.5t95 119.5t140 74.5t169 25.5q69 0 130.5 -16.5
t111 -45t86.5 -67.5t57 -83zM310 976h124l72 -108l77 108h111l-150 -202h-88z" />
    <glyph glyph-name="ccaron" unicode="&#x10d;" horiz-adv-x="815" 
d="M611 342q-20 48 -63.5 76t-106.5 28q-41 0 -77 -9t-63 -28t-42.5 -48.5t-15.5 -71.5t16 -71.5t43 -48.5t63 -28t77 -9q30 0 58.5 7.5t52 22t40 35t22.5 46.5l153 -75q-12 -37 -39.5 -70t-69.5 -57.5t-99 -39t-128 -14.5q-77 0 -144.5 19t-117.5 56.5t-78.5 94.5
t-28.5 132t29 132t79.5 94.5t120 56.5t150.5 19q59 0 110.5 -14.5t93.5 -38.5t72 -56t46 -66zM246 838h124l72 -108l77 108h111l-150 -202h-88z" />
    <glyph glyph-name="Dcaron" unicode="&#x10e;" horiz-adv-x="1025" 
d="M490 716q97 0 182 -16t149 -56.5t101 -110t37 -175.5q0 -60 -22.5 -123.5t-74.5 -115.5t-137.5 -85.5t-210.5 -33.5h-429v716h405zM279 554v-370h210q269 0 269 182q0 85 -64 136.5t-204 51.5h-211zM253 976h124l72 -108l77 108h111l-150 -202h-88z" />
    <glyph glyph-name="dcaron" unicode="&#x10f;" horiz-adv-x="978" 
d="M607 739h188v-739h-182v44q-42 -24 -98 -40.5t-134 -16.5q-61 0 -119 17.5t-103.5 54.5t-73.5 94t-28 136q0 84 28.5 141.5t73 93.5t98.5 52t106 16q81 0 143.5 -22t100.5 -58v227zM243 287q0 -41 15 -70t40.5 -48t58.5 -28t70 -9q38 0 73.5 11.5t62.5 33t43 51t16 65.5
t-16 63t-43 46t-62 28.5t-73 9.5t-71.5 -9t-58.5 -28t-40 -48t-15 -68zM938 555h-103l44 184h151z" />
    <glyph glyph-name="Dcroat" unicode="&#x110;" horiz-adv-x="1012" 
d="M477 716q97 0 182 -16t149 -56.5t101 -110t37 -175.5q0 -60 -22.5 -123.5t-74.5 -115.5t-137.5 -85.5t-210.5 -33.5h-430v285h-54v166h54v265h406zM266 554v-103h261v-166h-261v-101h210q268 0 268 182q0 42 -15.5 77t-48.5 59.5t-83.5 38t-119.5 13.5h-211z" />
    <glyph glyph-name="dcroat" unicode="&#x111;" horiz-adv-x="882" 
d="M607 623h-159v79h159v37h188v-37h87v-79h-87v-623h-182v44q-42 -24 -98 -40.5t-134 -16.5q-61 0 -119 17.5t-103.5 54.5t-73.5 94t-28 136q0 84 28.5 141.5t73 93.5t98.5 52t106 16q81 0 143.5 -22t100.5 -58v111zM243 287q0 -41 15 -70t40.5 -48t58.5 -28t70 -9
q38 0 73.5 11.5t62.5 33t43 51t16 65.5t-16 63t-43 46t-62 28.5t-73 9.5t-71.5 -9t-58.5 -28t-40 -48t-15 -68z" />
    <glyph glyph-name="Emacron" unicode="&#x112;" horiz-adv-x="872" 
d="M839 551h-560v-101h489v-166h-489v-102h574v-182h-768v716h754v-165zM609 808h-352v122h352v-122z" />
    <glyph glyph-name="emacron" unicode="&#x113;" horiz-adv-x="854" 
d="M790 242h-546q9 -31 28 -53.5t45 -37.5t57.5 -22.5t66.5 -7.5q63 0 98.5 12.5t50.5 41.5h206q-9 -39 -41 -73.5t-79.5 -60t-107.5 -40t-124 -14.5q-82 0 -151.5 19t-120.5 56.5t-80 94t-29 131.5q0 76 29 132.5t79.5 94.5t120 57t150.5 19q82 0 147 -27.5t109.5 -72.5
t68 -102.5t23.5 -117.5v-29zM593 358q-2 24 -16 42t-35.5 30t-48 18.5t-52.5 6.5q-34 0 -64.5 -4.5t-55.5 -15.5t-43.5 -30t-28.5 -47h344zM603 670h-352v122h352v-122z" />
    <glyph glyph-name="Ebreve" unicode="&#x114;" horiz-adv-x="872" 
d="M839 551h-560v-101h489v-166h-489v-102h574v-182h-768v716h754v-165zM592 976q-5 -36 -16.5 -68.5t-31 -56.5t-47.5 -38.5t-66 -14.5q-39 0 -67 14.5t-47 38.5t-29.5 56.5t-13.5 68.5h85q3 -35 21.5 -61t50.5 -26t51.5 22.5t22.5 64.5h87z" />
    <glyph glyph-name="ebreve" unicode="&#x115;" horiz-adv-x="854" 
d="M790 242h-546q9 -31 28 -53.5t45 -37.5t57.5 -22.5t66.5 -7.5q63 0 98.5 12.5t50.5 41.5h206q-9 -39 -41 -73.5t-79.5 -60t-107.5 -40t-124 -14.5q-82 0 -151.5 19t-120.5 56.5t-80 94t-29 131.5q0 76 29 132.5t79.5 94.5t120 57t150.5 19q82 0 147 -27.5t109.5 -72.5
t68 -102.5t23.5 -117.5v-29zM593 358q-2 24 -16 42t-35.5 30t-48 18.5t-52.5 6.5q-34 0 -64.5 -4.5t-55.5 -15.5t-43.5 -30t-28.5 -47h344zM585 838q-5 -36 -16.5 -68.5t-31 -56.5t-47.5 -38.5t-66 -14.5q-39 0 -67 14.5t-47 38.5t-29.5 56.5t-13.5 68.5h85q3 -35 21.5 -61
t50.5 -26t51.5 22.5t22.5 64.5h87z" />
    <glyph glyph-name="Edotaccent" unicode="&#x116;" horiz-adv-x="872" 
d="M839 551h-560v-101h489v-166h-489v-102h574v-182h-768v716h754v-165zM529 881q0 -33 -28.5 -55.5t-69.5 -22.5q-40 0 -68 22.5t-28 55.5t27 56t69 23q20 0 38 -6t31.5 -17t21 -25.5t7.5 -30.5z" />
    <glyph glyph-name="edotaccent" unicode="&#x117;" horiz-adv-x="854" 
d="M790 242h-546q9 -31 28 -53.5t45 -37.5t57.5 -22.5t66.5 -7.5q63 0 98.5 12.5t50.5 41.5h206q-9 -39 -41 -73.5t-79.5 -60t-107.5 -40t-124 -14.5q-82 0 -151.5 19t-120.5 56.5t-80 94t-29 131.5q0 76 29 132.5t79.5 94.5t120 57t150.5 19q82 0 147 -27.5t109.5 -72.5
t68 -102.5t23.5 -117.5v-29zM593 358q-2 24 -16 42t-35.5 30t-48 18.5t-52.5 6.5q-34 0 -64.5 -4.5t-55.5 -15.5t-43.5 -30t-28.5 -47h344zM523 743q0 -33 -28.5 -55.5t-69.5 -22.5q-40 0 -68 22.5t-28 55.5t27 56t69 23q20 0 38 -6t31.5 -17t21 -25.5t7.5 -30.5z" />
    <glyph glyph-name="Eogonek" unicode="&#x118;" horiz-adv-x="872" 
d="M932 -209q-24 -8 -63.5 -14t-109.5 -6q-65 0 -96.5 23.5t-31.5 50.5q0 44 41 85.5t104 69.5h-691v716h754v-165h-560v-101h489v-166h-489v-102h574v-182q-45 -27 -69 -49t-24 -36q0 -19 16 -27t33 -8q45 0 77.5 4.5t56.5 9.5z" />
    <glyph glyph-name="eogonek" unicode="&#x119;" horiz-adv-x="854" 
d="M640 -209q-24 -8 -64 -14t-109 -6q-66 0 -97.5 23.5t-31.5 50.5q0 38 32.5 75.5t84.5 65.5q-81 0 -152.5 18t-124.5 55t-84 94t-31 135q0 76 29 132.5t79.5 94.5t120 57t150.5 19q82 0 147 -27.5t109.5 -72.5t68 -102.5t23.5 -117.5v-29h-546q9 -31 28 -53.5t45 -37.5
t57.5 -22.5t66.5 -7.5q63 0 98.5 12.5t50.5 41.5h206q-7 -30 -28 -57.5t-52 -50.5t-71 -40t-86 -27q-45 -27 -68.5 -49t-23.5 -36q0 -19 16 -27t33 -8q46 0 78 4.5t57 9.5zM593 358q-2 24 -16 42t-35.5 30t-48 18.5t-52.5 6.5q-34 0 -64.5 -4.5t-55.5 -15.5t-43.5 -30
t-28.5 -47h344z" />
    <glyph glyph-name="Ecaron" unicode="&#x11a;" horiz-adv-x="872" 
d="M839 551h-560v-101h489v-166h-489v-102h574v-182h-768v716h754v-165zM240 976h124l72 -108l77 108h111l-150 -202h-88z" />
    <glyph glyph-name="ecaron" unicode="&#x11b;" horiz-adv-x="854" 
d="M790 242h-546q9 -31 28 -53.5t45 -37.5t57.5 -22.5t66.5 -7.5q63 0 98.5 12.5t50.5 41.5h206q-9 -39 -41 -73.5t-79.5 -60t-107.5 -40t-124 -14.5q-82 0 -151.5 19t-120.5 56.5t-80 94t-29 131.5q0 76 29 132.5t79.5 94.5t120 57t150.5 19q82 0 147 -27.5t109.5 -72.5
t68 -102.5t23.5 -117.5v-29zM593 358q-2 24 -16 42t-35.5 30t-48 18.5t-52.5 6.5q-34 0 -64.5 -4.5t-55.5 -15.5t-43.5 -30t-28.5 -47h344zM235 838h124l72 -108l77 108h111l-150 -202h-88z" />
    <glyph glyph-name="Gcircumflex" unicode="&#x11c;" horiz-adv-x="985" 
d="M826 472q-87 54 -163.5 75t-158.5 21q-57 0 -101.5 -15t-75.5 -42t-47.5 -66t-16.5 -87q0 -96 62.5 -153t182.5 -57q28 0 59.5 1.5t61.5 5.5t54.5 11.5t37.5 19.5v49h-152v158h340v-343q-23 -13 -59.5 -26t-87.5 -23.5t-118 -17t-151 -6.5q-90 0 -168 25.5t-136 74
t-91 119.5t-33 162t35 161.5t95 119.5t140 74.5t169 25.5q70 0 135.5 -9.5t120.5 -24t96 -32t62 -33.5zM685 774h-125l-73 107l-75 -107h-111l149 202h89z" />
    <glyph glyph-name="gcircumflex" unicode="&#x11d;" horiz-adv-x="888" 
d="M801 162q0 -89 -24.5 -150.5t-72.5 -100t-117.5 -55.5t-159.5 -17q-61 0 -110 3t-90 9.5t-75.5 16.5t-65.5 23l61 138q24 -11 55 -22t65.5 -19.5t72 -14t75.5 -5.5q41 0 79.5 10t68.5 28.5t48 44.5t18 59q-36 -34 -100 -59t-158 -25q-51 0 -105.5 14.5t-99.5 48t-74 87.5
t-29 133q0 73 28 126.5t73.5 88.5t104 51.5t119.5 16.5q72 0 130 -15t101 -38v40h182v-417zM425 455q-36 0 -68 -9t-56 -26.5t-38 -43.5t-14 -61q0 -37 15 -63.5t40.5 -44t59 -25.5t70.5 -8q38 0 73 8.5t61.5 26t42.5 44t16 62.5q0 37 -16.5 63t-44 42.5t-62 25t-70.5 9.5
h-9zM636 636h-125l-73 107l-75 -107h-111l149 202h89z" />
    <glyph glyph-name="Gbreve" unicode="&#x11e;" horiz-adv-x="985" 
d="M826 472q-87 54 -163.5 75t-158.5 21q-57 0 -101.5 -15t-75.5 -42t-47.5 -66t-16.5 -87q0 -96 62.5 -153t182.5 -57q28 0 59.5 1.5t61.5 5.5t54.5 11.5t37.5 19.5v49h-152v158h340v-343q-23 -13 -59.5 -26t-87.5 -23.5t-118 -17t-151 -6.5q-90 0 -168 25.5t-136 74
t-91 119.5t-33 162t35 161.5t95 119.5t140 74.5t169 25.5q70 0 135.5 -9.5t120.5 -24t96 -32t62 -33.5zM651 976q-5 -36 -16.5 -68.5t-31 -56.5t-47.5 -38.5t-66 -14.5q-39 0 -67 14.5t-47 38.5t-29.5 56.5t-13.5 68.5h85q3 -35 21.5 -61t50.5 -26t51.5 22.5t22.5 64.5h87z
" />
    <glyph glyph-name="gbreve" unicode="&#x11f;" horiz-adv-x="888" 
d="M801 162q0 -89 -24.5 -150.5t-72.5 -100t-117.5 -55.5t-159.5 -17q-61 0 -110 3t-90 9.5t-75.5 16.5t-65.5 23l61 138q24 -11 55 -22t65.5 -19.5t72 -14t75.5 -5.5q41 0 79.5 10t68.5 28.5t48 44.5t18 59q-36 -34 -100 -59t-158 -25q-51 0 -105.5 14.5t-99.5 48t-74 87.5
t-29 133q0 73 28 126.5t73.5 88.5t104 51.5t119.5 16.5q72 0 130 -15t101 -38v40h182v-417zM425 455q-36 0 -68 -9t-56 -26.5t-38 -43.5t-14 -61q0 -37 15 -63.5t40.5 -44t59 -25.5t70.5 -8q38 0 73 8.5t61.5 26t42.5 44t16 62.5q0 37 -16.5 63t-44 42.5t-62 25t-70.5 9.5
h-9zM603 838q-5 -36 -16.5 -68.5t-31 -56.5t-47.5 -38.5t-66 -14.5q-39 0 -67 14.5t-47 38.5t-29.5 56.5t-13.5 68.5h85q3 -35 21.5 -61t50.5 -26t51.5 22.5t22.5 64.5h87z" />
    <glyph glyph-name="Gdotaccent" unicode="&#x120;" horiz-adv-x="985" 
d="M826 472q-87 54 -163.5 75t-158.5 21q-57 0 -101.5 -15t-75.5 -42t-47.5 -66t-16.5 -87q0 -96 62.5 -153t182.5 -57q28 0 59.5 1.5t61.5 5.5t54.5 11.5t37.5 19.5v49h-152v158h340v-343q-23 -13 -59.5 -26t-87.5 -23.5t-118 -17t-151 -6.5q-90 0 -168 25.5t-136 74
t-91 119.5t-33 162t35 161.5t95 119.5t140 74.5t169 25.5q70 0 135.5 -9.5t120.5 -24t96 -32t62 -33.5zM588 881q0 -33 -28.5 -55.5t-69.5 -22.5q-40 0 -68 22.5t-28 55.5t27 56t69 23q20 0 38 -6t31.5 -17t21 -25.5t7.5 -30.5z" />
    <glyph glyph-name="gdotaccent" unicode="&#x121;" horiz-adv-x="888" 
d="M801 162q0 -89 -24.5 -150.5t-72.5 -100t-117.5 -55.5t-159.5 -17q-61 0 -110 3t-90 9.5t-75.5 16.5t-65.5 23l61 138q24 -11 55 -22t65.5 -19.5t72 -14t75.5 -5.5q41 0 79.5 10t68.5 28.5t48 44.5t18 59q-36 -34 -100 -59t-158 -25q-51 0 -105.5 14.5t-99.5 48t-74 87.5
t-29 133q0 73 28 126.5t73.5 88.5t104 51.5t119.5 16.5q72 0 130 -15t101 -38v40h182v-417zM425 455q-36 0 -68 -9t-56 -26.5t-38 -43.5t-14 -61q0 -37 15 -63.5t40.5 -44t59 -25.5t70.5 -8q38 0 73 8.5t61.5 26t42.5 44t16 62.5q0 37 -16.5 63t-44 42.5t-62 25t-70.5 9.5
h-9zM540 743q0 -33 -28.5 -55.5t-69.5 -22.5q-40 0 -68 22.5t-28 55.5t27 56t69 23q20 0 38 -6t31.5 -17t21 -25.5t7.5 -30.5z" />
    <glyph glyph-name="uni0122" unicode="&#x122;" horiz-adv-x="985" 
d="M826 472q-87 54 -163.5 75t-158.5 21q-57 0 -101.5 -15t-75.5 -42t-47.5 -66t-16.5 -87q0 -96 62.5 -153t182.5 -57q28 0 59.5 1.5t61.5 5.5t54.5 11.5t37.5 19.5v49h-152v158h340v-343q-23 -13 -59.5 -26t-87.5 -23.5t-118 -17t-151 -6.5q-90 0 -168 25.5t-136 74
t-91 119.5t-33 162t35 161.5t95 119.5t140 74.5t169 25.5q70 0 135.5 -9.5t120.5 -24t96 -32t62 -33.5zM497 -233h-103l44 184h151z" />
    <glyph glyph-name="uni0123" unicode="&#x123;" horiz-adv-x="888" 
d="M801 162q0 -89 -24.5 -150.5t-72.5 -100t-117.5 -55.5t-159.5 -17q-61 0 -110 3t-90 9.5t-75.5 16.5t-65.5 23l61 138q24 -11 55 -22t65.5 -19.5t72 -14t75.5 -5.5q41 0 79.5 10t68.5 28.5t48 44.5t18 59q-36 -34 -100 -59t-158 -25q-51 0 -105.5 14.5t-99.5 48t-74 87.5
t-29 133q0 73 28 126.5t73.5 88.5t104 51.5t119.5 16.5q72 0 130 -15t101 -38v40h182v-417zM425 455q-36 0 -68 -9t-56 -26.5t-38 -43.5t-14 -61q0 -37 15 -63.5t40.5 -44t59 -25.5t70.5 -8q38 0 73 8.5t61.5 26t42.5 44t16 62.5q0 37 -16.5 63t-44 42.5t-62 25t-70.5 9.5
h-9zM460 619h-103l44 184h151z" />
    <glyph glyph-name="Hcircumflex" unicode="&#x124;" horiz-adv-x="980" 
d="M894 0h-193v291h-423v-291h-193v716h193v-251h423v251h193v-716zM682 774h-125l-73 107l-75 -107h-111l149 202h89z" />
    <glyph glyph-name="hcircumflex" unicode="&#x125;" horiz-adv-x="871" 
d="M790 0h-195v241q0 59 -9 97.5t-26.5 61t-43.5 31.5t-59 9q-51 0 -91 -19t-88 -61v-360h-193v739h188v-232q40 37 92 60.5t122 23.5q55 0 109.5 -13.5t97.5 -51t69.5 -105t26.5 -175.5v-246zM373 774h-125l-73 107l-75 -107h-111l149 202h89z" />
    <glyph glyph-name="Hbar" unicode="&#x126;" horiz-adv-x="980" 
d="M894 0h-193v295h-423v-295h-193v716h193v-75h423v75h193v-716zM278 561v-91h423v91h-423z" />
    <glyph glyph-name="hbar" unicode="&#x127;" horiz-adv-x="871" 
d="M790 0h-195v241q0 59 -9 97.5t-26.5 61t-43.5 31.5t-59 9q-51 0 -91 -19t-88 -61v-360h-193v623h-85v79h85v37h188v-37h160v-79h-160v-116q40 37 92 60.5t122 23.5q55 0 109.5 -13.5t97.5 -51.5t69.5 -105t26.5 -175v-246z" />
    <glyph glyph-name="Itilde" unicode="&#x128;" horiz-adv-x="389" 
d="M290 0h-193v716h193v-716zM399 828q-25 -11 -50.5 -18t-56.5 -7q-30 0 -56.5 6t-51 13.5t-48.5 14t-48 6.5q-43 0 -95 -33v96q20 13 45 20.5t62 7.5q31 0 55 -6t46.5 -13t46.5 -13t54 -6q25 0 48.5 8t48.5 26v-102z" />
    <glyph glyph-name="itilde" unicode="&#x129;" 
d="M394 690q-25 -11 -50.5 -18t-56.5 -7q-30 0 -56.5 6t-51 13.5t-48.5 14t-48 6.5q-43 0 -95 -33v96q20 13 45 20.5t62 7.5q31 0 55 -6t46.5 -13t46.5 -13t54 -6q25 0 48.5 8t48.5 26v-102zM285 0h-194v578h194v-578z" />
    <glyph glyph-name="Imacron" unicode="&#x12a;" horiz-adv-x="389" 
d="M290 0h-193v716h193v-716zM372 808h-352v122h352v-122z" />
    <glyph glyph-name="imacron" unicode="&#x12b;" 
d="M368 670h-352v122h352v-122zM285 0h-194v578h194v-578z" />
    <glyph glyph-name="Ibreve" unicode="&#x12c;" horiz-adv-x="389" 
d="M290 0h-193v716h193v-716zM353 976q-5 -36 -16.5 -68.5t-31 -56.5t-47.5 -38.5t-66 -14.5q-39 0 -67 14.5t-47 38.5t-29.5 56.5t-13.5 68.5h85q3 -35 21.5 -61t50.5 -26t51.5 22.5t22.5 64.5h87z" />
    <glyph glyph-name="ibreve" unicode="&#x12d;" 
d="M348 838q-5 -36 -16.5 -68.5t-31 -56.5t-47.5 -38.5t-66 -14.5q-39 0 -67 14.5t-47 38.5t-29.5 56.5t-13.5 68.5h85q3 -35 21.5 -61t50.5 -26t51.5 22.5t22.5 64.5h87zM285 0h-194v578h194v-578z" />
    <glyph glyph-name="Iogonek" unicode="&#x12e;" horiz-adv-x="389" 
d="M369 -209q-14 -9 -33.5 -14.5t-42 -8.5t-45 -3.5t-41.5 -0.5q-69 0 -104 25.5t-35 56.5q0 21 11 42.5t30.5 42t46 38t57.5 31.5h-116v716h193v-716q-45 -27 -69 -49t-24 -36q0 -19 16 -27t33 -8q46 0 78 4.5t56 9.5z" />
    <glyph glyph-name="iogonek" unicode="&#x12f;" 
d="M363 -209q-27 -14 -72 -20.5t-88 -6.5q-71 0 -106.5 26t-35.5 56q0 21 11 42.5t30.5 41.5t46 38t58.5 32h-116v578h192v-578q-45 -27 -69 -49t-24 -36q0 -19 16 -27t33 -8q46 0 77.5 3.5t57.5 10.5zM285 674q0 -33 -28.5 -55.5t-69.5 -22.5q-40 0 -68 22.5t-28 55.5
t28 56t68 23q20 0 38 -6t31.5 -17t21 -25.5t7.5 -30.5z" />
    <glyph glyph-name="Idotaccent" unicode="&#x130;" horiz-adv-x="389" 
d="M290 0h-193v716h193v-716zM290 881q0 -33 -28.5 -55.5t-69.5 -22.5q-40 0 -68 22.5t-28 55.5t27 56t69 23q20 0 38 -6t31.5 -17t21 -25.5t7.5 -30.5z" />
    <glyph glyph-name="dotlessi" unicode="&#x131;" 
d="M285 0h-194v578h194v-578z" />
    <glyph glyph-name="IJ" unicode="&#x132;" horiz-adv-x="1107" 
d="M290 0h-193v716h193v-716zM1002 316q0 -87 -26.5 -150.5t-71 -105.5t-103.5 -62.5t-125 -20.5q-71 0 -128.5 17t-100.5 47t-71.5 72t-40.5 92l191 66q2 -19 12.5 -40t27 -39t38 -29.5t45.5 -11.5q34 0 63.5 5.5t50.5 23t33 50t12 86.5v400h194v-400z" />
    <glyph glyph-name="ij" unicode="&#x133;" horiz-adv-x="655" 
d="M283 0h-192v578h192v-578zM285 685q0 -17 -7.5 -31t-21 -25t-31.5 -17t-38 -6q-40 0 -68 23t-28 56t28 56t68 23q20 0 38 -6t31.5 -17t21 -25.5t7.5 -30.5zM575 3q0 -35 -10.5 -65t-33 -52t-58 -34.5t-86.5 -12.5h-60v151h25q16 0 22.5 2.5t6.5 19.5v566h194v-575z
M575 684q0 -33 -28.5 -55.5t-69.5 -22.5q-40 0 -68 22.5t-28 55.5t28 56t68 23q20 0 38 -6t31.5 -17t21 -25.5t7.5 -30.5z" />
    <glyph glyph-name="Jcircumflex" unicode="&#x134;" horiz-adv-x="770" 
d="M689 316q0 -87 -26.5 -150.5t-71 -105.5t-103.5 -62.5t-125 -20.5q-71 0 -128.5 17t-100.5 47t-71.5 72t-40.5 92l191 66q2 -19 12.5 -40t27 -39t38 -29.5t45.5 -11.5q34 0 63.5 5.5t50.5 23t33 50t12 86.5v400h194v-400zM788 774h-125l-73 107l-75 -107h-111l149 202h89
z" />
    <glyph glyph-name="jcircumflex" unicode="&#x135;" horiz-adv-x="337" 
d="M262 3q0 -35 -10.5 -65t-33 -52t-58 -34.5t-86.5 -12.5h-60v151h25q16 0 22.5 2.5t6.5 19.5v566h194v-575zM351 636h-125l-73 107l-75 -107h-111l149 202h89z" />
    <glyph glyph-name="uni0136" unicode="&#x136;" horiz-adv-x="999" 
d="M590 475l383 -475h-275l-260 364l-160 -129v-235h-193v716h193v-271l328 271h308zM459 -233h-103l44 184h151z" />
    <glyph glyph-name="uni0137" unicode="&#x137;" horiz-adv-x="807" 
d="M552 378l250 -378h-223l-161 272l-140 -136v-136h-193v739h193v-399l262 238h246zM396 -233h-103l44 184h151z" />
    <glyph glyph-name="kgreenlandic" unicode="&#x138;" horiz-adv-x="807" 
d="M552 378l250 -378h-223l-161 272l-140 -136v-136h-193v578h193v-238l262 238h246z" />
    <glyph glyph-name="Lacute" unicode="&#x139;" horiz-adv-x="790" 
d="M278 193h508v-193h-701v716h193v-523zM371 872l-291 -100l-24 80l274 128z" />
    <glyph glyph-name="lacute" unicode="&#x13a;" horiz-adv-x="367" 
d="M278 0h-193v739h193v-739zM372 872l-291 -100l-24 80l274 128z" />
    <glyph glyph-name="uni013B" unicode="&#x13b;" horiz-adv-x="790" 
d="M278 193h508v-193h-701v716h193v-523zM399 -233h-103l44 184h151z" />
    <glyph glyph-name="uni013C" unicode="&#x13c;" horiz-adv-x="367" 
d="M278 0h-193v739h193v-739zM160 -233h-103l44 184h151z" />
    <glyph glyph-name="Lcaron" unicode="&#x13d;" horiz-adv-x="790" 
d="M278 193h508v-193h-701v716h193v-523zM399 -233h-103l44 184h151z" />
    <glyph glyph-name="lcaron" unicode="&#x13e;" horiz-adv-x="464" 
d="M278 0h-193v739h193v-739zM423 555h-103l44 184h151z" />
    <glyph glyph-name="Ldot" unicode="&#x13f;" horiz-adv-x="790" 
d="M278 193h508v-193h-701v716h193v-523zM523 392q0 -33 -28.5 -56t-68.5 -23q-42 0 -69.5 23t-27.5 56t27.5 56t69.5 23q40 0 68.5 -23t28.5 -56z" />
    <glyph glyph-name="ldot" unicode="&#x140;" horiz-adv-x="478" 
d="M278 0h-193v739h193v-739zM503 378q0 -33 -28.5 -56t-68.5 -23q-42 0 -69.5 23t-27.5 56t27.5 56t69.5 23q40 0 68.5 -23t28.5 -56z" />
    <glyph glyph-name="Lslash" unicode="&#x141;" horiz-adv-x="807" 
d="M299 447l150 26v-101l-150 -26v-153h508v-193h-701v313l-59 -11v102l59 10v302h193v-269z" />
    <glyph glyph-name="lslash" unicode="&#x142;" horiz-adv-x="391" 
d="M289 459l87 18v-101l-87 -18v-358h-194v319l-82 -16v101l82 16v319h194v-280z" />
    <glyph glyph-name="Nacute" unicode="&#x143;" horiz-adv-x="1017" 
d="M930 0h-201l-441 466v-466h-203v716h205l436 -447v447h204v-716zM696 872l-291 -100l-24 80l274 128z" />
    <glyph glyph-name="nacute" unicode="&#x144;" horiz-adv-x="870" 
d="M789 0h-194v241q0 59 -9 97.5t-26.5 61t-43.5 31.5t-59 9q-51 0 -91 -19t-88 -61v-360h-193v578h182v-71q40 37 95 60.5t125 23.5q55 0 109 -13.5t97 -51t69.5 -105t26.5 -175.5v-246zM625 734l-291 -100l-24 80l274 128z" />
    <glyph glyph-name="uni0145" unicode="&#x145;" horiz-adv-x="1017" 
d="M930 0h-201l-441 466v-466h-203v716h205l436 -447v447h204v-716zM460 -233h-103l44 184h151z" />
    <glyph glyph-name="uni0146" unicode="&#x146;" horiz-adv-x="870" 
d="M789 0h-194v241q0 59 -9 97.5t-26.5 61t-43.5 31.5t-59 9q-51 0 -91 -19t-88 -61v-360h-193v578h182v-71q40 37 95 60.5t125 23.5q55 0 109 -13.5t97 -51t69.5 -105t26.5 -175.5v-246zM448 -233h-103l44 184h151z" />
    <glyph glyph-name="Ncaron" unicode="&#x147;" horiz-adv-x="1017" 
d="M930 0h-201l-441 466v-466h-203v716h205l436 -447v447h204v-716zM315 976h124l72 -108l77 108h111l-150 -202h-88z" />
    <glyph glyph-name="ncaron" unicode="&#x148;" horiz-adv-x="870" 
d="M789 0h-194v241q0 59 -9 97.5t-26.5 61t-43.5 31.5t-59 9q-51 0 -91 -19t-88 -61v-360h-193v578h182v-71q40 37 95 60.5t125 23.5q55 0 109 -13.5t97 -51t69.5 -105t26.5 -175.5v-246zM245 838h124l72 -108l77 108h111l-150 -202h-88z" />
    <glyph glyph-name="napostrophe" unicode="&#x149;" horiz-adv-x="870" 
d="M789 0h-194v241q0 59 -9 97.5t-26.5 61t-43.5 31.5t-59 9q-51 0 -91 -19t-88 -61v-360h-193v578h182v-71q40 37 95 60.5t125 23.5q55 0 109 -13.5t97 -51t69.5 -105t26.5 -175.5v-246zM206 618h-103l44 184h151z" />
    <glyph glyph-name="Eng" unicode="&#x14a;" horiz-adv-x="1017" 
d="M930 3q0 -35 -10 -65t-32.5 -52t-58 -34.5t-86.5 -12.5h-286v151h251q15 0 21 4t7 10l-448 462v-466h-203v716h205l436 -447v447h204v-713z" />
    <glyph glyph-name="eng" unicode="&#x14b;" horiz-adv-x="870" 
d="M789 -1q0 -34 -11 -63t-34 -50.5t-59 -34t-85 -12.5h-180v151h145q14 0 22 4t8 20v227q0 59 -9 97.5t-26.5 61t-43.5 31.5t-59 9q-51 0 -91 -19t-88 -61v-360h-193v578h182v-71q40 37 95 60.5t125 23.5q55 0 109 -13.5t97 -51t69.5 -105t26.5 -175.5v-247z" />
    <glyph glyph-name="Omacron" unicode="&#x14c;" horiz-adv-x="1051" 
d="M985 358q0 -91 -36.5 -162t-99.5 -119.5t-146.5 -74t-177.5 -25.5t-177.5 25.5t-146.5 74t-99.5 119.5t-36.5 162t36.5 161.5t99.5 119.5t146.5 74.5t177.5 25.5t177.5 -25.5t146.5 -74.5t99.5 -119.5t36.5 -161.5zM783 358q0 96 -65 153t-193 57t-193 -57t-65 -153
t65 -153t193 -57t193 57t65 153zM702 808h-352v122h352v-122z" />
    <glyph glyph-name="omacron" unicode="&#x14d;" horiz-adv-x="897" 
d="M833 289q0 -75 -30 -132t-81.5 -94.5t-122 -56.5t-151.5 -19t-151.5 19t-122 56.5t-81.5 94.5t-30 132t30 132t81.5 94.5t122 56.5t151.5 19t151.5 -19t122 -56.5t81.5 -94.5t30 -132zM651 289q0 42 -16.5 71.5t-45 48.5t-65.5 28t-77 9q-41 0 -77.5 -9t-65 -28
t-45 -48.5t-16.5 -71.5t16.5 -71.5t45 -48.5t65 -28t77.5 -9q40 0 77 9t65.5 28t45 48.5t16.5 71.5zM624 670h-352v122h352v-122z" />
    <glyph glyph-name="Obreve" unicode="&#x14e;" horiz-adv-x="1051" 
d="M985 358q0 -91 -36.5 -162t-99.5 -119.5t-146.5 -74t-177.5 -25.5t-177.5 25.5t-146.5 74t-99.5 119.5t-36.5 162t36.5 161.5t99.5 119.5t146.5 74.5t177.5 25.5t177.5 -25.5t146.5 -74.5t99.5 -119.5t36.5 -161.5zM783 358q0 96 -65 153t-193 57t-193 -57t-65 -153
t65 -153t193 -57t193 57t65 153zM684 976q-5 -36 -16.5 -68.5t-31 -56.5t-47.5 -38.5t-66 -14.5q-39 0 -67 14.5t-47 38.5t-29.5 56.5t-13.5 68.5h85q3 -35 21.5 -61t50.5 -26t51.5 22.5t22.5 64.5h87z" />
    <glyph glyph-name="obreve" unicode="&#x14f;" horiz-adv-x="897" 
d="M833 289q0 -75 -30 -132t-81.5 -94.5t-122 -56.5t-151.5 -19t-151.5 19t-122 56.5t-81.5 94.5t-30 132t30 132t81.5 94.5t122 56.5t151.5 19t151.5 -19t122 -56.5t81.5 -94.5t30 -132zM651 289q0 42 -16.5 71.5t-45 48.5t-65.5 28t-77 9q-41 0 -77.5 -9t-65 -28
t-45 -48.5t-16.5 -71.5t16.5 -71.5t45 -48.5t65 -28t77.5 -9q40 0 77 9t65.5 28t45 48.5t16.5 71.5zM608 838q-5 -36 -16.5 -68.5t-31 -56.5t-47.5 -38.5t-66 -14.5q-39 0 -67 14.5t-47 38.5t-29.5 56.5t-13.5 68.5h85q3 -35 21.5 -61t50.5 -26t51.5 22.5t22.5 64.5h87z" />
    <glyph glyph-name="Ohungarumlaut" unicode="&#x150;" horiz-adv-x="1051" 
d="M985 358q0 -91 -36.5 -162t-99.5 -119.5t-146.5 -74t-177.5 -25.5t-177.5 25.5t-146.5 74t-99.5 119.5t-36.5 162t36.5 161.5t99.5 119.5t146.5 74.5t177.5 25.5t177.5 -25.5t146.5 -74.5t99.5 -119.5t36.5 -161.5zM783 358q0 96 -65 153t-193 57t-193 -57t-65 -153
t65 -153t193 -57t193 57t65 153zM434 815h-107l186 221h132zM665 815h-106l186 221h132z" />
    <glyph glyph-name="ohungarumlaut" unicode="&#x151;" horiz-adv-x="897" 
d="M833 289q0 -75 -30 -132t-81.5 -94.5t-122 -56.5t-151.5 -19t-151.5 19t-122 56.5t-81.5 94.5t-30 132t30 132t81.5 94.5t122 56.5t151.5 19t151.5 -19t122 -56.5t81.5 -94.5t30 -132zM651 289q0 42 -16.5 71.5t-45 48.5t-65.5 28t-77 9q-41 0 -77.5 -9t-65 -28
t-45 -48.5t-16.5 -71.5t16.5 -71.5t45 -48.5t65 -28t77.5 -9q40 0 77 9t65.5 28t45 48.5t16.5 71.5zM358 677h-107l186 221h132zM589 677h-106l186 221h132z" />
    <glyph glyph-name="OE" unicode="&#x152;" horiz-adv-x="1569" 
d="M1536 551h-543v-101h472v-166h-472v-102h557v-182h-752v49q-110 -72 -273 -72q-94 0 -177.5 25.5t-146.5 74t-99.5 119.5t-36.5 162t36.5 161.5t99.5 119.5t146.5 74.5t177.5 25.5q160 0 273 -69v46h738v-165zM798 356q0 49 -19 88t-54 66.5t-85.5 42.5t-114.5 15
q-128 0 -193 -57t-65 -153t65 -153t193 -57q67 0 118 15.5t85.5 43t52 65.5t17.5 84z" />
    <glyph glyph-name="oe" unicode="&#x153;" horiz-adv-x="1439" 
d="M1375 242h-546q9 -31 28 -54.5t45 -39.5t57.5 -24.5t65.5 -8.5q63 0 98.5 15.5t50.5 44.5h207q-10 -39 -42 -73.5t-79.5 -60t-107 -40t-123.5 -14.5q-190 0 -290 94q-51 -48 -124 -71t-167 -23q-81 0 -151.5 19t-122 56.5t-81.5 94.5t-30 132t30 132t81.5 94.5t122 56.5
t151.5 19q94 0 167 -23.5t124 -71.5q51 48 122.5 71.5t165.5 23.5q82 0 147 -27.5t109.5 -72.5t68 -102.5t23.5 -117.5v-29zM651 289q0 42 -16.5 71.5t-45 48.5t-65.5 28t-77 9q-41 0 -77.5 -9t-65 -28t-45 -48.5t-16.5 -71.5t16.5 -71.5t45 -48.5t65 -28t77.5 -9q40 0 77 9
t65.5 28t45 48.5t16.5 71.5zM1178 358q-2 23 -15.5 41t-35 30.5t-48 19t-53.5 6.5q-69 0 -120.5 -20t-72.5 -77h345z" />
    <glyph glyph-name="Racute" unicode="&#x154;" horiz-adv-x="959" 
d="M903 0h-268l-179 273h-178v-273h-193v716h559q133 0 199 -59.5t66 -162.5q0 -90 -49.5 -148t-158.5 -70zM278 547v-99h365q26 0 43.5 12.5t17.5 39.5q0 24 -17.5 35.5t-44.5 11.5h-364zM667 872l-291 -100l-24 80l274 128z" />
    <glyph glyph-name="racute" unicode="&#x155;" horiz-adv-x="514" 
d="M493 412q-29 0 -66 -4.5t-70 -19t-56 -42.5t-23 -75v-11v-260h-193v578h181v-103q13 35 34 57.5t49.5 35.5t64.5 18t79 5v-179zM444 734l-291 -100l-24 80l274 128z" />
    <glyph glyph-name="uni0156" unicode="&#x156;" horiz-adv-x="959" 
d="M903 0h-268l-179 273h-178v-273h-193v716h559q133 0 199 -59.5t66 -162.5q0 -90 -49.5 -148t-158.5 -70zM278 547v-99h365q26 0 43.5 12.5t17.5 39.5q0 24 -17.5 35.5t-44.5 11.5h-364zM437 -233h-103l44 184h151z" />
    <glyph glyph-name="uni0157" unicode="&#x157;" horiz-adv-x="514" 
d="M493 412q-29 0 -66 -4.5t-70 -19t-56 -42.5t-23 -75v-11v-260h-193v578h181v-103q13 35 34 57.5t49.5 35.5t64.5 18t79 5v-179zM167 -233h-103l44 184h151z" />
    <glyph glyph-name="Rcaron" unicode="&#x158;" horiz-adv-x="959" 
d="M903 0h-268l-179 273h-178v-273h-193v716h559q133 0 199 -59.5t66 -162.5q0 -90 -49.5 -148t-158.5 -70zM278 547v-99h365q26 0 43.5 12.5t17.5 39.5q0 24 -17.5 35.5t-44.5 11.5h-364zM264 976h124l72 -108l77 108h111l-150 -202h-88z" />
    <glyph glyph-name="rcaron" unicode="&#x159;" horiz-adv-x="514" 
d="M493 412q-29 0 -66 -4.5t-70 -19t-56 -42.5t-23 -75v-11v-260h-193v578h181v-103q13 35 34 57.5t49.5 35.5t64.5 18t79 5v-179zM64 838h124l72 -108l77 108h111l-150 -202h-88z" />
    <glyph glyph-name="Sacute" unicode="&#x15a;" horiz-adv-x="922" 
d="M650 515q-21 42 -67 55t-109 13q-94 0 -143 -17.5t-49 -55.5q0 -23 11 -36t29 -19t42.5 -7t51.5 -1q26 0 56 0.5t80 0.5q79 0 138 -10t97 -33t57 -60.5t19 -92.5q0 -63 -22.5 -114t-70.5 -86.5t-123.5 -54.5t-181.5 -19q-53 0 -93 2t-71 6.5t-54.5 11.5t-42.5 16
q-35 17 -60 35.5t-42.5 42t-27.5 53.5t-14 70h213q4 -21 25 -35.5t51 -23.5t64.5 -13t66.5 -4q36 0 68.5 4.5t57.5 14.5t39.5 26.5t14.5 39.5q0 24 -26 35t-68 15t-95 3.5t-108 1.5q-33 1 -67 4.5t-66 12t-60 24t-49 40.5t-33 61t-12 86q0 53 21 96t68 73t122.5 46.5
t185.5 16.5q92 0 157 -13.5t109 -40.5t68.5 -67.5t35.5 -94.5zM648 872l-291 -100l-24 80l274 128z" />
    <glyph glyph-name="sacute" unicode="&#x15b;" horiz-adv-x="808" 
d="M553 408q-18 32 -47.5 41.5t-83.5 9.5q-46 0 -75.5 -3t-47 -9t-24 -14t-6.5 -18q0 -27 31 -33q35 -7 80 -11t83 -6q57 -3 109 -11t91.5 -26t63 -48t23.5 -78q0 -53 -17 -93t-56.5 -67t-103.5 -41t-158 -14q-53 0 -92 2.5t-68.5 7.5t-51.5 12.5t-41 18.5q-20 10 -38 26
t-32 36.5t-22.5 44.5t-8.5 50h192q10 -19 24.5 -31.5t36.5 -19.5t51.5 -10t70.5 -3q25 0 47.5 2.5t40 9t27.5 18t10 28.5q0 20 -18.5 30t-60.5 10q-58 0 -99.5 3.5t-82.5 8.5q-34 4 -73.5 11.5t-73 25.5t-56 50.5t-22.5 87.5q0 41 16.5 71t44 50.5t63.5 33t74.5 19.5t76.5 9
t71 2q80 0 137 -11.5t95 -34t59.5 -55.5t30.5 -76zM592 734l-291 -100l-24 80l274 128z" />
    <glyph glyph-name="Scircumflex" unicode="&#x15c;" horiz-adv-x="922" 
d="M650 515q-21 42 -67 55t-109 13q-94 0 -143 -17.5t-49 -55.5q0 -23 11 -36t29 -19t42.5 -7t51.5 -1q26 0 56 0.5t80 0.5q79 0 138 -10t97 -33t57 -60.5t19 -92.5q0 -63 -22.5 -114t-70.5 -86.5t-123.5 -54.5t-181.5 -19q-53 0 -93 2t-71 6.5t-54.5 11.5t-42.5 16
q-35 17 -60 35.5t-42.5 42t-27.5 53.5t-14 70h213q4 -21 25 -35.5t51 -23.5t64.5 -13t66.5 -4q36 0 68.5 4.5t57.5 14.5t39.5 26.5t14.5 39.5q0 24 -26 35t-68 15t-95 3.5t-108 1.5q-33 1 -67 4.5t-66 12t-60 24t-49 40.5t-33 61t-12 86q0 53 21 96t68 73t122.5 46.5
t185.5 16.5q92 0 157 -13.5t109 -40.5t68.5 -67.5t35.5 -94.5zM653 774h-125l-73 107l-75 -107h-111l149 202h89z" />
    <glyph glyph-name="scircumflex" unicode="&#x15d;" horiz-adv-x="808" 
d="M553 408q-18 32 -47.5 41.5t-83.5 9.5q-46 0 -75.5 -3t-47 -9t-24 -14t-6.5 -18q0 -27 31 -33q35 -7 80 -11t83 -6q57 -3 109 -11t91.5 -26t63 -48t23.5 -78q0 -53 -17 -93t-56.5 -67t-103.5 -41t-158 -14q-53 0 -92 2.5t-68.5 7.5t-51.5 12.5t-41 18.5q-20 10 -38 26
t-32 36.5t-22.5 44.5t-8.5 50h192q10 -19 24.5 -31.5t36.5 -19.5t51.5 -10t70.5 -3q25 0 47.5 2.5t40 9t27.5 18t10 28.5q0 20 -18.5 30t-60.5 10q-58 0 -99.5 3.5t-82.5 8.5q-34 4 -73.5 11.5t-73 25.5t-56 50.5t-22.5 87.5q0 41 16.5 71t44 50.5t63.5 33t74.5 19.5t76.5 9
t71 2q80 0 137 -11.5t95 -34t59.5 -55.5t30.5 -76zM597 636h-125l-73 107l-75 -107h-111l149 202h89z" />
    <glyph glyph-name="Scedilla" unicode="&#x15e;" horiz-adv-x="922" 
d="M650 515q-21 42 -67 55t-109 13q-94 0 -143 -17.5t-49 -55.5q0 -23 11 -36t29 -19t42.5 -7t51.5 -1q26 0 56 0.5t80 0.5q79 0 138 -10t97 -33t57 -60.5t19 -92.5q0 -61 -20.5 -110t-64.5 -84.5t-112.5 -55.5t-164.5 -23v-20q18 -4 38.5 -11t37 -18.5t27.5 -27t11 -36.5
t-11 -37t-29 -27t-42 -16.5t-49 -5.5q-92 0 -126 61l60 29q11 -14 25.5 -20t35.5 -6q34 0 34 28q0 35 -87 37v69q-86 1 -137 10t-85 26q-35 17 -60 35.5t-42.5 42t-27.5 53.5t-14 70h213q4 -21 25 -35.5t51 -23.5t64.5 -13t66.5 -4q36 0 68.5 4.5t57.5 14.5t39.5 26.5
t14.5 39.5q0 24 -26 35t-68 15t-95 3.5t-108 1.5q-33 1 -67 4.5t-66 12t-60 24t-49 40.5t-33 61t-12 86q0 53 21 96t68 73t122.5 46.5t185.5 16.5q92 0 157 -13.5t109 -40.5t68.5 -67.5t35.5 -94.5z" />
    <glyph glyph-name="scedilla" unicode="&#x15f;" horiz-adv-x="808" 
d="M553 408q-18 32 -47.5 41.5t-83.5 9.5q-46 0 -75.5 -3t-47 -9t-24 -14t-6.5 -18q0 -27 31 -33q35 -7 80 -11t83 -6q57 -3 109 -11t91.5 -26t63 -48t23.5 -78q0 -50 -15.5 -88.5t-51 -65.5t-92.5 -42t-140 -18v-29q18 -4 38.5 -11t37 -18.5t27.5 -27t11 -36.5t-11 -37
t-29 -27t-42 -16.5t-49 -5.5q-92 0 -126 61l60 29q11 -14 25.5 -20t35.5 -6q34 0 34 28q0 35 -87 37v78q-42 1 -74.5 4t-58 8t-45.5 12t-36 17q-20 10 -38 26t-32 36.5t-22.5 44.5t-8.5 50h192q10 -19 24.5 -31.5t36.5 -19.5t51.5 -10t70.5 -3q25 0 47.5 2.5t40 9t27.5 18
t10 28.5q0 20 -18.5 30t-60.5 10q-58 0 -99.5 3.5t-82.5 8.5q-34 4 -73.5 11.5t-73 25.5t-56 50.5t-22.5 87.5q0 41 16.5 71t44 50.5t63.5 33t74.5 19.5t76.5 9t71 2q80 0 137 -11.5t95 -34t59.5 -55.5t30.5 -76z" />
    <glyph glyph-name="Scaron" unicode="&#x160;" horiz-adv-x="922" 
d="M650 515q-21 42 -67 55t-109 13q-94 0 -143 -17.5t-49 -55.5q0 -23 11 -36t29 -19t42.5 -7t51.5 -1q26 0 56 0.5t80 0.5q79 0 138 -10t97 -33t57 -60.5t19 -92.5q0 -63 -22.5 -114t-70.5 -86.5t-123.5 -54.5t-181.5 -19q-53 0 -93 2t-71 6.5t-54.5 11.5t-42.5 16
q-35 17 -60 35.5t-42.5 42t-27.5 53.5t-14 70h213q4 -21 25 -35.5t51 -23.5t64.5 -13t66.5 -4q36 0 68.5 4.5t57.5 14.5t39.5 26.5t14.5 39.5q0 24 -26 35t-68 15t-95 3.5t-108 1.5q-33 1 -67 4.5t-66 12t-60 24t-49 40.5t-33 61t-12 86q0 53 21 96t68 73t122.5 46.5
t185.5 16.5q92 0 157 -13.5t109 -40.5t68.5 -67.5t35.5 -94.5zM268 976h124l72 -108l77 108h111l-150 -202h-88z" />
    <glyph glyph-name="scaron" unicode="&#x161;" horiz-adv-x="808" 
d="M553 408q-18 32 -47.5 41.5t-83.5 9.5q-46 0 -75.5 -3t-47 -9t-24 -14t-6.5 -18q0 -27 31 -33q35 -7 80 -11t83 -6q57 -3 109 -11t91.5 -26t63 -48t23.5 -78q0 -53 -17 -93t-56.5 -67t-103.5 -41t-158 -14q-53 0 -92 2.5t-68.5 7.5t-51.5 12.5t-41 18.5q-20 10 -38 26
t-32 36.5t-22.5 44.5t-8.5 50h192q10 -19 24.5 -31.5t36.5 -19.5t51.5 -10t70.5 -3q25 0 47.5 2.5t40 9t27.5 18t10 28.5q0 20 -18.5 30t-60.5 10q-58 0 -99.5 3.5t-82.5 8.5q-34 4 -73.5 11.5t-73 25.5t-56 50.5t-22.5 87.5q0 41 16.5 71t44 50.5t63.5 33t74.5 19.5t76.5 9
t71 2q80 0 137 -11.5t95 -34t59.5 -55.5t30.5 -76zM212 838h124l72 -108l77 108h111l-150 -202h-88z" />
    <glyph glyph-name="uni0162" unicode="&#x162;" horiz-adv-x="787" 
d="M771 536h-281v-536h-193v536h-280v180h754v-180zM368 -233h-103l44 184h151z" />
    <glyph glyph-name="uni0163" unicode="&#x163;" horiz-adv-x="413" 
d="M283 578h83v-123h-83v-264q0 -24 6 -33t22 -9q19 0 33 4.5t25 16.5v-144q-9 -16 -36.5 -27.5t-66.5 -11.5q-93 0 -130.5 50t-37.5 149v269h-81v123h81v100l185 62v-162zM203 -233h-103l44 184h151z" />
    <glyph glyph-name="Tcaron" unicode="&#x164;" horiz-adv-x="787" 
d="M771 536h-281v-536h-193v536h-280v180h754v-180zM200 976h124l72 -108l77 108h111l-150 -202h-88z" />
    <glyph glyph-name="tcaron" unicode="&#x165;" horiz-adv-x="533" 
d="M283 578h83v-123h-83v-264q0 -24 6 -33t22 -9q19 0 33 4.5t25 16.5v-144q-9 -16 -36.5 -27.5t-66.5 -11.5q-93 0 -130.5 50t-37.5 149v269h-81v123h81v100l185 62v-162zM490 555h-103l44 184h151z" />
    <glyph glyph-name="Tbar" unicode="&#x166;" horiz-adv-x="787" 
d="M771 536h-281v-106h142v-97h-142v-333h-193v333h-141v97h141v106h-280v180h754v-180z" />
    <glyph glyph-name="tbar" unicode="&#x167;" horiz-adv-x="413" 
d="M98 455h-81v123h81v100l185 62v-162h83v-123h-83v-84h83v-117h-83v-63q0 -24 6 -33t22 -9q19 0 33 4.5t25 16.5v-144q-9 -16 -36.5 -27.5t-66.5 -11.5q-93 0 -130.5 50t-37.5 149v68h-84v117h84v84z" />
    <glyph glyph-name="Utilde" unicode="&#x168;" horiz-adv-x="965" 
d="M884 329q0 -93 -31 -159.5t-86 -109.5t-130 -63t-163 -20t-160.5 20.5t-124 63t-80 108.5t-28.5 158v389h201v-358q0 -62 14 -102t39.5 -63t61 -32t79.5 -9q47 0 87 8t68.5 30.5t44.5 62.5t16 104v359h192v-387zM685 828q-25 -11 -50.5 -18t-56.5 -7q-30 0 -56.5 6
t-51 13.5t-48.5 14t-48 6.5q-43 0 -95 -33v96q20 13 45 20.5t62 7.5q31 0 55 -6t46.5 -13t46.5 -13t54 -6q25 0 48.5 8t48.5 26v-102z" />
    <glyph glyph-name="utilde" unicode="&#x169;" horiz-adv-x="862" 
d="M775 0h-182v70q-40 -36 -94 -59.5t-124 -23.5q-55 0 -109 13.5t-96.5 51t-69 105t-26.5 175.5v246h195v-242q0 -59 8.5 -97t23.5 -60.5t35.5 -31.5t45.5 -9q60 0 108.5 22t91.5 57v361h193v-578zM633 690q-25 -11 -50.5 -18t-56.5 -7q-30 0 -56.5 6t-51 13.5t-48.5 14
t-48 6.5q-43 0 -95 -33v96q20 13 45 20.5t62 7.5q31 0 55 -6t46.5 -13t46.5 -13t54 -6q25 0 48.5 8t48.5 26v-102z" />
    <glyph glyph-name="Umacron" unicode="&#x16a;" horiz-adv-x="965" 
d="M884 329q0 -93 -31 -159.5t-86 -109.5t-130 -63t-163 -20t-160.5 20.5t-124 63t-80 108.5t-28.5 158v389h201v-358q0 -62 14 -102t39.5 -63t61 -32t79.5 -9q47 0 87 8t68.5 30.5t44.5 62.5t16 104v359h192v-387zM658 808h-352v122h352v-122z" />
    <glyph glyph-name="umacron" unicode="&#x16b;" horiz-adv-x="862" 
d="M775 0h-182v70q-40 -36 -94 -59.5t-124 -23.5q-55 0 -109 13.5t-96.5 51t-69 105t-26.5 175.5v246h195v-242q0 -59 8.5 -97t23.5 -60.5t35.5 -31.5t45.5 -9q60 0 108.5 22t91.5 57v361h193v-578zM607 670h-352v122h352v-122z" />
    <glyph glyph-name="Ubreve" unicode="&#x16c;" horiz-adv-x="965" 
d="M884 329q0 -93 -31 -159.5t-86 -109.5t-130 -63t-163 -20t-160.5 20.5t-124 63t-80 108.5t-28.5 158v389h201v-358q0 -62 14 -102t39.5 -63t61 -32t79.5 -9q47 0 87 8t68.5 30.5t44.5 62.5t16 104v359h192v-387zM641 976q-5 -36 -16.5 -68.5t-31 -56.5t-47.5 -38.5
t-66 -14.5q-39 0 -67 14.5t-47 38.5t-29.5 56.5t-13.5 68.5h85q3 -35 21.5 -61t50.5 -26t51.5 22.5t22.5 64.5h87z" />
    <glyph glyph-name="ubreve" unicode="&#x16d;" horiz-adv-x="862" 
d="M775 0h-182v70q-40 -36 -94 -59.5t-124 -23.5q-55 0 -109 13.5t-96.5 51t-69 105t-26.5 175.5v246h195v-242q0 -59 8.5 -97t23.5 -60.5t35.5 -31.5t45.5 -9q60 0 108.5 22t91.5 57v361h193v-578zM590 838q-5 -36 -16.5 -68.5t-31 -56.5t-47.5 -38.5t-66 -14.5
q-39 0 -67 14.5t-47 38.5t-29.5 56.5t-13.5 68.5h85q3 -35 21.5 -61t50.5 -26t51.5 22.5t22.5 64.5h87z" />
    <glyph glyph-name="Uring" unicode="&#x16e;" horiz-adv-x="965" 
d="M884 329q0 -93 -31 -159.5t-86 -109.5t-130 -63t-163 -20t-160.5 20.5t-124 63t-80 108.5t-28.5 158v389h201v-358q0 -62 14 -102t39.5 -63t61 -32t79.5 -9q47 0 87 8t68.5 30.5t44.5 62.5t16 104v359h192v-387zM594 876q0 -101 -113 -101q-112 0 -112 101q0 100 112 100
q113 0 113 -100zM523 876q0 17 -9.5 26t-32.5 9q-42 0 -42 -35q0 -37 42 -37q23 0 32.5 9t9.5 28z" />
    <glyph glyph-name="uring" unicode="&#x16f;" horiz-adv-x="862" 
d="M775 0h-182v70q-40 -36 -94 -59.5t-124 -23.5q-55 0 -109 13.5t-96.5 51t-69 105t-26.5 175.5v246h195v-242q0 -59 8.5 -97t23.5 -60.5t35.5 -31.5t45.5 -9q60 0 108.5 22t91.5 57v361h193v-578zM543 738q0 -101 -113 -101q-112 0 -112 101q0 100 112 100q113 0 113 -100
zM472 738q0 17 -9.5 26t-32.5 9q-42 0 -42 -35q0 -37 42 -37q23 0 32.5 9t9.5 28z" />
    <glyph glyph-name="Uhungarumlaut" unicode="&#x170;" horiz-adv-x="965" 
d="M884 329q0 -93 -31 -159.5t-86 -109.5t-130 -63t-163 -20t-160.5 20.5t-124 63t-80 108.5t-28.5 158v389h201v-358q0 -62 14 -102t39.5 -63t61 -32t79.5 -9q47 0 87 8t68.5 30.5t44.5 62.5t16 104v359h192v-387zM392 815h-107l186 221h132zM623 815h-106l186 221h132z
" />
    <glyph glyph-name="uhungarumlaut" unicode="&#x171;" horiz-adv-x="862" 
d="M775 0h-182v70q-40 -36 -94 -59.5t-124 -23.5q-55 0 -109 13.5t-96.5 51t-69 105t-26.5 175.5v246h195v-242q0 -59 8.5 -97t23.5 -60.5t35.5 -31.5t45.5 -9q60 0 108.5 22t91.5 57v361h193v-578zM341 677h-107l186 221h132zM572 677h-106l186 221h132z" />
    <glyph glyph-name="Uogonek" unicode="&#x172;" horiz-adv-x="965" 
d="M726 -209q-24 -8 -64 -14t-109 -6q-65 0 -97 24t-32 51q0 35 28.5 70t74.5 63q-13 -1 -26.5 -1.5t-26.5 -0.5q-88 0 -160.5 20.5t-124 63t-80 108.5t-28.5 158v389h201v-358q0 -62 14 -102t39.5 -63t61 -32t79.5 -9q47 0 87 8t68.5 30.5t44.5 62.5t16 104v359h192v-387
q0 -69 -17 -123t-48.5 -94.5t-75.5 -68t-97 -43.5q-45 -26 -69 -48.5t-24 -36.5q0 -19 16 -27t33 -8q46 0 79 4.5t56 9.5z" />
    <glyph glyph-name="uogonek" unicode="&#x173;" horiz-adv-x="862" 
d="M854 -209q-13 -7 -33 -12t-43 -8.5t-45.5 -5t-40.5 -1.5q-69 0 -104 25.5t-35 56.5q0 21 11 42.5t30.5 42t46 38t57.5 31.5h-105v70q-40 -36 -94 -59.5t-124 -23.5q-55 0 -109 13.5t-96.5 51t-69 105t-26.5 175.5v246h195v-242q0 -59 8.5 -97t23.5 -60.5t35.5 -31.5
t45.5 -9q60 0 108.5 22t91.5 57v361h193v-578q-45 -27 -69 -49t-24 -36q0 -19 16 -27t33 -8q46 0 78 4.5t56 9.5z" />
    <glyph glyph-name="Wcircumflex" unicode="&#x174;" horiz-adv-x="1315" 
d="M1037 0h-230l-154 427l-149 -427h-223l-262 716h221l159 -469l163 469h186l168 -469l164 469h220zM850 774h-125l-73 107l-75 -107h-111l149 202h89z" />
    <glyph glyph-name="wcircumflex" unicode="&#x175;" horiz-adv-x="1208" 
d="M928 0h-169l-158 382l-157 -382h-173l-252 578h191l158 -383l157 383h173l151 -383l161 383h183zM796 636h-125l-73 107l-75 -107h-111l149 202h89z" />
    <glyph glyph-name="Ycircumflex" unicode="&#x176;" horiz-adv-x="871" 
d="M539 213v-214h-199v214l-321 503h235l191 -307l184 307h227zM627 774h-125l-73 107l-75 -107h-111l149 202h89z" />
    <glyph glyph-name="ycircumflex" unicode="&#x177;" horiz-adv-x="777" 
d="M477 -9q-20 -41 -48.5 -68.5t-63.5 -44t-74.5 -24t-81.5 -7.5q-36 0 -64 1t-50 3t-38.5 4.5t-31.5 6.5l37 154q26 -8 65.5 -15t87.5 -7q41 0 63 7t22 32l-281 545h203l183 -388l166 388h191zM581 636h-125l-73 107l-75 -107h-111l149 202h89z" />
    <glyph glyph-name="Ydieresis" unicode="&#x178;" horiz-adv-x="871" 
d="M539 213v-214h-199v214l-321 503h235l191 -307l184 307h227zM661 881q0 -33 -28.5 -55.5t-69.5 -22.5q-40 0 -68 22.5t-28 55.5t27 56t69 23q20 0 38 -6t31.5 -17t21 -25.5t7.5 -30.5zM404 881q0 -33 -28.5 -55.5t-69.5 -22.5t-69 22.5t-28 55.5t27.5 56t69.5 23
q20 0 38 -6t31.5 -17t21 -25.5t7.5 -30.5z" />
    <glyph glyph-name="Zacute" unicode="&#x179;" horiz-adv-x="910" 
d="M875 581l-514 -401h519v-180h-849v152l518 399h-505v165h831v-135zM642 872l-291 -100l-24 80l274 128z" />
    <glyph glyph-name="zacute" unicode="&#x17a;" horiz-adv-x="776" 
d="M723 434l-396 -280h398v-154h-683v152l393 276h-386v150h674v-144zM575 734l-291 -100l-24 80l274 128z" />
    <glyph glyph-name="Zdotaccent" unicode="&#x17b;" horiz-adv-x="910" 
d="M875 581l-514 -401h519v-180h-849v152l518 399h-505v165h831v-135zM551 881q0 -33 -28.5 -55.5t-69.5 -22.5q-40 0 -68 22.5t-28 55.5t27 56t69 23q20 0 38 -6t31.5 -17t21 -25.5t7.5 -30.5z" />
    <glyph glyph-name="zdotaccent" unicode="&#x17c;" horiz-adv-x="776" 
d="M723 434l-396 -280h398v-154h-683v152l393 276h-386v150h674v-144zM484 743q0 -33 -28.5 -55.5t-69.5 -22.5q-40 0 -68 22.5t-28 55.5t27 56t69 23q20 0 38 -6t31.5 -17t21 -25.5t7.5 -30.5z" />
    <glyph glyph-name="Zcaron" unicode="&#x17d;" horiz-adv-x="910" 
d="M875 581l-514 -401h519v-180h-849v152l518 399h-505v165h831v-135zM262 976h124l72 -108l77 108h111l-150 -202h-88z" />
    <glyph glyph-name="zcaron" unicode="&#x17e;" horiz-adv-x="776" 
d="M723 434l-396 -280h398v-154h-683v152l393 276h-386v150h674v-144zM195 838h124l72 -108l77 108h111l-150 -202h-88z" />
    <glyph glyph-name="longs" unicode="&#x17f;" horiz-adv-x="380" 
d="M356 616h-32q-17 0 -22 -9.5t-5 -24.5v-582h-194v578q0 47 11.5 78t34.5 49.5t57 26t78 7.5h72v-123z" />
    <glyph glyph-name="Aringacute" unicode="&#x1fa;" horiz-adv-x="938" 
d="M923 0h-225l-58 137h-355l-59 -137h-207l324 716h248zM359 296h210l-104 250zM581 876q0 -101 -113 -101q-112 0 -112 101q0 100 112 100q113 0 113 -100zM510 876q0 17 -9.5 26t-32.5 9q-42 0 -42 -35q0 -37 42 -37q23 0 32.5 9t9.5 28zM841.738 916.084
l-190.275 -60.2285l-15.6934 48.1836l179.16 77.0938z" />
    <glyph glyph-name="aringacute" unicode="&#x1fb;" horiz-adv-x="880" 
d="M793 176q0 -11 6 -23t21 -12q6 0 12.5 1t15.5 6v-133q-17 -16 -40.5 -22t-46.5 -6q-43 0 -77 20.5t-54 50.5q-18 -12 -49 -25t-70.5 -23t-86 -16.5t-95.5 -6.5q-136 0 -201 51.5t-65 151.5q0 59 27.5 97.5t71.5 60.5t100.5 30.5t113.5 8.5q37 0 73.5 -5t69 -12.5
t58.5 -16.5t41 -17q0 17 -10 36t-35.5 35t-70 26.5t-113.5 10.5q-32 0 -67.5 -3.5t-69.5 -10t-64.5 -15t-53.5 -18.5l-51 130q25 16 60.5 28t78 20t89.5 12t94 4q201 0 294.5 -66.5t93.5 -204.5v-144zM612 209q-5 10 -28 18.5t-55.5 14t-70.5 8.5t-73 3q-49 0 -77.5 -6
t-43 -15t-18.5 -20.5t-4 -22.5q0 -40 33.5 -53t88.5 -13q28 0 67.5 4.5t77 11.5t66.5 14t37 12v44zM524 738q0 -101 -113 -101q-112 0 -112 101q0 100 112 100q113 0 113 -100zM453 738q0 17 -9.5 26t-32.5 9q-42 0 -42 -35q0 -37 42 -37q23 0 32.5 9t9.5 28z
M781.738 778.084l-190.275 -60.2285l-15.6934 48.1836l179.16 77.0938z" />
    <glyph glyph-name="AEacute" unicode="&#x1fc;" horiz-adv-x="1477" 
d="M1444 551h-574v-101h503v-166h-503v-102h588v-182h-782v146h-287l-77 -146h-254l434 716h952v-165zM620 570l-137 -255h193v255h-56zM919 872l-291 -100l-24 80l274 128z" />
    <glyph glyph-name="aeacute" unicode="&#x1fd;" horiz-adv-x="1394" 
d="M1329 242h-546q9 -31 28 -54.5t45 -39.5t57.5 -24.5t66.5 -8.5q63 0 98.5 15t50.5 45h207q-10 -39 -42 -73.5t-79.5 -60t-107 -40t-124.5 -14.5q-100 0 -174 23t-120 80q-34 -27 -69.5 -46t-77.5 -32t-94 -19t-119 -6q-136 0 -201 51.5t-65 151.5q0 59 27.5 97.5
t71.5 60.5t100.5 30.5t113.5 8.5q37 0 73.5 -5t69 -12.5t58.5 -16.5t41 -17q0 17 -10 36t-35.5 35t-70 26.5t-113.5 10.5q-32 0 -67.5 -3.5t-69.5 -10t-64.5 -15t-53.5 -18.5q-13 33 -26 65t-25 65q25 16 60.5 28t78 20t89.5 12t94 4q117 0 189 -21t117 -56
q51 38 116.5 57.5t153.5 19.5q82 0 147 -27.5t109.5 -72.5t68 -102.5t23.5 -117.5v-29zM363 122q115 0 181 17.5t66 60.5q0 14 -19 24t-50.5 16.5t-72 9.5t-83.5 3q-49 0 -77.5 -6t-43 -15t-18.5 -20.5t-4 -22.5q0 -40 33 -53.5t88 -13.5zM1133 358q-1 21 -15 39t-35.5 31
t-48.5 20t-54 7q-34 0 -64.5 -4.5t-55.5 -15.5t-43.5 -30t-28.5 -47h345zM884 734l-291 -100l-24 80l274 128z" />
    <glyph glyph-name="Oslashacute" unicode="&#x1fe;" horiz-adv-x="1051" 
d="M713 872l-291 -100l-24 80l274 128zM856 634q60 -49 94.5 -117.5t34.5 -158.5q0 -91 -36.5 -162t-99.5 -119.5t-146.5 -74t-177.5 -25.5q-70 0 -134.5 14t-118.5 41l-95 -97l-64 62l82 84q-61 49 -95.5 118t-34.5 159q0 91 36.5 161.5t99.5 119.5t146.5 74.5t177.5 25.5
q70 0 135 -14t120 -42l84 87l65 -62zM650 550q-26 8 -57 13t-68 5q-128 0 -193 -57t-65 -153q0 -91 55 -145zM401 165q54 -17 124 -17q128 0 193 57t65 153q0 90 -55 144z" />
    <glyph glyph-name="oslashacute" unicode="&#x1ff;" horiz-adv-x="897" 
d="M636 734l-291 -100l-24 80l274 128zM727 512q51 -38 78.5 -93t27.5 -130t-30 -132t-81.5 -94.5t-122 -56.5t-151.5 -19q-112 0 -199 34l-83 -86l-65 62l68 70q-49 38 -77.5 92.5t-28.5 129.5t30 132t81.5 94.5t122 56.5t151.5 19q110 0 197 -34l90 93l65 -62zM528 437
q-19 4 -40 6.5t-41 2.5q-41 0 -77.5 -9t-65 -28t-45 -48.5t-16.5 -71.5q0 -34 10.5 -60t29.5 -45zM366 141q19 -5 39 -7t42 -2q40 0 77 9t65.5 28t45 48.5t16.5 71.5q0 34 -11 59.5t-29 43.5z" />
    <glyph glyph-name="uni0218" unicode="&#x218;" horiz-adv-x="922" 
d="M650 515q-21 42 -67 55t-109 13q-94 0 -143 -17.5t-49 -55.5q0 -23 11 -36t29 -19t42.5 -7t51.5 -1q26 0 56 0.5t80 0.5q79 0 138 -10t97 -33t57 -60.5t19 -92.5q0 -63 -22.5 -114t-70.5 -86.5t-123.5 -54.5t-181.5 -19q-53 0 -93 2t-71 6.5t-54.5 11.5t-42.5 16
q-35 17 -60 35.5t-42.5 42t-27.5 53.5t-14 70h213q4 -21 25 -35.5t51 -23.5t64.5 -13t66.5 -4q36 0 68.5 4.5t57.5 14.5t39.5 26.5t14.5 39.5q0 24 -26 35t-68 15t-95 3.5t-108 1.5q-33 1 -67 4.5t-66 12t-60 24t-49 40.5t-33 61t-12 86q0 53 21 96t68 73t122.5 46.5
t185.5 16.5q92 0 157 -13.5t109 -40.5t68.5 -67.5t35.5 -94.5zM471 -233h-103l44 184h151z" />
    <glyph glyph-name="uni0219" unicode="&#x219;" horiz-adv-x="808" 
d="M553 408q-18 32 -47.5 41.5t-83.5 9.5q-46 0 -75.5 -3t-47 -9t-24 -14t-6.5 -18q0 -27 31 -33q35 -7 80 -11t83 -6q57 -3 109 -11t91.5 -26t63 -48t23.5 -78q0 -53 -17 -93t-56.5 -67t-103.5 -41t-158 -14q-53 0 -92 2.5t-68.5 7.5t-51.5 12.5t-41 18.5q-20 10 -38 26
t-32 36.5t-22.5 44.5t-8.5 50h192q10 -19 24.5 -31.5t36.5 -19.5t51.5 -10t70.5 -3q25 0 47.5 2.5t40 9t27.5 18t10 28.5q0 20 -18.5 30t-60.5 10q-58 0 -99.5 3.5t-82.5 8.5q-34 4 -73.5 11.5t-73 25.5t-56 50.5t-22.5 87.5q0 41 16.5 71t44 50.5t63.5 33t74.5 19.5t76.5 9
t71 2q80 0 137 -11.5t95 -34t59.5 -55.5t30.5 -76zM411 -233h-103l44 184h151z" />
    <glyph glyph-name="uni021A" unicode="&#x21a;" horiz-adv-x="787" 
d="M771 536h-281v-536h-193v536h-280v180h754v-180zM380 -233h-103l44 184h151z" />
    <glyph glyph-name="uni021B" unicode="&#x21b;" horiz-adv-x="413" 
d="M283 578h83v-123h-83v-264q0 -24 6 -33t22 -9q19 0 33 4.5t25 16.5v-144q-9 -16 -36.5 -27.5t-66.5 -11.5q-93 0 -130.5 50t-37.5 149v269h-81v123h81v100l185 62v-162zM203 -233h-103l44 184h151z" />
    <glyph glyph-name="circumflex" unicode="&#x2c6;" horiz-adv-x="455" 
d="M419 636h-125l-73 107l-75 -107h-111l149 202h89z" />
    <glyph glyph-name="caron" unicode="&#x2c7;" horiz-adv-x="448" 
d="M33 838h124l72 -108l77 108h111l-150 -202h-88z" />
    <glyph glyph-name="breve" unicode="&#x2d8;" horiz-adv-x="325" 
d="M323 838q-5 -36 -16.5 -68.5t-31 -56.5t-47.5 -38.5t-66 -14.5q-39 0 -67 14.5t-47 38.5t-29.5 56.5t-13.5 68.5h85q3 -35 21.5 -61t50.5 -26t51.5 22.5t22.5 64.5h87z" />
    <glyph glyph-name="dotaccent" unicode="&#x2d9;" horiz-adv-x="231" 
d="M210 743q0 -33 -28.5 -55.5t-69.5 -22.5q-40 0 -68 22.5t-28 55.5t27 56t69 23q20 0 38 -6t31.5 -17t21 -25.5t7.5 -30.5z" />
    <glyph glyph-name="ring" unicode="&#x2da;" horiz-adv-x="357" 
d="M291 738q0 -101 -113 -101q-112 0 -112 101q0 100 112 100q113 0 113 -100zM220 738q0 17 -9.5 26t-32.5 9q-42 0 -42 -35q0 -37 42 -37q23 0 32.5 9t9.5 28z" />
    <glyph glyph-name="ogonek" unicode="&#x2db;" horiz-adv-x="348" 
d="M317 -209q-24 -8 -63.5 -14t-109.5 -6q-64 0 -96 23.5t-32 50.5q0 22 11 43.5t30.5 42t46 38t57.5 31.5h77q-45 -27 -69 -49t-24 -36q0 -19 16 -27t33 -8q46 0 78 4.5t56 9.5z" />
    <glyph glyph-name="tilde" unicode="&#x2dc;" horiz-adv-x="557" 
d="M479 690q-25 -11 -50.5 -18t-56.5 -7q-30 0 -56.5 6t-51 13.5t-48.5 14t-48 6.5q-43 0 -95 -33v96q20 13 45 20.5t62 7.5q31 0 55 -6t46.5 -13t46.5 -13t54 -6q25 0 48.5 8t48.5 26v-102z" />
    <glyph glyph-name="hungarumlaut" unicode="&#x2dd;" horiz-adv-x="582" 
d="M142 677h-107l186 221h132zM373 677h-106l186 221h132z" />
    <glyph glyph-name="uni0326" unicode="&#x326;" horiz-adv-x="310" 
d="M160 -233h-103l44 184h151z" />
    <glyph glyph-name="Wgrave" unicode="&#x1e80;" horiz-adv-x="1315" 
d="M1037 0h-230l-154 427l-149 -427h-223l-262 716h221l159 -469l163 469h186l168 -469l164 469h220zM761 772l-291 100l42 108l273 -128z" />
    <glyph glyph-name="wgrave" unicode="&#x1e81;" horiz-adv-x="1208" 
d="M928 0h-169l-158 382l-157 -382h-173l-252 578h191l158 -383l157 383h173l151 -383l161 383h183zM707 634l-291 100l42 108l273 -128z" />
    <glyph glyph-name="Wacute" unicode="&#x1e82;" horiz-adv-x="1315" 
d="M1037 0h-230l-154 427l-149 -427h-223l-262 716h221l159 -469l163 469h186l168 -469l164 469h220zM845 872l-291 -100l-24 80l274 128z" />
    <glyph glyph-name="wacute" unicode="&#x1e83;" horiz-adv-x="1208" 
d="M928 0h-169l-158 382l-157 -382h-173l-252 578h191l158 -383l157 383h173l151 -383l161 383h183zM791 734l-291 -100l-24 80l274 128z" />
    <glyph glyph-name="Wdieresis" unicode="&#x1e84;" horiz-adv-x="1315" 
d="M1037 0h-230l-154 427l-149 -427h-223l-262 716h221l159 -469l163 469h186l168 -469l164 469h220zM883 881q0 -33 -28.5 -55.5t-69.5 -22.5q-40 0 -68 22.5t-28 55.5t27 56t69 23q20 0 38 -6t31.5 -17t21 -25.5t7.5 -30.5zM626 881q0 -33 -28.5 -55.5t-69.5 -22.5
t-69 22.5t-28 55.5t27.5 56t69.5 23q20 0 38 -6t31.5 -17t21 -25.5t7.5 -30.5z" />
    <glyph glyph-name="wdieresis" unicode="&#x1e85;" horiz-adv-x="1208" 
d="M928 0h-169l-158 382l-157 -382h-173l-252 578h191l158 -383l157 383h173l151 -383l161 383h183zM830 743q0 -33 -28.5 -55.5t-69.5 -22.5q-40 0 -68 22.5t-28 55.5t27 56t69 23q20 0 38 -6t31.5 -17t21 -25.5t7.5 -30.5zM573 743q0 -33 -28.5 -55.5t-69.5 -22.5
t-69 22.5t-28 55.5t27.5 56t69.5 23q20 0 38 -6t31.5 -17t21 -25.5t7.5 -30.5z" />
    <glyph glyph-name="Ygrave" unicode="&#x1ef2;" horiz-adv-x="871" 
d="M539 213v-214h-199v214l-321 503h235l191 -307l184 307h227zM538 772l-291 100l42 108l273 -128z" />
    <glyph glyph-name="ygrave" unicode="&#x1ef3;" horiz-adv-x="777" 
d="M477 -9q-20 -41 -48.5 -68.5t-63.5 -44t-74.5 -24t-81.5 -7.5q-36 0 -64 1t-50 3t-38.5 4.5t-31.5 6.5l37 154q26 -8 65.5 -15t87.5 -7q41 0 63 7t22 32l-281 545h203l183 -388l166 388h191zM492 634l-291 100l42 108l273 -128z" />
    <glyph glyph-name="endash" unicode="&#x2013;" horiz-adv-x="605" 
d="M579 235h-553v124h553v-124z" />
    <glyph glyph-name="emdash" unicode="&#x2014;" horiz-adv-x="863" 
d="M838 236h-812v123h812v-123z" />
    <glyph glyph-name="quoteleft" unicode="&#x2018;" horiz-adv-x="245" 
d="M215 476h-91l-99 263h143z" />
    <glyph glyph-name="quoteright" unicode="&#x2019;" horiz-adv-x="245" 
d="M116 476h-91l47 263h143z" />
    <glyph glyph-name="quotesinglbase" unicode="&#x201a;" horiz-adv-x="245" 
d="M116 -142h-91l47 263h143z" />
    <glyph glyph-name="quotedblleft" unicode="&#x201c;" horiz-adv-x="425" 
d="M395 476h-91l-100 263h144zM215 476h-91l-99 263h143z" />
    <glyph glyph-name="quotedblright" unicode="&#x201d;" horiz-adv-x="425" 
d="M295 476h-91l48 263h143zM116 476h-91l47 263h145z" />
    <glyph glyph-name="quotedblbase" unicode="&#x201e;" horiz-adv-x="425" 
d="M295 -142h-91l48 263h143zM116 -142h-91l47 263h145z" />
    <glyph glyph-name="dagger" unicode="&#x2020;" horiz-adv-x="361" 
d="M238 596h116v-96h-116l-19 -500h-79l-19 500h-114v96h114v153h117v-153z" />
    <glyph glyph-name="daggerdbl" unicode="&#x2021;" horiz-adv-x="367" 
d="M242 596h116v-96h-116l-19 -129l19 -123h116v-95h-116v-153h-117v153h-114v95h114l18 128l-18 124h-114v96h114v153h117v-153z" />
    <glyph glyph-name="bullet" unicode="&#x2022;" horiz-adv-x="436" 
d="M377 365q0 -30 -12.5 -57t-34.5 -47t-50.5 -32t-61.5 -12t-62 12t-51 32t-34.5 47t-12.5 57t12.5 57t34.5 47.5t51 32t62 11.5t61.5 -11.5t50.5 -32t34.5 -47.5t12.5 -57z" />
    <glyph glyph-name="ellipsis" unicode="&#x2026;" horiz-adv-x="1195" 
d="M306 76q0 -19 -9 -35.5t-24 -28.5t-35.5 -19t-42.5 -7q-47 0 -78.5 26t-31.5 64q0 19 8.5 35.5t23.5 28.5t35 19t43 7q22 0 42.5 -7t35.5 -19t24 -28.5t9 -35.5zM703 76q0 -19 -8.5 -35.5t-23.5 -28.5t-35 -19t-44 -7q-47 0 -78.5 26t-31.5 64q0 19 8.5 35.5t23.5 28.5
t35 19t43 7t43.5 -7t35.5 -19t23.5 -28.5t8.5 -35.5zM1100 76q0 -19 -8.5 -35.5t-23.5 -28.5t-35 -19t-44 -7q-47 0 -78.5 26t-31.5 64q0 19 8.5 35.5t23.5 28.5t35 19t43 7t43.5 -7t35.5 -19t23.5 -28.5t8.5 -35.5z" />
    <glyph glyph-name="perthousand" unicode="&#x2030;" horiz-adv-x="973" 
d="M810 362q66 0 97 -43t31 -137q0 -100 -31 -146t-97 -46q-67 0 -98 46t-31 146q0 94 31 137t98 43zM810 262q-36 0 -36 -77q0 -51 8.5 -72.5t27.5 -21.5q17 0 27.5 21.5t10.5 72.5q0 38 -10.5 57.5t-27.5 19.5zM261 0h-96l292 689h96zM195 697q66 0 97 -43.5t31 -137.5
q0 -100 -31 -145.5t-97 -45.5t-97 45.5t-31 145.5q0 94 31 137.5t97 43.5zM195 597q-36 0 -36 -77q0 -51 8.5 -72.5t27.5 -21.5q17 0 27.5 21.5t10.5 72.5q0 38 -10.5 57.5t-27.5 19.5zM532 362q66 0 97 -43t31 -137q0 -100 -31 -146t-97 -46t-96.5 46t-30.5 146
q0 94 30.5 137t96.5 43zM532 262q-36 0 -36 -77q0 -51 8.5 -72.5t27.5 -21.5q17 0 27.5 21.5t10.5 72.5q0 38 -10.5 57.5t-27.5 19.5z" />
    <glyph glyph-name="guilsinglleft" unicode="&#x2039;" horiz-adv-x="289" 
d="M140 313l88 -144h-127l-82 144l82 144h127z" />
    <glyph glyph-name="guilsinglright" unicode="&#x203a;" horiz-adv-x="290" 
d="M269 313l-82 -144h-127l88 144l-88 144h127z" />
    <glyph glyph-name="fraction" unicode="&#x2044;" horiz-adv-x="255" 
d="M-24 -29h-79l371 768h78z" />
    <glyph glyph-name="uni2070" unicode="&#x2070;" horiz-adv-x="660" 
d="M587 515q0 -47 -18.5 -89t-52 -73t-80.5 -49t-104 -18t-104 18t-80.5 49t-52 73t-18.5 89t18.5 88.5t52 72.5t80.5 49t104 18t104 -18t80.5 -49t52 -72.5t18.5 -88.5zM467 516q0 28 -9.5 53t-27.5 43.5t-43.5 29.5t-56.5 11q-32 0 -57 -11t-43 -29.5t-27.5 -43.5
t-9.5 -53t9.5 -52.5t27.5 -43t43 -29.5t57 -11q31 0 56.5 11t43.5 29.5t27.5 43t9.5 52.5z" />
    <glyph glyph-name="uni2074" unicode="&#x2074;" horiz-adv-x="642" 
d="M489 473h80v-97h-80v-76h-108v76h-304v110l264 244h148v-257zM198 473h183v171z" />
    <glyph glyph-name="uni2075" unicode="&#x2075;" horiz-adv-x="657" 
d="M572 630h-343l-10 -64q7 2 22 5t34.5 6t42.5 5t46 2q33 0 71.5 -4.5t71.5 -20t55 -44.5t22 -78q0 -44 -22.5 -73t-57 -46.5t-77 -24.5t-82.5 -7q-35 0 -76.5 4t-79.5 11.5t-68.5 18t-43.5 22.5l46 94q9 -8 36.5 -17t61 -17t66 -13.5t51.5 -5.5q18 0 40.5 1.5t43 7
t34.5 16.5t14 29q0 26 -35 41.5t-87 15.5q-40 0 -79 -6.5t-65 -12.5l-102 4l42 251h428v-100z" />
    <glyph glyph-name="uni2076" unicode="&#x2076;" horiz-adv-x="655" 
d="M467 436q0 14 -12 24t-29 16t-37 8.5t-36 2.5q-24 0 -46.5 -3t-40.5 -9t-28.5 -16t-10.5 -24q0 -26 32 -38.5t89 -12.5q54 0 86.5 12.5t32.5 39.5zM536 613q-25 20 -66 31t-80 11q-105 0 -158 -42.5t-55 -109.5q11 19 33 33t49.5 23t57 13.5t54.5 4.5q38 0 76 -6.5
t68 -23t48.5 -44t18.5 -69.5q0 -41 -21.5 -69t-56 -45.5t-76.5 -25.5t-84 -8q-45 0 -92.5 10.5t-86.5 35.5t-63.5 66t-24.5 101q0 67 25 113.5t67 75.5t96 42t113 13q82 0 127 -12t68 -28z" />
    <glyph glyph-name="uni2077" unicode="&#x2077;" horiz-adv-x="627" 
d="M554 657l-286 -357h-143l272 331h-320v99h477v-73z" />
    <glyph glyph-name="uni2078" unicode="&#x2078;" horiz-adv-x="665" 
d="M518 524q34 -11 54 -36t20 -62q0 -45 -26.5 -72.5t-65.5 -42.5t-84 -19.5t-81 -4.5t-81 4.5t-84.5 19.5t-66 42.5t-26.5 72.5q0 37 20.5 62t53.5 36q-61 22 -61 87q0 46 26 72.5t63.5 39.5t80 16.5t75.5 3.5t75 -3.5t79.5 -16.5t63.5 -39.5t26 -72.5q0 -65 -61 -87z
M479 429q-1 31 -40 42.5t-104 11.5q-66 0 -104.5 -11.5t-38.5 -42.5q0 -23 37 -35t106 -12t106.5 12t37.5 35zM475 614q0 20 -38 33t-102 13q-63 0 -102 -13t-39 -33q0 -11 11.5 -20t30.5 -16t44.5 -10.5t54.5 -3.5t54.5 3.5t44.5 10.5t30 16t11 20z" />
    <glyph glyph-name="uni2079" unicode="&#x2079;" horiz-adv-x="656" 
d="M122 417q23 -17 63.5 -26t83.5 -9q105 0 154.5 36t49.5 108q-11 -21 -31.5 -35.5t-46 -24.5t-53.5 -14.5t-53 -4.5q-38 0 -76 7.5t-68 25t-49 46t-19 70.5t22 70t56.5 45t77 24.5t83.5 7.5q45 0 92.5 -10.5t86.5 -35.5t63.5 -65.5t24.5 -101.5q0 -67 -25.5 -113.5
t-67.5 -75.5t-96.5 -42t-112.5 -13q-82 0 -126 12t-68 28zM426 599q0 24 -30 39.5t-87 15.5q-54 0 -85 -16.5t-31 -44.5q0 -14 12 -23.5t29 -16.5t37 -10t36 -3q51 0 85 15.5t34 43.5z" />
    <glyph glyph-name="uni2080" unicode="&#x2080;" horiz-adv-x="660" 
d="M587 156q0 -47 -18.5 -89t-52 -73t-80.5 -49t-104 -18t-104 18t-80.5 49t-52 73t-18.5 89t18.5 88.5t52 72.5t80.5 49t104 18t104 -18t80.5 -49t52 -72.5t18.5 -88.5zM467 157q0 28 -9.5 53t-27.5 43.5t-43.5 29.5t-56.5 11q-32 0 -57 -11t-43 -29.5t-27.5 -43.5
t-9.5 -53t9.5 -52.5t27.5 -43t43 -29.5t57 -11q31 0 56.5 11t43.5 29.5t27.5 43t9.5 52.5z" />
    <glyph glyph-name="uni2081" unicode="&#x2081;" horiz-adv-x="337" 
d="M264 -59h-116v337l-71 -13v83l187 31v-438z" />
    <glyph glyph-name="uni2082" unicode="&#x2082;" horiz-adv-x="651" 
d="M568 -59h-491v106q31 38 71 63.5t82.5 43t83 28.5t72.5 20.5t51.5 19t19.5 24.5q0 17 -24 29.5t-62 12.5q-69 0 -132 -21.5t-106 -49.5l-47 98q20 12 48 24.5t65 22.5t84.5 16t106.5 6q37 0 71 -10t60 -28t41.5 -44t15.5 -58q0 -31 -9.5 -51.5t-31.5 -36t-58.5 -28
t-89.5 -27.5q-42 -12 -84 -22t-74 -33h337v-105z" />
    <glyph glyph-name="uni2083" unicode="&#x2083;" horiz-adv-x="661" 
d="M216 114v91h133q63 0 87 11t24 32q0 20 -26.5 30t-89.5 10q-32 0 -62.5 -5t-57 -12.5t-48 -16.5t-36.5 -17l-42 101q13 7 39 15t60 15t73.5 11.5t79.5 4.5q43 0 82.5 -7.5t70 -22.5t48.5 -38.5t18 -54.5q0 -20 -6.5 -36t-17 -28t-23.5 -20.5t-26 -12.5q26 -2 43.5 -12.5
t28.5 -24.5t15.5 -30t4.5 -29q0 -75 -63 -108t-194 -33q-42 0 -81.5 6t-73.5 15t-59.5 19.5t-39.5 19.5l46 98q12 -8 39.5 -18.5t60 -19.5t65 -15.5t55.5 -6.5q24 0 46 2.5t38.5 7.5t26.5 14t10 21q0 29 -27.5 36.5t-87.5 7.5h-133z" />
    <glyph glyph-name="uni2084" unicode="&#x2084;" horiz-adv-x="642" 
d="M489 114h80v-97h-80v-76h-108v76h-304v110l264 244h148v-257zM198 114h183v171z" />
    <glyph glyph-name="uni2085" unicode="&#x2085;" horiz-adv-x="657" 
d="M572 271h-343l-10 -64q7 2 22 5t34.5 6t42.5 5t46 2q33 0 71.5 -4.5t71.5 -20t55 -44.5t22 -78q0 -44 -22.5 -73t-57 -46.5t-77 -24.5t-82.5 -7q-35 0 -76.5 4t-79.5 11.5t-68.5 18t-43.5 22.5l46 94q9 -8 36.5 -17t61 -17t66 -13.5t51.5 -5.5q18 0 40.5 1.5t43 7
t34.5 16.5t14 29q0 26 -35 41.5t-87 15.5q-40 0 -79 -6.5t-65 -12.5l-102 4l42 251h428v-100z" />
    <glyph glyph-name="uni2086" unicode="&#x2086;" horiz-adv-x="655" 
d="M467 77q0 14 -12 24t-29 16t-37 8.5t-36 2.5q-24 0 -46.5 -3t-40.5 -9t-28.5 -16t-10.5 -24q0 -26 32 -38.5t89 -12.5q54 0 86.5 12.5t32.5 39.5zM536 254q-25 20 -66 31t-80 11q-105 0 -158 -42.5t-55 -109.5q11 19 33 33t49.5 23t57 13.5t54.5 4.5q38 0 76 -6.5t68 -23
t48.5 -44t18.5 -69.5q0 -41 -21.5 -69t-56 -45.5t-76.5 -25.5t-84 -8q-45 0 -92.5 10.5t-86.5 35.5t-63.5 66t-24.5 101q0 67 25 113.5t67 75.5t96 42t113 13q82 0 127 -12t68 -28z" />
    <glyph glyph-name="uni2087" unicode="&#x2087;" horiz-adv-x="627" 
d="M554 298l-286 -357h-143l272 331h-320v99h477v-73z" />
    <glyph glyph-name="uni2088" unicode="&#x2088;" horiz-adv-x="665" 
d="M518 165q34 -11 54 -36t20 -62q0 -45 -26.5 -72.5t-65.5 -42.5t-84 -19.5t-81 -4.5t-81 4.5t-84.5 19.5t-66 42.5t-26.5 72.5q0 37 20.5 62t53.5 36q-61 22 -61 87q0 46 26 72.5t63.5 39.5t80 16.5t75.5 3.5t75 -3.5t79.5 -16.5t63.5 -39.5t26 -72.5q0 -65 -61 -87z
M479 70q-1 31 -40 42.5t-104 11.5q-66 0 -104.5 -11.5t-38.5 -42.5q0 -23 37 -35t106 -12t106.5 12t37.5 35zM475 255q0 20 -38 33t-102 13q-63 0 -102 -13t-39 -33q0 -11 11.5 -20t30.5 -16t44.5 -10.5t54.5 -3.5t54.5 3.5t44.5 10.5t30 16t11 20z" />
    <glyph glyph-name="uni2089" unicode="&#x2089;" horiz-adv-x="656" 
d="M122 58q23 -17 63.5 -26t83.5 -9q105 0 154.5 36t49.5 108q-11 -21 -31.5 -35.5t-46 -24.5t-53.5 -14.5t-53 -4.5q-38 0 -76 7.5t-68 25t-49 46t-19 70.5t22 70t56.5 45t77 24.5t83.5 7.5q45 0 92.5 -10.5t86.5 -35.5t63.5 -65.5t24.5 -101.5q0 -67 -25.5 -113.5
t-67.5 -75.5t-96.5 -42t-112.5 -13q-82 0 -126 12t-68 28zM426 240q0 24 -30 39.5t-87 15.5q-54 0 -85 -16.5t-31 -44.5q0 -14 12 -23.5t29 -16.5t37 -10t36 -3q51 0 85 15.5t34 43.5z" />
    <glyph glyph-name="Euro" unicode="&#x20ac;" horiz-adv-x="881" 
d="M711 573q-26 7 -67.5 9t-98.5 2q-103 0 -171.5 -27t-100.5 -94h406l-70 -82h-366q0 -15 1.5 -32.5t3.5 -30.5h321l-66 -82h-217q29 -51 84.5 -81.5t140.5 -30.5q68 0 112.5 7.5t80.5 24.5l119 -105q-42 -17 -80 -29t-77 -19.5t-81.5 -11t-93.5 -3.5q-73 0 -132 18.5
t-104.5 51.5t-77.5 79t-51 100h-85l19 81h47q-1 7 -1.5 19t-0.5 44h-64l19 82h60q38 132 150.5 193.5t306.5 61.5q113 0 226 -25z" />
    <glyph glyph-name="trademark" unicode="&#x2122;" horiz-adv-x="675" 
d="M276 673h-69v-249h-78v249h-68v75h215v-75zM610 424h-67v157l-44 -157h-79l-42 156v-156h-68v324h94l56 -208l57 208h93v-324z" />
    <glyph glyph-name="onethird" unicode="&#x2153;" horiz-adv-x="1066" 
d="M254 -29h-79l371 768h78zM264 300h-116v337l-71 -13v83l187 31v-438zM621 114v91h133q63 0 87 11t24 32q0 20 -26.5 30t-89.5 10q-32 0 -62.5 -5t-57 -12.5t-48 -16.5t-36.5 -17l-42 101q13 7 39 15t60 15t73.5 11.5t79.5 4.5q43 0 82.5 -7.5t70 -22.5t48.5 -38.5
t18 -54.5q0 -20 -6.5 -36t-17 -28t-23.5 -20.5t-26 -12.5q26 -2 43.5 -12.5t28.5 -24.5t15.5 -30t4.5 -29q0 -75 -63 -108t-194 -33q-42 0 -81.5 6t-73.5 15t-59.5 19.5t-39.5 19.5l46 98q12 -8 39.5 -18.5t60 -19.5t65 -15.5t55.5 -6.5q24 0 46 2.5t38.5 7.5t26.5 14t10 21
q0 29 -27.5 36.5t-87.5 7.5h-133z" />
    <glyph glyph-name="twothirds" unicode="&#x2154;" horiz-adv-x="1355" 
d="M547 -29h-79l371 768h78zM568 300h-491v106q31 38 71 63.5t82.5 43t83 28.5t72.5 20.5t51.5 19t19.5 24.5q0 17 -24 29.5t-62 12.5q-69 0 -132 -21.5t-106 -49.5l-47 98q20 12 48 24.5t65 22.5t84.5 16t106.5 6q37 0 71 -10t60 -28t41.5 -44t15.5 -58q0 -31 -9.5 -51.5
t-31.5 -36t-58.5 -28t-89.5 -27.5q-42 -12 -84 -22t-74 -33h337v-105zM910 114v91h133q63 0 87 11t24 32q0 20 -26.5 30t-89.5 10q-32 0 -62.5 -5t-57 -12.5t-48 -16.5t-36.5 -17l-42 101q13 7 39 15t60 15t73.5 11.5t79.5 4.5q43 0 82.5 -7.5t70 -22.5t48.5 -38.5t18 -54.5
q0 -20 -6.5 -36t-17 -28t-23.5 -20.5t-26 -12.5q26 -2 43.5 -12.5t28.5 -24.5t15.5 -30t4.5 -29q0 -75 -63 -108t-194 -33q-42 0 -81.5 6t-73.5 15t-59.5 19.5t-39.5 19.5l46 98q12 -8 39.5 -18.5t60 -19.5t65 -15.5t55.5 -6.5q24 0 46 2.5t38.5 7.5t26.5 14t10 21
q0 29 -27.5 36.5t-87.5 7.5h-133z" />
    <glyph glyph-name="oneeighth" unicode="&#x215b;" horiz-adv-x="1063" 
d="M258 -29h-79l371 768h78zM264 300h-116v337l-71 -13v83l187 31v-438zM915 165q34 -11 54 -36t20 -62q0 -45 -26.5 -72.5t-65.5 -42.5t-84 -19.5t-81 -4.5t-81 4.5t-84.5 19.5t-66 42.5t-26.5 72.5q0 37 20.5 62t53.5 36q-61 22 -61 87q0 46 26 72.5t63.5 39.5t80 16.5
t75.5 3.5t75 -3.5t79.5 -16.5t63.5 -39.5t26 -72.5q0 -65 -61 -87zM876 70q-1 31 -40 42.5t-104 11.5q-66 0 -104.5 -11.5t-38.5 -42.5q0 -23 37 -35t106 -12t106.5 12t37.5 35zM872 255q0 20 -38 33t-102 13q-63 0 -102 -13t-39 -33q0 -11 11.5 -20t30.5 -16t44.5 -10.5
t54.5 -3.5t54.5 3.5t44.5 10.5t30 16t11 20z" />
    <glyph glyph-name="threeeighths" unicode="&#x215c;" horiz-adv-x="1336" 
d="M541 -29h-79l371 768h78zM1189 165q34 -11 54 -36t20 -62q0 -45 -26.5 -72.5t-65.5 -42.5t-84 -19.5t-81 -4.5t-81 4.5t-84.5 19.5t-66 42.5t-26.5 72.5q0 37 20.5 62t53.5 36q-61 22 -61 87q0 46 26 72.5t63.5 39.5t80 16.5t75.5 3.5t75 -3.5t79.5 -16.5t63.5 -39.5
t26 -72.5q0 -65 -61 -87zM1150 70q-1 31 -40 42.5t-104 11.5q-66 0 -104.5 -11.5t-38.5 -42.5q0 -23 37 -35t106 -12t106.5 12t37.5 35zM1146 255q0 20 -38 33t-102 13q-63 0 -102 -13t-39 -33q0 -11 11.5 -20t30.5 -16t44.5 -10.5t54.5 -3.5t54.5 3.5t44.5 10.5t30 16
t11 20zM216 473v91h133q63 0 87 11t24 32q0 20 -26.5 30t-89.5 10q-32 0 -62.5 -5t-57 -12.5t-48 -16.5t-36.5 -17l-42 101q13 7 39 15t60 15t73.5 11.5t79.5 4.5q43 0 82.5 -7.5t70 -22.5t48.5 -38.5t18 -54.5q0 -20 -6.5 -36t-17 -28t-23.5 -20.5t-26 -12.5
q26 -2 43.5 -12.5t28.5 -24.5t15.5 -30t4.5 -29q0 -75 -63 -108t-194 -33q-42 0 -81.5 6t-73.5 15t-59.5 19.5t-39.5 19.5l46 98q12 -8 39.5 -18.5t60 -19.5t65 -15.5t55.5 -6.5q24 0 46 2.5t38.5 7.5t26.5 14t10 21q0 29 -27.5 36.5t-87.5 7.5h-133z" />
    <glyph glyph-name="fiveeighths" unicode="&#x215d;" horiz-adv-x="1320" 
d="M520 -29h-79l371 768h78zM572 630h-343l-10 -64q7 2 22 5t34.5 6t42.5 5t46 2q33 0 71.5 -4.5t71.5 -20t55 -44.5t22 -78q0 -44 -22.5 -73t-57 -46.5t-77 -24.5t-82.5 -7q-35 0 -76.5 4t-79.5 11.5t-68.5 18t-43.5 22.5l46 94q9 -8 36.5 -17t61 -17t66 -13.5t51.5 -5.5
q18 0 40.5 1.5t43 7t34.5 16.5t14 29q0 26 -35 41.5t-87 15.5q-40 0 -79 -6.5t-65 -12.5l-102 4l42 251h428v-100zM1172 165q34 -11 54 -36t20 -62q0 -45 -26.5 -72.5t-65.5 -42.5t-84 -19.5t-81 -4.5t-81 4.5t-84.5 19.5t-66 42.5t-26.5 72.5q0 37 20.5 62t53.5 36
q-61 22 -61 87q0 46 26 72.5t63.5 39.5t80 16.5t75.5 3.5t75 -3.5t79.5 -16.5t63.5 -39.5t26 -72.5q0 -65 -61 -87zM1133 70q-1 31 -40 42.5t-104 11.5q-66 0 -104.5 -11.5t-38.5 -42.5q0 -23 37 -35t106 -12t106.5 12t37.5 35zM1129 255q0 20 -38 33t-102 13
q-63 0 -102 -13t-39 -33q0 -11 11.5 -20t30.5 -16t44.5 -10.5t54.5 -3.5t54.5 3.5t44.5 10.5t30 16t11 20z" />
    <glyph glyph-name="seveneighths" unicode="&#x215e;" horiz-adv-x="1183" 
d="M395 -29h-79l371 768h78zM1036 165q34 -11 54 -36t20 -62q0 -45 -26.5 -72.5t-65.5 -42.5t-84 -19.5t-81 -4.5t-81 4.5t-84.5 19.5t-66 42.5t-26.5 72.5q0 37 20.5 62t53.5 36q-61 22 -61 87q0 46 26 72.5t63.5 39.5t80 16.5t75.5 3.5t75 -3.5t79.5 -16.5t63.5 -39.5
t26 -72.5q0 -65 -61 -87zM997 70q-1 31 -40 42.5t-104 11.5q-66 0 -104.5 -11.5t-38.5 -42.5q0 -23 37 -35t106 -12t106.5 12t37.5 35zM993 255q0 20 -38 33t-102 13q-63 0 -102 -13t-39 -33q0 -11 11.5 -20t30.5 -16t44.5 -10.5t54.5 -3.5t54.5 3.5t44.5 10.5t30 16t11 20z
M554 657l-286 -357h-143l272 331h-320v99h477v-73z" />
    <glyph glyph-name="minus" unicode="&#x2212;" horiz-adv-x="400" 
d="M373 310h-344v107h344v-107z" />
    <glyph glyph-name="notequal" unicode="&#x2260;" horiz-adv-x="396" 
d="M370 407h-125l-23 -82h148v-106h-181l-23 -79h-74l23 79h-89v106h122l23 82h-145v106h178l20 67h74l-20 -67h92v-106z" />
    <glyph glyph-name="glyph388" horiz-adv-x="725" 
 />
    </font>
</defs>
</svg>
