<?xml version="1.0" standalone="no"?>
<!DOCTYPE svg PUBLIC "-//W3C//DTD SVG 1.1//EN" "http://www.w3.org/Graphics/SVG/1.1/DTD/svg11.dtd" >
<svg>
<metadata>
Created by FontForge 20120731 at Tue Mar 15 16:35:22 2016
 By www
Copyright (c) 2008 Typodermic Fonts. This font is not freely distributable. Visit typodermic.com for more info.
</metadata>
<defs>
<font id="PresicavW00-Regular" horiz-adv-x="875" >
  <font-face 
    font-family="PresicavW00-Regular"
    font-weight="400"
    font-stretch="normal"
    units-per-em="1000"
    panose-1="2 11 5 7 5 0 0 2 0 4"
    ascent="800"
    descent="-200"
    x-height="578"
    cap-height="716"
    bbox="-107 -233 1553 1036"
    underline-thickness="50"
    underline-position="-125"
    unicode-range="U+0020-2260"
  />
<missing-glyph horiz-adv-x="557" 
d="M469 89q0 -89 -96 -89h-191q-95 0 -95 89v540q0 89 95 89h191q96 0 96 -89v-540zM182 670q-45 0 -45 -41v-540q0 -41 45 -41h191q45 0 45 41v540q0 41 -45 41h-191z" />
    <glyph glyph-name="copyright" unicode="&#x28;C&#x29;" horiz-adv-x="845" 
d="M805 362q0 -78 -29.5 -146t-80.5 -119t-120 -80.5t-147 -29.5t-146 29.5t-119 80.5t-80.5 119t-29.5 146t29.5 147t80.5 120t119 80.5t146 29.5t147 -29.5t120 -80.5t80.5 -120t29.5 -147zM748 362q0 66 -25 124t-68.5 101.5t-102 68.5t-124.5 25t-123.5 -25
t-100.5 -68.5t-68 -101.5t-25 -124t25 -123.5t68 -101t100.5 -68.5t123.5 -25t124.5 25t102 68.5t68.5 101t25 123.5zM546 427q-13 39 -46.5 61t-71.5 22q-30 0 -54 -11.5t-41.5 -32t-26.5 -47.5t-9 -57t9 -57t26.5 -47.5t41.5 -32t54 -11.5q39 0 73.5 24t44.5 72l51 -27
q-18 -58 -63.5 -92.5t-105.5 -34.5q-42 0 -77 16t-60 44t-38.5 65.5t-13.5 80.5t13.5 80.5t38.5 65.5t60 44t77 16q57 0 103 -30.5t67 -87.5z" />
    <glyph glyph-name="registered" unicode="&#x28;R&#x29;" horiz-adv-x="594" 
d="M296 739q49 0 91.5 -15t73.5 -45t49 -74.5t18 -102.5q0 -63 -18 -110.5t-49 -79t-73.5 -47.5t-91.5 -16q-50 0 -92.5 16t-73.5 47.5t-49 79t-18 110.5q0 58 18 102.5t49 74.5t73.5 45t92.5 15zM296 699q-40 0 -75.5 -12t-62 -36.5t-42 -61.5t-15.5 -86q0 -54 15.5 -94
t42 -67t62 -40t75.5 -13t75 13t61.5 40t42 67t15.5 94q0 49 -15.5 86t-42 61.5t-61.5 36.5t-75 12zM407 407h-51l-56 69h-72v-69h-36v188h146q35 0 52.5 -16t17.5 -44q0 -25 -15.5 -40.5t-47.5 -17.5zM228 562v-52h104q38 0 38 26t-33 26h-109z" />
    <glyph glyph-name="uni2117" unicode="&#x28;P&#x29;" horiz-adv-x="917" 
d="M841 357q0 -79 -29.5 -148t-81.5 -120.5t-121.5 -81.5t-148.5 -30t-148 30t-120.5 81.5t-81.5 120.5t-30 148t30 149t81.5 121.5t120.5 81.5t148 30t148.5 -30t121.5 -81.5t81.5 -121.5t29.5 -149zM460 681q-67 0 -125.5 -25.5t-102.5 -69.5t-69.5 -103t-25.5 -126
q0 -66 25.5 -125t69.5 -103t102.5 -69.5t125.5 -25.5t126 25.5t103 69.5t69.5 103t25.5 125q0 67 -25.5 126t-69.5 103t-103 69.5t-126 25.5zM515 520q63 0 93.5 -28t30.5 -76t-31 -75.5t-97 -27.5h-121v-125h-62v332h187zM390 464v-93h124q28 0 43.5 12.5t15.5 35.5
q0 21 -15.5 33t-42.5 12h-125z" />
    <glyph glyph-name=".notdef" horiz-adv-x="557" 
d="M469 89q0 -89 -96 -89h-191q-95 0 -95 89v540q0 89 95 89h191q96 0 96 -89v-540zM182 670q-45 0 -45 -41v-540q0 -41 45 -41h191q45 0 45 41v540q0 41 -45 41h-191z" />
    <glyph glyph-name=".null" horiz-adv-x="0" 
 />
    <glyph glyph-name="nonmarkingreturn" horiz-adv-x="333" 
 />
    <glyph glyph-name="glyph389" horiz-adv-x="0" 
 />
    <glyph glyph-name="glyph389" horiz-adv-x="0" 
 />
    <glyph glyph-name="space" unicode=" " horiz-adv-x="295" 
 />
    <glyph glyph-name="exclam" unicode="!" horiz-adv-x="259" 
d="M173 199h-90l-32 517h154zM209 54q0 -28 -23.5 -47t-56.5 -19q-34 0 -57 19t-23 47t23 47t57 19q33 0 56.5 -19t23.5 -47z" />
    <glyph glyph-name="quotedbl" unicode="&#x22;" horiz-adv-x="311" 
d="M267 476h-58l-13 263h85zM96 476h-58l-13 263h85z" />
    <glyph glyph-name="numbersign" unicode="#" horiz-adv-x="602" 
d="M488 489h79v-86h-88l-12 -94h81v-86h-90l-28 -223h-79l27 223h-170l-27 -223h-80l27 223h-80v86h89l12 94h-82v86h90l24 199h79l-22 -199h170l23 199h80zM228 403l-11 -94h171l11 94h-171z" />
    <glyph glyph-name="dollar" unicode="$" horiz-adv-x="801" 
d="M715 522q-13 10 -43.5 20t-69.5 19t-82 15.5t-82 9.5v-173q28 0 64.5 -0.5t75.5 -5t76.5 -14.5t67 -30t47.5 -51t18 -77q0 -60 -31 -100t-81 -64t-112 -33.5t-125 -9.5v-87h-87v90q-52 3 -105.5 10t-100 17t-82.5 23t-53 28l52 93q13 -11 44 -21.5t71.5 -19.5t86 -16.5
t87.5 -11.5v190q-24 0 -57 1.5t-68.5 8t-70.5 18t-63 31t-45 49t-17 70.5q0 52 31 86.5t78.5 55t104 29.5t107.5 11v75h87v-75q48 -1 98.5 -7.5t94.5 -16t79 -22.5t52 -27zM438 130q38 0 77.5 4t72 15.5t53 32t20.5 53.5q0 30 -19 47t-50.5 26t-71.5 11.5t-82 2.5v-192z
M351 588q-32 -1 -66 -5t-63 -13t-47.5 -25t-18.5 -41q0 -29 19 -46.5t48 -26.5t63.5 -12.5t64.5 -4.5v174z" />
    <glyph glyph-name="percent" unicode="%" horiz-adv-x="825" 
d="M249 0h-84l414 688h84zM222 697q81 0 120 -41.5t39 -129.5q0 -96 -39 -140.5t-120 -44.5q-85 0 -123.5 44.5t-38.5 140.5q0 88 38.5 129.5t123.5 41.5zM222 624q-45 0 -66 -24t-21 -73q0 -60 21 -86.5t66 -26.5q43 0 63.5 26.5t20.5 86.5q0 97 -84 97zM609 346
q81 0 119.5 -41.5t38.5 -129.5q0 -96 -38.5 -140t-119.5 -44q-85 0 -123.5 44t-38.5 140q0 88 38.5 129.5t123.5 41.5zM609 274q-45 0 -66 -24.5t-21 -73.5q0 -60 21 -86t66 -26q43 0 63.5 26t20.5 86q0 98 -84 98z" />
    <glyph glyph-name="ampersand" unicode="&#x26;" horiz-adv-x="1026" 
d="M463 739q41 0 87.5 -6.5t86 -24.5t65.5 -48.5t26 -78.5q0 -46 -24.5 -78t-61 -53.5t-79 -34.5t-78.5 -21q62 -54 112 -93.5t100 -76.5q45 32 85 68.5t75 74.5l80 -91q-32 -32 -67.5 -65.5t-75.5 -65.5q51 -38 100 -74.5t97 -70.5h-198q-26 17 -52 35.5t-52 36.5
q-72 -45 -153.5 -70t-177.5 -25q-66 0 -122 14t-96.5 42t-63.5 71t-23 102q0 48 18 83.5t48.5 62t70 44t82.5 29.5q-34 38 -52.5 74t-18.5 78q0 46 24 77.5t62 50t84.5 26.5t91.5 8zM580 157q-61 46 -119.5 93.5t-121.5 104.5q-32 -8 -58.5 -19.5t-46 -27.5t-30.5 -38
t-11 -50q0 -36 13.5 -59.5t36.5 -37t53.5 -18.5t64.5 -5q57 0 111 15.5t108 41.5zM346 564q0 -23 19 -51t50 -56q31 4 64 11.5t61 20.5t46 32.5t18 47.5q0 21 -12 35.5t-31.5 22.5t-43 11.5t-47.5 3.5q-18 0 -39.5 -3.5t-40 -12.5t-31.5 -24t-13 -38z" />
    <glyph glyph-name="quotesingle" unicode="'" horiz-adv-x="140" 
d="M96 476h-58l-13 263h85z" />
    <glyph glyph-name="parenleft" unicode="(" horiz-adv-x="306" 
d="M282 813q-66 -78 -98 -186.5t-32 -239.5q0 -151 32 -268t98 -195l-77 -67q-78 94 -117.5 227.5t-39.5 302.5q0 148 39.5 273.5t117.5 219.5z" />
    <glyph glyph-name="parenright" unicode=")" horiz-adv-x="306" 
d="M99 880q78 -94 117.5 -219.5t39.5 -273.5q0 -169 -39 -302.5t-118 -227.5l-76 67q66 78 98 195t32 268q0 131 -32 239.5t-98 186.5z" />
    <glyph glyph-name="asterisk" unicode="*" horiz-adv-x="520" 
d="M485 541l-161 -35l105 -113l-95 -65l-76 127l-81 -123l-89 64l105 109l-159 39l35 91l146 -57l-15 144h117l-14 -145l152 58z" />
    <glyph glyph-name="plus" unicode="+" horiz-adv-x="402" 
d="M373 326h-135v-134h-74v134h-135v75h135v135h74v-135h135v-75z" />
    <glyph glyph-name="comma" unicode="," horiz-adv-x="290" 
d="M141 -132h-88l63 283h128z" />
    <glyph glyph-name="hyphen" unicode="-" horiz-adv-x="334" 
d="M306 254h-280v86h280v-86z" />
    <glyph glyph-name="period" unicode="." horiz-adv-x="347" 
d="M249 54q0 -28 -23.5 -47t-57.5 -19t-57 19t-23 47t23 47t57 19t57.5 -19t23.5 -47z" />
    <glyph glyph-name="slash" unicode="/" horiz-adv-x="386" 
d="M111 -123h-104l267 1003h106z" />
    <glyph glyph-name="zero" unicode="0" horiz-adv-x="1005" 
d="M929 358q0 -79 -30.5 -148.5t-86.5 -121t-134 -81.5t-174 -30q-95 0 -173.5 30t-134 81.5t-86 121t-30.5 148.5t30.5 148t86 121t134 82t173.5 30q96 0 174 -30t134 -82t86.5 -121t30.5 -148zM793 359q0 57 -20.5 107t-59 87.5t-92 59t-119.5 21.5t-119.5 -21.5
t-91.5 -59t-58.5 -87.5t-20.5 -107t20.5 -107t58.5 -87.5t91.5 -59t119.5 -21.5t119.5 21.5t92 59t59 87.5t20.5 107z" />
    <glyph glyph-name="one" unicode="1" horiz-adv-x="445" 
d="M349 0h-133v613l-178 -31v96l311 52v-730z" />
    <glyph glyph-name="two" unicode="2" horiz-adv-x="979" 
d="M880 0h-817v122q28 48 64.5 82.5t75.5 60.5q60 40 125 65.5t127 43t117.5 30t97 27.5t66 35t24.5 53q0 24 -15.5 44t-42.5 34.5t-63.5 22.5t-79.5 8q-68 0 -130.5 -10t-117 -26t-99.5 -36.5t-79 -42.5l-55 112q33 20 79.5 40.5t108.5 37t140 26.5t175 10
q62 0 119.5 -15.5t101.5 -44.5t70 -70.5t26 -92.5q0 -53 -21.5 -88.5t-61 -60t-97 -42t-129.5 -34.5q-47 -11 -98 -24.5t-98 -32.5t-87.5 -46.5t-67.5 -67.5h642v-120z" />
    <glyph glyph-name="three" unicode="3" horiz-adv-x="984" 
d="M294 314v104h278q94 0 138.5 27t44.5 72q0 57 -64.5 84t-182.5 27q-58 0 -113.5 -8t-103.5 -20t-86 -26.5t-61 -27.5l-48 116q22 11 65 24.5t99.5 25t122 19.5t131.5 8q72 0 138 -12.5t116.5 -38t80.5 -64.5t30 -91q0 -33 -11 -59.5t-29.5 -47t-42 -34.5t-47.5 -21
q39 -3 69 -18.5t50.5 -38t31.5 -49.5t11 -54q0 -123 -105.5 -178.5t-322.5 -55.5q-70 0 -136 10t-122 25t-98.5 32.5t-65.5 32.5l54 112q20 -15 64 -32.5t98.5 -32.5t112.5 -25t106 -10q61 0 111.5 7t86.5 22t55.5 39t19.5 57q0 52 -50 76t-147 24h-278z" />
    <glyph glyph-name="four" unicode="4" horiz-adv-x="898" 
d="M725 237h131v-113h-131v-124h-125v124h-562v126l519 466h168v-479zM178 237h422v378z" />
    <glyph glyph-name="five" unicode="5" horiz-adv-x="969" 
d="M882 602h-618l-29 -189q45 26 125.5 43t175.5 17q37 0 79 -3t82.5 -12t78 -26t65.5 -44t45 -66.5t17 -93.5q0 -73 -37.5 -121.5t-95.5 -77t-128.5 -40.5t-137.5 -12q-57 0 -126 7t-133 19.5t-115 29.5t-73 37l54 108q11 -10 36.5 -21t60 -21t74 -18.5t78.5 -15
t74.5 -10.5t62.5 -4q40 0 88.5 5.5t90 21t69.5 43t28 71.5q0 40 -22.5 67.5t-58.5 43.5t-82 23t-92 7q-90 0 -164.5 -16.5t-134.5 -45.5l-119 6l70 403h712v-115z" />
    <glyph glyph-name="six" unicode="6" horiz-adv-x="993" 
d="M864 567q-42 32 -111.5 50.5t-159.5 18.5q-84 0 -155 -19t-122 -58.5t-79.5 -101t-28.5 -145.5q27 42 68 70.5t89.5 46t100.5 25.5t102 8q64 0 127 -11t113 -38.5t81 -73.5t31 -116q0 -68 -36 -114.5t-93.5 -76t-128 -42.5t-139.5 -13q-50 0 -102.5 7.5t-102 24.5
t-93.5 44.5t-76.5 67t-51.5 92t-19 119.5q0 112 42 189.5t112 126t160.5 70t187.5 21.5q68 0 120 -5.5t91 -15t67 -22t48 -26.5zM789 226q0 37 -23 62.5t-58.5 41t-78 22t-81.5 6.5q-47 0 -96.5 -9t-92 -26.5t-73 -44t-39.5 -61.5q8 -32 33.5 -55.5t63 -40t85 -24.5
t100.5 -8q51 0 98 7.5t83 24t57.5 42.5t21.5 63z" />
    <glyph glyph-name="seven" unicode="7" horiz-adv-x="884" 
d="M840 632l-519 -632h-165l503 602h-614v114h795v-84z" />
    <glyph glyph-name="eight" unicode="8" horiz-adv-x="996" 
d="M786 373q29 -7 54 -22t43.5 -36.5t29 -48t10.5 -56.5q0 -50 -20.5 -87t-55 -63t-79 -42t-92 -25t-95.5 -12t-88 -3t-88 3t-95.5 12t-92 25t-79 42t-55 62.5t-20.5 87.5q0 30 10.5 56.5t29 48t43 36.5t53.5 22q-52 14 -83 53.5t-31 90.5t20 87.5t53 61.5t76 39.5t88 22
t89.5 9.5t81.5 2t81.5 -2t89.5 -9.5t88 -22t76 -39.5t53 -61.5t20 -87.5t-30.5 -90.5t-84.5 -53.5zM792 214q0 38 -20.5 60t-59 33.5t-94 14.5t-125.5 3t-125.5 -3t-94 -14.5t-59 -33.5t-20.5 -60t25 -62.5t66.5 -39t95.5 -20.5t112 -6t112 6t95.5 20.5t66.5 39t25 62.5z
M781 519q0 36 -25 60t-66 38t-92.5 19.5t-104.5 5.5t-105 -5.5t-93 -19.5t-66 -38t-25 -60q0 -30 19 -49.5t55.5 -30.5t90.5 -15.5t124 -4.5q142 0 215 20t73 80z" />
    <glyph glyph-name="nine" unicode="9" horiz-adv-x="973" 
d="M129 147q38 -27 106.5 -44t162.5 -17q84 0 154.5 16.5t121 49.5t79 82.5t28.5 115.5q0 8 -0.5 17t-1.5 18q-24 -39 -64 -66.5t-88 -44t-101 -24t-104 -7.5q-63 0 -126 12.5t-113.5 42t-81.5 77t-31 117.5t36.5 117t94 76t128 41.5t138.5 12.5q50 0 103 -7.5t102.5 -24.5
t93.5 -44.5t76.5 -67t51.5 -92t19 -119.5q0 -112 -42 -189.5t-112 -126t-161 -70t-188 -21.5q-68 0 -119 5.5t-89.5 14.5t-66 21t-47.5 25zM733 478q-3 40 -26 70t-59.5 49.5t-85 29t-102.5 9.5q-51 0 -97.5 -9t-82.5 -27t-57 -46t-21 -65q0 -38 23 -64.5t58.5 -43t78 -24.5
t81.5 -8q49 0 97 8t88 24t68 40t37 57z" />
    <glyph glyph-name="colon" unicode=":" horiz-adv-x="278" 
d="M215 54q0 -28 -23.5 -47t-57.5 -19t-57 19t-23 47t23 47t57 19t57.5 -19t23.5 -47zM215 447q0 -28 -23.5 -47t-57.5 -19t-57 19t-23 47q0 27 23 46t57 19t57.5 -19t23.5 -46z" />
    <glyph glyph-name="semicolon" unicode=";" horiz-adv-x="256" 
d="M100 -132h-88l64 283h128zM216 447q0 -28 -23.5 -47t-57.5 -19t-57 19t-23 47q0 27 23 46t57 19t57.5 -19t23.5 -46z" />
    <glyph glyph-name="less" unicode="&#x3c;" horiz-adv-x="405" 
d="M378 485l-246 -121l246 -122v-86l-352 178v56l352 177v-82z" />
    <glyph glyph-name="equal" unicode="=" horiz-adv-x="398" 
d="M370 422h-344v75h344v-75zM370 234h-344v75h344v-75z" />
    <glyph glyph-name="greater" unicode="&#x3e;" horiz-adv-x="405" 
d="M378 333l-352 -177v82l247 121l-247 122v86l352 -178v-56z" />
    <glyph glyph-name="question" unicode="?" horiz-adv-x="740" 
d="M284 203q-1 7 -1 13.5v13.5q0 58 31 102.5t108 70.5q36 12 67.5 21.5t55 22t37 30.5t13.5 48q0 31 -14.5 52t-40 33.5t-59.5 17.5t-74 5q-63 0 -113.5 -7.5t-91 -20t-73 -30t-59.5 -37.5l-53 101q27 18 59.5 35.5t79 32t111 23.5t154.5 9q60 0 114 -14t95 -40t65.5 -64.5
t24.5 -87.5t-18 -87t-63 -64q-32 -19 -73 -30.5t-78 -22.5q-36 -11 -56 -24.5t-29.5 -29.5t-12 -34.5t-2.5 -37.5h-104zM419 54q0 -28 -23.5 -46.5t-57.5 -18.5t-57 18.5t-23 46.5t23 47t57 19t57.5 -19t23.5 -47z" />
    <glyph glyph-name="at" unicode="@" horiz-adv-x="991" 
d="M661 138q2 -16 15 -22.5t27 -6.5q28 0 55.5 14.5t49 40t35 61t13.5 77.5q0 51 -22 96.5t-64 79t-103 53.5t-139 20q-83 0 -156 -24.5t-127.5 -69t-86.5 -107t-32 -138.5q0 -62 23 -117.5t69.5 -98.5t115.5 -68t162 -25q145 0 291 93l55 -49q-169 -109 -346 -109
q-116 0 -201.5 30t-141.5 81.5t-84 119.5t-28 143q0 91 38.5 165.5t104.5 127.5t154.5 82.5t189.5 29.5q97 0 174 -25t130.5 -68t81.5 -100.5t28 -121.5q0 -56 -19.5 -102t-53 -79.5t-77 -52t-91.5 -18.5q-36 0 -65 14t-39 40q-29 -27 -70 -43t-89 -16q-41 0 -71 13t-50 34
t-30 49t-10 58q0 40 16.5 79t46.5 70t72.5 50t95.5 19q38 0 71 -13.5t56 -39.5l11 45h88zM614 290q-28 64 -99 64q-35 0 -63 -12t-48 -32.5t-31 -46.5t-11 -53q0 -48 20.5 -75t68.5 -27q40 0 71 13t58 45z" />
    <glyph glyph-name="A" unicode="A" horiz-adv-x="941" 
d="M925 0h-153l-85 163h-442l-83 -163h-143l365 716h168zM296 272h342l-171 328z" />
    <glyph glyph-name="B" unicode="B" horiz-adv-x="990" 
d="M667 716q54 0 95.5 -13.5t70.5 -38t44 -59t15 -75.5q0 -24 -6 -47.5t-18.5 -44.5t-30.5 -38t-42 -27q64 -16 99.5 -61t35.5 -105q0 -44 -16 -81.5t-48 -65.5t-82 -44t-117 -16h-579v716h579zM220 311v-188h429q60 0 94.5 23.5t34.5 74.5q0 43 -32 66.5t-77 23.5h-449z
M220 598v-175h449q39 0 65 23t26 61q0 46 -31 68.5t-80 22.5h-429z" />
    <glyph glyph-name="C" unicode="C" horiz-adv-x="947" 
d="M774 467q-12 33 -37.5 61.5t-60.5 49t-79 32t-93 11.5q-67 0 -122.5 -18t-95 -52t-61.5 -83t-22 -110q0 -62 21 -110.5t60 -83t94.5 -52.5t124.5 -18q108 0 173 40.5t95 105.5l114 -52q-43 -103 -139.5 -157t-252.5 -54q-90 0 -168 25.5t-136 74t-91 119.5t-33 162
q0 90 35 161t95 120t140 74.5t169 25.5q69 0 130.5 -16.5t111 -45t86.5 -67.5t57 -83z" />
    <glyph glyph-name="D" unicode="D" horiz-adv-x="1030" 
d="M493 716q96 0 181.5 -16t149 -56.5t100.5 -110t37 -175.5q0 -60 -22.5 -123.5t-74.5 -115.5t-137 -85.5t-210 -33.5h-429v716h405zM221 604v-478h279q85 0 146 18.5t100.5 50.5t58.5 75t19 93q0 125 -87.5 183t-243.5 58h-272z" />
    <glyph glyph-name="E" unicode="E" 
d="M842 602h-621v-177h550v-114h-550v-187h635v-124h-768v716h754v-114z" />
    <glyph glyph-name="F" unicode="F" horiz-adv-x="798" 
d="M792 604h-571v-203h516v-117h-516v-284h-133v716h704v-112z" />
    <glyph glyph-name="G" unicode="G" horiz-adv-x="988" 
d="M855 525q-72 46 -159.5 71t-189.5 25q-67 0 -122.5 -18t-95.5 -52t-62.5 -83t-22.5 -110q0 -62 21 -110.5t60.5 -83t95.5 -52.5t125 -18q45 0 87.5 4.5t79 12.5t64 19.5t42.5 25.5v111h-207v111h340v-307q-21 -16 -57.5 -32.5t-88 -30t-119 -22.5t-151.5 -9
q-90 0 -168 25.5t-136 74t-91 119.5t-33 162q0 90 35 161t95 120t140 74.5t169 25.5q70 0 135.5 -10t120.5 -24.5t95.5 -32t60.5 -32.5z" />
    <glyph glyph-name="H" unicode="H" horiz-adv-x="985" 
d="M896 0h-132v318h-544v-318h-132v716h132v-278h544v278h132v-716z" />
    <glyph glyph-name="I" unicode="I" horiz-adv-x="335" 
d="M232 0h-132v716h132v-716z" />
    <glyph glyph-name="J" unicode="J" horiz-adv-x="773" 
d="M689 316q0 -87 -26.5 -150.5t-71 -105.5t-103.5 -62.5t-125 -20.5q-71 0 -128.5 17t-100.5 47t-71.5 72t-40.5 92l131 45q5 -29 21 -57t41 -49.5t58 -34.5t72 -13q44 0 83 10.5t67.5 35.5t45 67.5t16.5 106.5v400h132v-400z" />
    <glyph glyph-name="K" unicode="K" horiz-adv-x="1005" 
d="M557 471l421 -471h-188l-340 397l-230 -154v-243h-132v716h132v-331l485 331h214z" />
    <glyph glyph-name="L" unicode="L" horiz-adv-x="793" 
d="M220 132h569v-132h-701v716h132v-584z" />
    <glyph glyph-name="M" unicode="M" horiz-adv-x="1201" 
d="M1111 1h-135v616l-319 -617h-128l-307 617v-616h-134v715h235l276 -543l285 543h227v-715z" />
    <glyph glyph-name="N" unicode="N" horiz-adv-x="1022" 
d="M932 0h-138l-567 546v-546h-139v716h141l563 -534v534h140v-716z" />
    <glyph glyph-name="O" unicode="O" horiz-adv-x="1054" 
d="M987 358q0 -91 -36.5 -162t-99.5 -119.5t-146.5 -74t-177.5 -25.5t-177.5 25.5t-146.5 74t-99.5 119.5t-36.5 162q0 90 36.5 161t99.5 120t146.5 74.5t177.5 25.5t177.5 -25.5t146.5 -74.5t99.5 -120t36.5 -161zM848 358q0 61 -22.5 110t-64.5 83t-101.5 52t-132.5 18
q-74 0 -133 -18t-101 -52t-64.5 -83t-22.5 -110q0 -62 22.5 -110.5t64.5 -83t101 -52.5t133 -18q73 0 132.5 18t101.5 52.5t64.5 83t22.5 110.5z" />
    <glyph glyph-name="P" unicode="P" horiz-adv-x="929" 
d="M220 272v-272h-132v716h558q133 0 199 -60t66 -163t-67.5 -162t-205.5 -59h-418zM220 597v-203h423q63 0 96 26t33 77q0 48 -33 74t-94 26h-425z" />
    <glyph glyph-name="Q" unicode="Q" horiz-adv-x="1041" 
d="M847 -124l-133 131q-84 -30 -187 -30q-94 0 -177.5 25.5t-146.5 74t-99.5 119.5t-36.5 162q0 90 36.5 161t99.5 120t146.5 74.5t177.5 25.5t177.5 -25.5t146.5 -74.5t99.5 -120t36.5 -161q0 -97 -39.5 -169t-108.5 -120l114 -113zM848 358q0 61 -22.5 110t-64.5 83
t-101.5 52t-132.5 18q-74 0 -133 -18t-101 -52t-64.5 -83t-22.5 -110q0 -62 22.5 -110.5t64.5 -83t101 -52.5t133 -18q73 0 132.5 18t101.5 52.5t64.5 83t22.5 110.5z" />
    <glyph glyph-name="R" unicode="R" horiz-adv-x="964" 
d="M908 0h-184l-224 272h-280v-272h-132v716h558q133 0 199 -60t66 -163q0 -100 -65.5 -155.5t-177.5 -64.5zM220 597v-203h409q69 0 106 26t37 77q0 48 -33 74t-94 26h-425z" />
    <glyph glyph-name="S" unicode="S" horiz-adv-x="925" 
d="M712 517q-21 61 -77.5 87.5t-158.5 26.5q-135 0 -196 -28t-61 -81q0 -35 17.5 -55t50.5 -29.5t81 -12t110 -2.5q85 0 156.5 -5.5t122.5 -26.5t79.5 -62t28.5 -111q0 -53 -22.5 -97t-70.5 -76t-123.5 -49.5t-181.5 -17.5q-53 0 -93 2t-71 6.5t-54 11.5t-43 16
q-34 16 -59.5 34.5t-43 42.5t-28 54.5t-13.5 69.5h145q4 -33 25 -56.5t56.5 -39.5t83.5 -23.5t105 -7.5q118 0 183.5 32t65.5 95q0 30 -18.5 47.5t-49.5 27.5t-72 13t-86 3q-21 0 -40.5 -0.5t-39.5 -0.5q-48 0 -107 4t-111.5 24.5t-88 64t-35.5 121.5q0 50 21 91t68 69.5
t122.5 44t185.5 15.5q92 0 157 -13.5t109 -41t68.5 -68t35.5 -94.5z" />
    <glyph glyph-name="T" unicode="T" horiz-adv-x="786" 
d="M770 592h-311v-592h-132v592h-310v124h753v-124z" />
    <glyph glyph-name="U" unicode="U" horiz-adv-x="970" 
d="M886 329q0 -93 -31 -159.5t-86 -109.5t-130 -63t-163 -20q-87 0 -159.5 20.5t-124 63t-80 108.5t-28.5 158v389h137v-368q0 -71 18.5 -119t52 -77.5t81 -42t105.5 -12.5q60 0 111 12t87.5 40.5t57.5 77t21 120.5v369h131v-387z" />
    <glyph glyph-name="V" unicode="V" horiz-adv-x="950" 
d="M546 0h-140l-387 716h150l310 -578l308 578h147z" />
    <glyph glyph-name="W" unicode="W" horiz-adv-x="1305" 
d="M1016 0h-158l-208 519l-204 -519h-154l-273 716h151l204 -548l214 548h127l218 -548l206 548h151z" />
    <glyph glyph-name="X" unicode="X" horiz-adv-x="965" 
d="M486 451l265 265h170l-351 -339l368 -377h-183l-275 282l-282 -282h-172l371 365l-354 351h185z" />
    <glyph glyph-name="Y" unicode="Y" horiz-adv-x="871" 
d="M508 236v-235h-136v235l-353 480h162l263 -362l256 362h156z" />
    <glyph glyph-name="Z" unicode="Z" horiz-adv-x="912" 
d="M875 623l-617 -500h622v-123h-849v104l622 498h-609v114h831v-93z" />
    <glyph glyph-name="bracketleft" unicode="[" horiz-adv-x="361" 
d="M310 785h-118v-831h118v-95h-222v1022h222v-96z" />
    <glyph glyph-name="backslash" unicode="\" horiz-adv-x="386" 
d="M379 -123h-105l-268 1003h105z" />
    <glyph glyph-name="bracketright" unicode="]" horiz-adv-x="361" 
d="M310 -141h-222v95h119v831h-119v96h222v-1022z" />
    <glyph glyph-name="asciicircum" unicode="^" horiz-adv-x="435" 
d="M399 496h-100l-81 122l-82 -122h-99l151 222h60z" />
    <glyph glyph-name="underscore" unicode="_" horiz-adv-x="526" 
d="M527 -99h-528v67h528v-67z" />
    <glyph glyph-name="grave" unicode="`" horiz-adv-x="340" 
d="M306 645l-288 104l30 75l276 -122z" />
    <glyph glyph-name="a" unicode="a" horiz-adv-x="898" 
d="M783 136q0 -16 10.5 -29.5t31.5 -13.5q18 0 40 13v-91q-15 -14 -37 -21t-43 -7q-42 0 -71 20t-43 50q-20 -12 -53.5 -24.5t-75.5 -22.5t-91 -16.5t-101 -6.5q-145 0 -215 51.5t-70 151.5q0 60 29.5 98.5t77 60t107.5 30t121 8.5q39 0 79 -5.5t75 -13.5t63.5 -17.5
t44.5 -17.5q0 33 -14 61.5t-45.5 49.5t-83.5 33t-128 12q-36 0 -74 -3.5t-74 -10.5t-67.5 -16t-53.5 -21l-36 89q25 16 60 28t76 20t86.5 12t92.5 4q196 0 289 -67t93 -205v-183zM659 245q-10 10 -36.5 19t-62 16t-76 11t-78.5 4q-218 0 -218 -106q0 -58 47.5 -83t137.5 -25
q38 0 82.5 5.5t85 13t72.5 16.5t46 16v113z" />
    <glyph glyph-name="b" unicode="b" horiz-adv-x="889" 
d="M216 506q43 38 111 60.5t159 22.5q55 0 115 -15t109 -49.5t81 -92.5t32 -143q0 -79 -31 -136t-81.5 -94t-114.5 -54.5t-131 -17.5q-84 0 -150 22.5t-102 49.5v-59h-125v739h128v-233zM696 287q0 54 -22 92t-58 62t-81.5 35t-92.5 11q-81 0 -142.5 -29.5t-84.5 -87.5v-172
q23 -54 82 -82.5t138 -28.5q50 0 97 11.5t83.5 36t58.5 62t22 90.5z" />
    <glyph glyph-name="c" unicode="c" horiz-adv-x="818" 
d="M661 365q-24 54 -80.5 90t-137.5 36q-53 0 -99.5 -12t-81 -37t-54.5 -63t-20 -90t20 -90t54.5 -63t80.5 -37t98 -12q42 0 79.5 10t67 27.5t49.5 41.5t28 53l105 -51q-12 -37 -39.5 -70t-69.5 -57.5t-99 -39t-128 -14.5q-77 0 -144.5 19t-117.5 56.5t-78.5 94.5t-28.5 132
t29 132t79.5 94.5t120 56.5t150.5 19q59 0 110.5 -14.5t93 -38.5t72 -56t46.5 -67z" />
    <glyph glyph-name="d" unicode="d" horiz-adv-x="885" 
d="M667 739h128v-739h-125v59q-36 -27 -102 -49.5t-150 -22.5q-67 0 -131 17.5t-114.5 54.5t-81.5 94t-31 136q0 85 32 143t81 92.5t108.5 49.5t115.5 15q91 0 159 -22.5t111 -60.5v233zM187 287q0 -53 22 -90.5t58.5 -62t83.5 -36t97 -11.5q79 0 138 28.5t82 82.5v172
q-23 58 -84.5 87.5t-142.5 29.5q-47 0 -92.5 -11t-81.5 -35t-58 -62t-22 -92z" />
    <glyph glyph-name="e" unicode="e" horiz-adv-x="859" 
d="M792 256h-603q6 -44 28 -77.5t56 -55.5t77.5 -33t93.5 -11q85 0 140 25.5t72 70.5h139q-10 -39 -41.5 -73.5t-78.5 -60t-106 -40t-123 -14.5q-82 0 -151.5 19t-120.5 56.5t-80 94t-29 131.5q0 76 29 132.5t79.5 94.5t120 57t150.5 19q84 0 148.5 -28t109 -72t67.5 -99.5
t23 -109.5v-26zM658 337q-3 25 -18.5 53t-43 52t-66 39.5t-87.5 15.5q-48 0 -90.5 -9t-75.5 -28.5t-55.5 -49.5t-29.5 -73h466z" />
    <glyph glyph-name="f" unicode="f" horiz-adv-x="382" 
d="M356 647h-59q-35 0 -49 -17t-14 -52h126v-92h-126v-486h-132v486h-85v92h85q1 47 13 78t34.5 49.5t56 26t77.5 7.5h73v-92z" />
    <glyph glyph-name="g" unicode="g" horiz-adv-x="891" 
d="M801 153q0 -86 -24.5 -145.5t-72.5 -97t-117.5 -54.5t-159.5 -17q-61 0 -110 3t-89.5 9.5t-74.5 16.5t-65 23l41 96q54 -24 127 -41t164 -17q54 0 101.5 12t83 35t56.5 57.5t21 79.5q-35 -35 -109 -60t-176 -25q-56 0 -114.5 14t-107 47t-79.5 86.5t-31 133.5
q0 75 31 128t81 86.5t114 49.5t130 16q50 0 90 -6.5t71.5 -16.5t54.5 -22t39 -23v57h125v-425zM676 391q-11 22 -34 41.5t-53 33.5t-65.5 22.5t-71.5 8.5q-50 0 -97 -11t-83 -33.5t-58 -57.5t-22 -83q0 -50 22 -84.5t57.5 -57t81 -32.5t92.5 -10q91 0 151 32t80 89v142z" />
    <glyph glyph-name="h" unicode="h" horiz-adv-x="874" 
d="M790 0h-133v243q0 74 -17.5 121.5t-48 74.5t-71.5 37.5t-87 10.5q-63 0 -113.5 -20.5t-99.5 -59.5v-407h-132v739h128v-230q45 35 102 58.5t135 23.5q61 0 121.5 -13.5t108.5 -51t77.5 -105t29.5 -175.5v-246z" />
    <glyph glyph-name="i" unicode="i" horiz-adv-x="334" 
d="M231 0h-132v578h132v-578zM237 684q0 -24 -21.5 -41t-50.5 -17q-30 0 -50.5 17t-20.5 41t20.5 41t50.5 17q29 0 50.5 -17t21.5 -41z" />
    <glyph glyph-name="j" unicode="j" horiz-adv-x="327" 
d="M244 3q0 -35 -10.5 -65t-33 -52t-58 -34.5t-86.5 -12.5h-60v103h36q43 0 61.5 17t18.5 50v569h132v-575zM249 685q0 -25 -21 -42t-50 -17q-30 0 -50.5 17t-20.5 42q0 24 20.5 41t50.5 17q29 0 50 -17t21 -41z" />
    <glyph glyph-name="k" unicode="k" horiz-adv-x="813" 
d="M524 375l283 -375h-153l-222 302l-212 -164v-138h-132v739h132v-462l401 301h170z" />
    <glyph glyph-name="l" unicode="l" horiz-adv-x="312" 
d="M220 0h-132v739h132v-739z" />
    <glyph glyph-name="m" unicode="m" horiz-adv-x="1327" 
d="M1243 0h-133v262q0 68 -13.5 111.5t-37 69t-56 35t-69.5 9.5q-32 0 -62.5 -8t-58.5 -20.5t-52 -29.5t-43 -35q3 -21 5 -43t2 -47v-304h-127v242q0 75 -12 122.5t-34.5 74.5t-55 37.5t-74.5 10.5q-63 0 -113 -22.5t-89 -57.5v-407h-132v578h125v-69q19 17 41 32t48 26
t57 17.5t69 6.5q75 0 139.5 -25t106.5 -89q55 52 121 83t145 31q60 0 115 -15t96.5 -52t66.5 -100t25 -159v-265z" />
    <glyph glyph-name="n" unicode="n" 
d="M791 0h-133v243q0 74 -17.5 121.5t-48.5 74.5t-72 37.5t-87 10.5q-63 0 -113.5 -20.5t-99.5 -59.5v-407h-132v578h125v-69q45 35 104 58.5t137 23.5q61 0 121.5 -13.5t108.5 -51t77.5 -105t29.5 -175.5v-246z" />
    <glyph glyph-name="o" unicode="o" horiz-adv-x="902" 
d="M835 289q0 -75 -30 -132t-81.5 -94.5t-122 -56.5t-151.5 -19t-151.5 19t-122 56.5t-81.5 94.5t-30 132t30 132t81.5 94.5t122 56.5t151.5 19t151.5 -19t122 -56.5t81.5 -94.5t30 -132zM710 289q0 52 -21 90t-56.5 63t-83 37t-100.5 12t-100.5 -12t-83 -37t-56.5 -63
t-21 -90t21 -90t56.5 -63t83 -37t100.5 -12t100.5 12t83 37t56.5 63t21 90z" />
    <glyph glyph-name="p" unicode="p" horiz-adv-x="889" 
d="M216 -161h-128v739h125v-61q36 27 102 49.5t150 22.5q67 0 131 -17.5t114.5 -54.5t81.5 -94t31 -136q0 -86 -32 -143.5t-81 -92t-109 -49.5t-115 -15q-91 0 -159 22.5t-111 60.5v-231zM696 289q0 52 -22 90t-58.5 62.5t-83.5 36t-97 11.5q-79 0 -138 -28.5t-82 -82.5
v-172q23 -58 84.5 -87.5t142.5 -29.5q47 0 92.5 11t81.5 35t58 62t22 92z" />
    <glyph glyph-name="q" unicode="q" horiz-adv-x="890" 
d="M672 70q-43 -38 -111 -60.5t-159 -22.5q-56 0 -115.5 15t-108.5 49.5t-81 92t-32 143.5q0 79 31 136t81.5 94t114.5 54.5t131 17.5q84 0 150 -22.5t102 -49.5v61h125v-739h-128v231zM192 289q0 -54 22 -92t58 -62t81.5 -35t92.5 -11q81 0 142.5 29.5t84.5 87.5v172
q-23 54 -82 82.5t-138 28.5q-50 0 -97 -11.5t-83.5 -36t-58.5 -62.5t-22 -90z" />
    <glyph glyph-name="r" unicode="r" horiz-adv-x="516" 
d="M495 468q-45 0 -91.5 -4.5t-85 -19.5t-65.5 -42.5t-33 -72.5v-329h-132v578h124v-100q18 34 44.5 56t61.5 34.5t79.5 17.5t97.5 5v-123z" />
    <glyph glyph-name="s" unicode="s" horiz-adv-x="813" 
d="M615 408q-9 25 -23.5 42.5t-37 28.5t-54.5 16t-76 5q-49 0 -88.5 -4t-67.5 -13.5t-43.5 -25t-15.5 -39.5q0 -26 23.5 -40t61.5 -21.5t87 -10t99.5 -6.5t99.5 -11.5t87 -24t61.5 -44.5t23.5 -73q0 -47 -17 -84t-56.5 -63t-103.5 -39.5t-158 -13.5q-53 0 -92 2.5t-68.5 7.5
t-51.5 12.5t-41 17.5q-20 10 -38 26.5t-32 37t-22.5 44.5t-8.5 50h132q6 -54 65 -77.5t165 -23.5q90 0 144 21t54 67q0 21 -16.5 34.5t-43 21t-60 11t-68 5.5t-66.5 3t-55 4q-35 4 -76.5 10t-77 22t-59.5 46t-24 83q0 94 91 136.5t255 42.5q80 0 137 -11.5t95 -34t59.5 -56
t30.5 -76.5z" />
    <glyph glyph-name="t" unicode="t" horiz-adv-x="415" 
d="M223 578h143v-92h-143v-296q0 -54 18 -72t52 -18q25 0 47 8.5t31 18.5v-101q-9 -16 -38 -27.5t-68 -11.5q-93 0 -130.5 50t-37.5 149v300h-80v92h80v111l126 42v-153z" />
    <glyph glyph-name="u" unicode="u" horiz-adv-x="864" 
d="M774 0h-124v69q-45 -36 -103.5 -59t-136.5 -23q-61 0 -120.5 13.5t-107 51t-77 105t-29.5 175.5v246h133v-243q0 -75 17 -122.5t45.5 -74.5t65.5 -37.5t78 -10.5q69 0 125.5 23t101.5 58v407h132v-578z" />
    <glyph glyph-name="v" unicode="v" horiz-adv-x="819" 
d="M480 0h-134l-327 578h141l259 -450l254 450h129z" />
    <glyph glyph-name="w" unicode="w" horiz-adv-x="1210" 
d="M925 0h-116l-206 444l-205 -444h-119l-260 578h131l196 -444l205 444h119l200 -444l197 444h126z" />
    <glyph glyph-name="x" unicode="x" horiz-adv-x="828" 
d="M336 303l-299 275h168l209 -209l214 209h155l-293 -275l321 -303h-170l-231 232l-230 -232h-164z" />
    <glyph glyph-name="y" unicode="y" horiz-adv-x="779" 
d="M450 -9q-21 -40 -49.5 -67.5t-62 -45t-71 -25t-77.5 -7.5q-59 0 -96.5 4t-68.5 12l25 106q29 -8 65 -15t78 -7q51 0 86 16.5t50 58.5l-310 557h140l242 -449l230 449h131z" />
    <glyph glyph-name="z" unicode="z" horiz-adv-x="779" 
d="M725 479l-486 -373h488v-106h-683v104l483 371h-476v103h674v-99z" />
    <glyph glyph-name="braceleft" unicode="{" horiz-adv-x="342" 
d="M317 783h-90q-42 0 -42 -41v-289q0 -58 -54 -86q54 -29 54 -84v-287q0 -42 42 -42h90v-95h-98q-138 0 -138 128v296q0 43 -35 43h-33v85h33q35 0 35 42v298q0 128 138 128h98v-96z" />
    <glyph glyph-name="bar" unicode="|" horiz-adv-x="276" 
d="M174 -141h-86v1021h86v-1021z" />
    <glyph glyph-name="braceright" unicode="}" horiz-adv-x="342" 
d="M258 453q0 -42 37 -42h32v-85h-32q-37 0 -37 -43v-296q0 -128 -137 -128h-97v95h88q44 0 44 42v287q0 57 53 84q-53 27 -53 86v289q0 41 -44 41h-88v96h97q137 0 137 -128v-298z" />
    <glyph glyph-name="asciitilde" unicode="~" horiz-adv-x="498" 
d="M468 301q-41 -29 -120 -29q-29 0 -55 8t-51.5 17t-51.5 17t-54 8q-29 0 -55 -7.5t-52 -25.5v83q23 15 49 21t66 6q29 0 56 -8t53 -17.5t53.5 -17.5t57.5 -8q26 0 51 8.5t53 28.5v-84z" />
    <glyph glyph-name="uni00A0" unicode="&#xa0;" horiz-adv-x="498" 
 />
    <glyph glyph-name="exclamdown" unicode="&#xa1;" horiz-adv-x="262" 
d="M86.0107 355.012h89.9941l31.998 -516.968h-153.99zM50.0127 500.003q0 27.999 23.499 46.9971q23.498 18.999 56.4961 18.999q33.998 0 56.9961 -18.999q22.999 -18.998 22.999 -46.9971q0 -27.998 -22.999 -46.9971q-22.998 -18.998 -56.9961 -18.998
q-32.998 0 -56.4961 18.998q-23.499 18.999 -23.499 46.9971z" />
    <glyph glyph-name="cent" unicode="&#xa2;" horiz-adv-x="712" 
d="M599 447q-21 51 -69 81t-108 38v-413q69 7 111 37.5t63 76.5l90 -41q-29 -75 -95 -117.5t-169 -49.5v-83h-78v83q-66 4 -122.5 26t-98 60.5t-65 92.5t-23.5 122q0 67 24 120.5t66 92t98 61t121 27.5v79h78v-79q46 -4 87.5 -18t76.5 -35.5t61.5 -50t42.5 -62.5zM344 566
q-44 -5 -80.5 -21.5t-62.5 -42.5t-40.5 -62t-14.5 -80q0 -91 52.5 -144t145.5 -63v413z" />
    <glyph glyph-name="sterling" unicode="&#xa3;" horiz-adv-x="884" 
d="M766 573q-42 30 -107 50t-143 20q-107 0 -164.5 -41.5t-57.5 -142.5v-30v-23t-2 -22h294v-96h-310q-16 -63 -43 -109t-65 -86h682v-93h-845v93q41 22 69 47t47 50.5t31 50.5t21 47h-102v96h124q2 18 3.5 36.5t1.5 38.5q0 139 78.5 209t239.5 70q95 0 170 -26t115 -62z
" />
    <glyph glyph-name="yen" unicode="&#xa5;" horiz-adv-x="841" 
d="M469 369v-41h241v-67h-241v-103h241v-66h-241v-91h-92v91h-243v66h243v103h-243v67h243v41l-360 347h137l268 -264l268 264h135z" />
    <glyph glyph-name="brokenbar" unicode="&#xa6;" horiz-adv-x="235" 
d="M174 -141h-86v368h86v-368zM174 542h-86v338h86v-338z" />
    <glyph glyph-name="section" unicode="&#xa7;" horiz-adv-x="605" 
d="M417 552q-12 80 -117 80q-48 0 -77.5 -14.5t-29.5 -43.5q0 -35 27 -51t87 -18q25 -1 61.5 -6.5t70.5 -21t58.5 -44.5t24.5 -78q0 -16 -5.5 -33t-16.5 -31.5t-28.5 -26t-41.5 -17.5q45 -12 72 -37.5t27 -67.5q0 -29 -14 -56t-42 -48.5t-70.5 -34.5t-99.5 -13q-43 0 -83 9
t-72 29t-53.5 50.5t-27.5 74.5l109 11q4 -28 18 -45.5t32 -27t38.5 -13t38.5 -3.5q60 0 90 21.5t30 45.5q0 35 -34.5 50.5t-97.5 21.5q-31 3 -65.5 9.5t-64 22t-48.5 42t-19 70.5q0 37 24.5 65t67.5 41q-20 5 -37.5 13.5t-31.5 22t-22 32t-8 42.5q0 34 16.5 61t46 45
t68.5 27.5t84 9.5q110 0 164 -42.5t59 -113.5zM423 360q0 40 -33 54.5t-83 14.5q-51 0 -80.5 -15.5t-29.5 -55.5q0 -45 31 -62.5t79 -17.5q63 0 89.5 20t26.5 62z" />
    <glyph glyph-name="dieresis" unicode="&#xa8;" horiz-adv-x="485" 
d="M446 742q0 -25 -21 -42t-51 -17q-29 0 -50 17t-21 42q0 24 21 41t50 17q30 0 51 -17t21 -41zM180 742q0 -25 -21 -42t-50 -17q-30 0 -50.5 17t-20.5 42q0 24 20.5 41t50.5 17q29 0 50 -17t21 -41z" />
    <glyph glyph-name="ordfeminine" unicode="&#xaa;" horiz-adv-x="602" 
d="M496 362q0 -11 5 -19t16 -8q13 0 23 10v-57q-8 -8 -21 -12.5t-26 -4.5q-23 0 -40 12t-26 30q-12 -8 -32 -15.5t-45.5 -13.5t-54.5 -9.5t-60 -3.5q-172 0 -172 122q0 36 18 59t46.5 36.5t64.5 19t72 5.5q24 0 48 -3t45 -8t38 -11t28 -11q0 39 -36.5 65.5t-126.5 26.5
q-45 0 -89 -8t-72 -22l-22 54q30 20 81 29.5t108 9.5q120 0 175 -39.5t55 -124.5v-109zM421 427q-6 6 -22 11.5t-37.5 9t-46 6t-47.5 2.5q-130 0 -130 -63q0 -35 28.5 -50t82.5 -15q23 0 49.5 3t51 7.5t44 10t27.5 9.5v69z" />
    <glyph glyph-name="guillemotleft" unicode="&#xab;" horiz-adv-x="459" 
d="M297 313l87 -144h-88l-82 144l82 144h87zM131 313l86 -144h-88l-82 144l82 144h88z" />
    <glyph glyph-name="uni00AD" unicode="&#xad;" horiz-adv-x="333" 
d="M306 255h-280v86h280v-86z" />
    <glyph glyph-name="macron" unicode="&#xaf;" horiz-adv-x="562" 
d="M457 687h-352v84h352v-84z" />
    <glyph glyph-name="degree" unicode="&#xb0;" horiz-adv-x="374" 
d="M187 728q119 0 119 -124q0 -126 -119 -126q-120 0 -120 126q0 124 120 124zM187 676q-66 0 -66 -72q0 -75 66 -75t66 75q0 72 -66 72z" />
    <glyph glyph-name="plusminus" unicode="&#xb1;" horiz-adv-x="402" 
d="M373 326h-135v-134h-74v134h-135v75h135v135h74v-135h135v-75zM373 72h-344v74h344v-74z" />
    <glyph glyph-name="uni00B2" unicode="&#xb2;" horiz-adv-x="657" 
d="M570 299h-490v77q35 50 80 80t91 48t90.5 28t79.5 19t56 22t21 38q0 28 -34.5 46.5t-83.5 18.5q-85 0 -150 -20.5t-107 -46.5l-34 68q40 24 113 44.5t191 20.5q37 0 71 -9.5t60 -26.5t41.5 -41.5t15.5 -55.5q0 -36 -16.5 -59t-42 -37.5t-56.5 -22t-60 -13.5
q-32 -7 -64.5 -17.5t-61.5 -23.5t-53.5 -29t-40.5 -35h384v-73z" />
    <glyph glyph-name="uni00B3" unicode="&#xb3;" horiz-adv-x="667" 
d="M219 487v64h168q57 0 83 16.5t26 42.5q0 33 -38.5 49.5t-108.5 16.5q-35 0 -68.5 -5t-62 -12.5t-51.5 -16t-37 -16.5l-29 70q13 7 39 15t60 15t73 11.5t79 4.5q43 0 83 -7.5t70.5 -22.5t48.5 -38.5t18 -54.5q0 -38 -24 -63.5t-53 -33.5q23 -3 41 -12t30 -22.5t18.5 -29.5
t6.5 -32q0 -75 -63 -108t-195 -33q-42 0 -81.5 6t-73 15t-59 19.5t-39.5 19.5l33 68q12 -9 38.5 -19.5t59 -19.5t67.5 -15t64 -6q74 0 118.5 17t44.5 58q0 27 -29 43t-89 16h-168z" />
    <glyph glyph-name="acute" unicode="&#xb4;" horiz-adv-x="340" 
d="M324 749l-289 -104l-17 56l277 123z" />
    <glyph glyph-name="paragraph" unicode="&#xb6;" horiz-adv-x="559" 
d="M497 -15q0 -48 23.5 -67t56.5 -19q23 0 45 12t33 33l10 -58q-14 -23 -40 -35t-48 -12q-63 0 -102.5 34t-39.5 112v679h-140v-721h-63v455h-74q-34 0 -59 13.5t-41.5 36t-25 51.5t-8.5 59t8.5 58.5t25 51t41.5 36.5t59 14h339v-733z" />
    <glyph glyph-name="periodcentered" unicode="&#xb7;" horiz-adv-x="279" 
d="M217 361q0 -24 -21 -41t-51 -17q-29 0 -50 17t-21 41t21 41t50 17q30 0 51 -17t21 -41z" />
    <glyph glyph-name="cedilla" unicode="&#xb8;" horiz-adv-x="284" 
d="M148 -42q18 -3 38 -9.5t36.5 -17.5t27 -26.5t10.5 -36.5q0 -22 -10 -38.5t-27 -27.5t-39 -16.5t-46 -5.5q-86 0 -120 64l44 20q24 -38 73 -38q23 0 39 11.5t16 33.5q0 26 -26.5 37.5t-69.5 12.5v83h54v-46z" />
    <glyph glyph-name="uni00B9" unicode="&#xb9;" horiz-adv-x="343" 
d="M267 300h-81v367l-106 -19v59l187 31v-438z" />
    <glyph glyph-name="ordmasculine" unicode="&#xba;" horiz-adv-x="596" 
d="M529 452q0 -45 -18 -79t-49 -56.5t-73 -34t-91 -11.5t-91 11.5t-73.5 34t-49.5 56.5t-18 79q0 46 18 80t49.5 57t73.5 34.5t91 11.5t91 -11.5t73 -34.5t49 -57t18 -80zM454 452q0 31 -12.5 54t-34 38t-50 22.5t-59.5 7.5q-32 0 -60.5 -7.5t-50 -22.5t-34 -38t-12.5 -54
t12.5 -53.5t34 -37.5t50 -22t60.5 -7q31 0 59.5 7t50 22t34 37.5t12.5 53.5z" />
    <glyph glyph-name="guillemotright" unicode="&#xbb;" horiz-adv-x="458" 
d="M411 313l-82 -144h-88l86 144l-86 144h88zM244 313l-82 -144h-88l87 144l-86 144h87z" />
    <glyph glyph-name="onequarter" unicode="&#xbc;" horiz-adv-x="1038" 
d="M289 -29h-56l371 768h57zM269 300h-81v367l-106 -19v59l187 31v-438zM885 83h79v-69h-79v-74h-75v74h-337v77l311 280h101v-288zM558 83h252v226z" />
    <glyph glyph-name="onehalf" unicode="&#xbd;" horiz-adv-x="1066" 
d="M256 -29h-56l371 768h57zM269 300h-81v367l-106 -19v59l187 31v-438zM981 -60h-490v77q35 50 80 80t91 48t90.5 28t79.5 19t56 22t21 38q0 28 -34.5 46.5t-83.5 18.5q-85 0 -150 -20.5t-107 -46.5l-34 68q40 24 113 44.5t191 20.5q37 0 71 -9.5t60 -26.5t41.5 -41.5
t15.5 -55.5q0 -36 -16.5 -59t-42 -37.5t-56.5 -22t-60 -13.5q-32 -7 -64.5 -17.5t-61.5 -23.5t-53.5 -29t-40.5 -35h384v-73z" />
    <glyph glyph-name="threequarters" unicode="&#xbe;" horiz-adv-x="1292" 
d="M539 -29h-56l371 768h57zM1139 83h79v-69h-79v-74h-75v74h-337v77l311 280h101v-288zM812 83h252v226zM221 487v64h168q57 0 83 16.5t26 42.5q0 33 -38.5 49.5t-108.5 16.5q-35 0 -68.5 -5t-62 -12.5t-51.5 -16t-37 -16.5l-29 70q13 7 39 15t60 15t73 11.5t79 4.5
q43 0 83 -7.5t70.5 -22.5t48.5 -38.5t18 -54.5q0 -38 -24 -63.5t-53 -33.5q23 -3 41 -12t30 -22.5t18.5 -29.5t6.5 -32q0 -75 -63 -108t-195 -33q-42 0 -81.5 6t-73 15t-59 19.5t-39.5 19.5l33 68q12 -9 38.5 -19.5t59 -19.5t67.5 -15t64 -6q74 0 118.5 17t44.5 58
q0 27 -29 43t-89 16h-168z" />
    <glyph glyph-name="questiondown" unicode="&#xbf;" horiz-adv-x="741" 
d="M456.018 375.013q1 -7 1 -13.499v-13.5q0 -57.9961 -30.998 -102.493t-107.994 -70.4961q-35.9971 -11.999 -67.4951 -21.498q-31.498 -9.5 -54.9971 -21.999q-23.498 -12.499 -36.998 -30.498q-13.499 -17.999 -13.499 -47.9971q0 -30.998 14.499 -51.9971
t39.998 -33.498q25.498 -12.499 59.4961 -17.499q33.998 -4.99902 73.9951 -4.99902q62.9971 0 113.493 7.49902q50.4971 7.5 90.9951 19.999q40.4971 12.499 72.9951 29.998t59.4961 37.498l52.9971 -100.994q-26.998 -17.999 -59.4961 -35.498t-78.9951 -31.998
t-110.993 -23.498q-64.4961 -9 -154.491 -9q-59.9961 0 -113.993 13.999q-53.9961 13.999 -94.9941 39.998q-40.9971 25.998 -65.4951 64.4961q-24.499 38.4971 -24.499 87.4941t17.999 86.9951t62.9961 63.9961q31.998 18.999 72.9951 30.498q40.998 11.499 77.9951 22.499
q35.998 10.999 55.9971 24.498t29.498 29.498q9.5 15.999 11.999 34.498q2.5 18.499 2.5 37.498h103.994zM321.025 524.003q0 27.999 23.499 46.4971q23.498 18.499 57.4961 18.499t56.9971 -18.499q22.998 -18.498 22.998 -46.4971q0 -27.998 -22.998 -46.9971
q-22.999 -18.998 -56.9971 -18.998t-57.4961 18.998q-23.499 18.999 -23.499 46.9971z" />
    <glyph glyph-name="Agrave" unicode="&#xc0;" horiz-adv-x="941" 
d="M925 0h-153l-85 163h-442l-83 -163h-143l365 716h168zM296 272h342l-171 328zM575 783l-288 104l30 75l276 -122z" />
    <glyph glyph-name="Aacute" unicode="&#xc1;" horiz-adv-x="941" 
d="M925 0h-153l-85 163h-442l-83 -163h-143l365 716h168zM296 272h342l-171 328zM653 887l-289 -104l-17 56l277 123z" />
    <glyph glyph-name="Acircumflex" unicode="&#xc2;" horiz-adv-x="941" 
d="M925 0h-153l-85 163h-442l-83 -163h-143l365 716h168zM296 272h342l-171 328zM661 774h-86l-107 142l-110 -142h-81l161 202h65z" />
    <glyph glyph-name="Atilde" unicode="&#xc3;" horiz-adv-x="941" 
d="M925 0h-153l-85 163h-442l-83 -163h-143l365 716h168zM296 272h342l-171 328zM672 845q-49 -37 -104 -37q-30 0 -55.5 8.5t-49.5 19t-47.5 19.5t-50.5 9q-49 0 -99 -40v69q20 16 46.5 25.5t61.5 9.5q31 0 55 -9t46.5 -19.5t46 -19t53.5 -8.5q23 0 48 11.5t49 34.5v-73z
" />
    <glyph glyph-name="Adieresis" unicode="&#xc4;" horiz-adv-x="941" 
d="M925 0h-153l-85 163h-442l-83 -163h-143l365 716h168zM296 272h342l-171 328zM674 880q0 -25 -21 -42t-51 -17q-29 0 -50 17t-21 42q0 24 21 41t50 17q30 0 51 -17t21 -41zM408 880q0 -25 -21 -42t-50 -17q-30 0 -50.5 17t-20.5 42q0 24 20.5 41t50.5 17q29 0 50 -17
t21 -41z" />
    <glyph glyph-name="Aring" unicode="&#xc5;" horiz-adv-x="941" 
d="M925 0h-153l-85 163h-442l-83 -163h-143l365 716h168zM296 272h342l-171 328zM583 875q0 -103 -115 -103q-113 0 -113 103q0 101 113 101q115 0 115 -101zM533 875q0 54 -65 54q-63 0 -63 -54q0 -57 63 -57q65 0 65 57z" />
    <glyph glyph-name="AE" unicode="&#xc6;" horiz-adv-x="1468" 
d="M1435 602h-593v-177h522v-114h-522v-187h607v-124h-740v175h-378l-98 -175h-173l431 716h944v-114zM578 615l-183 -325h314v325h-131z" />
    <glyph glyph-name="Ccedilla" unicode="&#xc7;" horiz-adv-x="947" 
d="M774 467q-12 33 -37.5 61.5t-60.5 49t-79 32t-93 11.5q-67 0 -122.5 -18t-95 -52t-61.5 -83t-22 -110q0 -62 21 -110.5t60 -83t94.5 -52.5t124.5 -18q108 0 173 40.5t95 105.5l114 -52q-42 -97 -131 -151.5t-233 -59.5v-19q18 -3 38 -9.5t36.5 -17.5t27 -26.5t10.5 -36.5
q0 -22 -10 -38.5t-27 -27.5t-39 -16.5t-46 -5.5q-86 0 -120 64l44 20q24 -38 73 -38q23 0 39 11.5t16 33.5q0 26 -26 37.5t-69 12.5v56q-86 4 -159.5 31t-127.5 75.5t-85 117.5t-31 157q0 90 35 161t95 120t140 74.5t169 25.5q69 0 130.5 -16.5t111 -45t86.5 -67.5t57 -83z
" />
    <glyph glyph-name="Egrave" unicode="&#xc8;" 
d="M842 602h-621v-177h550v-114h-550v-187h635v-124h-768v716h754v-114zM547 783l-288 104l30 75l276 -122z" />
    <glyph glyph-name="Eacute" unicode="&#xc9;" 
d="M842 602h-621v-177h550v-114h-550v-187h635v-124h-768v716h754v-114zM625 887l-289 -104l-17 56l277 123z" />
    <glyph glyph-name="Ecircumflex" unicode="&#xca;" 
d="M842 602h-621v-177h550v-114h-550v-187h635v-124h-768v716h754v-114zM633 774h-86l-107 142l-110 -142h-81l161 202h65z" />
    <glyph glyph-name="Edieresis" unicode="&#xcb;" 
d="M842 602h-621v-177h550v-114h-550v-187h635v-124h-768v716h754v-114zM646 880q0 -25 -21 -42t-51 -17q-29 0 -50 17t-21 42q0 24 21 41t50 17q30 0 51 -17t21 -41zM380 880q0 -25 -21 -42t-50 -17q-30 0 -50.5 17t-20.5 42q0 24 20.5 41t50.5 17q29 0 50 -17t21 -41z" />
    <glyph glyph-name="Igrave" unicode="&#xcc;" horiz-adv-x="335" 
d="M232 0h-132v716h132v-716zM274 783l-288 104l30 75l276 -122z" />
    <glyph glyph-name="Iacute" unicode="&#xcd;" horiz-adv-x="335" 
d="M232 0h-132v716h132v-716zM350 887l-289 -104l-17 56l277 123z" />
    <glyph glyph-name="Icircumflex" unicode="&#xce;" horiz-adv-x="335" 
d="M232 0h-132v716h132v-716zM361 774h-86l-107 142l-110 -142h-81l161 202h65z" />
    <glyph glyph-name="Idieresis" unicode="&#xcf;" horiz-adv-x="335" 
d="M232 0h-132v716h132v-716zM373 880q0 -25 -21 -42t-51 -17q-29 0 -50 17t-21 42q0 24 21 41t50 17q30 0 51 -17t21 -41zM107 880q0 -25 -21 -42t-50 -17q-30 0 -50.5 17t-20.5 42q0 24 20.5 41t50.5 17q29 0 50 -17t21 -41z" />
    <glyph glyph-name="Eth" unicode="&#xd0;" horiz-adv-x="1012" 
d="M474 716q97 0 182 -16t149 -56.5t101 -110t37 -175.5q0 -60 -22.5 -123.5t-74.5 -115.5t-137.5 -85.5t-210.5 -33.5h-428v309h-53v114h53v293h404zM203 604v-181h321v-114h-321v-183h279q85 0 146 18.5t100.5 50.5t58.5 75t19 93q0 125 -87.5 183t-244.5 58h-271z" />
    <glyph glyph-name="Ntilde" unicode="&#xd1;" horiz-adv-x="1022" 
d="M932 0h-138l-567 546v-546h-139v716h141l563 -534v534h140v-716zM713 845q-49 -37 -104 -37q-30 0 -55.5 8.5t-49.5 19t-47.5 19.5t-50.5 9q-49 0 -99 -40v69q20 16 46.5 25.5t61.5 9.5q31 0 55 -9t46.5 -19.5t46 -19t53.5 -8.5q23 0 48 11.5t49 34.5v-73z" />
    <glyph glyph-name="Ograve" unicode="&#xd2;" horiz-adv-x="1054" 
d="M987 358q0 -91 -36.5 -162t-99.5 -119.5t-146.5 -74t-177.5 -25.5t-177.5 25.5t-146.5 74t-99.5 119.5t-36.5 162q0 90 36.5 161t99.5 120t146.5 74.5t177.5 25.5t177.5 -25.5t146.5 -74.5t99.5 -120t36.5 -161zM848 358q0 61 -22.5 110t-64.5 83t-101.5 52t-132.5 18
q-74 0 -133 -18t-101 -52t-64.5 -83t-22.5 -110q0 -62 22.5 -110.5t64.5 -83t101 -52.5t133 -18q73 0 132.5 18t101.5 52.5t64.5 83t22.5 110.5zM632 783l-288 104l30 75l276 -122z" />
    <glyph glyph-name="Oacute" unicode="&#xd3;" horiz-adv-x="1054" 
d="M987 358q0 -91 -36.5 -162t-99.5 -119.5t-146.5 -74t-177.5 -25.5t-177.5 25.5t-146.5 74t-99.5 119.5t-36.5 162q0 90 36.5 161t99.5 120t146.5 74.5t177.5 25.5t177.5 -25.5t146.5 -74.5t99.5 -120t36.5 -161zM848 358q0 61 -22.5 110t-64.5 83t-101.5 52t-132.5 18
q-74 0 -133 -18t-101 -52t-64.5 -83t-22.5 -110q0 -62 22.5 -110.5t64.5 -83t101 -52.5t133 -18q73 0 132.5 18t101.5 52.5t64.5 83t22.5 110.5zM710 887l-289 -104l-17 56l277 123z" />
    <glyph glyph-name="Ocircumflex" unicode="&#xd4;" horiz-adv-x="1054" 
d="M987 358q0 -91 -36.5 -162t-99.5 -119.5t-146.5 -74t-177.5 -25.5t-177.5 25.5t-146.5 74t-99.5 119.5t-36.5 162q0 90 36.5 161t99.5 120t146.5 74.5t177.5 25.5t177.5 -25.5t146.5 -74.5t99.5 -120t36.5 -161zM848 358q0 61 -22.5 110t-64.5 83t-101.5 52t-132.5 18
q-74 0 -133 -18t-101 -52t-64.5 -83t-22.5 -110q0 -62 22.5 -110.5t64.5 -83t101 -52.5t133 -18q73 0 132.5 18t101.5 52.5t64.5 83t22.5 110.5zM718 774h-86l-107 142l-110 -142h-81l161 202h65z" />
    <glyph glyph-name="Otilde" unicode="&#xd5;" horiz-adv-x="1054" 
d="M987 358q0 -91 -36.5 -162t-99.5 -119.5t-146.5 -74t-177.5 -25.5t-177.5 25.5t-146.5 74t-99.5 119.5t-36.5 162q0 90 36.5 161t99.5 120t146.5 74.5t177.5 25.5t177.5 -25.5t146.5 -74.5t99.5 -120t36.5 -161zM848 358q0 61 -22.5 110t-64.5 83t-101.5 52t-132.5 18
q-74 0 -133 -18t-101 -52t-64.5 -83t-22.5 -110q0 -62 22.5 -110.5t64.5 -83t101 -52.5t133 -18q73 0 132.5 18t101.5 52.5t64.5 83t22.5 110.5zM729 845q-49 -37 -104 -37q-30 0 -55.5 8.5t-49.5 19t-47.5 19.5t-50.5 9q-49 0 -99 -40v69q20 16 46.5 25.5t61.5 9.5
q31 0 55 -9t46.5 -19.5t46 -19t53.5 -8.5q23 0 48 11.5t49 34.5v-73z" />
    <glyph glyph-name="Odieresis" unicode="&#xd6;" horiz-adv-x="1054" 
d="M987 358q0 -91 -36.5 -162t-99.5 -119.5t-146.5 -74t-177.5 -25.5t-177.5 25.5t-146.5 74t-99.5 119.5t-36.5 162q0 90 36.5 161t99.5 120t146.5 74.5t177.5 25.5t177.5 -25.5t146.5 -74.5t99.5 -120t36.5 -161zM848 358q0 61 -22.5 110t-64.5 83t-101.5 52t-132.5 18
q-74 0 -133 -18t-101 -52t-64.5 -83t-22.5 -110q0 -62 22.5 -110.5t64.5 -83t101 -52.5t133 -18q73 0 132.5 18t101.5 52.5t64.5 83t22.5 110.5zM730 880q0 -25 -21 -42t-51 -17q-29 0 -50 17t-21 42q0 24 21 41t50 17q30 0 51 -17t21 -41zM464 880q0 -25 -21 -42t-50 -17
q-30 0 -50.5 17t-20.5 42q0 24 20.5 41t50.5 17q29 0 50 -17t21 -41z" />
    <glyph glyph-name="multiply" unicode="&#xd7;" horiz-adv-x="356" 
d="M231 364l96 -96l-53 -52l-96 95l-96 -96l-53 53l96 96l-95 95l53 53l95 -95l95 95l53 -53z" />
    <glyph glyph-name="Oslash" unicode="&#xd8;" horiz-adv-x="1054" 
d="M849 640q63 -49 100.5 -120t37.5 -162t-36.5 -162t-99.5 -119.5t-146.5 -74t-177.5 -25.5q-75 0 -141 15.5t-123 44.5l-90 -93l-46 43l82 85q-66 49 -104 120.5t-38 165.5q0 91 36.5 161.5t99.5 119.5t146.5 74.5t177.5 25.5q75 0 143 -16.5t125 -48.5l83 86l45 -43z
M706 583q-37 19 -82.5 28.5t-96.5 9.5q-74 0 -133 -18t-101 -52t-64.5 -83t-22.5 -110q0 -63 23 -112.5t68 -83.5zM352 129q76 -35 175 -35q73 0 132.5 18t101.5 52.5t64.5 83t22.5 110.5q0 61 -22.5 109.5t-64.5 82.5z" />
    <glyph glyph-name="Ugrave" unicode="&#xd9;" horiz-adv-x="970" 
d="M886 329q0 -93 -31 -159.5t-86 -109.5t-130 -63t-163 -20q-87 0 -159.5 20.5t-124 63t-80 108.5t-28.5 158v389h137v-368q0 -71 18.5 -119t52 -77.5t81 -42t105.5 -12.5q60 0 111 12t87.5 40.5t57.5 77t21 120.5v369h131v-387zM589 783l-288 104l30 75l276 -122z" />
    <glyph glyph-name="Uacute" unicode="&#xda;" horiz-adv-x="970" 
d="M886 329q0 -93 -31 -159.5t-86 -109.5t-130 -63t-163 -20q-87 0 -159.5 20.5t-124 63t-80 108.5t-28.5 158v389h137v-368q0 -71 18.5 -119t52 -77.5t81 -42t105.5 -12.5q60 0 111 12t87.5 40.5t57.5 77t21 120.5v369h131v-387zM667 887l-289 -104l-17 56l277 123z" />
    <glyph glyph-name="Ucircumflex" unicode="&#xdb;" horiz-adv-x="970" 
d="M886 329q0 -93 -31 -159.5t-86 -109.5t-130 -63t-163 -20q-87 0 -159.5 20.5t-124 63t-80 108.5t-28.5 158v389h137v-368q0 -71 18.5 -119t52 -77.5t81 -42t105.5 -12.5q60 0 111 12t87.5 40.5t57.5 77t21 120.5v369h131v-387zM676 774h-86l-107 142l-110 -142h-81
l161 202h65z" />
    <glyph glyph-name="Udieresis" unicode="&#xdc;" horiz-adv-x="970" 
d="M886 329q0 -93 -31 -159.5t-86 -109.5t-130 -63t-163 -20q-87 0 -159.5 20.5t-124 63t-80 108.5t-28.5 158v389h137v-368q0 -71 18.5 -119t52 -77.5t81 -42t105.5 -12.5q60 0 111 12t87.5 40.5t57.5 77t21 120.5v369h131v-387zM689 880q0 -25 -21 -42t-51 -17
q-29 0 -50 17t-21 42q0 24 21 41t50 17q30 0 51 -17t21 -41zM423 880q0 -25 -21 -42t-50 -17q-30 0 -50.5 17t-20.5 42q0 24 20.5 41t50.5 17q29 0 50 -17t21 -41z" />
    <glyph glyph-name="Yacute" unicode="&#xdd;" horiz-adv-x="871" 
d="M508 236v-235h-136v235l-353 480h162l263 -362l256 362h156zM618 887l-289 -104l-17 56l277 123z" />
    <glyph glyph-name="Thorn" unicode="&#xde;" horiz-adv-x="915" 
d="M220 582h426q133 0 199 -59.5t66 -162.5q0 -105 -67.5 -163.5t-205.5 -58.5h-418v-138h-132v716h132v-134zM220 463v-202h423q63 0 96 25.5t33 76.5q0 48 -33 74t-94 26h-425z" />
    <glyph glyph-name="germandbls" unicode="&#xdf;" horiz-adv-x="879" 
d="M218 0h-131v532q0 110 81.5 158.5t244.5 48.5q95 0 156.5 -16.5t97.5 -44t50 -62t14 -70.5q0 -63 -36 -100.5t-91 -51.5q54 -4 94 -21.5t66 -42.5t39 -55t13 -59q0 -48 -17 -90t-57.5 -74t-107 -50.5t-164.5 -18.5q-29 0 -58.5 1.5t-61.5 5.5v107q7 0 21.5 -0.5
t30.5 -0.5t30.5 -0.5t21.5 -0.5q69 0 112 11t68 29t34 42t9 50q0 51 -64 76t-193 30v95q31 0 63.5 5t58.5 17t42.5 32t16.5 51q0 42 -46 70.5t-142 28.5q-90 0 -142.5 -24.5t-52.5 -80.5v-527z" />
    <glyph glyph-name="agrave" unicode="&#xe0;" horiz-adv-x="898" 
d="M783 136q0 -16 10.5 -29.5t31.5 -13.5q18 0 40 13v-91q-15 -14 -37 -21t-43 -7q-42 0 -71 20t-43 50q-20 -12 -53.5 -24.5t-75.5 -22.5t-91 -16.5t-101 -6.5q-145 0 -215 51.5t-70 151.5q0 60 29.5 98.5t77 60t107.5 30t121 8.5q39 0 79 -5.5t75 -13.5t63.5 -17.5
t44.5 -17.5q0 33 -14 61.5t-45.5 49.5t-83.5 33t-128 12q-36 0 -74 -3.5t-74 -10.5t-67.5 -16t-53.5 -21l-36 89q25 16 60 28t76 20t86.5 12t92.5 4q196 0 289 -67t93 -205v-183zM659 245q-10 10 -36.5 19t-62 16t-76 11t-78.5 4q-218 0 -218 -106q0 -58 47.5 -83t137.5 -25
q38 0 82.5 5.5t85 13t72.5 16.5t46 16v113zM536 645l-288 104l30 75l276 -122z" />
    <glyph glyph-name="aacute" unicode="&#xe1;" horiz-adv-x="898" 
d="M783 136q0 -16 10.5 -29.5t31.5 -13.5q18 0 40 13v-91q-15 -14 -37 -21t-43 -7q-42 0 -71 20t-43 50q-20 -12 -53.5 -24.5t-75.5 -22.5t-91 -16.5t-101 -6.5q-145 0 -215 51.5t-70 151.5q0 60 29.5 98.5t77 60t107.5 30t121 8.5q39 0 79 -5.5t75 -13.5t63.5 -17.5
t44.5 -17.5q0 33 -14 61.5t-45.5 49.5t-83.5 33t-128 12q-36 0 -74 -3.5t-74 -10.5t-67.5 -16t-53.5 -21l-36 89q25 16 60 28t76 20t86.5 12t92.5 4q196 0 289 -67t93 -205v-183zM659 245q-10 10 -36.5 19t-62 16t-76 11t-78.5 4q-218 0 -218 -106q0 -58 47.5 -83t137.5 -25
q38 0 82.5 5.5t85 13t72.5 16.5t46 16v113zM614 749l-289 -104l-17 56l277 123z" />
    <glyph glyph-name="acircumflex" unicode="&#xe2;" horiz-adv-x="898" 
d="M783 136q0 -16 10.5 -29.5t31.5 -13.5q18 0 40 13v-91q-15 -14 -37 -21t-43 -7q-42 0 -71 20t-43 50q-20 -12 -53.5 -24.5t-75.5 -22.5t-91 -16.5t-101 -6.5q-145 0 -215 51.5t-70 151.5q0 60 29.5 98.5t77 60t107.5 30t121 8.5q39 0 79 -5.5t75 -13.5t63.5 -17.5
t44.5 -17.5q0 33 -14 61.5t-45.5 49.5t-83.5 33t-128 12q-36 0 -74 -3.5t-74 -10.5t-67.5 -16t-53.5 -21l-36 89q25 16 60 28t76 20t86.5 12t92.5 4q196 0 289 -67t93 -205v-183zM659 245q-10 10 -36.5 19t-62 16t-76 11t-78.5 4q-218 0 -218 -106q0 -58 47.5 -83t137.5 -25
q38 0 82.5 5.5t85 13t72.5 16.5t46 16v113zM622 636h-86l-107 142l-110 -142h-81l161 202h65z" />
    <glyph glyph-name="atilde" unicode="&#xe3;" horiz-adv-x="898" 
d="M783 136q0 -16 10.5 -29.5t31.5 -13.5q18 0 40 13v-91q-15 -14 -37 -21t-43 -7q-42 0 -71 20t-43 50q-20 -12 -53.5 -24.5t-75.5 -22.5t-91 -16.5t-101 -6.5q-145 0 -215 51.5t-70 151.5q0 60 29.5 98.5t77 60t107.5 30t121 8.5q39 0 79 -5.5t75 -13.5t63.5 -17.5
t44.5 -17.5q0 33 -14 61.5t-45.5 49.5t-83.5 33t-128 12q-36 0 -74 -3.5t-74 -10.5t-67.5 -16t-53.5 -21l-36 89q25 16 60 28t76 20t86.5 12t92.5 4q196 0 289 -67t93 -205v-183zM659 245q-10 10 -36.5 19t-62 16t-76 11t-78.5 4q-218 0 -218 -106q0 -58 47.5 -83t137.5 -25
q38 0 82.5 5.5t85 13t72.5 16.5t46 16v113zM633 707q-49 -37 -104 -37q-30 0 -55.5 8.5t-49.5 19t-47.5 19.5t-50.5 9q-49 0 -99 -40v69q20 16 46.5 25.5t61.5 9.5q31 0 55 -9t46.5 -19.5t46 -19t53.5 -8.5q23 0 48 11.5t49 34.5v-73z" />
    <glyph glyph-name="adieresis" unicode="&#xe4;" horiz-adv-x="898" 
d="M783 136q0 -16 10.5 -29.5t31.5 -13.5q18 0 40 13v-91q-15 -14 -37 -21t-43 -7q-42 0 -71 20t-43 50q-20 -12 -53.5 -24.5t-75.5 -22.5t-91 -16.5t-101 -6.5q-145 0 -215 51.5t-70 151.5q0 60 29.5 98.5t77 60t107.5 30t121 8.5q39 0 79 -5.5t75 -13.5t63.5 -17.5
t44.5 -17.5q0 33 -14 61.5t-45.5 49.5t-83.5 33t-128 12q-36 0 -74 -3.5t-74 -10.5t-67.5 -16t-53.5 -21l-36 89q25 16 60 28t76 20t86.5 12t92.5 4q196 0 289 -67t93 -205v-183zM659 245q-10 10 -36.5 19t-62 16t-76 11t-78.5 4q-218 0 -218 -106q0 -58 47.5 -83t137.5 -25
q38 0 82.5 5.5t85 13t72.5 16.5t46 16v113zM627 742q0 -25 -21 -42t-51 -17q-29 0 -50 17t-21 42q0 24 21 41t50 17q30 0 51 -17t21 -41zM361 742q0 -25 -21 -42t-50 -17q-30 0 -50.5 17t-20.5 42q0 24 20.5 41t50.5 17q29 0 50 -17t21 -41z" />
    <glyph glyph-name="aring" unicode="&#xe5;" horiz-adv-x="898" 
d="M783 136q0 -16 10.5 -29.5t31.5 -13.5q18 0 40 13v-91q-15 -14 -37 -21t-43 -7q-42 0 -71 20t-43 50q-20 -12 -53.5 -24.5t-75.5 -22.5t-91 -16.5t-101 -6.5q-145 0 -215 51.5t-70 151.5q0 60 29.5 98.5t77 60t107.5 30t121 8.5q39 0 79 -5.5t75 -13.5t63.5 -17.5
t44.5 -17.5q0 33 -14 61.5t-45.5 49.5t-83.5 33t-128 12q-36 0 -74 -3.5t-74 -10.5t-67.5 -16t-53.5 -21l-36 89q25 16 60 28t76 20t86.5 12t92.5 4q196 0 289 -67t93 -205v-183zM659 245q-10 10 -36.5 19t-62 16t-76 11t-78.5 4q-218 0 -218 -106q0 -58 47.5 -83t137.5 -25
q38 0 82.5 5.5t85 13t72.5 16.5t46 16v113zM544 737q0 -103 -115 -103q-113 0 -113 103q0 101 113 101q115 0 115 -101zM494 737q0 54 -65 54q-63 0 -63 -54q0 -57 63 -57q65 0 65 57z" />
    <glyph glyph-name="ae" unicode="&#xe6;" horiz-adv-x="1445" 
d="M1379 256h-603q6 -44 28 -78t56 -57t77.5 -34.5t92.5 -11.5q85 0 138.5 29t70.5 71h141q-10 -39 -41.5 -73.5t-78 -60t-105 -40t-122.5 -14.5q-102 0 -178.5 25.5t-124.5 82.5q-59 -46 -153 -77t-227 -31q-145 0 -215 51.5t-70 151.5q0 60 29.5 98.5t77 60t107.5 30
t121 8.5q39 0 79 -5.5t75 -13.5t63.5 -17.5t44.5 -17.5q0 33 -14 61.5t-45.5 49.5t-83.5 33t-128 12q-36 0 -74 -3.5t-74 -10.5t-67.5 -16t-53.5 -21l-36 89q25 16 60 28t76 20t86.5 12t92.5 4q60 0 111.5 -6.5t93.5 -22t72.5 -40.5t47.5 -62q20 33 52 58t71.5 41t86 24
t95.5 8q82 0 147 -28t109.5 -72t68 -99.5t23.5 -109.5v-26zM686 155q-9 14 -16 40.5t-7 49.5q-10 10 -37 19t-63 16t-77 11t-80 4q-218 0 -218 -106q0 -58 48 -82.5t138 -24.5q42 0 90.5 7.5t93 18.5t79 23.5t49.5 23.5zM1244 337q-5 29 -21.5 58t-43.5 51.5t-64.5 36.5
t-84.5 14q-49 0 -91.5 -9t-75.5 -28.5t-55 -49.5t-29 -73h465z" />
    <glyph glyph-name="ccedilla" unicode="&#xe7;" horiz-adv-x="818" 
d="M661 365q-24 54 -80.5 90t-137.5 36q-53 0 -99.5 -12t-81 -37t-54.5 -63t-20 -90t20 -90t54.5 -63t80.5 -37t98 -12q42 0 79.5 10t67 27.5t49.5 41.5t28 53l105 -51q-11 -35 -36.5 -66.5t-64.5 -56t-91.5 -40t-117.5 -18.5v-29q18 -3 38 -9.5t36.5 -17.5t27 -26.5
t10.5 -36.5q0 -22 -10 -38.5t-27 -27.5t-39 -16.5t-46 -5.5q-86 0 -120 64l44 20q24 -38 73 -38q23 0 39 11.5t16 33.5q0 26 -26 37.5t-69 12.5v66q-72 3 -134.5 23.5t-108.5 58.5t-72.5 93t-26.5 127q0 75 29 132t79.5 94.5t120 56.5t150.5 19q59 0 110.5 -14.5t93 -38.5
t72 -56t46.5 -67z" />
    <glyph glyph-name="egrave" unicode="&#xe8;" horiz-adv-x="859" 
d="M792 256h-603q6 -44 28 -77.5t56 -55.5t77.5 -33t93.5 -11q85 0 140 25.5t72 70.5h139q-10 -39 -41.5 -73.5t-78.5 -60t-106 -40t-123 -14.5q-82 0 -151.5 19t-120.5 56.5t-80 94t-29 131.5q0 76 29 132.5t79.5 94.5t120 57t150.5 19q84 0 148.5 -28t109 -72t67.5 -99.5
t23 -109.5v-26zM658 337q-3 25 -18.5 53t-43 52t-66 39.5t-87.5 15.5q-48 0 -90.5 -9t-75.5 -28.5t-55.5 -49.5t-29.5 -73h466zM534 645l-288 104l30 75l276 -122z" />
    <glyph glyph-name="eacute" unicode="&#xe9;" horiz-adv-x="859" 
d="M792 256h-603q6 -44 28 -77.5t56 -55.5t77.5 -33t93.5 -11q85 0 140 25.5t72 70.5h139q-10 -39 -41.5 -73.5t-78.5 -60t-106 -40t-123 -14.5q-82 0 -151.5 19t-120.5 56.5t-80 94t-29 131.5q0 76 29 132.5t79.5 94.5t120 57t150.5 19q84 0 148.5 -28t109 -72t67.5 -99.5
t23 -109.5v-26zM658 337q-3 25 -18.5 53t-43 52t-66 39.5t-87.5 15.5q-48 0 -90.5 -9t-75.5 -28.5t-55.5 -49.5t-29.5 -73h466zM612 749l-289 -104l-17 56l277 123z" />
    <glyph glyph-name="ecircumflex" unicode="&#xea;" horiz-adv-x="859" 
d="M792 256h-603q6 -44 28 -77.5t56 -55.5t77.5 -33t93.5 -11q85 0 140 25.5t72 70.5h139q-10 -39 -41.5 -73.5t-78.5 -60t-106 -40t-123 -14.5q-82 0 -151.5 19t-120.5 56.5t-80 94t-29 131.5q0 76 29 132.5t79.5 94.5t120 57t150.5 19q84 0 148.5 -28t109 -72t67.5 -99.5
t23 -109.5v-26zM658 337q-3 25 -18.5 53t-43 52t-66 39.5t-87.5 15.5q-48 0 -90.5 -9t-75.5 -28.5t-55.5 -49.5t-29.5 -73h466zM620 636h-86l-107 142l-110 -142h-81l161 202h65z" />
    <glyph glyph-name="edieresis" unicode="&#xeb;" horiz-adv-x="859" 
d="M792 256h-603q6 -44 28 -77.5t56 -55.5t77.5 -33t93.5 -11q85 0 140 25.5t72 70.5h139q-10 -39 -41.5 -73.5t-78.5 -60t-106 -40t-123 -14.5q-82 0 -151.5 19t-120.5 56.5t-80 94t-29 131.5q0 76 29 132.5t79.5 94.5t120 57t150.5 19q84 0 148.5 -28t109 -72t67.5 -99.5
t23 -109.5v-26zM658 337q-3 25 -18.5 53t-43 52t-66 39.5t-87.5 15.5q-48 0 -90.5 -9t-75.5 -28.5t-55.5 -49.5t-29.5 -73h466zM633 742q0 -25 -21 -42t-51 -17q-29 0 -50 17t-21 42q0 24 21 41t50 17q30 0 51 -17t21 -41zM367 742q0 -25 -21 -42t-50 -17q-30 0 -50.5 17
t-20.5 42q0 24 20.5 41t50.5 17q29 0 50 -17t21 -41z" />
    <glyph glyph-name="igrave" unicode="&#xec;" horiz-adv-x="324" 
d="M269 645l-288 104l30 75l276 -122zM227 0h-133v578h133v-578z" />
    <glyph glyph-name="iacute" unicode="&#xed;" horiz-adv-x="324" 
d="M344 749l-289 -104l-17 56l277 123zM227 0h-133v578h133v-578z" />
    <glyph glyph-name="icircumflex" unicode="&#xee;" horiz-adv-x="324" 
d="M227 0h-133v578h133v-578zM355 636h-86l-107 142l-110 -142h-81l161 202h65z" />
    <glyph glyph-name="idieresis" unicode="&#xef;" horiz-adv-x="324" 
d="M367 742q0 -25 -21 -42t-51 -17q-29 0 -50 17t-21 42q0 24 21 41t50 17q30 0 51 -17t21 -41zM101 742q0 -25 -21 -42t-50 -17q-30 0 -50.5 17t-20.5 42q0 24 20.5 41t50.5 17q29 0 50 -17t21 -41zM227 0h-133v578h133v-578z" />
    <glyph glyph-name="eth" unicode="&#xf0;" horiz-adv-x="778" 
d="M682 703l-109 -59q31 -32 58.5 -70.5t47 -80t31 -86t11.5 -88.5q0 -163 -79.5 -247.5t-248.5 -84.5q-75 0 -135.5 17t-103 49t-66 78t-23.5 103q0 106 78 164t224 58q36 0 70.5 -6.5t64.5 -17.5t54.5 -26t39.5 -32q-8 60 -41.5 115t-81.5 100l-149 -80l-29 36l142 75
q-29 23 -55 39t-45 24l106 55q24 -11 48.5 -26.5t47.5 -35.5l112 60zM597 230q0 36 -18.5 63.5t-49 45.5t-69 27t-78.5 9q-91 0 -138 -35t-47 -110q0 -78 52 -120t146 -42q44 0 81 10.5t64 31t42 50.5t15 70z" />
    <glyph glyph-name="ntilde" unicode="&#xf1;" 
d="M791 0h-133v243q0 74 -17.5 121.5t-48.5 74.5t-72 37.5t-87 10.5q-63 0 -113.5 -20.5t-99.5 -59.5v-407h-132v578h125v-69q45 35 104 58.5t137 23.5q61 0 121.5 -13.5t108.5 -51t77.5 -105t29.5 -175.5v-246zM640 707q-49 -37 -104 -37q-30 0 -55.5 8.5t-49.5 19
t-47.5 19.5t-50.5 9q-49 0 -99 -40v69q20 16 46.5 25.5t61.5 9.5q31 0 55 -9t46.5 -19.5t46 -19t53.5 -8.5q23 0 48 11.5t49 34.5v-73z" />
    <glyph glyph-name="ograve" unicode="&#xf2;" horiz-adv-x="902" 
d="M835 289q0 -75 -30 -132t-81.5 -94.5t-122 -56.5t-151.5 -19t-151.5 19t-122 56.5t-81.5 94.5t-30 132t30 132t81.5 94.5t122 56.5t151.5 19t151.5 -19t122 -56.5t81.5 -94.5t30 -132zM710 289q0 52 -21 90t-56.5 63t-83 37t-100.5 12t-100.5 -12t-83 -37t-56.5 -63
t-21 -90t21 -90t56.5 -63t83 -37t100.5 -12t100.5 12t83 37t56.5 63t21 90zM555 645l-288 104l30 75l276 -122z" />
    <glyph glyph-name="oacute" unicode="&#xf3;" horiz-adv-x="902" 
d="M835 289q0 -75 -30 -132t-81.5 -94.5t-122 -56.5t-151.5 -19t-151.5 19t-122 56.5t-81.5 94.5t-30 132t30 132t81.5 94.5t122 56.5t151.5 19t151.5 -19t122 -56.5t81.5 -94.5t30 -132zM710 289q0 52 -21 90t-56.5 63t-83 37t-100.5 12t-100.5 -12t-83 -37t-56.5 -63
t-21 -90t21 -90t56.5 -63t83 -37t100.5 -12t100.5 12t83 37t56.5 63t21 90zM633 749l-289 -104l-17 56l277 123z" />
    <glyph glyph-name="ocircumflex" unicode="&#xf4;" horiz-adv-x="902" 
d="M835 289q0 -75 -30 -132t-81.5 -94.5t-122 -56.5t-151.5 -19t-151.5 19t-122 56.5t-81.5 94.5t-30 132t30 132t81.5 94.5t122 56.5t151.5 19t151.5 -19t122 -56.5t81.5 -94.5t30 -132zM710 289q0 52 -21 90t-56.5 63t-83 37t-100.5 12t-100.5 -12t-83 -37t-56.5 -63
t-21 -90t21 -90t56.5 -63t83 -37t100.5 -12t100.5 12t83 37t56.5 63t21 90zM641 636h-86l-107 142l-110 -142h-81l161 202h65z" />
    <glyph glyph-name="otilde" unicode="&#xf5;" horiz-adv-x="902" 
d="M835 289q0 -75 -30 -132t-81.5 -94.5t-122 -56.5t-151.5 -19t-151.5 19t-122 56.5t-81.5 94.5t-30 132t30 132t81.5 94.5t122 56.5t151.5 19t151.5 -19t122 -56.5t81.5 -94.5t30 -132zM710 289q0 52 -21 90t-56.5 63t-83 37t-100.5 12t-100.5 -12t-83 -37t-56.5 -63
t-21 -90t21 -90t56.5 -63t83 -37t100.5 -12t100.5 12t83 37t56.5 63t21 90zM652 707q-49 -37 -104 -37q-30 0 -55.5 8.5t-49.5 19t-47.5 19.5t-50.5 9q-49 0 -99 -40v69q20 16 46.5 25.5t61.5 9.5q31 0 55 -9t46.5 -19.5t46 -19t53.5 -8.5q23 0 48 11.5t49 34.5v-73z" />
    <glyph glyph-name="odieresis" unicode="&#xf6;" horiz-adv-x="902" 
d="M835 289q0 -75 -30 -132t-81.5 -94.5t-122 -56.5t-151.5 -19t-151.5 19t-122 56.5t-81.5 94.5t-30 132t30 132t81.5 94.5t122 56.5t151.5 19t151.5 -19t122 -56.5t81.5 -94.5t30 -132zM710 289q0 52 -21 90t-56.5 63t-83 37t-100.5 12t-100.5 -12t-83 -37t-56.5 -63
t-21 -90t21 -90t56.5 -63t83 -37t100.5 -12t100.5 12t83 37t56.5 63t21 90zM654 742q0 -25 -21 -42t-51 -17q-29 0 -50 17t-21 42q0 24 21 41t50 17q30 0 51 -17t21 -41zM388 742q0 -25 -21 -42t-50 -17q-30 0 -50.5 17t-20.5 42q0 24 20.5 41t50.5 17q29 0 50 -17t21 -41z
" />
    <glyph glyph-name="divide" unicode="&#xf7;" horiz-adv-x="398" 
d="M370 327h-344v74h344v-74zM269 169q0 -27 -21 -45.5t-51 -18.5t-51 18.5t-21 45.5t21 45.5t51 18.5t51 -18.5t21 -45.5zM269 552q0 -26 -21 -44.5t-51 -18.5t-51 18.5t-21 44.5q0 27 21 45.5t51 18.5t51 -18.5t21 -45.5z" />
    <glyph glyph-name="oslash" unicode="&#xf8;" horiz-adv-x="902" 
d="M718 518q54 -38 85.5 -94.5t31.5 -134.5q0 -75 -30 -132t-81.5 -94.5t-122 -56.5t-151.5 -19q-60 0 -112.5 9.5t-97.5 29.5l-80 -82l-45 43l68 71q-55 38 -86.5 95.5t-31.5 135.5q0 75 30 132t81.5 94.5t122 56.5t151.5 19q119 0 210 -41l89 90l45 -43zM581 467
q-59 24 -132 24q-53 0 -100.5 -12t-83 -37t-56.5 -63t-21 -90q0 -51 19.5 -88t54.5 -62zM320 108q57 -21 129 -21q53 0 100.5 12t83 37t56.5 63t21 90q0 51 -19.5 87t-52.5 60z" />
    <glyph glyph-name="ugrave" unicode="&#xf9;" horiz-adv-x="864" 
d="M774 0h-124v69q-45 -36 -103.5 -59t-136.5 -23q-61 0 -120.5 13.5t-107 51t-77 105t-29.5 175.5v246h133v-243q0 -75 17 -122.5t45.5 -74.5t65.5 -37.5t78 -10.5q69 0 125.5 23t101.5 58v407h132v-578zM536 645l-288 104l30 75l276 -122z" />
    <glyph glyph-name="uacute" unicode="&#xfa;" horiz-adv-x="864" 
d="M774 0h-124v69q-45 -36 -103.5 -59t-136.5 -23q-61 0 -120.5 13.5t-107 51t-77 105t-29.5 175.5v246h133v-243q0 -75 17 -122.5t45.5 -74.5t65.5 -37.5t78 -10.5q69 0 125.5 23t101.5 58v407h132v-578zM614 749l-289 -104l-17 56l277 123z" />
    <glyph glyph-name="ucircumflex" unicode="&#xfb;" horiz-adv-x="864" 
d="M774 0h-124v69q-45 -36 -103.5 -59t-136.5 -23q-61 0 -120.5 13.5t-107 51t-77 105t-29.5 175.5v246h133v-243q0 -75 17 -122.5t45.5 -74.5t65.5 -37.5t78 -10.5q69 0 125.5 23t101.5 58v407h132v-578zM623 636h-86l-107 142l-110 -142h-81l161 202h65z" />
    <glyph glyph-name="udieresis" unicode="&#xfc;" horiz-adv-x="864" 
d="M774 0h-124v69q-45 -36 -103.5 -59t-136.5 -23q-61 0 -120.5 13.5t-107 51t-77 105t-29.5 175.5v246h133v-243q0 -75 17 -122.5t45.5 -74.5t65.5 -37.5t78 -10.5q69 0 125.5 23t101.5 58v407h132v-578zM636 742q0 -25 -21 -42t-51 -17q-29 0 -50 17t-21 42q0 24 21 41
t50 17q30 0 51 -17t21 -41zM370 742q0 -25 -21 -42t-50 -17q-30 0 -50.5 17t-20.5 42q0 24 20.5 41t50.5 17q29 0 50 -17t21 -41z" />
    <glyph glyph-name="yacute" unicode="&#xfd;" horiz-adv-x="779" 
d="M450 -9q-21 -40 -49.5 -67.5t-62 -45t-71 -25t-77.5 -7.5q-59 0 -96.5 4t-68.5 12l25 106q29 -8 65 -15t78 -7q51 0 86 16.5t50 58.5l-310 557h140l242 -449l230 449h131zM572 749l-289 -104l-17 56l277 123z" />
    <glyph glyph-name="thorn" unicode="&#xfe;" horiz-adv-x="891" 
d="M216 506q87 85 270 85q56 0 116 -15.5t109.5 -50.5t81.5 -93t32 -143q0 -80 -30.5 -136.5t-80 -93t-113 -53.5t-129.5 -17q-94 0 -156 20t-100 49v-219h-128v900h128v-233zM698 287q0 54 -22.5 92t-58.5 62t-82 35t-93 11q-91 0 -154 -37t-79 -109v-112q6 -33 25.5 -59
t49.5 -44.5t68.5 -28.5t82.5 -10q51 0 98 11.5t84 36t59 62t22 90.5z" />
    <glyph glyph-name="ydieresis" unicode="&#xff;" horiz-adv-x="779" 
d="M450 -9q-21 -40 -49.5 -67.5t-62 -45t-71 -25t-77.5 -7.5q-59 0 -96.5 4t-68.5 12l25 106q29 -8 65 -15t78 -7q51 0 86 16.5t50 58.5l-310 557h140l242 -449l230 449h131zM593 742q0 -25 -21 -42t-51 -17q-29 0 -50 17t-21 42q0 24 21 41t50 17q30 0 51 -17t21 -41z
M327 742q0 -25 -21 -42t-50 -17q-30 0 -50.5 17t-20.5 42q0 24 20.5 41t50.5 17q29 0 50 -17t21 -41z" />
    <glyph glyph-name="Amacron" unicode="&#x100;" horiz-adv-x="941" 
d="M925 0h-153l-85 163h-442l-83 -163h-143l365 716h168zM296 272h342l-171 328zM645 825h-352v84h352v-84z" />
    <glyph glyph-name="amacron" unicode="&#x101;" horiz-adv-x="898" 
d="M783 136q0 -16 10.5 -29.5t31.5 -13.5q18 0 40 13v-91q-15 -14 -37 -21t-43 -7q-42 0 -71 20t-43 50q-20 -12 -53.5 -24.5t-75.5 -22.5t-91 -16.5t-101 -6.5q-145 0 -215 51.5t-70 151.5q0 60 29.5 98.5t77 60t107.5 30t121 8.5q39 0 79 -5.5t75 -13.5t63.5 -17.5
t44.5 -17.5q0 33 -14 61.5t-45.5 49.5t-83.5 33t-128 12q-36 0 -74 -3.5t-74 -10.5t-67.5 -16t-53.5 -21l-36 89q25 16 60 28t76 20t86.5 12t92.5 4q196 0 289 -67t93 -205v-183zM659 245q-10 10 -36.5 19t-62 16t-76 11t-78.5 4q-218 0 -218 -106q0 -58 47.5 -83t137.5 -25
q38 0 82.5 5.5t85 13t72.5 16.5t46 16v113zM607 687h-352v84h352v-84z" />
    <glyph glyph-name="Abreve" unicode="&#x102;" horiz-adv-x="941" 
d="M925 0h-153l-85 163h-442l-83 -163h-143l365 716h168zM296 272h342l-171 328zM630 976q-5 -36 -16.5 -68.5t-31.5 -56.5t-48.5 -38.5t-66.5 -14.5q-39 0 -67 14.5t-47 38.5t-29.5 56.5t-13.5 68.5h60q2 -23 9 -44t19 -36.5t29 -24.5t40 -9q46 0 71 31.5t30 82.5h62z" />
    <glyph glyph-name="abreve" unicode="&#x103;" horiz-adv-x="898" 
d="M783 136q0 -16 10.5 -29.5t31.5 -13.5q18 0 40 13v-91q-15 -14 -37 -21t-43 -7q-42 0 -71 20t-43 50q-20 -12 -53.5 -24.5t-75.5 -22.5t-91 -16.5t-101 -6.5q-145 0 -215 51.5t-70 151.5q0 60 29.5 98.5t77 60t107.5 30t121 8.5q39 0 79 -5.5t75 -13.5t63.5 -17.5
t44.5 -17.5q0 33 -14 61.5t-45.5 49.5t-83.5 33t-128 12q-36 0 -74 -3.5t-74 -10.5t-67.5 -16t-53.5 -21l-36 89q25 16 60 28t76 20t86.5 12t92.5 4q196 0 289 -67t93 -205v-183zM659 245q-10 10 -36.5 19t-62 16t-76 11t-78.5 4q-218 0 -218 -106q0 -58 47.5 -83t137.5 -25
q38 0 82.5 5.5t85 13t72.5 16.5t46 16v113zM591 838q-5 -36 -16.5 -68.5t-31.5 -56.5t-48.5 -38.5t-66.5 -14.5q-39 0 -67 14.5t-47 38.5t-29.5 56.5t-13.5 68.5h60q2 -23 9 -44t19 -36.5t29 -24.5t40 -9q46 0 71 31.5t30 82.5h62z" />
    <glyph glyph-name="Aogonek" unicode="&#x104;" horiz-adv-x="941" 
d="M1028 -209q-24 -8 -63.5 -14t-109.5 -6q-65 0 -97.5 24.5t-32.5 51.5q0 43 39 84t102 69h-94l-85 163h-442l-83 -163h-143l365 716h168l373 -716q-51 -27 -80.5 -55t-29.5 -51q0 -21 20.5 -34t52.5 -13q54 0 88 5.5t60 11.5zM296 272h342l-171 328z" />
    <glyph glyph-name="aogonek" unicode="&#x105;" horiz-adv-x="898" 
d="M945 -209q-24 -8 -63.5 -14t-109.5 -6q-65 0 -97.5 24.5t-32.5 51.5q0 38 32 76.5t86 66.5q-32 5 -55 23t-34 44q-20 -12 -53.5 -24.5t-75.5 -22.5t-91 -16.5t-101 -6.5q-145 0 -215 51.5t-70 151.5q0 60 29.5 98.5t77 60t107.5 30t121 8.5q39 0 79 -5.5t75 -13.5
t63.5 -17.5t44.5 -17.5q0 33 -14 61.5t-45.5 49.5t-83.5 33t-128 12q-36 0 -74 -3.5t-74 -10.5t-67.5 -16t-53.5 -21l-36 89q25 16 60 28t76 20t86.5 12t92.5 4q196 0 289 -67t93 -205v-183q0 -16 10.5 -29.5t31.5 -13.5q18 0 40 13v-91q-7 -6 -15.5 -11t-19.5 -10
q-42 -22 -70 -49t-28 -51q0 -21 20.5 -34t52.5 -13q54 0 88 5.5t60 11.5zM659 245q-10 10 -36.5 19t-62 16t-76 11t-78.5 4q-218 0 -218 -106q0 -59 51.5 -83.5t141.5 -24.5q39 0 82 5.5t82 13.5t69.5 16.5t44.5 15.5v113z" />
    <glyph glyph-name="Cacute" unicode="&#x106;" horiz-adv-x="947" 
d="M774 467q-12 33 -37.5 61.5t-60.5 49t-79 32t-93 11.5q-67 0 -122.5 -18t-95 -52t-61.5 -83t-22 -110q0 -62 21 -110.5t60 -83t94.5 -52.5t124.5 -18q108 0 173 40.5t95 105.5l114 -52q-43 -103 -139.5 -157t-252.5 -54q-90 0 -168 25.5t-136 74t-91 119.5t-33 162
q0 90 35 161t95 120t140 74.5t169 25.5q69 0 130.5 -16.5t111 -45t86.5 -67.5t57 -83zM683 887l-289 -104l-17 56l277 123z" />
    <glyph glyph-name="cacute" unicode="&#x107;" horiz-adv-x="818" 
d="M661 365q-24 54 -80.5 90t-137.5 36q-53 0 -99.5 -12t-81 -37t-54.5 -63t-20 -90t20 -90t54.5 -63t80.5 -37t98 -12q42 0 79.5 10t67 27.5t49.5 41.5t28 53l105 -51q-12 -37 -39.5 -70t-69.5 -57.5t-99 -39t-128 -14.5q-77 0 -144.5 19t-117.5 56.5t-78.5 94.5t-28.5 132
t29 132t79.5 94.5t120 56.5t150.5 19q59 0 110.5 -14.5t93 -38.5t72 -56t46.5 -67zM619 749l-289 -104l-17 56l277 123z" />
    <glyph glyph-name="Ccircumflex" unicode="&#x108;" horiz-adv-x="947" 
d="M774 467q-12 33 -37.5 61.5t-60.5 49t-79 32t-93 11.5q-67 0 -122.5 -18t-95 -52t-61.5 -83t-22 -110q0 -62 21 -110.5t60 -83t94.5 -52.5t124.5 -18q108 0 173 40.5t95 105.5l114 -52q-43 -103 -139.5 -157t-252.5 -54q-90 0 -168 25.5t-136 74t-91 119.5t-33 162
q0 90 35 161t95 120t140 74.5t169 25.5q69 0 130.5 -16.5t111 -45t86.5 -67.5t57 -83zM692 774h-86l-107 142l-110 -142h-81l161 202h65z" />
    <glyph glyph-name="ccircumflex" unicode="&#x109;" horiz-adv-x="818" 
d="M661 365q-24 54 -80.5 90t-137.5 36q-53 0 -99.5 -12t-81 -37t-54.5 -63t-20 -90t20 -90t54.5 -63t80.5 -37t98 -12q42 0 79.5 10t67 27.5t49.5 41.5t28 53l105 -51q-12 -37 -39.5 -70t-69.5 -57.5t-99 -39t-128 -14.5q-77 0 -144.5 19t-117.5 56.5t-78.5 94.5t-28.5 132
t29 132t79.5 94.5t120 56.5t150.5 19q59 0 110.5 -14.5t93 -38.5t72 -56t46.5 -67zM628 636h-86l-107 142l-110 -142h-81l161 202h65z" />
    <glyph glyph-name="Cdotaccent" unicode="&#x10a;" horiz-adv-x="947" 
d="M774 467q-12 33 -37.5 61.5t-60.5 49t-79 32t-93 11.5q-67 0 -122.5 -18t-95 -52t-61.5 -83t-22 -110q0 -62 21 -110.5t60 -83t94.5 -52.5t124.5 -18q108 0 173 40.5t95 105.5l114 -52q-43 -103 -139.5 -157t-252.5 -54q-90 0 -168 25.5t-136 74t-91 119.5t-33 162
q0 90 35 161t95 120t140 74.5t169 25.5q69 0 130.5 -16.5t111 -45t86.5 -67.5t57 -83zM571 880q0 -25 -21 -42t-51 -17q-29 0 -50 17t-21 42q0 24 21 41t50 17q30 0 51 -17t21 -41z" />
    <glyph glyph-name="cdotaccent" unicode="&#x10b;" horiz-adv-x="818" 
d="M661 365q-24 54 -80.5 90t-137.5 36q-53 0 -99.5 -12t-81 -37t-54.5 -63t-20 -90t20 -90t54.5 -63t80.5 -37t98 -12q42 0 79.5 10t67 27.5t49.5 41.5t28 53l105 -51q-12 -37 -39.5 -70t-69.5 -57.5t-99 -39t-128 -14.5q-77 0 -144.5 19t-117.5 56.5t-78.5 94.5t-28.5 132
t29 132t79.5 94.5t120 56.5t150.5 19q59 0 110.5 -14.5t93 -38.5t72 -56t46.5 -67zM506 742q0 -25 -21 -42t-51 -17q-29 0 -50 17t-21 42q0 24 21 41t50 17q30 0 51 -17t21 -41z" />
    <glyph glyph-name="Ccaron" unicode="&#x10c;" horiz-adv-x="947" 
d="M774 467q-12 33 -37.5 61.5t-60.5 49t-79 32t-93 11.5q-67 0 -122.5 -18t-95 -52t-61.5 -83t-22 -110q0 -62 21 -110.5t60 -83t94.5 -52.5t124.5 -18q108 0 173 40.5t95 105.5l114 -52q-43 -103 -139.5 -157t-252.5 -54q-90 0 -168 25.5t-136 74t-91 119.5t-33 162
q0 90 35 161t95 120t140 74.5t169 25.5q69 0 130.5 -16.5t111 -45t86.5 -67.5t57 -83zM309 976h85l108 -142l110 142h81l-162 -202h-64z" />
    <glyph glyph-name="ccaron" unicode="&#x10d;" horiz-adv-x="818" 
d="M661 365q-24 54 -80.5 90t-137.5 36q-53 0 -99.5 -12t-81 -37t-54.5 -63t-20 -90t20 -90t54.5 -63t80.5 -37t98 -12q42 0 79.5 10t67 27.5t49.5 41.5t28 53l105 -51q-12 -37 -39.5 -70t-69.5 -57.5t-99 -39t-128 -14.5q-77 0 -144.5 19t-117.5 56.5t-78.5 94.5t-28.5 132
t29 132t79.5 94.5t120 56.5t150.5 19q59 0 110.5 -14.5t93 -38.5t72 -56t46.5 -67zM245 838h85l108 -142l110 142h81l-162 -202h-64z" />
    <glyph glyph-name="Dcaron" unicode="&#x10e;" horiz-adv-x="1030" 
d="M493 716q96 0 181.5 -16t149 -56.5t100.5 -110t37 -175.5q0 -60 -22.5 -123.5t-74.5 -115.5t-137 -85.5t-210 -33.5h-429v716h405zM221 604v-478h279q85 0 146 18.5t100.5 50.5t58.5 75t19 93q0 125 -87.5 183t-243.5 58h-272zM245 976h85l108 -142l110 142h81l-162 -202
h-64z" />
    <glyph glyph-name="dcaron" unicode="&#x10f;" horiz-adv-x="947" 
d="M667 739h128v-739h-125v59q-36 -27 -102 -49.5t-150 -22.5q-67 0 -131 17.5t-114.5 54.5t-81.5 94t-31 136q0 85 32 143t81 92.5t108.5 49.5t115.5 15q91 0 159 -22.5t111 -60.5v233zM187 287q0 -53 22 -90.5t58.5 -62t83.5 -36t97 -11.5q79 0 138 28.5t82 82.5v172
q-23 58 -84.5 87.5t-142.5 29.5q-47 0 -92.5 -11t-81.5 -35t-58 -62t-22 -92zM908 555h-73l52 184h106z" />
    <glyph glyph-name="Dcroat" unicode="&#x110;" horiz-adv-x="1012" 
d="M474 716q97 0 182 -16t149 -56.5t101 -110t37 -175.5q0 -60 -22.5 -123.5t-74.5 -115.5t-137.5 -85.5t-210.5 -33.5h-428v309h-53v114h53v293h404zM203 604v-181h321v-114h-321v-183h279q85 0 146 18.5t100.5 50.5t58.5 75t19 93q0 125 -87.5 183t-244.5 58h-271z" />
    <glyph glyph-name="dcroat" unicode="&#x111;" horiz-adv-x="885" 
d="M795 0h-125v59q-36 -27 -102 -49.5t-150 -22.5q-67 0 -131 17.5t-114.5 54.5t-81.5 94t-31 136q0 85 32 143t81 92.5t108.5 49.5t115.5 15q91 0 159 -22.5t111 -60.5v129h-205v57h205v47h128v-47h90v-57h-90v-635zM187 287q0 -53 22 -90.5t58.5 -62t83.5 -36t97 -11.5
q79 0 138 28.5t82 82.5v172q-23 58 -84.5 87.5t-142.5 29.5q-47 0 -92.5 -11t-81.5 -35t-58 -62t-22 -92z" />
    <glyph glyph-name="Emacron" unicode="&#x112;" 
d="M842 602h-621v-177h550v-114h-550v-187h635v-124h-768v716h754v-114zM617 825h-352v84h352v-84z" />
    <glyph glyph-name="emacron" unicode="&#x113;" horiz-adv-x="859" 
d="M792 256h-603q6 -44 28 -77.5t56 -55.5t77.5 -33t93.5 -11q85 0 140 25.5t72 70.5h139q-10 -39 -41.5 -73.5t-78.5 -60t-106 -40t-123 -14.5q-82 0 -151.5 19t-120.5 56.5t-80 94t-29 131.5q0 76 29 132.5t79.5 94.5t120 57t150.5 19q84 0 148.5 -28t109 -72t67.5 -99.5
t23 -109.5v-26zM658 337q-3 25 -18.5 53t-43 52t-66 39.5t-87.5 15.5q-48 0 -90.5 -9t-75.5 -28.5t-55.5 -49.5t-29.5 -73h466zM605 687h-352v84h352v-84z" />
    <glyph glyph-name="Ebreve" unicode="&#x114;" 
d="M842 602h-621v-177h550v-114h-550v-187h635v-124h-768v716h754v-114zM602 976q-5 -36 -16.5 -68.5t-31.5 -56.5t-48.5 -38.5t-66.5 -14.5q-39 0 -67 14.5t-47 38.5t-29.5 56.5t-13.5 68.5h60q2 -23 9 -44t19 -36.5t29 -24.5t40 -9q46 0 71 31.5t30 82.5h62z" />
    <glyph glyph-name="ebreve" unicode="&#x115;" horiz-adv-x="859" 
d="M792 256h-603q6 -44 28 -77.5t56 -55.5t77.5 -33t93.5 -11q85 0 140 25.5t72 70.5h139q-10 -39 -41.5 -73.5t-78.5 -60t-106 -40t-123 -14.5q-82 0 -151.5 19t-120.5 56.5t-80 94t-29 131.5q0 76 29 132.5t79.5 94.5t120 57t150.5 19q84 0 148.5 -28t109 -72t67.5 -99.5
t23 -109.5v-26zM658 337q-3 25 -18.5 53t-43 52t-66 39.5t-87.5 15.5q-48 0 -90.5 -9t-75.5 -28.5t-55.5 -49.5t-29.5 -73h466zM589 838q-5 -36 -16.5 -68.5t-31.5 -56.5t-48.5 -38.5t-66.5 -14.5q-39 0 -67 14.5t-47 38.5t-29.5 56.5t-13.5 68.5h60q2 -23 9 -44t19 -36.5
t29 -24.5t40 -9q46 0 71 31.5t30 82.5h62z" />
    <glyph glyph-name="Edotaccent" unicode="&#x116;" 
d="M842 602h-621v-177h550v-114h-550v-187h635v-124h-768v716h754v-114zM513 880q0 -25 -21 -42t-51 -17q-29 0 -50 17t-21 42q0 24 21 41t50 17q30 0 51 -17t21 -41z" />
    <glyph glyph-name="edotaccent" unicode="&#x117;" horiz-adv-x="859" 
d="M792 256h-603q6 -44 28 -77.5t56 -55.5t77.5 -33t93.5 -11q85 0 140 25.5t72 70.5h139q-10 -39 -41.5 -73.5t-78.5 -60t-106 -40t-123 -14.5q-82 0 -151.5 19t-120.5 56.5t-80 94t-29 131.5q0 76 29 132.5t79.5 94.5t120 57t150.5 19q84 0 148.5 -28t109 -72t67.5 -99.5
t23 -109.5v-26zM658 337q-3 25 -18.5 53t-43 52t-66 39.5t-87.5 15.5q-48 0 -90.5 -9t-75.5 -28.5t-55.5 -49.5t-29.5 -73h466zM499 742q0 -25 -21 -42t-51 -17q-29 0 -50 17t-21 42q0 24 21 41t50 17q30 0 51 -17t21 -41z" />
    <glyph glyph-name="Eogonek" unicode="&#x118;" 
d="M958 -209q-24 -8 -63.5 -14t-109.5 -6q-65 0 -97.5 24.5t-32.5 51.5q0 21 10.5 42.5t29.5 41.5t45 37.5t56 31.5h-708v716h754v-114h-621v-177h550v-114h-550v-187h635v-124q-52 -28 -81.5 -56t-29.5 -51q0 -20 20.5 -33t52.5 -13q54 0 88 5t60 11z" />
    <glyph glyph-name="eogonek" unicode="&#x119;" horiz-adv-x="859" 
d="M664 -209q-24 -8 -63 -14t-110 -6q-32 0 -56.5 7t-40.5 17.5t-24 24t-8 27.5q0 38 32 75.5t84 65.5q-8 0 -16 -0.5t-16 -0.5q-82 0 -151.5 19t-120.5 56.5t-80 94t-29 131.5q0 76 29 132.5t79.5 94.5t120 57t150.5 19q84 0 148.5 -28t109 -72t67.5 -99.5t23 -109.5v-26
h-603q6 -44 28 -77.5t56 -55.5t77.5 -33t93.5 -11q85 0 140 25.5t72 70.5h139q-17 -61 -80 -108t-154 -67q-51 -27 -80.5 -55t-29.5 -51q0 -21 20.5 -34t52.5 -13q54 0 88 5.5t60 11.5zM658 337q-3 25 -18.5 53t-43 52t-66 39.5t-87.5 15.5q-48 0 -90.5 -9t-75.5 -28.5
t-55.5 -49.5t-29.5 -73h466z" />
    <glyph glyph-name="Ecaron" unicode="&#x11a;" 
d="M842 602h-621v-177h550v-114h-550v-187h635v-124h-768v716h754v-114zM250 976h85l108 -142l110 142h81l-162 -202h-64z" />
    <glyph glyph-name="ecaron" unicode="&#x11b;" horiz-adv-x="859" 
d="M792 256h-603q6 -44 28 -77.5t56 -55.5t77.5 -33t93.5 -11q85 0 140 25.5t72 70.5h139q-10 -39 -41.5 -73.5t-78.5 -60t-106 -40t-123 -14.5q-82 0 -151.5 19t-120.5 56.5t-80 94t-29 131.5q0 76 29 132.5t79.5 94.5t120 57t150.5 19q84 0 148.5 -28t109 -72t67.5 -99.5
t23 -109.5v-26zM658 337q-3 25 -18.5 53t-43 52t-66 39.5t-87.5 15.5q-48 0 -90.5 -9t-75.5 -28.5t-55.5 -49.5t-29.5 -73h466zM237 838h85l108 -142l110 142h81l-162 -202h-64z" />
    <glyph glyph-name="Gcircumflex" unicode="&#x11c;" horiz-adv-x="988" 
d="M855 525q-72 46 -159.5 71t-189.5 25q-67 0 -122.5 -18t-95.5 -52t-62.5 -83t-22.5 -110q0 -62 21 -110.5t60.5 -83t95.5 -52.5t125 -18q45 0 87.5 4.5t79 12.5t64 19.5t42.5 25.5v111h-207v111h340v-307q-21 -16 -57.5 -32.5t-88 -30t-119 -22.5t-151.5 -9
q-90 0 -168 25.5t-136 74t-91 119.5t-33 162q0 90 35 161t95 120t140 74.5t169 25.5q70 0 135.5 -10t120.5 -24.5t95.5 -32t60.5 -32.5zM685 774h-86l-107 142l-110 -142h-81l161 202h65z" />
    <glyph glyph-name="gcircumflex" unicode="&#x11d;" horiz-adv-x="891" 
d="M801 153q0 -86 -24.5 -145.5t-72.5 -97t-117.5 -54.5t-159.5 -17q-61 0 -110 3t-89.5 9.5t-74.5 16.5t-65 23l41 96q54 -24 127 -41t164 -17q54 0 101.5 12t83 35t56.5 57.5t21 79.5q-35 -35 -109 -60t-176 -25q-56 0 -114.5 14t-107 47t-79.5 86.5t-31 133.5
q0 75 31 128t81 86.5t114 49.5t130 16q50 0 90 -6.5t71.5 -16.5t54.5 -22t39 -23v57h125v-425zM676 391q-11 22 -34 41.5t-53 33.5t-65.5 22.5t-71.5 8.5q-50 0 -97 -11t-83 -33.5t-58 -57.5t-22 -83q0 -50 22 -84.5t57.5 -57t81 -32.5t92.5 -10q91 0 151 32t80 89v142z
M636 636h-86l-107 142l-110 -142h-81l161 202h65z" />
    <glyph glyph-name="Gbreve" unicode="&#x11e;" horiz-adv-x="988" 
d="M855 525q-72 46 -159.5 71t-189.5 25q-67 0 -122.5 -18t-95.5 -52t-62.5 -83t-22.5 -110q0 -62 21 -110.5t60.5 -83t95.5 -52.5t125 -18q45 0 87.5 4.5t79 12.5t64 19.5t42.5 25.5v111h-207v111h340v-307q-21 -16 -57.5 -32.5t-88 -30t-119 -22.5t-151.5 -9
q-90 0 -168 25.5t-136 74t-91 119.5t-33 162q0 90 35 161t95 120t140 74.5t169 25.5q70 0 135.5 -10t120.5 -24.5t95.5 -32t60.5 -32.5zM653 976q-5 -36 -16.5 -68.5t-31.5 -56.5t-48.5 -38.5t-66.5 -14.5q-39 0 -67 14.5t-47 38.5t-29.5 56.5t-13.5 68.5h60q2 -23 9 -44
t19 -36.5t29 -24.5t40 -9q46 0 71 31.5t30 82.5h62z" />
    <glyph glyph-name="gbreve" unicode="&#x11f;" horiz-adv-x="891" 
d="M801 153q0 -86 -24.5 -145.5t-72.5 -97t-117.5 -54.5t-159.5 -17q-61 0 -110 3t-89.5 9.5t-74.5 16.5t-65 23l41 96q54 -24 127 -41t164 -17q54 0 101.5 12t83 35t56.5 57.5t21 79.5q-35 -35 -109 -60t-176 -25q-56 0 -114.5 14t-107 47t-79.5 86.5t-31 133.5
q0 75 31 128t81 86.5t114 49.5t130 16q50 0 90 -6.5t71.5 -16.5t54.5 -22t39 -23v57h125v-425zM676 391q-11 22 -34 41.5t-53 33.5t-65.5 22.5t-71.5 8.5q-50 0 -97 -11t-83 -33.5t-58 -57.5t-22 -83q0 -50 22 -84.5t57.5 -57t81 -32.5t92.5 -10q91 0 151 32t80 89v142z
M605 838q-5 -36 -16.5 -68.5t-31.5 -56.5t-48.5 -38.5t-66.5 -14.5q-39 0 -67 14.5t-47 38.5t-29.5 56.5t-13.5 68.5h60q2 -23 9 -44t19 -36.5t29 -24.5t40 -9q46 0 71 31.5t30 82.5h62z" />
    <glyph glyph-name="Gdotaccent" unicode="&#x120;" horiz-adv-x="988" 
d="M855 525q-72 46 -159.5 71t-189.5 25q-67 0 -122.5 -18t-95.5 -52t-62.5 -83t-22.5 -110q0 -62 21 -110.5t60.5 -83t95.5 -52.5t125 -18q45 0 87.5 4.5t79 12.5t64 19.5t42.5 25.5v111h-207v111h340v-307q-21 -16 -57.5 -32.5t-88 -30t-119 -22.5t-151.5 -9
q-90 0 -168 25.5t-136 74t-91 119.5t-33 162q0 90 35 161t95 120t140 74.5t169 25.5q70 0 135.5 -10t120.5 -24.5t95.5 -32t60.5 -32.5zM564 880q0 -25 -21 -42t-51 -17q-29 0 -50 17t-21 42q0 24 21 41t50 17q30 0 51 -17t21 -41z" />
    <glyph glyph-name="gdotaccent" unicode="&#x121;" horiz-adv-x="891" 
d="M801 153q0 -86 -24.5 -145.5t-72.5 -97t-117.5 -54.5t-159.5 -17q-61 0 -110 3t-89.5 9.5t-74.5 16.5t-65 23l41 96q54 -24 127 -41t164 -17q54 0 101.5 12t83 35t56.5 57.5t21 79.5q-35 -35 -109 -60t-176 -25q-56 0 -114.5 14t-107 47t-79.5 86.5t-31 133.5
q0 75 31 128t81 86.5t114 49.5t130 16q50 0 90 -6.5t71.5 -16.5t54.5 -22t39 -23v57h125v-425zM676 391q-11 22 -34 41.5t-53 33.5t-65.5 22.5t-71.5 8.5q-50 0 -97 -11t-83 -33.5t-58 -57.5t-22 -83q0 -50 22 -84.5t57.5 -57t81 -32.5t92.5 -10q91 0 151 32t80 89v142z
M516 742q0 -25 -21 -42t-51 -17q-29 0 -50 17t-21 42q0 24 21 41t50 17q30 0 51 -17t21 -41z" />
    <glyph glyph-name="uni0122" unicode="&#x122;" horiz-adv-x="988" 
d="M855 525q-72 46 -159.5 71t-189.5 25q-67 0 -122.5 -18t-95.5 -52t-62.5 -83t-22.5 -110q0 -62 21 -110.5t60.5 -83t95.5 -52.5t125 -18q45 0 87.5 4.5t79 12.5t64 19.5t42.5 25.5v111h-207v111h340v-307q-21 -16 -57.5 -32.5t-88 -30t-119 -22.5t-151.5 -9
q-90 0 -168 25.5t-136 74t-91 119.5t-33 162q0 90 35 161t95 120t140 74.5t169 25.5q70 0 135.5 -10t120.5 -24.5t95.5 -32t60.5 -32.5zM487 -233h-73l52 184h106z" />
    <glyph glyph-name="uni0123" unicode="&#x123;" horiz-adv-x="891" 
d="M801 153q0 -86 -24.5 -145.5t-72.5 -97t-117.5 -54.5t-159.5 -17q-61 0 -110 3t-89.5 9.5t-74.5 16.5t-65 23l41 96q54 -24 127 -41t164 -17q54 0 101.5 12t83 35t56.5 57.5t21 79.5q-35 -35 -109 -60t-176 -25q-56 0 -114.5 14t-107 47t-79.5 86.5t-31 133.5
q0 75 31 128t81 86.5t114 49.5t130 16q50 0 90 -6.5t71.5 -16.5t54.5 -22t39 -23v57h125v-425zM676 391q-11 22 -34 41.5t-53 33.5t-65.5 22.5t-71.5 8.5q-50 0 -97 -11t-83 -33.5t-58 -57.5t-22 -83q0 -50 22 -84.5t57.5 -57t81 -32.5t92.5 -10q91 0 151 32t80 89v142z
M460 621h-73l52 184h106z" />
    <glyph glyph-name="Hcircumflex" unicode="&#x124;" horiz-adv-x="985" 
d="M896 0h-132v318h-544v-318h-132v716h132v-278h544v278h132v-716zM684 774h-86l-107 142l-110 -142h-81l161 202h65z" />
    <glyph glyph-name="hcircumflex" unicode="&#x125;" horiz-adv-x="874" 
d="M790 0h-133v243q0 74 -17.5 121.5t-48 74.5t-71.5 37.5t-87 10.5q-63 0 -113.5 -20.5t-99.5 -59.5v-407h-132v739h128v-230q45 35 102 58.5t135 23.5q61 0 121.5 -13.5t108.5 -51t77.5 -105t29.5 -175.5v-246zM346 774h-86l-107 142l-110 -142h-81l161 202h65z" />
    <glyph glyph-name="Hbar" unicode="&#x126;" horiz-adv-x="985" 
d="M896 0h-132v309h-544v-309h-132v716h132v-106h544v106h132v-716zM220 531v-103h544v103h-544z" />
    <glyph glyph-name="hbar" unicode="&#x127;" horiz-adv-x="874" 
d="M790 0h-133v243q0 74 -17.5 121.5t-48 74.5t-71.5 37.5t-87 10.5q-63 0 -113.5 -20.5t-99.5 -59.5v-407h-132v635h-88v57h88v47h128v-47h207v-57h-207v-126q45 35 102 58.5t135 23.5q61 0 121 -13.5t108 -51t78 -105t30 -175.5v-246z" />
    <glyph glyph-name="Itilde" unicode="&#x128;" horiz-adv-x="335" 
d="M232 0h-132v716h132v-716zM372 845q-49 -37 -104 -37q-30 0 -55.5 8.5t-49.5 19t-47.5 19.5t-50.5 9q-49 0 -99 -40v69q20 16 46.5 25.5t61.5 9.5q31 0 55 -9t46.5 -19.5t46 -19t53.5 -8.5q23 0 48 11.5t49 34.5v-73z" />
    <glyph glyph-name="itilde" unicode="&#x129;" horiz-adv-x="324" 
d="M366 707q-49 -37 -104 -37q-30 0 -55.5 8.5t-49.5 19t-47.5 19.5t-50.5 9q-49 0 -99 -40v69q20 16 46.5 25.5t61.5 9.5q31 0 55 -9t46.5 -19.5t46 -19t53.5 -8.5q23 0 48 11.5t49 34.5v-73zM227 0h-133v578h133v-578z" />
    <glyph glyph-name="Imacron" unicode="&#x12a;" horiz-adv-x="335" 
d="M232 0h-132v716h132v-716zM345 825h-352v84h352v-84z" />
    <glyph glyph-name="imacron" unicode="&#x12b;" horiz-adv-x="324" 
d="M339 687h-352v84h352v-84zM227 0h-133v578h133v-578z" />
    <glyph glyph-name="Ibreve" unicode="&#x12c;" horiz-adv-x="335" 
d="M232 0h-132v716h132v-716zM327 976q-5 -36 -16.5 -68.5t-31.5 -56.5t-48.5 -38.5t-66.5 -14.5q-39 0 -67 14.5t-47 38.5t-29.5 56.5t-13.5 68.5h60q2 -23 9 -44t19 -36.5t29 -24.5t40 -9q46 0 71 31.5t30 82.5h62z" />
    <glyph glyph-name="ibreve" unicode="&#x12d;" horiz-adv-x="324" 
d="M323 838q-5 -36 -16.5 -68.5t-31.5 -56.5t-48.5 -38.5t-66.5 -14.5q-39 0 -67 14.5t-47 38.5t-29.5 56.5t-13.5 68.5h60q2 -23 9 -44t19 -36.5t29 -24.5t40 -9q46 0 71 31.5t30 82.5h62zM227 0h-133v578h133v-578z" />
    <glyph glyph-name="Iogonek" unicode="&#x12e;" horiz-adv-x="335" 
d="M335 -209q-24 -8 -63.5 -14t-109.5 -6q-32 0 -56.5 7.5t-41 18.5t-24.5 24.5t-8 25.5q0 43 39 84t102 69h-73v716h132v-716q-51 -27 -80.5 -55t-29.5 -51q0 -21 20.5 -34t52.5 -13q54 0 88 5.5t60 11.5z" />
    <glyph glyph-name="iogonek" unicode="&#x12f;" horiz-adv-x="334" 
d="M333 -209q-24 -8 -63 -14t-110 -6q-32 0 -56 7t-40.5 18.5t-24.5 25t-8 25.5q0 43 39.5 83.5t100.5 69.5h-72v578h132v-578q-51 -27 -81 -55t-30 -51q0 -21 20.5 -34t52.5 -13q54 0 88 5.5t60 11.5zM237 682q0 -25 -21.5 -42t-50.5 -17q-30 0 -50.5 17t-20.5 42
q0 24 20.5 41t50.5 17q29 0 50.5 -17t21.5 -41z" />
    <glyph glyph-name="Idotaccent" unicode="&#x130;" horiz-adv-x="335" 
d="M232 0h-132v716h132v-716zM238 880q0 -25 -21 -42t-51 -17q-29 0 -50 17t-21 42q0 24 21 41t50 17q30 0 51 -17t21 -41z" />
    <glyph glyph-name="dotlessi" unicode="&#x131;" horiz-adv-x="324" 
d="M227 0h-133v578h133v-578z" />
    <glyph glyph-name="IJ" unicode="&#x132;" horiz-adv-x="1074" 
d="M232 0h-132v716h132v-716zM974 316q0 -87 -26.5 -150.5t-71 -105.5t-103.5 -62.5t-125 -20.5q-71 0 -128.5 17t-100.5 47t-71.5 72t-40.5 92l131 45q5 -29 21 -57t41 -49.5t58 -34.5t72 -13q44 0 83 10.5t67.5 35.5t45 67.5t16.5 106.5v400h132v-400z" />
    <glyph glyph-name="ij" unicode="&#x133;" horiz-adv-x="615" 
d="M231 0h-132v578h132v-578zM237 684q0 -24 -21.5 -41t-50.5 -17q-30 0 -50.5 17t-20.5 41t20.5 41t50.5 17q29 0 50.5 -17t21.5 -41zM518 3q0 -35 -10.5 -65t-33 -52t-58 -34.5t-86.5 -12.5h-60v103h36q43 0 61.5 17t18.5 50v569h132v-575zM523 685q0 -25 -21 -42t-50 -17
q-30 0 -50.5 17t-20.5 42q0 24 20.5 41t50.5 17q29 0 50 -17t21 -41z" />
    <glyph glyph-name="Jcircumflex" unicode="&#x134;" horiz-adv-x="773" 
d="M689 316q0 -87 -26.5 -150.5t-71 -105.5t-103.5 -62.5t-125 -20.5q-71 0 -128.5 17t-100.5 47t-71.5 72t-40.5 92l131 45q5 -29 21 -57t41 -49.5t58 -34.5t72 -13q44 0 83 10.5t67.5 35.5t45 67.5t16.5 106.5v400h132v-400zM817 774h-86l-107 142l-110 -142h-81l161 202
h65z" />
    <glyph glyph-name="jcircumflex" unicode="&#x135;" horiz-adv-x="345" 
d="M262 3q0 -35 -10.5 -65t-33 -52t-58 -34.5t-86.5 -12.5h-60v103h36q43 0 61.5 17t18.5 50v569h132v-575zM384 636h-86l-107 142l-110 -142h-81l161 202h65z" />
    <glyph glyph-name="uni0136" unicode="&#x136;" horiz-adv-x="1005" 
d="M557 471l421 -471h-188l-340 397l-230 -154v-243h-132v716h132v-331l485 331h214zM438 -233h-73l52 184h106z" />
    <glyph glyph-name="uni0137" unicode="&#x137;" horiz-adv-x="813" 
d="M524 375l283 -375h-153l-222 302l-212 -164v-138h-132v739h132v-462l401 301h170zM378 -233h-73l52 184h106z" />
    <glyph glyph-name="kgreenlandic" unicode="&#x138;" horiz-adv-x="813" 
d="M524 375l283 -375h-153l-222 302l-212 -164v-138h-132v578h132v-301l401 301h170z" />
    <glyph glyph-name="Lacute" unicode="&#x139;" horiz-adv-x="793" 
d="M220 132h569v-132h-701v716h132v-584zM338 887l-289 -104l-17 56l277 123z" />
    <glyph glyph-name="lacute" unicode="&#x13a;" horiz-adv-x="312" 
d="M220 0h-132v739h132v-739zM339 887l-289 -104l-17 56l277 123z" />
    <glyph glyph-name="uni013B" unicode="&#x13b;" horiz-adv-x="793" 
d="M220 132h569v-132h-701v716h132v-584zM389 -233h-73l52 184h106z" />
    <glyph glyph-name="uni013C" unicode="&#x13c;" horiz-adv-x="312" 
d="M220 0h-132v739h132v-739zM118 -233h-73l52 184h106z" />
    <glyph glyph-name="Lcaron" unicode="&#x13d;" horiz-adv-x="793" 
d="M220 132h569v-132h-701v716h132v-584zM389 -233h-73l52 184h106z" />
    <glyph glyph-name="lcaron" unicode="&#x13e;" horiz-adv-x="373" 
d="M220 0h-132v739h132v-739zM333 555h-73l52 184h106z" />
    <glyph glyph-name="Ldot" unicode="&#x13f;" horiz-adv-x="793" 
d="M220 132h569v-132h-701v716h132v-584zM437 374q0 -24 -21 -41t-51 -17q-29 0 -50 17t-21 41t21 41t50 17q30 0 51 -17t21 -41z" />
    <glyph glyph-name="ldot" unicode="&#x140;" horiz-adv-x="387" 
d="M220 0h-132v739h132v-739zM403 372q0 -24 -21 -41t-51 -17q-29 0 -50 17t-21 41t21 41t50 17q30 0 51 -17t21 -41z" />
    <glyph glyph-name="Lslash" unicode="&#x141;" horiz-adv-x="806" 
d="M238 422l211 36v-71l-211 -36v-219h568v-132h-700v328l-57 -9v70l57 10v317h132v-294z" />
    <glyph glyph-name="lslash" unicode="&#x142;" horiz-adv-x="325" 
d="M226 431l84 18v-71l-84 -17v-361h-132v334l-81 -16v71l81 16v334h132v-308z" />
    <glyph glyph-name="Nacute" unicode="&#x143;" horiz-adv-x="1022" 
d="M932 0h-138l-567 546v-546h-139v716h141l563 -534v534h140v-716zM693 887l-289 -104l-17 56l277 123z" />
    <glyph glyph-name="nacute" unicode="&#x144;" 
d="M791 0h-133v243q0 74 -17.5 121.5t-48.5 74.5t-72 37.5t-87 10.5q-63 0 -113.5 -20.5t-99.5 -59.5v-407h-132v578h125v-69q45 35 104 58.5t137 23.5q61 0 121.5 -13.5t108.5 -51t77.5 -105t29.5 -175.5v-246zM615 749l-289 -104l-17 56l277 123z" />
    <glyph glyph-name="uni0145" unicode="&#x145;" horiz-adv-x="1022" 
d="M932 0h-138l-567 546v-546h-139v716h141l563 -534v534h140v-716zM433 -233h-73l52 184h106z" />
    <glyph glyph-name="uni0146" unicode="&#x146;" 
d="M791 0h-133v243q0 74 -17.5 121.5t-48.5 74.5t-72 37.5t-87 10.5q-63 0 -113.5 -20.5t-99.5 -59.5v-407h-132v578h125v-69q45 35 104 58.5t137 23.5q61 0 121.5 -13.5t108.5 -51t77.5 -105t29.5 -175.5v-246zM426 -233h-73l52 184h106z" />
    <glyph glyph-name="Ncaron" unicode="&#x147;" horiz-adv-x="1022" 
d="M932 0h-138l-567 546v-546h-139v716h141l563 -534v534h140v-716zM319 976h85l108 -142l110 142h81l-162 -202h-64z" />
    <glyph glyph-name="ncaron" unicode="&#x148;" 
d="M791 0h-133v243q0 74 -17.5 121.5t-48.5 74.5t-72 37.5t-87 10.5q-63 0 -113.5 -20.5t-99.5 -59.5v-407h-132v578h125v-69q45 35 104 58.5t137 23.5q61 0 121.5 -13.5t108.5 -51t77.5 -105t29.5 -175.5v-246zM241 838h85l108 -142l110 142h81l-162 -202h-64z" />
    <glyph glyph-name="napostrophe" unicode="&#x149;" 
d="M791 0h-133v243q0 74 -17.5 121.5t-48.5 74.5t-72 37.5t-87 10.5q-63 0 -113.5 -20.5t-99.5 -59.5v-407h-132v578h125v-69q45 35 104 58.5t137 23.5q61 0 121.5 -13.5t108.5 -51t77.5 -105t29.5 -175.5v-246zM191 614h-73l52 184h106z" />
    <glyph glyph-name="Eng" unicode="&#x14a;" horiz-adv-x="1022" 
d="M932 2q0 -35 -10.5 -65t-33.5 -51.5t-58.5 -34t-86.5 -12.5h-277v103h254q39 0 58 15t21 42l-572 547v-546h-139v716h141l563 -534v534h140v-714z" />
    <glyph glyph-name="eng" unicode="&#x14b;" 
d="M791 1q0 -35 -11 -64.5t-34 -51t-59 -34t-85 -12.5h-173v103h150q42 0 60.5 16.5t18.5 46.5v238q0 74 -17.5 121.5t-48.5 74.5t-72 37.5t-87 10.5q-63 0 -113.5 -20.5t-99.5 -59.5v-407h-132v578h125v-69q45 35 104 58.5t137 23.5q61 0 121.5 -13.5t108.5 -51t77.5 -105
t29.5 -175.5v-245z" />
    <glyph glyph-name="Omacron" unicode="&#x14c;" horiz-adv-x="1054" 
d="M987 358q0 -91 -36.5 -162t-99.5 -119.5t-146.5 -74t-177.5 -25.5t-177.5 25.5t-146.5 74t-99.5 119.5t-36.5 162q0 90 36.5 161t99.5 120t146.5 74.5t177.5 25.5t177.5 -25.5t146.5 -74.5t99.5 -120t36.5 -161zM848 358q0 61 -22.5 110t-64.5 83t-101.5 52t-132.5 18
q-74 0 -133 -18t-101 -52t-64.5 -83t-22.5 -110q0 -62 22.5 -110.5t64.5 -83t101 -52.5t133 -18q73 0 132.5 18t101.5 52.5t64.5 83t22.5 110.5zM702 825h-352v84h352v-84z" />
    <glyph glyph-name="omacron" unicode="&#x14d;" horiz-adv-x="902" 
d="M835 289q0 -75 -30 -132t-81.5 -94.5t-122 -56.5t-151.5 -19t-151.5 19t-122 56.5t-81.5 94.5t-30 132t30 132t81.5 94.5t122 56.5t151.5 19t151.5 -19t122 -56.5t81.5 -94.5t30 -132zM710 289q0 52 -21 90t-56.5 63t-83 37t-100.5 12t-100.5 -12t-83 -37t-56.5 -63
t-21 -90t21 -90t56.5 -63t83 -37t100.5 -12t100.5 12t83 37t56.5 63t21 90zM626 687h-352v84h352v-84z" />
    <glyph glyph-name="Obreve" unicode="&#x14e;" horiz-adv-x="1054" 
d="M987 358q0 -91 -36.5 -162t-99.5 -119.5t-146.5 -74t-177.5 -25.5t-177.5 25.5t-146.5 74t-99.5 119.5t-36.5 162q0 90 36.5 161t99.5 120t146.5 74.5t177.5 25.5t177.5 -25.5t146.5 -74.5t99.5 -120t36.5 -161zM848 358q0 61 -22.5 110t-64.5 83t-101.5 52t-132.5 18
q-74 0 -133 -18t-101 -52t-64.5 -83t-22.5 -110q0 -62 22.5 -110.5t64.5 -83t101 -52.5t133 -18q73 0 132.5 18t101.5 52.5t64.5 83t22.5 110.5zM686 976q-5 -36 -16.5 -68.5t-31.5 -56.5t-48.5 -38.5t-66.5 -14.5q-39 0 -67 14.5t-47 38.5t-29.5 56.5t-13.5 68.5h60
q2 -23 9 -44t19 -36.5t29 -24.5t40 -9q46 0 71 31.5t30 82.5h62z" />
    <glyph glyph-name="obreve" unicode="&#x14f;" horiz-adv-x="902" 
d="M835 289q0 -75 -30 -132t-81.5 -94.5t-122 -56.5t-151.5 -19t-151.5 19t-122 56.5t-81.5 94.5t-30 132t30 132t81.5 94.5t122 56.5t151.5 19t151.5 -19t122 -56.5t81.5 -94.5t30 -132zM710 289q0 52 -21 90t-56.5 63t-83 37t-100.5 12t-100.5 -12t-83 -37t-56.5 -63
t-21 -90t21 -90t56.5 -63t83 -37t100.5 -12t100.5 12t83 37t56.5 63t21 90zM610 838q-5 -36 -16.5 -68.5t-31.5 -56.5t-48.5 -38.5t-66.5 -14.5q-39 0 -67 14.5t-47 38.5t-29.5 56.5t-13.5 68.5h60q2 -23 9 -44t19 -36.5t29 -24.5t40 -9q46 0 71 31.5t30 82.5h62z" />
    <glyph glyph-name="Ohungarumlaut" unicode="&#x150;" horiz-adv-x="1054" 
d="M987 358q0 -91 -36.5 -162t-99.5 -119.5t-146.5 -74t-177.5 -25.5t-177.5 25.5t-146.5 74t-99.5 119.5t-36.5 162q0 90 36.5 161t99.5 120t146.5 74.5t177.5 25.5t177.5 -25.5t146.5 -74.5t99.5 -120t36.5 -161zM848 358q0 61 -22.5 110t-64.5 83t-101.5 52t-132.5 18
q-74 0 -133 -18t-101 -52t-64.5 -83t-22.5 -110q0 -62 22.5 -110.5t64.5 -83t101 -52.5t133 -18q73 0 132.5 18t101.5 52.5t64.5 83t22.5 110.5zM430 815h-75l187 221h93zM663 815h-76l187 221h93z" />
    <glyph glyph-name="ohungarumlaut" unicode="&#x151;" horiz-adv-x="902" 
d="M835 289q0 -75 -30 -132t-81.5 -94.5t-122 -56.5t-151.5 -19t-151.5 19t-122 56.5t-81.5 94.5t-30 132t30 132t81.5 94.5t122 56.5t151.5 19t151.5 -19t122 -56.5t81.5 -94.5t30 -132zM710 289q0 52 -21 90t-56.5 63t-83 37t-100.5 12t-100.5 -12t-83 -37t-56.5 -63
t-21 -90t21 -90t56.5 -63t83 -37t100.5 -12t100.5 12t83 37t56.5 63t21 90zM354 677h-75l187 221h93zM587 677h-76l187 221h93z" />
    <glyph glyph-name="OE" unicode="&#x152;" horiz-adv-x="1572" 
d="M1539 602h-594v-177h523v-114h-523v-187h608v-124h-741v57q-57 -39 -128.5 -59.5t-156.5 -20.5q-94 0 -177.5 25.5t-146.5 74t-99.5 119.5t-36.5 162q0 90 36.5 161t99.5 120t146.5 74.5t177.5 25.5q85 0 159 -22.5t126 -64.5v64h727v-114zM812 473q-54 148 -285 148
q-74 0 -133 -18t-101 -52t-64.5 -83t-22.5 -110q0 -62 22.5 -110.5t64.5 -83t101 -52.5t133 -18q104 0 180.5 32.5t104.5 104.5v242z" />
    <glyph glyph-name="oe" unicode="&#x153;" horiz-adv-x="1502" 
d="M1435 256h-603q6 -44 28 -78t56 -57t77.5 -34.5t93.5 -11.5q85 0 138.5 27.5t70.5 72.5h141q-10 -39 -41.5 -73.5t-78 -60t-105.5 -40t-123 -14.5q-112 0 -195 36t-123 109q-42 -73 -125.5 -109t-195.5 -36q-81 0 -151.5 19t-122 56.5t-81.5 94.5t-30 132t30 132
t81.5 94.5t122 56.5t151.5 19q112 0 195.5 -36.5t125.5 -109.5q39 73 121.5 109.5t194.5 36.5q82 0 147 -28t109.5 -72t68 -99.5t23.5 -109.5v-26zM710 289q0 52 -21 90t-56.5 63t-83 37t-100.5 12t-100.5 -12t-83 -37t-56.5 -63t-21 -90t21 -90t56.5 -63t83 -37t100.5 -12
t100.5 12t83 37t56.5 63t21 90zM1301 337q-3 25 -19 53t-43.5 52t-66 39.5t-86.5 15.5t-90.5 -9t-75.5 -28.5t-55.5 -49.5t-29.5 -73h466z" />
    <glyph glyph-name="Racute" unicode="&#x154;" horiz-adv-x="964" 
d="M908 0h-184l-224 272h-280v-272h-132v716h558q133 0 199 -60t66 -163q0 -100 -65.5 -155.5t-177.5 -64.5zM220 597v-203h409q69 0 106 26t37 77q0 48 -33 74t-94 26h-425zM664 887l-289 -104l-17 56l277 123z" />
    <glyph glyph-name="racute" unicode="&#x155;" horiz-adv-x="516" 
d="M495 468q-45 0 -91.5 -4.5t-85 -19.5t-65.5 -42.5t-33 -72.5v-329h-132v578h124v-100q18 34 44.5 56t61.5 34.5t79.5 17.5t97.5 5v-123zM440 749l-289 -104l-17 56l277 123z" />
    <glyph glyph-name="uni0156" unicode="&#x156;" horiz-adv-x="964" 
d="M908 0h-184l-224 272h-280v-272h-132v716h558q133 0 199 -60t66 -163q0 -100 -65.5 -155.5t-177.5 -64.5zM220 597v-203h409q69 0 106 26t37 77q0 48 -33 74t-94 26h-425zM421 -233h-73l52 184h106z" />
    <glyph glyph-name="uni0157" unicode="&#x157;" horiz-adv-x="516" 
d="M495 468q-45 0 -91.5 -4.5t-85 -19.5t-65.5 -42.5t-33 -72.5v-329h-132v578h124v-100q18 34 44.5 56t61.5 34.5t79.5 17.5t97.5 5v-123zM125 -233h-73l52 184h106z" />
    <glyph glyph-name="Rcaron" unicode="&#x158;" horiz-adv-x="964" 
d="M908 0h-184l-224 272h-280v-272h-132v716h558q133 0 199 -60t66 -163q0 -100 -65.5 -155.5t-177.5 -64.5zM220 597v-203h409q69 0 106 26t37 77q0 48 -33 74t-94 26h-425zM275 976h85l108 -142l110 142h81l-162 -202h-64z" />
    <glyph glyph-name="rcaron" unicode="&#x159;" horiz-adv-x="516" 
d="M495 468q-45 0 -91.5 -4.5t-85 -19.5t-65.5 -42.5t-33 -72.5v-329h-132v578h124v-100q18 34 44.5 56t61.5 34.5t79.5 17.5t97.5 5v-123zM66 838h85l108 -142l110 142h81l-162 -202h-64z" />
    <glyph glyph-name="Sacute" unicode="&#x15a;" horiz-adv-x="925" 
d="M712 517q-21 61 -77.5 87.5t-158.5 26.5q-135 0 -196 -28t-61 -81q0 -35 17.5 -55t50.5 -29.5t81 -12t110 -2.5q85 0 156.5 -5.5t122.5 -26.5t79.5 -62t28.5 -111q0 -53 -22.5 -97t-70.5 -76t-123.5 -49.5t-181.5 -17.5q-53 0 -93 2t-71 6.5t-54 11.5t-43 16
q-34 16 -59.5 34.5t-43 42.5t-28 54.5t-13.5 69.5h145q4 -33 25 -56.5t56.5 -39.5t83.5 -23.5t105 -7.5q118 0 183.5 32t65.5 95q0 30 -18.5 47.5t-49.5 27.5t-72 13t-86 3q-21 0 -40.5 -0.5t-39.5 -0.5q-48 0 -107 4t-111.5 24.5t-88 64t-35.5 121.5q0 50 21 91t68 69.5
t122.5 44t185.5 15.5q92 0 157 -13.5t109 -41t68.5 -68t35.5 -94.5zM645 887l-289 -104l-17 56l277 123z" />
    <glyph glyph-name="sacute" unicode="&#x15b;" horiz-adv-x="813" 
d="M615 408q-9 25 -23.5 42.5t-37 28.5t-54.5 16t-76 5q-49 0 -88.5 -4t-67.5 -13.5t-43.5 -25t-15.5 -39.5q0 -26 23.5 -40t61.5 -21.5t87 -10t99.5 -6.5t99.5 -11.5t87 -24t61.5 -44.5t23.5 -73q0 -47 -17 -84t-56.5 -63t-103.5 -39.5t-158 -13.5q-53 0 -92 2.5t-68.5 7.5
t-51.5 12.5t-41 17.5q-20 10 -38 26.5t-32 37t-22.5 44.5t-8.5 50h132q6 -54 65 -77.5t165 -23.5q90 0 144 21t54 67q0 21 -16.5 34.5t-43 21t-60 11t-68 5.5t-66.5 3t-55 4q-35 4 -76.5 10t-77 22t-59.5 46t-24 83q0 94 91 136.5t255 42.5q80 0 137 -11.5t95 -34t59.5 -56
t30.5 -76.5zM589 749l-289 -104l-17 56l277 123z" />
    <glyph glyph-name="Scircumflex" unicode="&#x15c;" horiz-adv-x="925" 
d="M712 517q-21 61 -77.5 87.5t-158.5 26.5q-135 0 -196 -28t-61 -81q0 -35 17.5 -55t50.5 -29.5t81 -12t110 -2.5q85 0 156.5 -5.5t122.5 -26.5t79.5 -62t28.5 -111q0 -53 -22.5 -97t-70.5 -76t-123.5 -49.5t-181.5 -17.5q-53 0 -93 2t-71 6.5t-54 11.5t-43 16
q-34 16 -59.5 34.5t-43 42.5t-28 54.5t-13.5 69.5h145q4 -33 25 -56.5t56.5 -39.5t83.5 -23.5t105 -7.5q118 0 183.5 32t65.5 95q0 30 -18.5 47.5t-49.5 27.5t-72 13t-86 3q-21 0 -40.5 -0.5t-39.5 -0.5q-48 0 -107 4t-111.5 24.5t-88 64t-35.5 121.5q0 50 21 91t68 69.5
t122.5 44t185.5 15.5q92 0 157 -13.5t109 -41t68.5 -68t35.5 -94.5zM653 774h-86l-107 142l-110 -142h-81l161 202h65z" />
    <glyph glyph-name="scircumflex" unicode="&#x15d;" horiz-adv-x="813" 
d="M615 408q-9 25 -23.5 42.5t-37 28.5t-54.5 16t-76 5q-49 0 -88.5 -4t-67.5 -13.5t-43.5 -25t-15.5 -39.5q0 -26 23.5 -40t61.5 -21.5t87 -10t99.5 -6.5t99.5 -11.5t87 -24t61.5 -44.5t23.5 -73q0 -47 -17 -84t-56.5 -63t-103.5 -39.5t-158 -13.5q-53 0 -92 2.5t-68.5 7.5
t-51.5 12.5t-41 17.5q-20 10 -38 26.5t-32 37t-22.5 44.5t-8.5 50h132q6 -54 65 -77.5t165 -23.5q90 0 144 21t54 67q0 21 -16.5 34.5t-43 21t-60 11t-68 5.5t-66.5 3t-55 4q-35 4 -76.5 10t-77 22t-59.5 46t-24 83q0 94 91 136.5t255 42.5q80 0 137 -11.5t95 -34t59.5 -56
t30.5 -76.5zM597 636h-86l-107 142l-110 -142h-81l161 202h65z" />
    <glyph glyph-name="Scedilla" unicode="&#x15e;" horiz-adv-x="925" 
d="M712 517q-21 61 -77.5 87.5t-158.5 26.5q-135 0 -196 -28t-61 -81q0 -35 17.5 -55t50.5 -29.5t81 -12t110 -2.5q85 0 156.5 -5.5t122.5 -26.5t79.5 -62t28.5 -111q0 -51 -21 -94.5t-65.5 -75t-115 -50t-169.5 -20.5v-20q18 -3 38 -9.5t36.5 -17.5t27 -26.5t10.5 -36.5
q0 -22 -10 -38.5t-27 -27.5t-39 -16.5t-46 -5.5q-86 0 -120 64l44 20q24 -38 73 -38q23 0 39 11.5t16 33.5q0 26 -26.5 37.5t-69.5 12.5v57q-46 1 -81.5 3.5t-63.5 7t-49.5 11t-39.5 14.5q-68 31 -102.5 77t-41.5 124h145q4 -33 25 -56.5t56.5 -39.5t83.5 -23.5t105 -7.5
q118 0 183.5 32t65.5 95q0 30 -18.5 47.5t-49.5 27.5t-72 13t-86 3q-21 0 -40.5 -0.5t-39.5 -0.5q-48 0 -107 4t-111.5 24.5t-88 64t-35.5 121.5q0 50 21 91t68 69.5t122.5 44t185.5 15.5q92 0 157 -13.5t109 -41t68.5 -68t35.5 -94.5z" />
    <glyph glyph-name="scedilla" unicode="&#x15f;" horiz-adv-x="813" 
d="M615 408q-9 25 -23.5 42.5t-37 28.5t-54.5 16t-76 5q-49 0 -88.5 -4t-67.5 -13.5t-43.5 -25t-15.5 -39.5q0 -26 23.5 -40t61.5 -21.5t87 -10t99.5 -6.5t99.5 -11.5t87 -24t61.5 -44.5t23.5 -73t-16 -81.5t-52 -62t-95 -40t-145 -16.5v-29q18 -3 38 -9.5t36.5 -17.5
t27 -26.5t10.5 -36.5q0 -22 -10 -38.5t-27 -27.5t-39 -16.5t-46 -5.5q-86 0 -120 64l44 20q24 -38 73 -38q23 0 39 11.5t16 33.5q0 26 -26.5 37.5t-69.5 12.5v66q-47 1 -81 4t-60 8t-46.5 12t-38.5 16q-20 10 -38 26t-32 37t-22.5 45t-8.5 50h132q6 -54 65 -77.5t165 -23.5
q90 0 144 21t54 67q0 21 -16.5 34.5t-43 21t-60 11t-68 5.5t-66.5 3t-55 4q-35 4 -76.5 10t-77 22t-59.5 46t-24 83q0 94 91 136.5t255 42.5q80 0 137 -11.5t95 -34t59.5 -56t30.5 -76.5z" />
    <glyph glyph-name="Scaron" unicode="&#x160;" horiz-adv-x="925" 
d="M712 517q-21 61 -77.5 87.5t-158.5 26.5q-135 0 -196 -28t-61 -81q0 -35 17.5 -55t50.5 -29.5t81 -12t110 -2.5q85 0 156.5 -5.5t122.5 -26.5t79.5 -62t28.5 -111q0 -53 -22.5 -97t-70.5 -76t-123.5 -49.5t-181.5 -17.5q-53 0 -93 2t-71 6.5t-54 11.5t-43 16
q-34 16 -59.5 34.5t-43 42.5t-28 54.5t-13.5 69.5h145q4 -33 25 -56.5t56.5 -39.5t83.5 -23.5t105 -7.5q118 0 183.5 32t65.5 95q0 30 -18.5 47.5t-49.5 27.5t-72 13t-86 3q-21 0 -40.5 -0.5t-39.5 -0.5q-48 0 -107 4t-111.5 24.5t-88 64t-35.5 121.5q0 50 21 91t68 69.5
t122.5 44t185.5 15.5q92 0 157 -13.5t109 -41t68.5 -68t35.5 -94.5zM270 976h85l108 -142l110 142h81l-162 -202h-64z" />
    <glyph glyph-name="scaron" unicode="&#x161;" horiz-adv-x="813" 
d="M615 408q-9 25 -23.5 42.5t-37 28.5t-54.5 16t-76 5q-49 0 -88.5 -4t-67.5 -13.5t-43.5 -25t-15.5 -39.5q0 -26 23.5 -40t61.5 -21.5t87 -10t99.5 -6.5t99.5 -11.5t87 -24t61.5 -44.5t23.5 -73q0 -47 -17 -84t-56.5 -63t-103.5 -39.5t-158 -13.5q-53 0 -92 2.5t-68.5 7.5
t-51.5 12.5t-41 17.5q-20 10 -38 26.5t-32 37t-22.5 44.5t-8.5 50h132q6 -54 65 -77.5t165 -23.5q90 0 144 21t54 67q0 21 -16.5 34.5t-43 21t-60 11t-68 5.5t-66.5 3t-55 4q-35 4 -76.5 10t-77 22t-59.5 46t-24 83q0 94 91 136.5t255 42.5q80 0 137 -11.5t95 -34t59.5 -56
t30.5 -76.5zM214 838h85l108 -142l110 142h81l-162 -202h-64z" />
    <glyph glyph-name="uni0162" unicode="&#x162;" horiz-adv-x="786" 
d="M770 592h-311v-592h-132v592h-310v124h753v-124zM353 -233h-73l52 184h106z" />
    <glyph glyph-name="uni0163" unicode="&#x163;" horiz-adv-x="415" 
d="M223 578h143v-92h-143v-296q0 -54 18 -72t52 -18q25 0 47 8.5t31 18.5v-101q-9 -16 -38 -27.5t-68 -11.5q-93 0 -130.5 50t-37.5 149v300h-80v92h80v111l126 42v-153zM194 -233h-73l52 184h106z" />
    <glyph glyph-name="Tcaron" unicode="&#x164;" horiz-adv-x="786" 
d="M770 592h-311v-592h-132v592h-310v124h753v-124zM201 976h85l108 -142l110 142h81l-162 -202h-64z" />
    <glyph glyph-name="tcaron" unicode="&#x165;" horiz-adv-x="509" 
d="M223 578h143v-92h-143v-296q0 -54 18 -72t52 -18q25 0 47 8.5t31 18.5v-101q-9 -16 -38 -27.5t-68 -11.5q-93 0 -130.5 50t-37.5 149v300h-80v92h80v111l126 42v-153zM469 555h-73l52 184h106z" />
    <glyph glyph-name="Tbar" unicode="&#x166;" horiz-adv-x="786" 
d="M770 592h-311v-147h151v-76h-151v-369h-132v369h-151v76h151v147h-310v124h753v-124z" />
    <glyph glyph-name="tbar" unicode="&#x167;" horiz-adv-x="415" 
d="M97 486h-80v92h80v111l126 42v-153h143v-92h-143v-107h142v-81h-142v-108q0 -54 18 -72t52 -18q25 0 47 8.5t31 18.5v-101q-9 -16 -38 -27.5t-68 -11.5q-93 0 -130.5 50t-37.5 149v112h-81v81h81v107z" />
    <glyph glyph-name="Utilde" unicode="&#x168;" horiz-adv-x="970" 
d="M886 329q0 -93 -31 -159.5t-86 -109.5t-130 -63t-163 -20q-87 0 -159.5 20.5t-124 63t-80 108.5t-28.5 158v389h137v-368q0 -71 18.5 -119t52 -77.5t81 -42t105.5 -12.5q60 0 111 12t87.5 40.5t57.5 77t21 120.5v369h131v-387zM687 845q-49 -37 -104 -37q-30 0 -55.5 8.5
t-49.5 19t-47.5 19.5t-50.5 9q-49 0 -99 -40v69q20 16 46.5 25.5t61.5 9.5q31 0 55 -9t46.5 -19.5t46 -19t53.5 -8.5q23 0 48 11.5t49 34.5v-73z" />
    <glyph glyph-name="utilde" unicode="&#x169;" horiz-adv-x="864" 
d="M774 0h-124v69q-45 -36 -103.5 -59t-136.5 -23q-61 0 -120.5 13.5t-107 51t-77 105t-29.5 175.5v246h133v-243q0 -75 17 -122.5t45.5 -74.5t65.5 -37.5t78 -10.5q69 0 125.5 23t101.5 58v407h132v-578zM634 707q-49 -37 -104 -37q-30 0 -55.5 8.5t-49.5 19t-47.5 19.5
t-50.5 9q-49 0 -99 -40v69q20 16 46.5 25.5t61.5 9.5q31 0 55 -9t46.5 -19.5t46 -19t53.5 -8.5q23 0 48 11.5t49 34.5v-73z" />
    <glyph glyph-name="Umacron" unicode="&#x16a;" horiz-adv-x="970" 
d="M886 329q0 -93 -31 -159.5t-86 -109.5t-130 -63t-163 -20q-87 0 -159.5 20.5t-124 63t-80 108.5t-28.5 158v389h137v-368q0 -71 18.5 -119t52 -77.5t81 -42t105.5 -12.5q60 0 111 12t87.5 40.5t57.5 77t21 120.5v369h131v-387zM660 825h-352v84h352v-84z" />
    <glyph glyph-name="umacron" unicode="&#x16b;" horiz-adv-x="864" 
d="M774 0h-124v69q-45 -36 -103.5 -59t-136.5 -23q-61 0 -120.5 13.5t-107 51t-77 105t-29.5 175.5v246h133v-243q0 -75 17 -122.5t45.5 -74.5t65.5 -37.5t78 -10.5q69 0 125.5 23t101.5 58v407h132v-578zM607 687h-352v84h352v-84z" />
    <glyph glyph-name="Ubreve" unicode="&#x16c;" horiz-adv-x="970" 
d="M886 329q0 -93 -31 -159.5t-86 -109.5t-130 -63t-163 -20q-87 0 -159.5 20.5t-124 63t-80 108.5t-28.5 158v389h137v-368q0 -71 18.5 -119t52 -77.5t81 -42t105.5 -12.5q60 0 111 12t87.5 40.5t57.5 77t21 120.5v369h131v-387zM645 976q-5 -36 -16.5 -68.5t-31.5 -56.5
t-48.5 -38.5t-66.5 -14.5q-39 0 -67 14.5t-47 38.5t-29.5 56.5t-13.5 68.5h60q2 -23 9 -44t19 -36.5t29 -24.5t40 -9q46 0 71 31.5t30 82.5h62z" />
    <glyph glyph-name="ubreve" unicode="&#x16d;" horiz-adv-x="864" 
d="M774 0h-124v69q-45 -36 -103.5 -59t-136.5 -23q-61 0 -120.5 13.5t-107 51t-77 105t-29.5 175.5v246h133v-243q0 -75 17 -122.5t45.5 -74.5t65.5 -37.5t78 -10.5q69 0 125.5 23t101.5 58v407h132v-578zM592 838q-5 -36 -16.5 -68.5t-31.5 -56.5t-48.5 -38.5t-66.5 -14.5
q-39 0 -67 14.5t-47 38.5t-29.5 56.5t-13.5 68.5h60q2 -23 9 -44t19 -36.5t29 -24.5t40 -9q46 0 71 31.5t30 82.5h62z" />
    <glyph glyph-name="Uring" unicode="&#x16e;" horiz-adv-x="970" 
d="M886 329q0 -93 -31 -159.5t-86 -109.5t-130 -63t-163 -20q-87 0 -159.5 20.5t-124 63t-80 108.5t-28.5 158v389h137v-368q0 -71 18.5 -119t52 -77.5t81 -42t105.5 -12.5q60 0 111 12t87.5 40.5t57.5 77t21 120.5v369h131v-387zM598 875q0 -103 -115 -103q-113 0 -113 103
q0 101 113 101q115 0 115 -101zM548 875q0 54 -65 54q-63 0 -63 -54q0 -57 63 -57q65 0 65 57z" />
    <glyph glyph-name="uring" unicode="&#x16f;" horiz-adv-x="864" 
d="M774 0h-124v69q-45 -36 -103.5 -59t-136.5 -23q-61 0 -120.5 13.5t-107 51t-77 105t-29.5 175.5v246h133v-243q0 -75 17 -122.5t45.5 -74.5t65.5 -37.5t78 -10.5q69 0 125.5 23t101.5 58v407h132v-578zM545 737q0 -103 -115 -103q-113 0 -113 103q0 101 113 101
q115 0 115 -101zM495 737q0 54 -65 54q-63 0 -63 -54q0 -57 63 -57q65 0 65 57z" />
    <glyph glyph-name="Uhungarumlaut" unicode="&#x170;" horiz-adv-x="970" 
d="M886 329q0 -93 -31 -159.5t-86 -109.5t-130 -63t-163 -20q-87 0 -159.5 20.5t-124 63t-80 108.5t-28.5 158v389h137v-368q0 -71 18.5 -119t52 -77.5t81 -42t105.5 -12.5q60 0 111 12t87.5 40.5t57.5 77t21 120.5v369h131v-387zM388 815h-75l187 221h93zM621 815h-76
l187 221h93z" />
    <glyph glyph-name="uhungarumlaut" unicode="&#x171;" horiz-adv-x="864" 
d="M774 0h-124v69q-45 -36 -103.5 -59t-136.5 -23q-61 0 -120.5 13.5t-107 51t-77 105t-29.5 175.5v246h133v-243q0 -75 17 -122.5t45.5 -74.5t65.5 -37.5t78 -10.5q69 0 125.5 23t101.5 58v407h132v-578zM335 677h-75l187 221h93zM568 677h-76l187 221h93z" />
    <glyph glyph-name="Uogonek" unicode="&#x172;" horiz-adv-x="970" 
d="M750 -209q-24 -8 -63 -14t-110 -6q-32 0 -56.5 7t-40.5 17.5t-24 24t-8 27.5q0 35 27.5 71t75.5 64q-18 -2 -36.5 -3.5t-38.5 -1.5q-87 0 -159.5 20.5t-124 63t-80 108.5t-28.5 158v389h137v-368q0 -71 18.5 -119t52 -77.5t81 -42t105.5 -12.5q60 0 111 12t87.5 40.5
t57.5 77t21 120.5v369h131v-387q0 -69 -17.5 -123.5t-49 -95t-75.5 -68t-98 -42.5q-51 -28 -80 -55.5t-29 -50.5q0 -21 20.5 -34t52.5 -13q54 0 88 5.5t60 11.5z" />
    <glyph glyph-name="uogonek" unicode="&#x173;" horiz-adv-x="864" 
d="M877 -209q-24 -8 -63.5 -14t-109.5 -6q-32 0 -56.5 7.5t-41 18.5t-24.5 24.5t-8 25.5q0 43 39 84t102 69h-65v69q-45 -36 -103.5 -59t-136.5 -23q-61 0 -120.5 13.5t-107 51t-77 105t-29.5 175.5v246h133v-243q0 -75 17 -122.5t45.5 -74.5t65.5 -37.5t78 -10.5
q69 0 125.5 23t101.5 58v407h132v-578q-51 -27 -80.5 -55t-29.5 -51q0 -21 20.5 -34t52.5 -13q54 0 88 5.5t60 11.5z" />
    <glyph glyph-name="Wcircumflex" unicode="&#x174;" horiz-adv-x="1305" 
d="M1016 0h-158l-208 519l-204 -519h-154l-273 716h151l204 -548l214 548h127l218 -548l206 548h151zM843 774h-86l-107 142l-110 -142h-81l161 202h65z" />
    <glyph glyph-name="wcircumflex" unicode="&#x175;" horiz-adv-x="1210" 
d="M925 0h-116l-206 444l-205 -444h-119l-260 578h131l196 -444l205 444h119l200 -444l197 444h126zM795 636h-86l-107 142l-110 -142h-81l161 202h65z" />
    <glyph glyph-name="Ycircumflex" unicode="&#x176;" horiz-adv-x="871" 
d="M508 236v-235h-136v235l-353 480h162l263 -362l256 362h156zM626 774h-86l-107 142l-110 -142h-81l161 202h65z" />
    <glyph glyph-name="ycircumflex" unicode="&#x177;" horiz-adv-x="779" 
d="M450 -9q-21 -40 -49.5 -67.5t-62 -45t-71 -25t-77.5 -7.5q-59 0 -96.5 4t-68.5 12l25 106q29 -8 65 -15t78 -7q51 0 86 16.5t50 58.5l-310 557h140l242 -449l230 449h131zM580 636h-86l-107 142l-110 -142h-81l161 202h65z" />
    <glyph glyph-name="Ydieresis" unicode="&#x178;" horiz-adv-x="871" 
d="M508 236v-235h-136v235l-353 480h162l263 -362l256 362h156zM639 880q0 -25 -21 -42t-51 -17q-29 0 -50 17t-21 42q0 24 21 41t50 17q30 0 51 -17t21 -41zM373 880q0 -25 -21 -42t-50 -17q-30 0 -50.5 17t-20.5 42q0 24 20.5 41t50.5 17q29 0 50 -17t21 -41z" />
    <glyph glyph-name="Zacute" unicode="&#x179;" horiz-adv-x="912" 
d="M875 623l-617 -500h622v-123h-849v104l622 498h-609v114h831v-93zM638 887l-289 -104l-17 56l277 123z" />
    <glyph glyph-name="zacute" unicode="&#x17a;" horiz-adv-x="779" 
d="M725 479l-486 -373h488v-106h-683v104l483 371h-476v103h674v-99zM572 749l-289 -104l-17 56l277 123z" />
    <glyph glyph-name="Zdotaccent" unicode="&#x17b;" horiz-adv-x="912" 
d="M875 623l-617 -500h622v-123h-849v104l622 498h-609v114h831v-93zM526 880q0 -25 -21 -42t-51 -17q-29 0 -50 17t-21 42q0 24 21 41t50 17q30 0 51 -17t21 -41z" />
    <glyph glyph-name="zdotaccent" unicode="&#x17c;" horiz-adv-x="779" 
d="M725 479l-486 -373h488v-106h-683v104l483 371h-476v103h674v-99zM460 742q0 -25 -21 -42t-51 -17q-29 0 -50 17t-21 42q0 24 21 41t50 17q30 0 51 -17t21 -41z" />
    <glyph glyph-name="Zcaron" unicode="&#x17d;" horiz-adv-x="912" 
d="M875 623l-617 -500h622v-123h-849v104l622 498h-609v114h831v-93zM264 976h85l108 -142l110 142h81l-162 -202h-64z" />
    <glyph glyph-name="zcaron" unicode="&#x17e;" horiz-adv-x="779" 
d="M725 479l-486 -373h488v-106h-683v104l483 371h-476v103h674v-99zM197 838h85l108 -142l110 142h81l-162 -202h-64z" />
    <glyph glyph-name="longs" unicode="&#x17f;" horiz-adv-x="385" 
d="M360 647h-59q-30 0 -47 -14t-17 -44v-589h-132v578q0 47 11.5 78t34.5 49.5t57 26t79 7.5h73v-92z" />
    <glyph glyph-name="Aringacute" unicode="&#x1fa;" horiz-adv-x="941" 
d="M925 0h-153l-85 163h-442l-83 -163h-143l365 716h168zM296 272h342l-171 328zM583 875q0 -103 -115 -103q-113 0 -113 103q0 101 113 101q115 0 115 -101zM533 875q0 54 -65 54q-63 0 -63 -54q0 -57 63 -57q65 0 65 57zM878.229 922.412l-222.307 -76.4258
l-13.0771 41.1523l213.076 90.3887z" />
    <glyph glyph-name="aringacute" unicode="&#x1fb;" horiz-adv-x="898" 
d="M783 136q0 -16 10.5 -29.5t31.5 -13.5q18 0 40 13v-91q-15 -14 -37 -21t-43 -7q-42 0 -71 20t-43 50q-20 -12 -53.5 -24.5t-75.5 -22.5t-91 -16.5t-101 -6.5q-145 0 -215 51.5t-70 151.5q0 60 29.5 98.5t77 60t107.5 30t121 8.5q39 0 79 -5.5t75 -13.5t63.5 -17.5
t44.5 -17.5q0 33 -14 61.5t-45.5 49.5t-83.5 33t-128 12q-36 0 -74 -3.5t-74 -10.5t-67.5 -16t-53.5 -21l-36 89q25 16 60 28t76 20t86.5 12t92.5 4q196 0 289 -67t93 -205v-183zM659 245q-10 10 -36.5 19t-62 16t-76 11t-78.5 4q-218 0 -218 -106q0 -58 47.5 -83t137.5 -25
q38 0 82.5 5.5t85 13t72.5 16.5t46 16v113zM529 737q0 -103 -115 -103q-113 0 -113 103q0 101 113 101q115 0 115 -101zM479 737q0 54 -65 54q-63 0 -63 -54q0 -57 63 -57q65 0 65 57zM816.229 786.412l-222.307 -76.4258l-13.0771 41.1523l213.076 90.3887z" />
    <glyph glyph-name="AEacute" unicode="&#x1fc;" horiz-adv-x="1468" 
d="M1435 602h-593v-177h522v-114h-522v-187h607v-124h-740v175h-378l-98 -175h-173l431 716h944v-114zM578 615l-183 -325h314v325h-131zM931 887l-289 -104l-17 56l277 123z" />
    <glyph glyph-name="aeacute" unicode="&#x1fd;" horiz-adv-x="1445" 
d="M1379 256h-603q6 -44 28 -78t56 -57t77.5 -34.5t92.5 -11.5q85 0 138.5 29t70.5 71h141q-10 -39 -41.5 -73.5t-78 -60t-105 -40t-122.5 -14.5q-102 0 -178.5 25.5t-124.5 82.5q-59 -46 -153 -77t-227 -31q-145 0 -215 51.5t-70 151.5q0 60 29.5 98.5t77 60t107.5 30
t121 8.5q39 0 79 -5.5t75 -13.5t63.5 -17.5t44.5 -17.5q0 33 -14 61.5t-45.5 49.5t-83.5 33t-128 12q-36 0 -74 -3.5t-74 -10.5t-67.5 -16t-53.5 -21l-36 89q25 16 60 28t76 20t86.5 12t92.5 4q60 0 111.5 -6.5t93.5 -22t72.5 -40.5t47.5 -62q20 33 52 58t71.5 41t86 24
t95.5 8q82 0 147 -28t109.5 -72t68 -99.5t23.5 -109.5v-26zM686 155q-9 14 -16 40.5t-7 49.5q-10 10 -37 19t-63 16t-77 11t-80 4q-218 0 -218 -106q0 -58 48 -82.5t138 -24.5q42 0 90.5 7.5t93 18.5t79 23.5t49.5 23.5zM1244 337q-5 29 -21.5 58t-43.5 51.5t-64.5 36.5
t-84.5 14q-49 0 -91.5 -9t-75.5 -28.5t-55 -49.5t-29 -73h465zM905 749l-289 -104l-17 56l277 123z" />
    <glyph glyph-name="Oslashacute" unicode="&#x1fe;" horiz-adv-x="1054" 
d="M710 887l-289 -104l-17 56l277 123zM849 640q63 -49 100.5 -120t37.5 -162t-36.5 -162t-99.5 -119.5t-146.5 -74t-177.5 -25.5q-75 0 -141 15.5t-123 44.5l-90 -93l-46 43l82 85q-66 49 -104 120.5t-38 165.5q0 91 36.5 161.5t99.5 119.5t146.5 74.5t177.5 25.5
q75 0 143 -16.5t125 -48.5l83 86l45 -43zM706 583q-37 19 -82.5 28.5t-96.5 9.5q-74 0 -133 -18t-101 -52t-64.5 -83t-22.5 -110q0 -63 23 -112.5t68 -83.5zM352 129q76 -35 175 -35q73 0 132.5 18t101.5 52.5t64.5 83t22.5 110.5q0 61 -22.5 109.5t-64.5 82.5z" />
    <glyph glyph-name="oslashacute" unicode="&#x1ff;" horiz-adv-x="902" 
d="M633 749l-289 -104l-17 56l277 123zM718 518q54 -38 85.5 -94.5t31.5 -134.5q0 -75 -30 -132t-81.5 -94.5t-122 -56.5t-151.5 -19q-60 0 -112.5 9.5t-97.5 29.5l-80 -82l-45 43l68 71q-55 38 -86.5 95.5t-31.5 135.5q0 75 30 132t81.5 94.5t122 56.5t151.5 19
q119 0 210 -41l89 90l45 -43zM581 467q-59 24 -132 24q-53 0 -100.5 -12t-83 -37t-56.5 -63t-21 -90q0 -51 19.5 -88t54.5 -62zM320 108q57 -21 129 -21q53 0 100.5 12t83 37t56.5 63t21 90q0 51 -19.5 87t-52.5 60z" />
    <glyph glyph-name="uni0218" unicode="&#x218;" horiz-adv-x="925" 
d="M712 517q-21 61 -77.5 87.5t-158.5 26.5q-135 0 -196 -28t-61 -81q0 -35 17.5 -55t50.5 -29.5t81 -12t110 -2.5q85 0 156.5 -5.5t122.5 -26.5t79.5 -62t28.5 -111q0 -53 -22.5 -97t-70.5 -76t-123.5 -49.5t-181.5 -17.5q-53 0 -93 2t-71 6.5t-54 11.5t-43 16
q-34 16 -59.5 34.5t-43 42.5t-28 54.5t-13.5 69.5h145q4 -33 25 -56.5t56.5 -39.5t83.5 -23.5t105 -7.5q118 0 183.5 32t65.5 95q0 30 -18.5 47.5t-49.5 27.5t-72 13t-86 3q-21 0 -40.5 -0.5t-39.5 -0.5q-48 0 -107 4t-111.5 24.5t-88 64t-35.5 121.5q0 50 21 91t68 69.5
t122.5 44t185.5 15.5q92 0 157 -13.5t109 -41t68.5 -68t35.5 -94.5zM444 -233h-73l52 184h106z" />
    <glyph glyph-name="uni0219" unicode="&#x219;" horiz-adv-x="813" 
d="M615 408q-9 25 -23.5 42.5t-37 28.5t-54.5 16t-76 5q-49 0 -88.5 -4t-67.5 -13.5t-43.5 -25t-15.5 -39.5q0 -26 23.5 -40t61.5 -21.5t87 -10t99.5 -6.5t99.5 -11.5t87 -24t61.5 -44.5t23.5 -73q0 -47 -17 -84t-56.5 -63t-103.5 -39.5t-158 -13.5q-53 0 -92 2.5t-68.5 7.5
t-51.5 12.5t-41 17.5q-20 10 -38 26.5t-32 37t-22.5 44.5t-8.5 50h132q6 -54 65 -77.5t165 -23.5q90 0 144 21t54 67q0 21 -16.5 34.5t-43 21t-60 11t-68 5.5t-66.5 3t-55 4q-35 4 -76.5 10t-77 22t-59.5 46t-24 83q0 94 91 136.5t255 42.5q80 0 137 -11.5t95 -34t59.5 -56
t30.5 -76.5zM396 -233h-73l52 184h106z" />
    <glyph glyph-name="uni021A" unicode="&#x21a;" horiz-adv-x="786" 
d="M770 592h-311v-592h-132v592h-310v124h753v-124zM362 -233h-73l52 184h106z" />
    <glyph glyph-name="uni021B" unicode="&#x21b;" horiz-adv-x="415" 
d="M223 578h143v-92h-143v-296q0 -54 18 -72t52 -18q25 0 47 8.5t31 18.5v-101q-9 -16 -38 -27.5t-68 -11.5q-93 0 -130.5 50t-37.5 149v300h-80v92h80v111l126 42v-153zM194 -233h-73l52 184h106z" />
    <glyph glyph-name="circumflex" unicode="&#x2c6;" horiz-adv-x="457" 
d="M419 636h-86l-107 142l-110 -142h-81l161 202h65z" />
    <glyph glyph-name="caron" unicode="&#x2c7;" horiz-adv-x="450" 
d="M35 838h85l108 -142l110 142h81l-162 -202h-64z" />
    <glyph glyph-name="breve" unicode="&#x2d8;" horiz-adv-x="327" 
d="M325 838q-5 -36 -16.5 -68.5t-31.5 -56.5t-48.5 -38.5t-66.5 -14.5q-39 0 -67 14.5t-47 38.5t-29.5 56.5t-13.5 68.5h60q2 -23 9 -44t19 -36.5t29 -24.5t40 -9q46 0 71 31.5t30 82.5h62z" />
    <glyph glyph-name="dotaccent" unicode="&#x2d9;" horiz-adv-x="182" 
d="M159 742q0 -25 -21 -42t-51 -17q-29 0 -50 17t-21 42q0 24 21 41t50 17q30 0 51 -17t21 -41z" />
    <glyph glyph-name="ring" unicode="&#x2da;" horiz-adv-x="365" 
d="M296 737q0 -103 -115 -103q-113 0 -113 103q0 101 113 101q115 0 115 -101zM246 737q0 54 -65 54q-63 0 -63 -54q0 -57 63 -57q65 0 65 57z" />
    <glyph glyph-name="ogonek" unicode="&#x2db;" horiz-adv-x="347" 
d="M319 -209q-24 -8 -63.5 -14t-109.5 -6q-65 0 -97.5 24.5t-32.5 51.5q0 42 39.5 83.5t101.5 69.5h59q-51 -28 -80.5 -56t-29.5 -51q0 -20 20.5 -33t52.5 -13q54 0 88 5t60 11z" />
    <glyph glyph-name="tilde" unicode="&#x2dc;" horiz-adv-x="562" 
d="M481 707q-49 -37 -104 -37q-30 0 -55.5 8.5t-49.5 19t-47.5 19.5t-50.5 9q-49 0 -99 -40v69q20 16 46.5 25.5t61.5 9.5q31 0 55 -9t46.5 -19.5t46 -19t53.5 -8.5q23 0 48 11.5t49 34.5v-73z" />
    <glyph glyph-name="hungarumlaut" unicode="&#x2dd;" horiz-adv-x="545" 
d="M130 677h-75l187 221h93zM363 677h-76l187 221h93z" />
    <glyph glyph-name="uni0326" unicode="&#x326;" horiz-adv-x="274" 
d="M130 -233h-73l52 184h106z" />
    <glyph glyph-name="Wgrave" unicode="&#x1e80;" horiz-adv-x="1305" 
d="M1016 0h-158l-208 519l-204 -519h-154l-273 716h151l204 -548l214 548h127l218 -548l206 548h151zM757 783l-288 104l30 75l276 -122z" />
    <glyph glyph-name="wgrave" unicode="&#x1e81;" horiz-adv-x="1210" 
d="M925 0h-116l-206 444l-205 -444h-119l-260 578h131l196 -444l205 444h119l200 -444l197 444h126zM709 645l-288 104l30 75l276 -122z" />
    <glyph glyph-name="Wacute" unicode="&#x1e82;" horiz-adv-x="1305" 
d="M1016 0h-158l-208 519l-204 -519h-154l-273 716h151l204 -548l214 548h127l218 -548l206 548h151zM835 887l-289 -104l-17 56l277 123z" />
    <glyph glyph-name="wacute" unicode="&#x1e83;" horiz-adv-x="1210" 
d="M925 0h-116l-206 444l-205 -444h-119l-260 578h131l196 -444l205 444h119l200 -444l197 444h126zM787 749l-289 -104l-17 56l277 123z" />
    <glyph glyph-name="Wdieresis" unicode="&#x1e84;" horiz-adv-x="1305" 
d="M1016 0h-158l-208 519l-204 -519h-154l-273 716h151l204 -548l214 548h127l218 -548l206 548h151zM856 880q0 -25 -21 -42t-51 -17q-29 0 -50 17t-21 42q0 24 21 41t50 17q30 0 51 -17t21 -41zM590 880q0 -25 -21 -42t-50 -17q-30 0 -50.5 17t-20.5 42q0 24 20.5 41
t50.5 17q29 0 50 -17t21 -41z" />
    <glyph glyph-name="wdieresis" unicode="&#x1e85;" horiz-adv-x="1210" 
d="M925 0h-116l-206 444l-205 -444h-119l-260 578h131l196 -444l205 444h119l200 -444l197 444h126zM808 742q0 -25 -21 -42t-51 -17q-29 0 -50 17t-21 42q0 24 21 41t50 17q30 0 51 -17t21 -41zM542 742q0 -25 -21 -42t-50 -17q-30 0 -50.5 17t-20.5 42q0 24 20.5 41
t50.5 17q29 0 50 -17t21 -41z" />
    <glyph glyph-name="Ygrave" unicode="&#x1ef2;" horiz-adv-x="871" 
d="M508 236v-235h-136v235l-353 480h162l263 -362l256 362h156zM540 783l-288 104l30 75l276 -122z" />
    <glyph glyph-name="ygrave" unicode="&#x1ef3;" horiz-adv-x="779" 
d="M450 -9q-21 -40 -49.5 -67.5t-62 -45t-71 -25t-77.5 -7.5q-59 0 -96.5 4t-68.5 12l25 106q29 -8 65 -15t78 -7q51 0 86 16.5t50 58.5l-310 557h140l242 -449l230 449h131zM494 645l-288 104l30 75l276 -122z" />
    <glyph glyph-name="endash" unicode="&#x2013;" horiz-adv-x="607" 
d="M579 255h-553v85h553v-85z" />
    <glyph glyph-name="emdash" unicode="&#x2014;" horiz-adv-x="865" 
d="M838 254h-812v86h812v-86z" />
    <glyph glyph-name="quoteleft" unicode="&#x2018;" horiz-adv-x="211" 
d="M181 476h-64l-92 263h101z" />
    <glyph glyph-name="quoteright" unicode="&#x2019;" horiz-adv-x="211" 
d="M89 476h-64l55 263h101z" />
    <glyph glyph-name="quotesinglbase" unicode="&#x201a;" horiz-adv-x="211" 
d="M89 -142h-64l55 263h101z" />
    <glyph glyph-name="quotedblleft" unicode="&#x201c;" horiz-adv-x="392" 
d="M361 476h-63l-92 263h100zM181 476h-64l-92 263h101z" />
    <glyph glyph-name="quotedblright" unicode="&#x201d;" horiz-adv-x="392" 
d="M270 476h-64l55 263h100zM89 476h-64l55 263h101z" />
    <glyph glyph-name="quotedblbase" unicode="&#x201e;" horiz-adv-x="392" 
d="M270 -142h-64l55 263h100zM89 -142h-64l55 263h101z" />
    <glyph glyph-name="dagger" unicode="&#x2020;" horiz-adv-x="325" 
d="M202 596h116v-67h-116l-13 -529h-55l-13 529h-114v67h114v153h81v-153z" />
    <glyph glyph-name="daggerdbl" unicode="&#x2021;" horiz-adv-x="331" 
d="M206 596h116v-67h-116l-13 -150l13 -159h116v-67h-116v-153h-81v153h-114v67h114l12 149l-12 160h-114v67h114v153h81v-153z" />
    <glyph glyph-name="bullet" unicode="&#x2022;" horiz-adv-x="378" 
d="M316 365q0 -24 -10 -46t-27.5 -38t-40.5 -25.5t-50 -9.5q-26 0 -49.5 9.5t-41 25.5t-27.5 38t-10 46t10 45.5t27.5 37.5t41 25.5t49.5 9.5q27 0 50 -9.5t40.5 -25.5t27.5 -37.5t10 -45.5z" />
    <glyph glyph-name="ellipsis" unicode="&#x2026;" horiz-adv-x="1057" 
d="M249 54q0 -28 -23.5 -47t-57.5 -19t-57 19t-23 47t23 47t57 19t57.5 -19t23.5 -47zM603 54q0 -28 -23.5 -47t-56.5 -19q-34 0 -57 19t-23 47t23 47t57 19q33 0 56.5 -19t23.5 -47zM958 54q0 -28 -23.5 -47t-57.5 -19q-33 0 -56.5 19t-23.5 47t23.5 47t56.5 19
q34 0 57.5 -19t23.5 -47z" />
    <glyph glyph-name="perthousand" unicode="&#x2030;" horiz-adv-x="981" 
d="M816 364q66 0 97 -44t31 -138q0 -100 -31 -146t-97 -46q-69 0 -99.5 46t-30.5 146q0 94 30.5 138t99.5 44zM816 294q-35 0 -50.5 -26.5t-15.5 -83.5q0 -66 15.5 -95t50.5 -29q32 0 48.5 29t16.5 95q0 110 -65 110zM252 0h-69l292 689h69zM198 697q69 0 99.5 -44
t30.5 -138q0 -100 -30.5 -146.5t-99.5 -46.5q-66 0 -97.5 46.5t-31.5 146.5q0 94 31.5 138t97.5 44zM198 627q-64 0 -64 -110q0 -66 15.5 -95t48.5 -29q32 0 49.5 29t17.5 95q0 110 -67 110zM534 364q66 0 97.5 -44t31.5 -138q0 -100 -31.5 -146t-97.5 -46t-97.5 46
t-31.5 146q0 94 31.5 138t97.5 44zM534 294q-65 0 -65 -110q0 -66 15.5 -95t49.5 -29q32 0 49 29t17 95q0 110 -66 110z" />
    <glyph glyph-name="guilsinglleft" unicode="&#x2039;" horiz-adv-x="253" 
d="M103 313l86 -144h-88l-82 144l82 144h88z" />
    <glyph glyph-name="guilsinglright" unicode="&#x203a;" horiz-adv-x="254" 
d="M232 313l-82 -144h-88l86 144l-86 144h88z" />
    <glyph glyph-name="fraction" unicode="&#x2044;" horiz-adv-x="225" 
d="M-51 -29h-56l371 768h57z" />
    <glyph glyph-name="uni2070" unicode="&#x2070;" horiz-adv-x="666" 
d="M590 514q0 -47 -18.5 -89t-52 -73t-80.5 -49t-104 -18t-104 18t-80.5 49t-52 73t-18.5 89t18.5 88.5t52 72.5t80.5 49t104 18t104 -18t80.5 -49t52 -72.5t18.5 -88.5zM508 515q0 34 -12.5 63.5t-35.5 52t-55 35.5t-72 13q-39 0 -71 -13t-54.5 -35.5t-35 -52t-12.5 -63.5
t12.5 -64t35 -52.5t54.5 -35.5t71 -13q40 0 72 13t55 35.5t35.5 52.5t12.5 64z" />
    <glyph glyph-name="uni2074" unicode="&#x2074;" horiz-adv-x="647" 
d="M492 442h79v-69h-79v-74h-75v74h-337v77l311 280h101v-288zM165 442h252v226z" />
    <glyph glyph-name="uni2075" unicode="&#x2075;" horiz-adv-x="663" 
d="M574 660h-370l-18 -112q26 15 74.5 25.5t105.5 10.5q34 0 72.5 -4.5t71.5 -20t55 -45t22 -78.5q0 -44 -22.5 -73t-57 -46.5t-77.5 -24.5t-83 -7q-35 0 -76 4t-79 11.5t-68.5 18t-43.5 22.5l33 65q10 -9 38 -19t62.5 -17.5t69.5 -12.5t60 -5t53.5 3.5t53.5 12.5t41.5 25.5
t16.5 42.5q0 24 -13 40.5t-34.5 26.5t-49 14t-55.5 4q-54 0 -99 -10t-80 -27l-73 3l42 243h428v-70z" />
    <glyph glyph-name="uni2076" unicode="&#x2076;" horiz-adv-x="661" 
d="M550 640q-23 19 -65 30t-96 11q-106 0 -168 -50t-62 -143q16 25 40.5 42t53.5 27.5t60 15t61 4.5q38 0 76 -7t68 -23.5t48.5 -44t18.5 -69.5q0 -41 -21.5 -69t-56 -45.5t-76.5 -25.5t-84 -8q-45 0 -92.5 10.5t-86.5 35.5t-63.5 66t-24.5 101q0 67 25 113.5t67 75.5t96 42
t113 13q82 0 127 -11.5t68 -28.5zM506 435q0 22 -14 37.5t-35 24.5t-46.5 13t-48.5 4q-29 0 -57 -5t-51.5 -14.5t-40.5 -25t-23 -36.5q3 -21 17 -36.5t35.5 -25t49 -14t58.5 -4.5t59 4.5t49.5 14.5t34.5 25.5t13 37.5z" />
    <glyph glyph-name="uni2077" unicode="&#x2077;" horiz-adv-x="632" 
d="M556 677l-310 -378h-100l302 361h-368v70h476v-53z" />
    <glyph glyph-name="uni2078" unicode="&#x2078;" horiz-adv-x="673" 
d="M520 523q32 -8 54.5 -35.5t22.5 -62.5q0 -45 -27 -72.5t-66.5 -42.5t-84.5 -19.5t-81 -4.5t-81 4.5t-84.5 19.5t-66 42.5t-26.5 72.5q0 35 22 62.5t55 35.5q-30 10 -47 33.5t-17 53.5q0 46 26 72.5t63.5 40t80 16.5t75.5 3t75.5 -3t80.5 -16.5t64 -40t26 -72.5
q0 -30 -17 -53.5t-47 -33.5zM518 428q0 22 -13.5 35t-37.5 20t-57 9t-72 2t-72 -2t-56.5 -9t-37 -20t-13.5 -35q0 -23 15 -37.5t40 -23t57 -12t67 -3.5t67.5 3.5t57.5 12t40 23t15 37.5zM511 611q0 21 -15 35.5t-39.5 22.5t-55.5 11.5t-63 3.5t-62.5 -3.5t-55 -11.5
t-39.5 -22.5t-15 -35.5q0 -19 13 -30.5t35.5 -18t54 -9t69.5 -2.5q37 0 69 2.5t55 9t36 18t13 30.5z" />
    <glyph glyph-name="uni2079" unicode="&#x2079;" horiz-adv-x="662" 
d="M116 387q23 -15 63.5 -25t97.5 -10q52 0 94 11t72 32t46.5 52t16.5 72v9q-15 -23 -39 -39t-53 -26t-60.5 -14.5t-61.5 -4.5q-38 0 -76 7.5t-68 25.5t-49 47t-19 71t22 70t56.5 45t77 24.5t83.5 7.5q45 0 92.5 -10.5t86.5 -35.5t63.5 -65.5t24.5 -101.5
q0 -67 -25.5 -113.5t-67.5 -75.5t-96.5 -42t-112.5 -13q-82 0 -126 12t-68 28zM477 586q-2 24 -15.5 42t-35.5 29.5t-50.5 17t-60.5 5.5q-31 0 -59 -5t-49.5 -16t-34 -27.5t-12.5 -38.5q0 -23 14 -38.5t35 -25.5t46.5 -14.5t48.5 -4.5q29 0 58 4.5t52.5 14t40.5 23.5t22 34z
" />
    <glyph glyph-name="uni2080" unicode="&#x2080;" horiz-adv-x="666" 
d="M590 155q0 -47 -18.5 -89t-52 -73t-80.5 -49t-104 -18t-104 18t-80.5 49t-52 73t-18.5 89t18.5 88.5t52 72.5t80.5 49t104 18t104 -18t80.5 -49t52 -72.5t18.5 -88.5zM508 156q0 34 -12.5 63.5t-35.5 52t-55 35.5t-72 13q-39 0 -71 -13t-54.5 -35.5t-35 -52t-12.5 -63.5
t12.5 -64t35 -52.5t54.5 -35.5t71 -13q40 0 72 13t55 35.5t35.5 52.5t12.5 64z" />
    <glyph glyph-name="uni2081" unicode="&#x2081;" horiz-adv-x="343" 
d="M267 -59h-81v367l-106 -19v59l187 31v-438z" />
    <glyph glyph-name="uni2082" unicode="&#x2082;" horiz-adv-x="657" 
d="M570 -60h-490v77q35 50 80 80t91 48t90.5 28t79.5 19t56 22t21 38q0 28 -34.5 46.5t-83.5 18.5q-85 0 -150 -20.5t-107 -46.5l-34 68q40 24 113 44.5t191 20.5q37 0 71 -9.5t60 -26.5t41.5 -41.5t15.5 -55.5q0 -36 -16.5 -59t-42 -37.5t-56.5 -22t-60 -13.5
q-32 -7 -64.5 -17.5t-61.5 -23.5t-53.5 -29t-40.5 -35h384v-73z" />
    <glyph glyph-name="uni2083" unicode="&#x2083;" horiz-adv-x="667" 
d="M219 128v64h168q57 0 83 16.5t26 42.5q0 33 -38.5 49.5t-108.5 16.5q-35 0 -68.5 -5t-62 -12.5t-51.5 -16t-37 -16.5l-29 70q13 7 39 15t60 15t73 11.5t79 4.5q43 0 83 -7.5t70.5 -22.5t48.5 -38.5t18 -54.5q0 -38 -24 -63.5t-53 -33.5q23 -3 41 -12t30 -22.5t18.5 -29.5
t6.5 -32q0 -75 -63 -108t-195 -33q-42 0 -81.5 6t-73 15t-59 19.5t-39.5 19.5l33 68q12 -9 38.5 -19.5t59 -19.5t67.5 -15t64 -6q74 0 118.5 17t44.5 58q0 27 -29 43t-89 16h-168z" />
    <glyph glyph-name="uni2084" unicode="&#x2084;" horiz-adv-x="647" 
d="M492 83h79v-69h-79v-74h-75v74h-337v77l311 280h101v-288zM165 83h252v226z" />
    <glyph glyph-name="uni2085" unicode="&#x2085;" horiz-adv-x="663" 
d="M574 301h-370l-18 -112q26 15 74.5 25.5t105.5 10.5q34 0 72.5 -4.5t71.5 -20t55 -45t22 -78.5q0 -44 -22.5 -73t-57 -46.5t-77.5 -24.5t-83 -7q-35 0 -76 4t-79 11.5t-68.5 18t-43.5 22.5l33 65q10 -9 38 -19t62.5 -17.5t69.5 -12.5t60 -5t53.5 3.5t53.5 12.5t41.5 25.5
t16.5 42.5q0 24 -13 40.5t-34.5 26.5t-49 14t-55.5 4q-54 0 -99 -10t-80 -27l-73 3l42 243h428v-70z" />
    <glyph glyph-name="uni2086" unicode="&#x2086;" horiz-adv-x="661" 
d="M550 281q-23 19 -65 30t-96 11q-106 0 -168 -50t-62 -143q16 25 40.5 42t53.5 27.5t60 15t61 4.5q38 0 76 -7t68 -23.5t48.5 -44t18.5 -69.5q0 -41 -21.5 -69t-56 -45.5t-76.5 -25.5t-84 -8q-45 0 -92.5 10.5t-86.5 35.5t-63.5 66t-24.5 101q0 67 25 113.5t67 75.5t96 42
t113 13q82 0 127 -11.5t68 -28.5zM506 76q0 22 -14 37.5t-35 24.5t-46.5 13t-48.5 4q-29 0 -57 -5t-51.5 -14.5t-40.5 -25t-23 -36.5q3 -21 17 -36.5t35.5 -25t49 -14t58.5 -4.5t59 4.5t49.5 14.5t34.5 25.5t13 37.5z" />
    <glyph glyph-name="uni2087" unicode="&#x2087;" horiz-adv-x="632" 
d="M556 318l-310 -378h-100l302 361h-368v70h476v-53z" />
    <glyph glyph-name="uni2088" unicode="&#x2088;" horiz-adv-x="673" 
d="M520 164q32 -8 54.5 -35.5t22.5 -62.5q0 -45 -27 -72.5t-66.5 -42.5t-84.5 -19.5t-81 -4.5t-81 4.5t-84.5 19.5t-66 42.5t-26.5 72.5q0 35 22 62.5t55 35.5q-30 10 -47 33.5t-17 53.5q0 46 26 72.5t63.5 40t80 16.5t75.5 3t75.5 -3t80.5 -16.5t64 -40t26 -72.5
q0 -30 -17 -53.5t-47 -33.5zM518 69q0 22 -13.5 35t-37.5 20t-57 9t-72 2t-72 -2t-56.5 -9t-37 -20t-13.5 -35q0 -23 15 -37.5t40 -23t57 -12t67 -3.5t67.5 3.5t57.5 12t40 23t15 37.5zM511 252q0 21 -15 35.5t-39.5 22.5t-55.5 11.5t-63 3.5t-62.5 -3.5t-55 -11.5
t-39.5 -22.5t-15 -35.5q0 -19 13 -30.5t35.5 -18t54 -9t69.5 -2.5q37 0 69 2.5t55 9t36 18t13 30.5z" />
    <glyph glyph-name="uni2089" unicode="&#x2089;" horiz-adv-x="662" 
d="M116 28q23 -15 63.5 -25t97.5 -10q52 0 94 11t72 32t46.5 52t16.5 72v9q-15 -23 -39 -39t-53 -26t-60.5 -14.5t-61.5 -4.5q-38 0 -76 7.5t-68 25.5t-49 47t-19 71t22 70t56.5 45t77 24.5t83.5 7.5q45 0 92.5 -10.5t86.5 -35.5t63.5 -65.5t24.5 -101.5q0 -67 -25.5 -113.5
t-67.5 -75.5t-96.5 -42t-112.5 -13q-82 0 -126 12t-68 28zM477 227q-2 24 -15.5 42t-35.5 29.5t-50.5 17t-60.5 5.5q-31 0 -59 -5t-49.5 -16t-34 -27.5t-12.5 -38.5q0 -23 14 -38.5t35 -25.5t46.5 -14.5t48.5 -4.5q29 0 58 4.5t52.5 14t40.5 23.5t22 34z" />
    <glyph glyph-name="Euro" unicode="&#x20ac;" horiz-adv-x="881" 
d="M738 609q-37 9 -82.5 12.5t-102.5 3.5q-129 0 -215.5 -40.5t-116.5 -134.5h446l-49 -58h-418q0 -7 -0.5 -14t-0.5 -15q0 -16 1.5 -30.5t2.5 -26.5h356l-47 -58h-283q14 -36 39 -66.5t59.5 -53t78.5 -35t96 -12.5q39 0 71.5 2.5t60.5 7.5t54 13t52 19l82 -72
q-43 -17 -81 -29t-77 -19.5t-81 -11t-93 -3.5q-73 0 -134 19.5t-108.5 54.5t-79.5 82.5t-48 104.5h-77l13 57h51q-3 18 -3 41v23t1 22h-62l13 58h60q34 139 150.5 203.5t307.5 64.5q55 0 111.5 -6t116.5 -20z" />
    <glyph glyph-name="trademark" unicode="&#x2122;" horiz-adv-x="680" 
d="M278 694h-80v-270h-55v270h-80v54h215v-54zM612 424h-48v220l-74 -220h-56l-74 219v-219h-48v324h67l83 -250l84 250h66v-324z" />
    <glyph glyph-name="onethird" unicode="&#x2153;" horiz-adv-x="1072" 
d="M245 -29h-56l371 768h57zM267 300h-81v367l-106 -19v59l187 31v-438zM624 128v64h168q57 0 83 16.5t26 42.5q0 33 -38.5 49.5t-108.5 16.5q-35 0 -68.5 -5t-62 -12.5t-51.5 -16t-37 -16.5l-29 70q13 7 39 15t60 15t73 11.5t79 4.5q43 0 83 -7.5t70.5 -22.5t48.5 -38.5
t18 -54.5q0 -38 -24 -63.5t-53 -33.5q23 -3 41 -12t30 -22.5t18.5 -29.5t6.5 -32q0 -75 -63 -108t-195 -33q-42 0 -81.5 6t-73 15t-59 19.5t-39.5 19.5l33 68q12 -9 38.5 -19.5t59 -19.5t67.5 -15t64 -6q74 0 118.5 17t44.5 58q0 27 -29 43t-89 16h-168z" />
    <glyph glyph-name="twothirds" unicode="&#x2154;" horiz-adv-x="1361" 
d="M538 -29h-56l371 768h57zM570 299h-490v77q35 50 80 80t91 48t90.5 28t79.5 19t56 22t21 38q0 28 -34.5 46.5t-83.5 18.5q-85 0 -150 -20.5t-107 -46.5l-34 68q40 24 113 44.5t191 20.5q37 0 71 -9.5t60 -26.5t41.5 -41.5t15.5 -55.5q0 -36 -16.5 -59t-42 -37.5
t-56.5 -22t-60 -13.5q-32 -7 -64.5 -17.5t-61.5 -23.5t-53.5 -29t-40.5 -35h384v-73zM913 128v64h168q57 0 83 16.5t26 42.5q0 33 -38.5 49.5t-108.5 16.5q-35 0 -68.5 -5t-62 -12.5t-51.5 -16t-37 -16.5l-29 70q13 7 39 15t60 15t73 11.5t79 4.5q43 0 83 -7.5t70.5 -22.5
t48.5 -38.5t18 -54.5q0 -38 -24 -63.5t-53 -33.5q23 -3 41 -12t30 -22.5t18.5 -29.5t6.5 -32q0 -75 -63 -108t-195 -33q-42 0 -81.5 6t-73 15t-59 19.5t-39.5 19.5l33 68q12 -9 38.5 -19.5t59 -19.5t67.5 -15t64 -6q74 0 118.5 17t44.5 58q0 27 -29 43t-89 16h-168z" />
    <glyph glyph-name="oneeighth" unicode="&#x215b;" horiz-adv-x="1069" 
d="M252 -29h-56l371 768h57zM267 300h-81v367l-106 -19v59l187 31v-438zM917 164q32 -8 54.5 -35.5t22.5 -62.5q0 -45 -27 -72.5t-66.5 -42.5t-84.5 -19.5t-81 -4.5t-81 4.5t-84.5 19.5t-66 42.5t-26.5 72.5q0 35 22 62.5t55 35.5q-30 10 -47 33.5t-17 53.5q0 46 26 72.5
t63.5 40t80 16.5t75.5 3t75.5 -3t80.5 -16.5t64 -40t26 -72.5q0 -30 -17 -53.5t-47 -33.5zM915 69q0 22 -13.5 35t-37.5 20t-57 9t-72 2t-72 -2t-56.5 -9t-37 -20t-13.5 -35q0 -23 15 -37.5t40 -23t57 -12t67 -3.5t67.5 3.5t57.5 12t40 23t15 37.5zM908 252q0 21 -15 35.5
t-39.5 22.5t-55.5 11.5t-63 3.5t-62.5 -3.5t-55 -11.5t-39.5 -22.5t-15 -35.5q0 -19 13 -30.5t35.5 -18t54 -9t69.5 -2.5q37 0 69 2.5t55 9t36 18t13 30.5z" />
    <glyph glyph-name="threeeighths" unicode="&#x215c;" horiz-adv-x="1344" 
d="M531 -29h-56l371 768h57zM1191 164q32 -8 54.5 -35.5t22.5 -62.5q0 -45 -27 -72.5t-66.5 -42.5t-84.5 -19.5t-81 -4.5t-81 4.5t-84.5 19.5t-66 42.5t-26.5 72.5q0 35 22 62.5t55 35.5q-30 10 -47 33.5t-17 53.5q0 46 26 72.5t63.5 40t80 16.5t75.5 3t75.5 -3t80.5 -16.5
t64 -40t26 -72.5q0 -30 -17 -53.5t-47 -33.5zM1189 69q0 22 -13.5 35t-37.5 20t-57 9t-72 2t-72 -2t-56.5 -9t-37 -20t-13.5 -35q0 -23 15 -37.5t40 -23t57 -12t67 -3.5t67.5 3.5t57.5 12t40 23t15 37.5zM1182 252q0 21 -15 35.5t-39.5 22.5t-55.5 11.5t-63 3.5t-62.5 -3.5
t-55 -11.5t-39.5 -22.5t-15 -35.5q0 -19 13 -30.5t35.5 -18t54 -9t69.5 -2.5q37 0 69 2.5t55 9t36 18t13 30.5zM219 487v64h168q57 0 83 16.5t26 42.5q0 33 -38.5 49.5t-108.5 16.5q-35 0 -68.5 -5t-62 -12.5t-51.5 -16t-37 -16.5l-29 70q13 7 39 15t60 15t73 11.5t79 4.5
q43 0 83 -7.5t70.5 -22.5t48.5 -38.5t18 -54.5q0 -38 -24 -63.5t-53 -33.5q23 -3 41 -12t30 -22.5t18.5 -29.5t6.5 -32q0 -75 -63 -108t-195 -33q-42 0 -81.5 6t-73 15t-59 19.5t-39.5 19.5l33 68q12 -9 38.5 -19.5t59 -19.5t67.5 -15t64 -6q74 0 118.5 17t44.5 58
q0 27 -29 43t-89 16h-168z" />
    <glyph glyph-name="fiveeighths" unicode="&#x215d;" horiz-adv-x="1326" 
d="M510 -29h-56l371 768h57zM574 660h-370l-18 -112q26 15 74.5 25.5t105.5 10.5q34 0 72.5 -4.5t71.5 -20t55 -45t22 -78.5q0 -44 -22.5 -73t-57 -46.5t-77.5 -24.5t-83 -7q-35 0 -76 4t-79 11.5t-68.5 18t-43.5 22.5l33 65q10 -9 38 -19t62.5 -17.5t69.5 -12.5t60 -5
t53.5 3.5t53.5 12.5t41.5 25.5t16.5 42.5q0 24 -13 40.5t-34.5 26.5t-49 14t-55.5 4q-54 0 -99 -10t-80 -27l-73 3l42 243h428v-70zM1174 164q32 -8 54.5 -35.5t22.5 -62.5q0 -45 -27 -72.5t-66.5 -42.5t-84.5 -19.5t-81 -4.5t-81 4.5t-84.5 19.5t-66 42.5t-26.5 72.5
q0 35 22 62.5t55 35.5q-30 10 -47 33.5t-17 53.5q0 46 26 72.5t63.5 40t80 16.5t75.5 3t75.5 -3t80.5 -16.5t64 -40t26 -72.5q0 -30 -17 -53.5t-47 -33.5zM1172 69q0 22 -13.5 35t-37.5 20t-57 9t-72 2t-72 -2t-56.5 -9t-37 -20t-13.5 -35q0 -23 15 -37.5t40 -23t57 -12
t67 -3.5t67.5 3.5t57.5 12t40 23t15 37.5zM1165 252q0 21 -15 35.5t-39.5 22.5t-55.5 11.5t-63 3.5t-62.5 -3.5t-55 -11.5t-39.5 -22.5t-15 -35.5q0 -19 13 -30.5t35.5 -18t54 -9t69.5 -2.5q37 0 69 2.5t55 9t36 18t13 30.5z" />
    <glyph glyph-name="seveneighths" unicode="&#x215e;" horiz-adv-x="1191" 
d="M374 -29h-56l371 768h57zM1038 164q32 -8 54.5 -35.5t22.5 -62.5q0 -45 -27 -72.5t-66.5 -42.5t-84.5 -19.5t-81 -4.5t-81 4.5t-84.5 19.5t-66 42.5t-26.5 72.5q0 35 22 62.5t55 35.5q-30 10 -47 33.5t-17 53.5q0 46 26 72.5t63.5 40t80 16.5t75.5 3t75.5 -3t80.5 -16.5
t64 -40t26 -72.5q0 -30 -17 -53.5t-47 -33.5zM1036 69q0 22 -13.5 35t-37.5 20t-57 9t-72 2t-72 -2t-56.5 -9t-37 -20t-13.5 -35q0 -23 15 -37.5t40 -23t57 -12t67 -3.5t67.5 3.5t57.5 12t40 23t15 37.5zM1029 252q0 21 -15 35.5t-39.5 22.5t-55.5 11.5t-63 3.5t-62.5 -3.5
t-55 -11.5t-39.5 -22.5t-15 -35.5q0 -19 13 -30.5t35.5 -18t54 -9t69.5 -2.5q37 0 69 2.5t55 9t36 18t13 30.5zM556 677l-310 -378h-100l302 361h-368v70h476v-53z" />
    <glyph glyph-name="minus" unicode="&#x2212;" horiz-adv-x="402" 
d="M373 327h-344v74h344v-74z" />
    <glyph glyph-name="notequal" unicode="&#x2260;" horiz-adv-x="398" 
d="M370 422h-129l-34 -113h163v-75h-185l-29 -94h-53l29 94h-106v75h128l34 113h-162v75h184l25 83h53l-25 -83h107v-75z" />
    <glyph glyph-name="glyph388" horiz-adv-x="721" 
 />
    </font>
</defs>
</svg>
